%TF.GenerationSoftware,KiCad,Pcbnew,10.0.1*%
%TF.CreationDate,2026-06-16T09:21:58+03:00*%
%TF.ProjectId,va5pcb,76613570-6362-42e6-9b69-6361645f7063,rev?*%
%TF.SameCoordinates,Original*%
%TF.FileFunction,Copper,L1,Top*%
%TF.FilePolarity,Positive*%
%FSLAX46Y46*%
G04 Gerber Fmt 4.6, Leading zero omitted, Abs format (unit mm)*
G04 Created by KiCad (PCBNEW 10.0.1) date 2026-06-16 09:21:58*
%MOMM*%
%LPD*%
G01*
G04 APERTURE LIST*
G04 Aperture macros list*
%AMRoundRect*
0 Rectangle with rounded corners*
0 $1 Rounding radius*
0 $2 $3 $4 $5 $6 $7 $8 $9 X,Y pos of 4 corners*
0 Add a 4 corners polygon primitive as box body*
4,1,4,$2,$3,$4,$5,$6,$7,$8,$9,$2,$3,0*
0 Add four circle primitives for the rounded corners*
1,1,$1+$1,$2,$3*
1,1,$1+$1,$4,$5*
1,1,$1+$1,$6,$7*
1,1,$1+$1,$8,$9*
0 Add four rect primitives between the rounded corners*
20,1,$1+$1,$2,$3,$4,$5,0*
20,1,$1+$1,$4,$5,$6,$7,0*
20,1,$1+$1,$6,$7,$8,$9,0*
20,1,$1+$1,$8,$9,$2,$3,0*%
%AMRotRect*
0 Rectangle, with rotation*
0 The origin of the aperture is its center*
0 $1 length*
0 $2 width*
0 $3 Rotation angle, in degrees counterclockwise*
0 Add horizontal line*
21,1,$1,$2,0,0,$3*%
G04 Aperture macros list end*
%TA.AperFunction,ComponentPad*%
%ADD10O,3.200000X1.900000*%
%TD*%
%TA.AperFunction,SMDPad,CuDef*%
%ADD11RoundRect,0.200000X-0.315337X-0.127229X0.023882X-0.339197X0.315337X0.127229X-0.023882X0.339197X0*%
%TD*%
%TA.AperFunction,ComponentPad*%
%ADD12R,1.700000X1.700000*%
%TD*%
%TA.AperFunction,ComponentPad*%
%ADD13C,1.700000*%
%TD*%
%TA.AperFunction,ComponentPad*%
%ADD14RotRect,1.700000X1.700000X157.000000*%
%TD*%
%TA.AperFunction,ComponentPad*%
%ADD15RotRect,1.700000X1.700000X67.000000*%
%TD*%
%TA.AperFunction,SMDPad,CuDef*%
%ADD16RoundRect,0.175000X-0.373624X-0.267685X-0.076807X-0.453156X0.373624X0.267685X0.076807X0.453156X0*%
%TD*%
%TA.AperFunction,SMDPad,CuDef*%
%ADD17RoundRect,0.190000X0.378396X0.247015X0.056138X0.448384X-0.378396X-0.247015X-0.056138X-0.448384X0*%
%TD*%
%TA.AperFunction,SMDPad,CuDef*%
%ADD18RoundRect,0.200000X0.381577X0.233235X0.042358X0.445203X-0.381577X-0.233235X-0.042358X-0.445203X0*%
%TD*%
%TA.AperFunction,SMDPad,CuDef*%
%ADD19RoundRect,0.175000X0.373624X0.267685X0.076807X0.453156X-0.373624X-0.267685X-0.076807X-0.453156X0*%
%TD*%
%TA.AperFunction,SMDPad,CuDef*%
%ADD20RoundRect,0.190000X-0.378396X-0.247015X-0.056138X-0.448384X0.378396X0.247015X0.056138X0.448384X0*%
%TD*%
%TA.AperFunction,SMDPad,CuDef*%
%ADD21RoundRect,0.200000X-0.381577X-0.233235X-0.042358X-0.445203X0.381577X0.233235X0.042358X0.445203X0*%
%TD*%
%TA.AperFunction,SMDPad,CuDef*%
%ADD22RoundRect,0.250000X-0.776447X-0.015973X0.326016X-0.704868X0.776447X0.015973X-0.326016X0.704868X0*%
%TD*%
%TA.AperFunction,SMDPad,CuDef*%
%ADD23RoundRect,0.250000X-0.816191X-0.079577X0.286272X-0.768472X0.816191X0.079577X-0.286272X0.768472X0*%
%TD*%
%TA.AperFunction,ViaPad*%
%ADD24C,0.600000*%
%TD*%
%TA.AperFunction,Conductor*%
%ADD25C,0.200000*%
%TD*%
%TA.AperFunction,Conductor*%
%ADD26C,0.600000*%
%TD*%
G04 APERTURE END LIST*
D10*
%TO.P,SW1,1*%
%TO.N,PTT_BTN*%
X50000000Y12500000D03*
X62500000Y12500000D03*
%TO.P,SW1,2*%
%TO.N,GND*%
X50000000Y7500000D03*
X62500000Y7500000D03*
%TD*%
D11*
%TO.P,R1,1*%
%TO.N,CC1*%
X-31484340Y-48714117D03*
%TO.P,R1,2*%
%TO.N,GND*%
X-30085060Y-49588483D03*
%TD*%
D12*
%TO.P,J5,1*%
%TO.N,5V*%
X22380000Y51310000D03*
D13*
%TO.P,J5,2*%
%TO.N,GND*%
X24920000Y51310000D03*
%TO.P,J5,3*%
%TO.N,AUDIO_MAX_SD*%
X27460000Y51310000D03*
%TO.P,J5,4*%
%TO.N,MAX_GAIN_AUX*%
X30000000Y51310000D03*
%TO.P,J5,5*%
%TO.N,I2S_DOUT_OUT*%
X32540000Y51310000D03*
%TO.P,J5,6*%
%TO.N,I2S_BCLK_OUT*%
X35080000Y51310000D03*
%TO.P,J5,7*%
%TO.N,I2S_LRCLK_OUT*%
X37620000Y51310000D03*
%TD*%
D14*
%TO.P,J6,1*%
%TO.N,GND*%
X42888400Y-26036000D03*
D13*
%TO.P,J6,2*%
X43880857Y-23697918D03*
%TO.P,J6,3*%
%TO.N,AUDIO_PCM_XSMT*%
X44873314Y-21359835D03*
%TO.P,J6,4*%
%TO.N,GND*%
X45865771Y-19021753D03*
%TO.P,J6,5*%
%TO.N,3V3*%
X46858228Y-16683671D03*
%TO.P,J6,6*%
%TO.N,GND*%
X47850685Y-14345588D03*
%TO.P,J6,7*%
%TO.N,N/C*%
X48843142Y-12007506D03*
%TO.P,J6,8*%
%TO.N,GND*%
X49835599Y-9669424D03*
%TO.P,J6,9*%
%TO.N,N/C*%
X50828057Y-7331340D03*
%TD*%
D15*
%TO.P,J7,1*%
%TO.N,PCM_SCK_AUX*%
X39911000Y-33050300D03*
D13*
%TO.P,J7,2*%
%TO.N,I2S_BCLK_OUT*%
X42249082Y-34042757D03*
%TO.P,J7,3*%
%TO.N,I2S_DOUT_OUT*%
X44587165Y-35035214D03*
%TO.P,J7,4*%
%TO.N,I2S_LRCLK_OUT*%
X46925247Y-36027671D03*
%TO.P,J7,5*%
%TO.N,GND*%
X49263329Y-37020128D03*
%TO.P,J7,6*%
%TO.N,5V*%
X51601412Y-38012585D03*
%TD*%
D12*
%TO.P,J11,1*%
%TO.N,PCM_SCK_AUX*%
X28730000Y31000000D03*
D13*
%TO.P,J11,2*%
%TO.N,MAX_GAIN_AUX*%
X31270000Y31000000D03*
%TD*%
D12*
%TO.P,J4,1*%
%TO.N,I2S_SD_IN*%
X4000000Y-62540000D03*
D13*
%TO.P,J4,2*%
%TO.N,3V3*%
X4000000Y-60000000D03*
%TO.P,J4,3*%
%TO.N,GND*%
X4000000Y-57460000D03*
%TD*%
D16*
%TO.P,J12,A5*%
%TO.N,CC1*%
X-31713044Y-50929535D03*
D17*
%TO.P,J12,A9*%
%TO.N,5V*%
X-29999987Y-51999971D03*
D18*
%TO.P,J12,A12*%
%TO.N,GND*%
X-28956888Y-52651772D03*
D19*
%TO.P,J12,B5*%
%TO.N,CC2*%
X-30864996Y-51459454D03*
D20*
%TO.P,J12,B9*%
%TO.N,5V*%
X-32578053Y-50389017D03*
D21*
%TO.P,J12,B12*%
%TO.N,GND*%
X-33621152Y-49737216D03*
D22*
%TO.P,J12,SH*%
X-35664412Y-48525301D03*
D23*
X-37561523Y-51561313D03*
D22*
X-26971919Y-53956973D03*
D23*
X-28869030Y-56992985D03*
%TD*%
D12*
%TO.P,J13,1*%
%TO.N,EXP_GPIO15*%
X-25400000Y48260000D03*
D13*
%TO.P,J13,2*%
%TO.N,EXP_GPIO16*%
X-25400000Y45720000D03*
%TO.P,J13,3*%
%TO.N,EXP_GPIO18*%
X-25400000Y43180000D03*
%TO.P,J13,4*%
%TO.N,EXP_GPIO8*%
X-25400000Y40640000D03*
%TD*%
D12*
%TO.P,J3,1*%
%TO.N,I2S_SCK_IN*%
X-4000000Y-62540000D03*
D13*
%TO.P,J3,2*%
%TO.N,I2S_WS_IN*%
X-4000000Y-60000000D03*
%TO.P,J3,3*%
%TO.N,GND*%
X-4000000Y-57460000D03*
%TD*%
D12*
%TO.P,J1,1*%
%TO.N,3V3*%
X-56700000Y30670000D03*
D13*
%TO.P,J1,2*%
X-56700000Y28130000D03*
%TO.P,J1,3*%
%TO.N,EN_RST*%
X-56700000Y25590000D03*
%TO.P,J1,4*%
%TO.N,TFT_DC*%
X-56700000Y23050000D03*
%TO.P,J1,5*%
%TO.N,TFT_CS*%
X-56700000Y20510000D03*
%TO.P,J1,6*%
%TO.N,TFT_SCLK*%
X-56700000Y17970000D03*
%TO.P,J1,7*%
%TO.N,TFT_MOSI*%
X-56700000Y15430000D03*
%TO.P,J1,8*%
%TO.N,EXP_GPIO15*%
X-56700000Y12890000D03*
%TO.P,J1,9*%
%TO.N,EXP_GPIO16*%
X-56700000Y10350000D03*
%TO.P,J1,10*%
%TO.N,I2S_DOUT_OUT*%
X-56700000Y7810000D03*
%TO.P,J1,11*%
%TO.N,EXP_GPIO18*%
X-56700000Y5270000D03*
%TO.P,J1,12*%
%TO.N,EXP_GPIO8*%
X-56700000Y2730000D03*
%TO.P,J1,13*%
%TO.N,N/C*%
X-56700000Y190000D03*
%TO.P,J1,14*%
X-56700000Y-2350000D03*
%TO.P,J1,15*%
%TO.N,EXP_GPIO9*%
X-56700000Y-4890000D03*
%TO.P,J1,16*%
%TO.N,EXP_GPIO10*%
X-56700000Y-7430000D03*
%TO.P,J1,17*%
%TO.N,EXP_GPIO11*%
X-56700000Y-9970000D03*
%TO.P,J1,18*%
%TO.N,EXP_GPIO12*%
X-56700000Y-12510000D03*
%TO.P,J1,19*%
%TO.N,EXP_GPIO13*%
X-56700000Y-15050000D03*
%TO.P,J1,20*%
%TO.N,EXP_GPIO14*%
X-56700000Y-17590000D03*
%TO.P,J1,21*%
%TO.N,5V*%
X-56700000Y-20130000D03*
%TO.P,J1,22*%
%TO.N,GND*%
X-56700000Y-22670000D03*
%TD*%
D12*
%TO.P,J10,1*%
%TO.N,3V3*%
X-7620000Y-49460000D03*
D13*
%TO.P,J10,2*%
X-5080000Y-49460000D03*
%TO.P,J10,3*%
%TO.N,GND*%
X-2540000Y-49460000D03*
%TO.P,J10,4*%
X0Y-49460000D03*
%TO.P,J10,5*%
X2540000Y-49460000D03*
%TO.P,J10,6*%
%TO.N,5V*%
X5080000Y-49460000D03*
%TO.P,J10,7*%
X7620000Y-49460000D03*
%TD*%
D11*
%TO.P,R2,1*%
%TO.N,CC2*%
X-26396040Y-51893617D03*
%TO.P,R2,2*%
%TO.N,GND*%
X-24996760Y-52767983D03*
%TD*%
D12*
%TO.P,J2,1*%
%TO.N,GND*%
X-31300000Y30670000D03*
D13*
%TO.P,J2,2*%
%TO.N,N/C*%
X-31300000Y28130000D03*
%TO.P,J2,3*%
X-31300000Y25590000D03*
%TO.P,J2,4*%
%TO.N,PTT_BTN*%
X-31300000Y23050000D03*
%TO.P,J2,5*%
%TO.N,TFT_RST*%
X-31300000Y20510000D03*
%TO.P,J2,6*%
%TO.N,I2S_SCK_IN*%
X-31300000Y17970000D03*
%TO.P,J2,7*%
%TO.N,I2S_WS_IN*%
X-31300000Y15430000D03*
%TO.P,J2,8*%
%TO.N,I2S_SD_IN*%
X-31300000Y12890000D03*
%TO.P,J2,9*%
%TO.N,AUDIO_PCM_XSMT*%
X-31300000Y10350000D03*
%TO.P,J2,10*%
%TO.N,AUDIO_MAX_SD*%
X-31300000Y7810000D03*
%TO.P,J2,11*%
%TO.N,N/C*%
X-31300000Y5270000D03*
%TO.P,J2,12*%
X-31300000Y2730000D03*
%TO.P,J2,13*%
X-31300000Y190000D03*
%TO.P,J2,14*%
X-31300000Y-2350000D03*
%TO.P,J2,15*%
X-31300000Y-4890000D03*
%TO.P,J2,16*%
%TO.N,EXP_GPIO48*%
X-31300000Y-7430000D03*
%TO.P,J2,17*%
%TO.N,I2S_BCLK_OUT*%
X-31300000Y-9970000D03*
%TO.P,J2,18*%
%TO.N,I2S_LRCLK_OUT*%
X-31300000Y-12510000D03*
%TO.P,J2,19*%
%TO.N,N/C*%
X-31300000Y-15050000D03*
%TO.P,J2,20*%
%TO.N,EXP_GPIO19*%
X-31300000Y-17590000D03*
%TO.P,J2,21*%
%TO.N,GND*%
X-31300000Y-20130000D03*
%TO.P,J2,22*%
X-31300000Y-22670000D03*
%TD*%
D12*
%TO.P,J8,1*%
%TO.N,GND*%
X-8890000Y63000000D03*
D13*
%TO.P,J8,2*%
%TO.N,3V3*%
X-6350000Y63000000D03*
%TO.P,J8,3*%
%TO.N,TFT_SCLK*%
X-3810000Y63000000D03*
%TO.P,J8,4*%
%TO.N,TFT_MOSI*%
X-1270000Y63000000D03*
%TO.P,J8,5*%
%TO.N,TFT_RST*%
X1270000Y63000000D03*
%TO.P,J8,6*%
%TO.N,TFT_DC*%
X3810000Y63000000D03*
%TO.P,J8,7*%
%TO.N,TFT_CS*%
X6350000Y63000000D03*
%TO.P,J8,8*%
%TO.N,3V3*%
X8890000Y63000000D03*
%TD*%
D12*
%TO.P,J9,1*%
%TO.N,EXP_GPIO9*%
X-8890000Y-40730000D03*
D13*
%TO.P,J9,2*%
%TO.N,EXP_GPIO48*%
X-6350000Y-40730000D03*
%TO.P,J9,3*%
%TO.N,EXP_GPIO10*%
X-3810000Y-40730000D03*
%TO.P,J9,4*%
%TO.N,EXP_GPIO11*%
X-1270000Y-40730000D03*
%TO.P,J9,5*%
%TO.N,EXP_GPIO12*%
X1270000Y-40730000D03*
%TO.P,J9,6*%
%TO.N,EXP_GPIO13*%
X3810000Y-40730000D03*
%TO.P,J9,7*%
%TO.N,EXP_GPIO14*%
X6350000Y-40730000D03*
%TO.P,J9,8*%
%TO.N,EXP_GPIO19*%
X8890000Y-40730000D03*
%TD*%
D24*
%TO.N,GND*%
X-25897300Y-55031600D03*
X-34274900Y-48060700D03*
X-27295900Y-56589600D03*
X-34735400Y-50200600D03*
X-24996800Y-51659500D03*
X-27832400Y-52621200D03*
X-22291300Y31112000D03*
X-29355700Y-48859100D03*
X-36500700Y-52622100D03*
%TO.N,5V*%
X22340700Y-39973600D03*
%TO.N,AUDIO_MAX_SD*%
X22066300Y13264400D03*
%TO.N,I2S_BCLK_OUT*%
X42249100Y-28271100D03*
X48260000Y-24130000D03*
X45720000Y17780000D03*
%TO.N,3V3*%
X-25400000Y56515000D03*
X-1436500Y-60306300D03*
X-4680500Y-45883100D03*
X45049600Y-16166000D03*
X9030700Y-42834000D03*
X13228300Y-24982600D03*
X42380500Y-19344800D03*
X-61595000Y12065000D03*
X-17780000Y-49530000D03*
X59690000Y-19050000D03*
%TD*%
%TO.N,PTT_BTN*%
D25*
X62500000Y12500000D02*
X50000000Y12500000D01*
X50000000Y12500000D02*
X48098300Y12500000D01*
X37548300Y23050000D02*
X48098300Y12500000D01*
X-31300000Y23050000D02*
X37548300Y23050000D01*
%TO.N,GND*%
D26*
X-30085100Y-49588500D02*
X-29355700Y-48859100D01*
X-26971900Y-53957000D02*
X-25897300Y-55031600D01*
X-29506300Y31112000D02*
X-29948300Y30670000D01*
X-34735400Y-50200600D02*
X-34084600Y-50200600D01*
X-28465600Y-56589600D02*
X-28869000Y-56993000D01*
X-24996800Y-52768000D02*
X-24996800Y-51659500D01*
X-31300000Y30670000D02*
X-29948300Y30670000D01*
X-34274900Y-48060700D02*
X-35199800Y-48060700D01*
X-35199800Y-48060700D02*
X-35664400Y-48525300D01*
X-37561500Y-51561300D02*
X-36500700Y-52622100D01*
X-27295900Y-56589600D02*
X-28465600Y-56589600D01*
X-28926300Y-52621200D02*
X-28956900Y-52651800D01*
X-34084600Y-50200600D02*
X-33621200Y-49737200D01*
X-22291300Y31112000D02*
X-29506300Y31112000D01*
X-27832400Y-52621200D02*
X-28926300Y-52621200D01*
%TO.N,CC1*%
D25*
X-31713000Y-50929500D02*
X-31484300Y-50700800D01*
X-31484300Y-50700800D02*
X-31484300Y-48714100D01*
%TO.N,5V*%
D26*
X-56700000Y-20130000D02*
X-32499400Y-44330600D01*
X7620000Y-49460000D02*
X5080000Y-49460000D01*
X-32775900Y-50586800D02*
X-32775900Y-51529400D01*
X-30598100Y-52598100D02*
X-30000000Y-52000000D01*
X-32499400Y-44330600D02*
X-32499400Y-47642600D01*
X-32775900Y-51529400D02*
X-31707200Y-52598100D01*
X-31707200Y-52598100D02*
X-30598100Y-52598100D01*
X22340700Y-39973600D02*
X17106400Y-39973600D01*
X22944300Y-39370000D02*
X22340700Y-39973600D01*
X-32578100Y-50389000D02*
X-32775900Y-50586800D01*
X-32499400Y-47642600D02*
X-32499400Y-50310300D01*
X-32499400Y-47642600D02*
X3262600Y-47642600D01*
X17106400Y-39973600D02*
X7620000Y-49460000D01*
X3262600Y-47642600D02*
X5080000Y-49460000D01*
X-32499400Y-50310300D02*
X-32578100Y-50389000D01*
X50244000Y-39370000D02*
X22944300Y-39370000D01*
X51601400Y-38012600D02*
X50244000Y-39370000D01*
%TO.N,AUDIO_MAX_SD*%
D25*
X-32451700Y10917600D02*
X-31837300Y11532000D01*
X-31837300Y11532000D02*
X20333900Y11532000D01*
X-31300000Y7810000D02*
X-32451700Y8961700D01*
X20333900Y11532000D02*
X22066300Y13264400D01*
X-32451700Y8961700D02*
X-32451700Y10917600D01*
%TO.N,I2S_DOUT_OUT*%
X-40190000Y24320000D02*
X-27872900Y24320000D01*
X-27872900Y24320000D02*
X-4269500Y47923400D01*
X-4269500Y47923400D02*
X29153400Y47923400D01*
X29153400Y47923400D02*
X32540000Y51310000D01*
X-56700000Y7810000D02*
X-40190000Y24320000D01*
%TO.N,I2S_BCLK_OUT*%
X-14121700Y-27148300D02*
X41126300Y-27148300D01*
X41126300Y-27148300D02*
X42249100Y-28271100D01*
X48260000Y-24130000D02*
X44118900Y-28271100D01*
X35080000Y51310000D02*
X35080000Y44930000D01*
X44118900Y-28271100D02*
X42249100Y-28271100D01*
X45720000Y34290000D02*
X45720000Y17780000D01*
X-31300000Y-9970000D02*
X-14121700Y-27148300D01*
X35080000Y44930000D02*
X45720000Y34290000D01*
%TO.N,I2S_LRCLK_OUT*%
X46925200Y-35724600D02*
X46925200Y-36027700D01*
X-15843100Y-27966900D02*
X39167500Y-27966900D01*
X-31300000Y-12510000D02*
X-15843100Y-27966900D01*
X39167500Y-27966900D02*
X46925200Y-35724600D01*
%TO.N,AUDIO_PCM_XSMT*%
X12806300Y11080300D02*
X44873300Y-20986700D01*
X-30569700Y11080300D02*
X12806300Y11080300D01*
X-31300000Y10350000D02*
X-30569700Y11080300D01*
X44873300Y-20986700D02*
X44873300Y-21359800D01*
%TO.N,3V3*%
D26*
X-25400000Y56515000D02*
X-24222800Y56515000D01*
X36742700Y-24982600D02*
X13228300Y-24982600D01*
X-6350000Y63000000D02*
X-4955600Y64394400D01*
X-26035000Y56515000D02*
X-51880000Y30670000D01*
X47422700Y-17248200D02*
X46858200Y-16683700D01*
X-17780000Y-49530000D02*
X-13970000Y-49530000D01*
X46858200Y-16683700D02*
X45567300Y-16683700D01*
X58377300Y-17248200D02*
X47422700Y-17248200D01*
X-13900000Y-49460000D02*
X-7620000Y-49460000D01*
X-13970000Y-49530000D02*
X-13900000Y-49460000D01*
X-7620000Y-49460000D02*
X-5080000Y-49460000D01*
X-51880000Y30670000D02*
X-56700000Y30670000D01*
X-25400000Y56515000D02*
X-26035000Y56515000D01*
X-24222800Y56515000D02*
X-19558200Y61179600D01*
X-19558200Y61179600D02*
X-8170400Y61179600D01*
X-8170400Y61179600D02*
X-6350000Y63000000D01*
X45567300Y-16683700D02*
X45049600Y-16166000D01*
X7495600Y64394400D02*
X8890000Y63000000D01*
X9030700Y-42834000D02*
X5981600Y-45883100D01*
X-1436500Y-60306300D02*
X3693700Y-60306300D01*
X3693700Y-60306300D02*
X4000000Y-60000000D01*
X42380500Y-19344800D02*
X36742700Y-24982600D01*
X-4955600Y64394400D02*
X7495600Y64394400D01*
X5981600Y-45883100D02*
X-4680500Y-45883100D01*
%TO.N,CC2*%
D25*
X-30449000Y-51043500D02*
X-27246100Y-51043500D01*
X-30865000Y-51459500D02*
X-30449000Y-51043500D01*
X-27246100Y-51043500D02*
X-26396000Y-51893600D01*
%TO.N,TFT_DC*%
X-22482600Y36707400D02*
X3810000Y63000000D01*
X-56700000Y23050000D02*
X-43042600Y36707400D01*
X-43042600Y36707400D02*
X-22482600Y36707400D01*
%TO.N,TFT_CS*%
X-21769000Y34881000D02*
X-42329000Y34881000D01*
X6350000Y63000000D02*
X-21769000Y34881000D01*
X-42329000Y34881000D02*
X-56700000Y20510000D01*
%TO.N,TFT_MOSI*%
X-1270000Y63000000D02*
X-17220000Y47050000D01*
X-33352700Y47050000D02*
X-56082700Y24320000D01*
X-17220000Y47050000D02*
X-33352700Y47050000D01*
X-57899900Y23497000D02*
X-57899900Y16629900D01*
X-57899900Y16629900D02*
X-56700000Y15430000D01*
X-57076900Y24320000D02*
X-57899900Y23497000D01*
X-56082700Y24320000D02*
X-57076900Y24320000D01*
%TO.N,EXP_GPIO9*%
X-58271800Y-12627700D02*
X-57119500Y-13780000D01*
X-57119500Y-13780000D02*
X-55155100Y-13780000D01*
X-56700000Y-4890000D02*
X-58271800Y-6461800D01*
X-58271800Y-6461800D02*
X-58271800Y-12627700D01*
X-55155100Y-13780000D02*
X-28205100Y-40730000D01*
X-28205100Y-40730000D02*
X-8890000Y-40730000D01*
%TO.N,EXP_GPIO10*%
X-31331400Y-36249800D02*
X-56341200Y-11240000D01*
X-3810000Y-40730000D02*
X-8290200Y-36249800D01*
X-57852200Y-8582200D02*
X-56700000Y-7430000D01*
X-57092500Y-11240000D02*
X-57852200Y-10480300D01*
X-8290200Y-36249800D02*
X-31331400Y-36249800D01*
X-57852200Y-10480300D02*
X-57852200Y-8582200D01*
X-56341200Y-11240000D02*
X-57092500Y-11240000D01*
%TO.N,EXP_GPIO11*%
X-1270000Y-40730000D02*
X-8685000Y-33315000D01*
X-8685000Y-33315000D02*
X-33355000Y-33315000D01*
X-33355000Y-33315000D02*
X-56700000Y-9970000D01*
%TO.N,EXP_GPIO12*%
X-4308300Y-41883800D02*
X-5079900Y-41112200D01*
X-29777000Y-38481100D02*
X-55748100Y-12510000D01*
X-5079900Y-41112200D02*
X-5079900Y-40286600D01*
X-6885400Y-38481100D02*
X-29777000Y-38481100D01*
X116200Y-41883800D02*
X-4308300Y-41883800D01*
X-55748100Y-12510000D02*
X-56700000Y-12510000D01*
X1270000Y-40730000D02*
X116200Y-41883800D01*
X-5079900Y-40286600D02*
X-6885400Y-38481100D01*
%TO.N,EXP_GPIO13*%
X3810000Y-40730000D02*
X2254500Y-42285500D01*
X2254500Y-42285500D02*
X-29464500Y-42285500D01*
X-29464500Y-42285500D02*
X-56700000Y-15050000D01*
%TO.N,EXP_GPIO14*%
X-31601300Y-42688700D02*
X-56700000Y-17590000D01*
X6350000Y-40730000D02*
X4391300Y-42688700D01*
X4391300Y-42688700D02*
X-31601300Y-42688700D01*
%TO.N,EXP_GPIO19*%
X-3330200Y-28509800D02*
X8890000Y-40730000D01*
X-20380200Y-28509800D02*
X-3330200Y-28509800D01*
X-31300000Y-17590000D02*
X-20380200Y-28509800D01*
%TD*%
%TA.AperFunction,Conductor*%
%TO.N,3V3*%
G36*
X62173039Y-16529685D02*
G01*
X62218794Y-16582489D01*
X62230000Y-16634000D01*
X62230000Y-21466000D01*
X62210315Y-21533039D01*
X62157511Y-21578794D01*
X62106000Y-21590000D01*
X57274000Y-21590000D01*
X57206961Y-21570315D01*
X57161206Y-21517511D01*
X57150000Y-21466000D01*
X57150000Y-16634000D01*
X57169685Y-16566961D01*
X57222489Y-16521206D01*
X57274000Y-16510000D01*
X62106000Y-16510000D01*
X62173039Y-16529685D01*
G37*
%TD.AperFunction*%
%TD*%
%TA.AperFunction,Conductor*%
%TO.N,GND*%
G36*
X-64044049Y19050458D02*
G01*
X-64006639Y18991786D01*
X-64004939Y18985946D01*
X-64000000Y18951296D01*
X-64000000Y13893122D01*
X-64001261Y13875476D01*
X-64005500Y13846000D01*
X-64005500Y10284000D01*
X-64001513Y10246916D01*
X-64000710Y10239446D01*
X-64000000Y10226193D01*
X-64000000Y-7250000D01*
X-59014130Y-7250000D01*
X-58994427Y-7252833D01*
X-58979196Y-7255023D01*
X-58964197Y-7259427D01*
X-58905444Y-7297172D01*
X-58904257Y-7298541D01*
X-58876778Y-7353414D01*
X-58875132Y-7360979D01*
X-58872300Y-7387331D01*
X-58872300Y-12539290D01*
X-58872301Y-12539364D01*
X-58872301Y-12541048D01*
X-58872301Y-12548643D01*
X-58872301Y-12706757D01*
X-58831377Y-12859485D01*
X-58820274Y-12878716D01*
X-58752320Y-12996416D01*
X-58640516Y-13108220D01*
X-58640515Y-13108220D01*
X-58623077Y-13125658D01*
X-58623073Y-13125660D01*
X-57753802Y-13994931D01*
X-57732659Y-14023178D01*
X-57725168Y-14036898D01*
X-57710317Y-14105161D01*
X-57710788Y-14111737D01*
X-57734154Y-14175782D01*
X-57855047Y-14342179D01*
X-57855051Y-14342184D01*
X-57951557Y-14531588D01*
X-58017246Y-14733757D01*
X-58050500Y-14943713D01*
X-58050500Y-15156287D01*
X-58017246Y-15366243D01*
X-57951557Y-15568412D01*
X-57855051Y-15757816D01*
X-57855048Y-15757820D01*
X-57855042Y-15757827D01*
X-57854999Y-15757896D01*
X-57854516Y-15758553D01*
X-57833969Y-15786833D01*
X-57730109Y-15929786D01*
X-57730107Y-15929787D01*
X-57730064Y-15929846D01*
X-57729290Y-15930605D01*
X-57579792Y-16080104D01*
X-57579788Y-16080106D01*
X-57579786Y-16080109D01*
X-57429789Y-16189086D01*
X-57407816Y-16205051D01*
X-57405848Y-16206053D01*
X-57400360Y-16209946D01*
X-57398892Y-16211804D01*
X-57386955Y-16220940D01*
X-57376675Y-16230650D01*
X-57341455Y-16290994D01*
X-57344450Y-16360799D01*
X-57380618Y-16414509D01*
X-57387764Y-16420701D01*
X-57404128Y-16432686D01*
X-57407824Y-16434953D01*
X-57579782Y-16559886D01*
X-57730112Y-16710216D01*
X-57855042Y-16882169D01*
X-57855060Y-16882200D01*
X-57855182Y-16882442D01*
X-57951557Y-17071588D01*
X-58017246Y-17273757D01*
X-58050500Y-17483713D01*
X-58050500Y-17696287D01*
X-58017246Y-17906243D01*
X-57951557Y-18108412D01*
X-57855051Y-18297816D01*
X-57855048Y-18297820D01*
X-57855042Y-18297827D01*
X-57854999Y-18297896D01*
X-57854516Y-18298553D01*
X-57796332Y-18378636D01*
X-57730109Y-18469786D01*
X-57730107Y-18469787D01*
X-57730064Y-18469846D01*
X-57729290Y-18470605D01*
X-57579792Y-18620104D01*
X-57579788Y-18620106D01*
X-57579786Y-18620109D01*
X-57483248Y-18690247D01*
X-57407816Y-18745051D01*
X-57405543Y-18746208D01*
X-57399628Y-18750469D01*
X-57398143Y-18752377D01*
X-57386955Y-18760940D01*
X-57376674Y-18770651D01*
X-57341455Y-18830994D01*
X-57344450Y-18900799D01*
X-57380618Y-18954509D01*
X-57387764Y-18960701D01*
X-57404128Y-18972686D01*
X-57407824Y-18974953D01*
X-57579782Y-19099886D01*
X-57730112Y-19250216D01*
X-57855042Y-19422169D01*
X-57855060Y-19422200D01*
X-57855182Y-19422442D01*
X-57951557Y-19611588D01*
X-58017246Y-19813757D01*
X-58050500Y-20023713D01*
X-58050500Y-20236287D01*
X-58017246Y-20446243D01*
X-57951557Y-20648412D01*
X-57855051Y-20837816D01*
X-57852430Y-20841423D01*
X-57730122Y-21009768D01*
X-57730066Y-21009844D01*
X-57729290Y-21010605D01*
X-57579792Y-21160104D01*
X-57579788Y-21160106D01*
X-57579786Y-21160109D01*
X-57429789Y-21269086D01*
X-57407816Y-21285051D01*
X-57218412Y-21381557D01*
X-57016243Y-21447246D01*
X-56806287Y-21480500D01*
X-56806286Y-21480500D01*
X-56593717Y-21480500D01*
X-56593714Y-21480500D01*
X-56593713Y-21480500D01*
X-56576919Y-21477839D01*
X-56541636Y-21477335D01*
X-56519542Y-21480190D01*
X-56465439Y-21500812D01*
X-56461755Y-21503331D01*
X-56455972Y-21508128D01*
X-56455581Y-21508301D01*
X-56455355Y-21508640D01*
X-56444076Y-21517999D01*
X-33348822Y-44613254D01*
X-33327672Y-44641509D01*
X-33315066Y-44664597D01*
X-33299900Y-44724020D01*
X-33299900Y-49829657D01*
X-33304702Y-49863830D01*
X-33313939Y-49896044D01*
X-33327976Y-49927569D01*
X-33398409Y-50040287D01*
X-33398409Y-50040288D01*
X-33570661Y-50315949D01*
X-33571461Y-50317188D01*
X-33571593Y-50317441D01*
X-33571595Y-50317444D01*
X-33571598Y-50317451D01*
X-33571604Y-50317460D01*
X-33571629Y-50317510D01*
X-33571983Y-50318187D01*
X-33572004Y-50318227D01*
X-33572856Y-50319857D01*
X-33573341Y-50320899D01*
X-33603102Y-50379795D01*
X-33603103Y-50379798D01*
X-33603105Y-50379802D01*
X-33603106Y-50379807D01*
X-33603107Y-50379809D01*
X-33645634Y-50541995D01*
X-33645634Y-50541999D01*
X-33645635Y-50542002D01*
X-33648112Y-50709668D01*
X-33610391Y-50873053D01*
X-33610388Y-50873058D01*
X-33596355Y-50900783D01*
X-33586379Y-50927989D01*
X-33579786Y-50955614D01*
X-33576400Y-50984392D01*
X-33576400Y-51450558D01*
X-33576400Y-51608242D01*
X-33545637Y-51762897D01*
X-33485294Y-51908579D01*
X-33397689Y-52039689D01*
X-32328989Y-53108389D01*
X-32217489Y-53219889D01*
X-32086379Y-53307494D01*
X-31940697Y-53367837D01*
X-31798014Y-53396218D01*
X-31790164Y-53398600D01*
X-30519256Y-53398600D01*
X-30519255Y-53398600D01*
X-30514347Y-53397803D01*
X-30511613Y-53397079D01*
X-30364603Y-53367837D01*
X-30364598Y-53367835D01*
X-30218927Y-53307497D01*
X-30218914Y-53307490D01*
X-30087811Y-53219889D01*
X-30087807Y-53219886D01*
X-30053042Y-53185121D01*
X-30025482Y-53164352D01*
X-29996175Y-53148106D01*
X-29963956Y-53135739D01*
X-29885912Y-53117721D01*
X-29819105Y-53102298D01*
X-29819097Y-53102294D01*
X-29669494Y-53026573D01*
X-29669486Y-53026568D01*
X-29610035Y-52975445D01*
X-29542356Y-52917247D01*
X-29542351Y-52917242D01*
X-29501536Y-52863455D01*
X-29500416Y-52862035D01*
X-29500115Y-52861585D01*
X-29125016Y-52261297D01*
X-29125015Y-52261295D01*
X-29006445Y-52071544D01*
X-29006443Y-52071540D01*
X-29006435Y-52071527D01*
X-28974937Y-52009192D01*
X-28974934Y-52009183D01*
X-28974932Y-52009178D01*
X-28974923Y-52009148D01*
X-28932404Y-51846986D01*
X-28932403Y-51846983D01*
X-28932403Y-51846971D01*
X-28931473Y-51784006D01*
X-28931474Y-51784003D01*
X-28929780Y-51773339D01*
X-28925938Y-51749145D01*
X-28925564Y-51747938D01*
X-28921312Y-51734210D01*
X-28882679Y-51675998D01*
X-28882659Y-51675981D01*
X-28880901Y-51674503D01*
X-28826567Y-51648058D01*
X-28819818Y-51646642D01*
X-28794356Y-51644000D01*
X-27564027Y-51644000D01*
X-27531796Y-51648262D01*
X-27530440Y-51648626D01*
X-27516763Y-51652643D01*
X-27510290Y-51654050D01*
X-27507396Y-51654830D01*
X-27480073Y-51671527D01*
X-27451969Y-51686865D01*
X-27432500Y-51706334D01*
X-27411354Y-51734581D01*
X-27402251Y-51751250D01*
X-27387108Y-51813293D01*
X-27387321Y-51823409D01*
X-27391347Y-51852240D01*
X-27410546Y-51925455D01*
X-27413057Y-52095549D01*
X-27374791Y-52261300D01*
X-27297969Y-52413079D01*
X-27187055Y-52542061D01*
X-27130599Y-52584902D01*
X-26695354Y-52856874D01*
X-26632099Y-52888836D01*
X-26467550Y-52931982D01*
X-26318717Y-52934180D01*
X-26297457Y-52934494D01*
X-26297456Y-52934493D01*
X-26297456Y-52934494D01*
X-26297454Y-52934493D01*
X-26294987Y-52934530D01*
X-26287869Y-52932280D01*
X-26212315Y-52914837D01*
X-26131706Y-52896228D01*
X-26131704Y-52896227D01*
X-26064151Y-52862035D01*
X-25979926Y-52819405D01*
X-25979923Y-52819403D01*
X-25979920Y-52819401D01*
X-25979917Y-52819399D01*
X-25850945Y-52708494D01*
X-25808105Y-52652040D01*
X-25808100Y-52652033D01*
X-25808098Y-52652030D01*
X-25808095Y-52652026D01*
X-25678997Y-52445426D01*
X-25456649Y-52089595D01*
X-25455315Y-52086954D01*
X-25452909Y-52082193D01*
X-25424681Y-52026329D01*
X-25424406Y-52025282D01*
X-25420185Y-52009187D01*
X-25381534Y-51861784D01*
X-25381533Y-51861775D01*
X-25381532Y-51861759D01*
X-25379022Y-51691719D01*
X-25379022Y-51691684D01*
X-25417259Y-51526058D01*
X-25417259Y-51526056D01*
X-25417287Y-51525938D01*
X-25417288Y-51525936D01*
X-25417289Y-51525934D01*
X-25440226Y-51480616D01*
X34534815Y-51480616D01*
X34534815Y-51528328D01*
X34534815Y-51732540D01*
X34552940Y-51846971D01*
X34552942Y-51846986D01*
X34574225Y-51981364D01*
X34621421Y-52126619D01*
X34652075Y-52220961D01*
X34766447Y-52445426D01*
X34914516Y-52649227D01*
X34914520Y-52649232D01*
X34914525Y-52649238D01*
X35092653Y-52827366D01*
X35092657Y-52827369D01*
X35092660Y-52827372D01*
X35092665Y-52827376D01*
X35270432Y-52956530D01*
X35296470Y-52975448D01*
X35396799Y-53026568D01*
X35514487Y-53086534D01*
X35516080Y-53087466D01*
X35519793Y-53089265D01*
X35521790Y-53090258D01*
X35525558Y-53091321D01*
X35559342Y-53102298D01*
X35760530Y-53167668D01*
X36009353Y-53207078D01*
X36009354Y-53207078D01*
X36261276Y-53207078D01*
X36261277Y-53207078D01*
X36510100Y-53167668D01*
X36749694Y-53089819D01*
X36974160Y-52975448D01*
X37177971Y-52827371D01*
X37356108Y-52649234D01*
X37504185Y-52445423D01*
X37618556Y-52220957D01*
X37696405Y-51981363D01*
X37735815Y-51732540D01*
X37735815Y-51480616D01*
X37696405Y-51231793D01*
X37696404Y-51231789D01*
X37696404Y-51231788D01*
X37621167Y-51000235D01*
X37618556Y-50992199D01*
X37618554Y-50992196D01*
X37618554Y-50992194D01*
X37616315Y-50987800D01*
X37616005Y-50987005D01*
X37615271Y-50985750D01*
X37557848Y-50873053D01*
X37504185Y-50767733D01*
X37463371Y-50711557D01*
X37356113Y-50563928D01*
X37356109Y-50563923D01*
X37356106Y-50563920D01*
X37356103Y-50563916D01*
X37177975Y-50385788D01*
X37177970Y-50385784D01*
X37177969Y-50385783D01*
X37177964Y-50385779D01*
X37060777Y-50300638D01*
X36984760Y-50245409D01*
X36984758Y-50245408D01*
X36974163Y-50237710D01*
X36974162Y-50237709D01*
X36974160Y-50237708D01*
X36904062Y-50201991D01*
X36819223Y-50158763D01*
X36749700Y-50123339D01*
X36749699Y-50123338D01*
X36749698Y-50123338D01*
X36665802Y-50096078D01*
X36510102Y-50045488D01*
X36477269Y-50040288D01*
X36477263Y-50040287D01*
X36261277Y-50006078D01*
X36261276Y-50006078D01*
X36009354Y-50006078D01*
X36009353Y-50006078D01*
X35926411Y-50019214D01*
X35760527Y-50045488D01*
X35760524Y-50045488D01*
X35520934Y-50123337D01*
X35520931Y-50123338D01*
X35366568Y-50201991D01*
X35296462Y-50237712D01*
X35092682Y-50385766D01*
X35092653Y-50385788D01*
X34914525Y-50563916D01*
X34914503Y-50563945D01*
X34766449Y-50767725D01*
X34652074Y-50992196D01*
X34574225Y-51231788D01*
X34572106Y-51245172D01*
X34534815Y-51480616D01*
X-25440226Y-51480616D01*
X-25491535Y-51379243D01*
X-25494036Y-51374301D01*
X-25494036Y-51374299D01*
X-25494104Y-51374163D01*
X-25494944Y-51372997D01*
X-25497151Y-51370619D01*
X-25512329Y-51352967D01*
X-25605021Y-51245176D01*
X-25605022Y-51245174D01*
X-25605024Y-51245173D01*
X-25661475Y-51202335D01*
X-25661491Y-51202324D01*
X-26096730Y-50930355D01*
X-26159971Y-50898401D01*
X-26159983Y-50898397D01*
X-26293875Y-50863289D01*
X-26324526Y-50855252D01*
X-26324526Y-50855251D01*
X-26324530Y-50855251D01*
X-26324535Y-50855250D01*
X-26494615Y-50852738D01*
X-26499494Y-50853258D01*
X-26508093Y-50853871D01*
X-26519213Y-50854277D01*
X-26521748Y-50853632D01*
X-26525929Y-50853387D01*
X-26525881Y-50852580D01*
X-26527077Y-50852276D01*
X-26542414Y-50851778D01*
X-26542553Y-50852784D01*
X-26552114Y-50851471D01*
X-26551820Y-50849336D01*
X-26560903Y-50846078D01*
X-26579461Y-50844749D01*
X-26607850Y-50829241D01*
X-26609160Y-50828772D01*
X-26610435Y-50827830D01*
X-26611697Y-50826885D01*
X-26625054Y-50815310D01*
X-26636273Y-50804091D01*
X-26686571Y-50753793D01*
X-26748137Y-50692227D01*
X-26748136Y-50692226D01*
X-26765579Y-50674784D01*
X-26841280Y-50599083D01*
X-26877382Y-50562980D01*
X-26877385Y-50562977D01*
X-26877388Y-50562976D01*
X-27009134Y-50486912D01*
X-27009137Y-50486912D01*
X-27011214Y-50485712D01*
X-27014315Y-50483922D01*
X-27087110Y-50464417D01*
X-27087109Y-50464416D01*
X-27167043Y-50442999D01*
X-27325157Y-50442999D01*
X-27332753Y-50442999D01*
X-27334657Y-50442999D01*
X-27334720Y-50443000D01*
X-30361944Y-50443000D01*
X-30396123Y-50438196D01*
X-30428336Y-50428959D01*
X-30459866Y-50414922D01*
X-30476525Y-50404512D01*
X-30476535Y-50404506D01*
X-30537525Y-50373688D01*
X-30537527Y-50373687D01*
X-30537528Y-50373687D01*
X-30676910Y-50337140D01*
X-30693056Y-50331696D01*
X-30702793Y-50327648D01*
X-30702731Y-50327412D01*
X-30715405Y-50321732D01*
X-30721206Y-50319994D01*
X-30727108Y-50317541D01*
X-30749255Y-50299647D01*
X-30773531Y-50283887D01*
X-30842261Y-50203958D01*
X-30861312Y-50174012D01*
X-30865115Y-50165564D01*
X-30868219Y-50158668D01*
X-30872789Y-50148558D01*
X-30883800Y-50097478D01*
X-30883800Y-49505349D01*
X-30878996Y-49471172D01*
X-30869761Y-49438965D01*
X-30855724Y-49407439D01*
X-30822152Y-49353712D01*
X-30822152Y-49353711D01*
X-30544946Y-48910088D01*
X-30544943Y-48910083D01*
X-30512981Y-48846829D01*
X-30512979Y-48846823D01*
X-30512977Y-48846818D01*
X-30512971Y-48846795D01*
X-30469834Y-48682284D01*
X-30469833Y-48682275D01*
X-30469832Y-48682259D01*
X-30468369Y-48583096D01*
X-30466262Y-48569835D01*
X-30462831Y-48548240D01*
X-30458205Y-48533304D01*
X-30419591Y-48475112D01*
X-30417829Y-48473630D01*
X-30363455Y-48447157D01*
X-30356699Y-48445739D01*
X-30331252Y-48443100D01*
X-14167748Y-48443100D01*
X-14135080Y-48447796D01*
X-14132819Y-48448121D01*
X-14130743Y-48448730D01*
X-14125617Y-48450235D01*
X-14066838Y-48488006D01*
X-14037810Y-48551561D01*
X-14047750Y-48620720D01*
X-14093502Y-48673526D01*
X-14127985Y-48687453D01*
X-14127670Y-48688495D01*
X-14133495Y-48690262D01*
X-14133497Y-48690263D01*
X-14194152Y-48715387D01*
X-14217407Y-48722442D01*
X-14221327Y-48723221D01*
X-14240911Y-48727117D01*
X-14265101Y-48729500D01*
X-17858847Y-48729500D01*
X-18013471Y-48760257D01*
X-18013502Y-48760264D01*
X-18159165Y-48820598D01*
X-18159172Y-48820602D01*
X-18159185Y-48820609D01*
X-18159190Y-48820612D01*
X-18159191Y-48820613D01*
X-18290290Y-48908211D01*
X-18290291Y-48908212D01*
X-18290297Y-48908217D01*
X-18401781Y-49019701D01*
X-18401786Y-49019707D01*
X-18401789Y-49019711D01*
X-18489390Y-49150814D01*
X-18489397Y-49150827D01*
X-18489402Y-49150840D01*
X-18528789Y-49245928D01*
X-18528792Y-49245939D01*
X-18530483Y-49250020D01*
X-18549737Y-49296503D01*
X-18554274Y-49319313D01*
X-18578075Y-49438967D01*
X-18580065Y-49448972D01*
X-18580500Y-49450973D01*
X-18580500Y-49451155D01*
X-18580500Y-49451158D01*
X-18580500Y-49608842D01*
X-18549737Y-49763497D01*
X-18549735Y-49763501D01*
X-18489398Y-49909171D01*
X-18489397Y-49909172D01*
X-18489394Y-49909179D01*
X-18489390Y-49909184D01*
X-18489390Y-49909185D01*
X-18401791Y-50040287D01*
X-18401790Y-50040288D01*
X-18401789Y-50040289D01*
X-18290289Y-50151789D01*
X-18159179Y-50239394D01*
X-18013497Y-50299737D01*
X-17870814Y-50328118D01*
X-17862964Y-50330500D01*
X-13891156Y-50330500D01*
X-13891155Y-50330500D01*
X-13886252Y-50329704D01*
X-13883529Y-50328982D01*
X-13847079Y-50321732D01*
X-13736503Y-50299737D01*
X-13736498Y-50299735D01*
X-13675838Y-50274609D01*
X-13652592Y-50267557D01*
X-13629083Y-50262881D01*
X-13604899Y-50260500D01*
X-9110181Y-50260500D01*
X-9075247Y-50265523D01*
X-9060248Y-50269927D01*
X-9044473Y-50280062D01*
X-9038136Y-50281092D01*
X-9026269Y-50291758D01*
X-9001483Y-50307684D01*
X-8997992Y-50311712D01*
X-8992373Y-50322228D01*
X-8986174Y-50327801D01*
X-8972103Y-50360155D01*
X-8971687Y-50361673D01*
X-8967994Y-50381167D01*
X-8964091Y-50417483D01*
X-8913796Y-50552331D01*
X-8827546Y-50667546D01*
X-8712331Y-50753796D01*
X-8577483Y-50804091D01*
X-8517873Y-50810500D01*
X-6722128Y-50810499D01*
X-6673757Y-50805299D01*
X-6673756Y-50805300D01*
X-6673749Y-50805298D01*
X-6662516Y-50804091D01*
X-6527671Y-50753797D01*
X-6527664Y-50753793D01*
X-6422125Y-50674786D01*
X-6412456Y-50667548D01*
X-6412450Y-50667542D01*
X-6361202Y-50599083D01*
X-6326206Y-50552335D01*
X-6326202Y-50552328D01*
X-6285393Y-50442913D01*
X-6283419Y-50437621D01*
X-6266502Y-50406642D01*
X-6258184Y-50395531D01*
X-6202250Y-50353661D01*
X-6132561Y-50348678D01*
X-6128072Y-50349654D01*
X-6066758Y-50383136D01*
X-5959792Y-50490104D01*
X-5787816Y-50615051D01*
X-5598412Y-50711557D01*
X-5396243Y-50777246D01*
X-5186287Y-50810500D01*
X-5186286Y-50810500D01*
X-4973714Y-50810500D01*
X-4973713Y-50810500D01*
X-4763757Y-50777246D01*
X-4561588Y-50711557D01*
X-4372184Y-50615051D01*
X-4372181Y-50615049D01*
X-4372179Y-50615048D01*
X-4371703Y-50614702D01*
X-4371699Y-50614700D01*
X-4200216Y-50490112D01*
X-4049892Y-50339788D01*
X-4049891Y-50339787D01*
X-4049890Y-50339786D01*
X-3924951Y-50167820D01*
X-3920287Y-50158668D01*
X-3828443Y-49978412D01*
X-3828441Y-49978407D01*
X-3805944Y-49909171D01*
X-3762754Y-49776244D01*
X-3736241Y-49608846D01*
X-3729500Y-49566287D01*
X-3729500Y-49353713D01*
X-3733144Y-49330709D01*
X-3734949Y-49319310D01*
X-3762753Y-49143759D01*
X-3828445Y-48941580D01*
X-3924953Y-48752176D01*
X-3995986Y-48654407D01*
X-3999198Y-48648321D01*
X-4012457Y-48623191D01*
X-4016808Y-48610996D01*
X-4020796Y-48541240D01*
X-3986438Y-48480402D01*
X-3929820Y-48448962D01*
X-3920814Y-48446732D01*
X-3891023Y-48443100D01*
X2861830Y-48443100D01*
X2896762Y-48448121D01*
X2922006Y-48455534D01*
X2974752Y-48486830D01*
X3687550Y-49199628D01*
X3708698Y-49227880D01*
X3719373Y-49247430D01*
X3734490Y-49303296D01*
X3734618Y-49307753D01*
X3734134Y-49315284D01*
X3734225Y-49315703D01*
X3734082Y-49316084D01*
X3733143Y-49330709D01*
X3729500Y-49353713D01*
X3729500Y-49566287D01*
X3736241Y-49608846D01*
X3762754Y-49776244D01*
X3805944Y-49909171D01*
X3828441Y-49978407D01*
X3828443Y-49978412D01*
X3920287Y-50158668D01*
X3924951Y-50167820D01*
X4049890Y-50339786D01*
X4049891Y-50339787D01*
X4049892Y-50339788D01*
X4200216Y-50490112D01*
X4372169Y-50615042D01*
X4372177Y-50615047D01*
X4372179Y-50615048D01*
X4372181Y-50615049D01*
X4372182Y-50615050D01*
X4372200Y-50615060D01*
X4372442Y-50615182D01*
X4561588Y-50711557D01*
X4763757Y-50777246D01*
X4973713Y-50810500D01*
X4973714Y-50810500D01*
X5186286Y-50810500D01*
X5186287Y-50810500D01*
X5396243Y-50777246D01*
X5598412Y-50711557D01*
X5787816Y-50615051D01*
X5809789Y-50599086D01*
X5959786Y-50490109D01*
X5959786Y-50490108D01*
X5959842Y-50490067D01*
X5960550Y-50489345D01*
X6110104Y-50339792D01*
X6120099Y-50326034D01*
X6131763Y-50312221D01*
X6136280Y-50307602D01*
X6141248Y-50304816D01*
X6144725Y-50300701D01*
X6146914Y-50299014D01*
X6147325Y-50299548D01*
X6157900Y-50289981D01*
X6162275Y-50287169D01*
X6162280Y-50287166D01*
X6163231Y-50286432D01*
X6163455Y-50286337D01*
X6164457Y-50285632D01*
X6164610Y-50285850D01*
X6177665Y-50280341D01*
X6187601Y-50271754D01*
X6221472Y-50261854D01*
X6222135Y-50261759D01*
X6222271Y-50261740D01*
X6239764Y-50260500D01*
X6451276Y-50260500D01*
X6486207Y-50265522D01*
X6496429Y-50268523D01*
X6507581Y-50271797D01*
X6557798Y-50300635D01*
X6561047Y-50303702D01*
X6576205Y-50320948D01*
X6589895Y-50339791D01*
X6740216Y-50490112D01*
X6912169Y-50615042D01*
X6912177Y-50615047D01*
X6912179Y-50615048D01*
X6912181Y-50615049D01*
X6912182Y-50615050D01*
X6912200Y-50615060D01*
X6912442Y-50615182D01*
X7101588Y-50711557D01*
X7303757Y-50777246D01*
X7513713Y-50810500D01*
X7513714Y-50810500D01*
X7726286Y-50810500D01*
X7726287Y-50810500D01*
X7936243Y-50777246D01*
X8138412Y-50711557D01*
X8327816Y-50615051D01*
X8349789Y-50599086D01*
X8499786Y-50490109D01*
X8499786Y-50490108D01*
X8499844Y-50490066D01*
X8500605Y-50489290D01*
X8650104Y-50339792D01*
X8650106Y-50339788D01*
X8650109Y-50339786D01*
X8775048Y-50167820D01*
X8775047Y-50167820D01*
X8775051Y-50167816D01*
X8775053Y-50167810D01*
X8795445Y-50139744D01*
X8803730Y-50111529D01*
X8871557Y-49978412D01*
X8937246Y-49776243D01*
X8970500Y-49566287D01*
X8970500Y-49353713D01*
X8967838Y-49336911D01*
X8967335Y-49301634D01*
X8970190Y-49279539D01*
X8990806Y-49225447D01*
X8993329Y-49221758D01*
X8998131Y-49215969D01*
X8998303Y-49215580D01*
X8998641Y-49215355D01*
X9007999Y-49204076D01*
X17389054Y-40823023D01*
X17417304Y-40801875D01*
X17440396Y-40789267D01*
X17499821Y-40774100D01*
X22423664Y-40774100D01*
X22431514Y-40771718D01*
X22574197Y-40743337D01*
X22719879Y-40682994D01*
X22850989Y-40595389D01*
X22962489Y-40483889D01*
X22962489Y-40483888D01*
X23226958Y-40219418D01*
X23255203Y-40198275D01*
X23278295Y-40185667D01*
X23337720Y-40170500D01*
X44647228Y-40170500D01*
X44682153Y-40175520D01*
X44685357Y-40176460D01*
X44688452Y-40177369D01*
X44747233Y-40215139D01*
X44776263Y-40278692D01*
X44766326Y-40347851D01*
X44721354Y-40400154D01*
X44713457Y-40405314D01*
X44691098Y-40416872D01*
X44212837Y-40605369D01*
X43742737Y-40832437D01*
X43739812Y-40834107D01*
X43739332Y-40834406D01*
X43290855Y-41093881D01*
X43290851Y-41093884D01*
X42859728Y-41388231D01*
X42859711Y-41388243D01*
X42765582Y-41463369D01*
X42451675Y-41713903D01*
X42069027Y-42069041D01*
X41713931Y-42451642D01*
X41712522Y-42453228D01*
X41710861Y-42455486D01*
X41388241Y-42859714D01*
X41388234Y-42859724D01*
X41093881Y-43290855D01*
X40834406Y-43739332D01*
X40834107Y-43739812D01*
X40832437Y-43742737D01*
X40605372Y-44212831D01*
X40413955Y-44698501D01*
X40413950Y-44698513D01*
X40413947Y-44698523D01*
X40259227Y-45197108D01*
X40142064Y-45705846D01*
X40063106Y-46221927D01*
X40022807Y-46742382D01*
X40022807Y-46742394D01*
X40022807Y-46742400D01*
X40022807Y-46742401D01*
X40021377Y-47264454D01*
X40044096Y-47580330D01*
X40044096Y-47580331D01*
X40044095Y-47580331D01*
X40058827Y-47785156D01*
X40134952Y-48301640D01*
X40134958Y-48301667D01*
X40249321Y-48810979D01*
X40249330Y-48811018D01*
X40249335Y-48811033D01*
X40401305Y-49310412D01*
X40401313Y-49310433D01*
X40401317Y-49310445D01*
X40401318Y-49310446D01*
X40418100Y-49353719D01*
X40500536Y-49566286D01*
X40500535Y-49566286D01*
X40590074Y-49797165D01*
X40590081Y-49797182D01*
X40705870Y-50040292D01*
X40811885Y-50262882D01*
X40814567Y-50268512D01*
X40814573Y-50268523D01*
X41073514Y-50721787D01*
X41073517Y-50721792D01*
X41073538Y-50721826D01*
X41261392Y-51000235D01*
X41365509Y-51154540D01*
X41365527Y-51154566D01*
X41365532Y-51154573D01*
X41688943Y-51564377D01*
X41688950Y-51564385D01*
X42041955Y-51948936D01*
X42041971Y-51948953D01*
X42041978Y-51948960D01*
X42046513Y-51953215D01*
X42046514Y-51953216D01*
X42068552Y-51980785D01*
X42075620Y-51992805D01*
X42092633Y-52060571D01*
X42070418Y-52126619D01*
X42062536Y-52137914D01*
X42038568Y-52163574D01*
X41360493Y-52709001D01*
X41359335Y-52709921D01*
X41358247Y-52710775D01*
X41357045Y-52711707D01*
X40073340Y-53694102D01*
X40072105Y-53695035D01*
X40070890Y-53695941D01*
X40069720Y-53696802D01*
X38762781Y-54647743D01*
X38761572Y-54648612D01*
X38760316Y-54649503D01*
X38759078Y-54650370D01*
X37429476Y-55569445D01*
X37428217Y-55570304D01*
X37426843Y-55571229D01*
X37425614Y-55572045D01*
X36074294Y-56458607D01*
X36073042Y-56459418D01*
X36071729Y-56460257D01*
X36070453Y-56461062D01*
X34697885Y-57314796D01*
X34696572Y-57315602D01*
X34695304Y-57316369D01*
X34694051Y-57317116D01*
X33301240Y-58137394D01*
X33299960Y-58138137D01*
X33299063Y-58138651D01*
X33298672Y-58138875D01*
X33297417Y-58139583D01*
X31885171Y-58925928D01*
X31883929Y-58926610D01*
X31882641Y-58927308D01*
X31881245Y-58928054D01*
X30450330Y-59680035D01*
X30448987Y-59680730D01*
X30447646Y-59681414D01*
X30446317Y-59682082D01*
X29951322Y-59927121D01*
X28997699Y-60399195D01*
X28996400Y-60399827D01*
X28995068Y-60400468D01*
X28993726Y-60401102D01*
X27528195Y-61082957D01*
X27526825Y-61083584D01*
X27525500Y-61084181D01*
X27524135Y-61084787D01*
X26042483Y-61731016D01*
X26041075Y-61731619D01*
X26039737Y-61732183D01*
X26038381Y-61732746D01*
X24541567Y-62342928D01*
X24540151Y-62343495D01*
X24538702Y-62344065D01*
X24537327Y-62344596D01*
X23026283Y-62918355D01*
X23024901Y-62918870D01*
X23023500Y-62919383D01*
X23022065Y-62919899D01*
X21497501Y-63456967D01*
X21496128Y-63457442D01*
X21494706Y-63457923D01*
X21493288Y-63458395D01*
X19956129Y-63958441D01*
X19954671Y-63958905D01*
X19953237Y-63959352D01*
X19951831Y-63959781D01*
X18403138Y-64422462D01*
X18401696Y-64422883D01*
X18401077Y-64423060D01*
X18400213Y-64423307D01*
X18398813Y-64423697D01*
X16839279Y-64848809D01*
X16837895Y-64849177D01*
X16836404Y-64849564D01*
X16835015Y-64849916D01*
X15265654Y-65237174D01*
X15264251Y-65237511D01*
X15262788Y-65237854D01*
X15261271Y-65238200D01*
X13683069Y-65587368D01*
X13681555Y-65587693D01*
X13680138Y-65587988D01*
X13678715Y-65588276D01*
X12092418Y-65899186D01*
X12090931Y-65899467D01*
X12090043Y-65899630D01*
X12089495Y-65899731D01*
X12088053Y-65899986D01*
X10494818Y-66172410D01*
X10493329Y-66172655D01*
X10491821Y-66172894D01*
X10490347Y-66173119D01*
X8891002Y-66406921D01*
X8889538Y-66407126D01*
X8888001Y-66407332D01*
X8886492Y-66407525D01*
X7281979Y-66602567D01*
X7280446Y-66602744D01*
X7278904Y-66602912D01*
X7277455Y-66603061D01*
X5668679Y-66759233D01*
X5667161Y-66759371D01*
X5665673Y-66759497D01*
X5664202Y-66759613D01*
X4052016Y-66876830D01*
X4050556Y-66876927D01*
X4049110Y-66877015D01*
X4047576Y-66877099D01*
X2433065Y-66955280D01*
X2431545Y-66955344D01*
X2430106Y-66955396D01*
X2428628Y-66955441D01*
X812652Y-66994544D01*
X811176Y-66994571D01*
X809641Y-66994589D01*
X808188Y-66994598D01*
X-808188Y-66994598D01*
X-809641Y-66994589D01*
X-811176Y-66994571D01*
X-812652Y-66994544D01*
X-2428628Y-66955441D01*
X-2430106Y-66955396D01*
X-2431545Y-66955344D01*
X-2433065Y-66955280D01*
X-4047576Y-66877099D01*
X-4049110Y-66877015D01*
X-4050556Y-66876927D01*
X-4052016Y-66876830D01*
X-5664202Y-66759613D01*
X-5665673Y-66759497D01*
X-5667161Y-66759371D01*
X-5668679Y-66759233D01*
X-7277455Y-66603061D01*
X-7278904Y-66602912D01*
X-7280446Y-66602744D01*
X-7281979Y-66602567D01*
X-8886492Y-66407525D01*
X-8888001Y-66407332D01*
X-8889538Y-66407126D01*
X-8891002Y-66406921D01*
X-10490347Y-66173119D01*
X-10491821Y-66172894D01*
X-10493329Y-66172655D01*
X-10494818Y-66172410D01*
X-12088053Y-65899986D01*
X-12089495Y-65899731D01*
X-12090043Y-65899630D01*
X-12090931Y-65899467D01*
X-12092418Y-65899186D01*
X-13678715Y-65588276D01*
X-13680138Y-65587988D01*
X-13681555Y-65587693D01*
X-13683069Y-65587368D01*
X-15261271Y-65238200D01*
X-15262788Y-65237854D01*
X-15264251Y-65237511D01*
X-15265654Y-65237174D01*
X-16835015Y-64849916D01*
X-16836404Y-64849564D01*
X-16837895Y-64849177D01*
X-16839279Y-64848809D01*
X-18398813Y-64423697D01*
X-18400213Y-64423307D01*
X-18401077Y-64423060D01*
X-18401696Y-64422883D01*
X-18403138Y-64422462D01*
X-19951831Y-63959781D01*
X-19953237Y-63959352D01*
X-19954671Y-63958905D01*
X-19956129Y-63958441D01*
X-21493288Y-63458395D01*
X-21494706Y-63457923D01*
X-21496128Y-63457442D01*
X-21497501Y-63456967D01*
X-23022065Y-62919899D01*
X-23023500Y-62919383D01*
X-23024901Y-62918870D01*
X-23026283Y-62918355D01*
X-24537327Y-62344596D01*
X-24538702Y-62344065D01*
X-24540151Y-62343495D01*
X-24541567Y-62342928D01*
X-26038381Y-61732746D01*
X-26039737Y-61732183D01*
X-26041075Y-61731619D01*
X-26042483Y-61731016D01*
X-27524135Y-61084787D01*
X-27525500Y-61084181D01*
X-27526825Y-61083584D01*
X-27528195Y-61082957D01*
X-28993677Y-60401125D01*
X-28995028Y-60400487D01*
X-28996403Y-60399827D01*
X-28997756Y-60399167D01*
X-29804161Y-59999970D01*
X-29804163Y-59999969D01*
X-29816990Y-59993619D01*
X-29816992Y-59993618D01*
X-29951310Y-59927127D01*
X-29951311Y-59927127D01*
X-30018809Y-59893713D01*
X-5350500Y-59893713D01*
X-5350500Y-60106287D01*
X-5317246Y-60316243D01*
X-5251557Y-60518412D01*
X-5155051Y-60707816D01*
X-5030104Y-60879792D01*
X-4929169Y-60980725D01*
X-4923746Y-60987971D01*
X-4908023Y-61008973D01*
X-4901371Y-61021156D01*
X-4886521Y-61089427D01*
X-4910939Y-61154891D01*
X-4910943Y-61154898D01*
X-4913693Y-61158571D01*
X-4969621Y-61200435D01*
X-5021586Y-61219817D01*
X-5092328Y-61246202D01*
X-5092330Y-61246203D01*
X-5092332Y-61246204D01*
X-5092335Y-61246206D01*
X-5144803Y-61285484D01*
X-5207542Y-61332450D01*
X-5207544Y-61332452D01*
X-5207547Y-61332455D01*
X-5293793Y-61447664D01*
X-5293795Y-61447668D01*
X-5293796Y-61447669D01*
X-5344091Y-61582517D01*
X-5350500Y-61642127D01*
X-5350499Y-63437872D01*
X-5344091Y-63497483D01*
X-5293796Y-63632331D01*
X-5207546Y-63747546D01*
X-5092331Y-63833796D01*
X-4957483Y-63884091D01*
X-4897873Y-63890500D01*
X-3102128Y-63890499D01*
X-3053757Y-63885299D01*
X-3053756Y-63885300D01*
X-3053749Y-63885298D01*
X-3042516Y-63884091D01*
X-2907671Y-63833797D01*
X-2907664Y-63833793D01*
X-2792455Y-63747547D01*
X-2792452Y-63747544D01*
X-2792450Y-63747542D01*
X-2706205Y-63632333D01*
X-2706203Y-63632330D01*
X-2655906Y-63497478D01*
X-2650327Y-63445582D01*
X-2649500Y-63440745D01*
X-2649500Y-61642122D01*
X-2649659Y-61640192D01*
X-2649885Y-61638545D01*
X-2655908Y-61582516D01*
X-2706204Y-61447666D01*
X-2706205Y-61447665D01*
X-2792450Y-61332456D01*
X-2792456Y-61332450D01*
X-2907661Y-61246208D01*
X-2907673Y-61246200D01*
X-3022377Y-61203419D01*
X-3053355Y-61186503D01*
X-3064465Y-61178186D01*
X-3106336Y-61122252D01*
X-3108684Y-61089427D01*
X-3111321Y-61052568D01*
X-3111319Y-61052562D01*
X-3111320Y-61052561D01*
X-3111319Y-61052559D01*
X-3110346Y-61048085D01*
X-3076864Y-60986760D01*
X-2969892Y-60879788D01*
X-2969890Y-60879786D01*
X-2844951Y-60707820D01*
X-2833564Y-60685472D01*
X-2748445Y-60518418D01*
X-2710326Y-60401102D01*
X-2705141Y-60385144D01*
X-2682754Y-60316243D01*
X-2682753Y-60316239D01*
X-2682752Y-60316238D01*
X-2668662Y-60227273D01*
X-2237000Y-60227273D01*
X-2237000Y-60385143D01*
X-2233825Y-60401102D01*
X-2206237Y-60539797D01*
X-2145894Y-60685479D01*
X-2058289Y-60816589D01*
X-1946789Y-60928089D01*
X-1815679Y-61015694D01*
X-1669997Y-61076037D01*
X-1527314Y-61104418D01*
X-1519464Y-61106800D01*
X-1515344Y-61106800D01*
X-1515342Y-61106800D01*
X-1357658Y-61106800D01*
X2703502Y-61106800D01*
X2736015Y-61111474D01*
X2738429Y-61111821D01*
X2749282Y-61115007D01*
X2808063Y-61152777D01*
X2837092Y-61216331D01*
X2827155Y-61285484D01*
X2827153Y-61285487D01*
X2827153Y-61285490D01*
X2827151Y-61285491D01*
X2825595Y-61288901D01*
X2795444Y-61329190D01*
X2795581Y-61329327D01*
X2794632Y-61330275D01*
X2794014Y-61331102D01*
X2792456Y-61332452D01*
X2792446Y-61332463D01*
X2706207Y-61447661D01*
X2706204Y-61447667D01*
X2706203Y-61447667D01*
X2655908Y-61582516D01*
X2649500Y-61642125D01*
X2649500Y-63437876D01*
X2649659Y-63439806D01*
X2649885Y-63441454D01*
X2655907Y-63497482D01*
X2683690Y-63571971D01*
X2706202Y-63632328D01*
X2706203Y-63632330D01*
X2706204Y-63632332D01*
X2706205Y-63632333D01*
X2792450Y-63747542D01*
X2792452Y-63747544D01*
X2792455Y-63747547D01*
X2907664Y-63833793D01*
X2907671Y-63833797D01*
X3042517Y-63884091D01*
X3042516Y-63884091D01*
X3049444Y-63884835D01*
X3102127Y-63890500D01*
X4897872Y-63890499D01*
X4957483Y-63884091D01*
X5092331Y-63833796D01*
X5207546Y-63747546D01*
X5293796Y-63632331D01*
X5344091Y-63497483D01*
X5350500Y-63437873D01*
X5350499Y-61642128D01*
X5344091Y-61582517D01*
X5293796Y-61447669D01*
X5293795Y-61447668D01*
X5293793Y-61447664D01*
X5293782Y-61447649D01*
X5291392Y-61443929D01*
X5291391Y-61443928D01*
X5288489Y-61440579D01*
X5207547Y-61332455D01*
X5207544Y-61332452D01*
X5207542Y-61332450D01*
X5144803Y-61285484D01*
X5092335Y-61246206D01*
X5092332Y-61246204D01*
X5092330Y-61246203D01*
X5092328Y-61246202D01*
X4977621Y-61203419D01*
X4972156Y-61200435D01*
X4946642Y-61186502D01*
X4935531Y-61178184D01*
X4893661Y-61122250D01*
X4888678Y-61052561D01*
X4889654Y-61048072D01*
X4923136Y-60986758D01*
X5030104Y-60879792D01*
X5155051Y-60707816D01*
X5251557Y-60518412D01*
X5317246Y-60316243D01*
X5350500Y-60106287D01*
X5350500Y-59893713D01*
X5317246Y-59683757D01*
X5251557Y-59481588D01*
X5155051Y-59292184D01*
X5155049Y-59292181D01*
X5155048Y-59292179D01*
X5154702Y-59291703D01*
X5154700Y-59291699D01*
X5030112Y-59120216D01*
X4879788Y-58969892D01*
X4879786Y-58969890D01*
X4707820Y-58844951D01*
X4694167Y-58837994D01*
X4540245Y-58759567D01*
X4540240Y-58759565D01*
X4518414Y-58748444D01*
X4518413Y-58748443D01*
X4518412Y-58748443D01*
X4409210Y-58712961D01*
X4325074Y-58685623D01*
X4320552Y-58683770D01*
X4311362Y-58681600D01*
X4306599Y-58681226D01*
X4301832Y-58680471D01*
X4154957Y-58657208D01*
X4135489Y-58654124D01*
X4106290Y-58649500D01*
X4106287Y-58649500D01*
X3893713Y-58649500D01*
X3893709Y-58649500D01*
X3854776Y-58655666D01*
X3845042Y-58657208D01*
X3807654Y-58663129D01*
X3683763Y-58682752D01*
X3481582Y-58748445D01*
X3292182Y-58844949D01*
X3120210Y-58969892D01*
X2969892Y-59120210D01*
X2844950Y-59292180D01*
X2778698Y-59422209D01*
X2778697Y-59422210D01*
X2778697Y-59422211D01*
X2758361Y-59451057D01*
X2746640Y-59463467D01*
X2688878Y-59498020D01*
X2677939Y-59500979D01*
X2676029Y-59501496D01*
X2643645Y-59505800D01*
X-1515347Y-59505800D01*
X-1669971Y-59536557D01*
X-1670002Y-59536564D01*
X-1815665Y-59596898D01*
X-1815672Y-59596902D01*
X-1815685Y-59596909D01*
X-1815690Y-59596912D01*
X-1815691Y-59596913D01*
X-1946790Y-59684511D01*
X-1946791Y-59684512D01*
X-1946797Y-59684517D01*
X-2058281Y-59796001D01*
X-2058285Y-59796006D01*
X-2058286Y-59796007D01*
X-2058289Y-59796011D01*
X-2145890Y-59927114D01*
X-2145897Y-59927127D01*
X-2176069Y-59999970D01*
X-2206237Y-60072803D01*
X-2206238Y-60072810D01*
X-2212897Y-60106287D01*
X-2236565Y-60225272D01*
X-2237000Y-60227273D01*
X-2668662Y-60227273D01*
X-2664655Y-60201969D01*
X-2664455Y-60200712D01*
X-2664446Y-60200657D01*
X-2663332Y-60193620D01*
X-2663332Y-60193619D01*
X-2649500Y-60106286D01*
X-2649500Y-59893707D01*
X-2682752Y-59683759D01*
X-2748445Y-59481580D01*
X-2844949Y-59292182D01*
X-2969892Y-59120210D01*
X-3120210Y-58969892D01*
X-3292182Y-58844949D01*
X-3481580Y-58748445D01*
X-3590790Y-58712961D01*
X-3620259Y-58692809D01*
X-3854199Y-58655756D01*
X-3854200Y-58655757D01*
X-3893712Y-58649500D01*
X-3893713Y-58649500D01*
X-4106287Y-58649500D01*
X-4106291Y-58649500D01*
X-4154957Y-58657208D01*
X-4169644Y-58659534D01*
X-4198454Y-58664097D01*
X-4301835Y-58680471D01*
X-4301842Y-58680472D01*
X-4316239Y-58682753D01*
X-4316241Y-58682753D01*
X-4316243Y-58682754D01*
X-4329755Y-58687144D01*
X-4329770Y-58687148D01*
X-4475239Y-58734415D01*
X-4499734Y-58742374D01*
X-4506254Y-58743406D01*
X-4530571Y-58753479D01*
X-4535911Y-58757359D01*
X-4707820Y-58844951D01*
X-4879786Y-58969890D01*
X-4879788Y-58969892D01*
X-5030112Y-59120216D01*
X-5155042Y-59292169D01*
X-5155047Y-59292177D01*
X-5155048Y-59292179D01*
X-5155049Y-59292181D01*
X-5155060Y-59292200D01*
X-5155182Y-59292442D01*
X-5251557Y-59481588D01*
X-5317246Y-59683757D01*
X-5350500Y-59893713D01*
X-30018809Y-59893713D01*
X-30216181Y-59796007D01*
X-30216180Y-59796006D01*
X-30446316Y-59682082D01*
X-30447646Y-59681414D01*
X-30448987Y-59680730D01*
X-30450330Y-59680035D01*
X-31881245Y-58928054D01*
X-31882641Y-58927308D01*
X-31883929Y-58926610D01*
X-31885171Y-58925928D01*
X-33297417Y-58139583D01*
X-33298672Y-58138875D01*
X-33299063Y-58138651D01*
X-33299960Y-58138137D01*
X-33301240Y-58137394D01*
X-34694051Y-57317116D01*
X-34695304Y-57316369D01*
X-34696572Y-57315602D01*
X-34697885Y-57314796D01*
X-36070453Y-56461062D01*
X-36071729Y-56460257D01*
X-36073042Y-56459418D01*
X-36074294Y-56458607D01*
X-37425614Y-55572045D01*
X-37426843Y-55571229D01*
X-37428217Y-55570304D01*
X-37429476Y-55569445D01*
X-38759078Y-54650370D01*
X-38760316Y-54649503D01*
X-38761572Y-54648612D01*
X-38762781Y-54647743D01*
X-40069720Y-53696802D01*
X-40070890Y-53695941D01*
X-40072105Y-53695035D01*
X-40073340Y-53694102D01*
X-41357045Y-52711707D01*
X-41358247Y-52710775D01*
X-41359335Y-52709921D01*
X-41360493Y-52709001D01*
X-42038492Y-52163636D01*
X-42062569Y-52137820D01*
X-42070531Y-52126373D01*
X-42092651Y-52060098D01*
X-42075526Y-51992550D01*
X-42068524Y-51980684D01*
X-42046588Y-51953286D01*
X-42041983Y-51948965D01*
X-42041955Y-51948936D01*
X-41688950Y-51564385D01*
X-41688943Y-51564377D01*
X-41365532Y-51154573D01*
X-41365527Y-51154566D01*
X-41365509Y-51154540D01*
X-41261392Y-51000235D01*
X-41073538Y-50721826D01*
X-41073517Y-50721792D01*
X-41073514Y-50721787D01*
X-40814573Y-50268523D01*
X-40814567Y-50268512D01*
X-40811885Y-50262882D01*
X-40705870Y-50040292D01*
X-40590081Y-49797182D01*
X-40590074Y-49797165D01*
X-40500535Y-49566286D01*
X-40500536Y-49566286D01*
X-40418100Y-49353719D01*
X-40401318Y-49310446D01*
X-40401317Y-49310445D01*
X-40401313Y-49310433D01*
X-40401305Y-49310412D01*
X-40249335Y-48811033D01*
X-40249330Y-48811018D01*
X-40249321Y-48810979D01*
X-40134958Y-48301667D01*
X-40134952Y-48301640D01*
X-40058827Y-47785156D01*
X-40044095Y-47580331D01*
X-40044096Y-47580331D01*
X-40044096Y-47580330D01*
X-40021377Y-47264454D01*
X-40022807Y-46742401D01*
X-40022807Y-46742400D01*
X-40022807Y-46742394D01*
X-40022807Y-46742382D01*
X-40063106Y-46221927D01*
X-40142064Y-45705846D01*
X-40259227Y-45197108D01*
X-40413947Y-44698523D01*
X-40413950Y-44698513D01*
X-40413955Y-44698501D01*
X-40605372Y-44212831D01*
X-40832437Y-43742737D01*
X-40834107Y-43739812D01*
X-40834406Y-43739332D01*
X-41093881Y-43290855D01*
X-41388234Y-42859724D01*
X-41388241Y-42859714D01*
X-41710861Y-42455486D01*
X-41712522Y-42453228D01*
X-41713931Y-42451642D01*
X-42069027Y-42069041D01*
X-42451675Y-41713903D01*
X-42765582Y-41463369D01*
X-42859711Y-41388243D01*
X-42859728Y-41388231D01*
X-43290851Y-41093884D01*
X-43290855Y-41093881D01*
X-43739332Y-40834406D01*
X-43739812Y-40834107D01*
X-43742737Y-40832437D01*
X-44212837Y-40605369D01*
X-44691101Y-40416872D01*
X-44698502Y-40413955D01*
X-44698505Y-40413954D01*
X-44698513Y-40413950D01*
X-44698523Y-40413947D01*
X-45197108Y-40259227D01*
X-45705889Y-40142054D01*
X-45706473Y-40141924D01*
X-45708456Y-40141664D01*
X-45916633Y-40109815D01*
X-46221927Y-40063106D01*
X-46742393Y-40022807D01*
X-47003422Y-40022092D01*
X-47264447Y-40021377D01*
X-47264454Y-40021377D01*
X-47490067Y-40037604D01*
X-47628951Y-40047593D01*
X-47628951Y-40047592D01*
X-47785156Y-40058827D01*
X-48301640Y-40134952D01*
X-48301667Y-40134958D01*
X-48810979Y-40249321D01*
X-48811018Y-40249330D01*
X-48811033Y-40249335D01*
X-49310412Y-40401305D01*
X-49310438Y-40401314D01*
X-49333117Y-40410110D01*
X-49343020Y-40413951D01*
X-49343028Y-40413954D01*
X-49343033Y-40413955D01*
X-49797156Y-40590070D01*
X-49797169Y-40590076D01*
X-49797182Y-40590081D01*
X-49992268Y-40682997D01*
X-50215392Y-40789267D01*
X-50268512Y-40814567D01*
X-50268523Y-40814573D01*
X-50721787Y-41073514D01*
X-50721817Y-41073532D01*
X-51154553Y-41365517D01*
X-51154585Y-41365541D01*
X-51176732Y-41383020D01*
X-51176733Y-41383021D01*
X-51564377Y-41688943D01*
X-51564385Y-41688950D01*
X-51945246Y-42038568D01*
X-51948953Y-42041971D01*
X-51948960Y-42041978D01*
X-51951297Y-42044469D01*
X-51953215Y-42046513D01*
X-51953216Y-42046514D01*
X-51965830Y-42056597D01*
X-51980785Y-42068552D01*
X-51992805Y-42075620D01*
X-52060571Y-42092633D01*
X-52126619Y-42070418D01*
X-52137914Y-42062536D01*
X-52163574Y-42038568D01*
X-52709001Y-41360493D01*
X-52709921Y-41359335D01*
X-52710775Y-41358247D01*
X-52711707Y-41357045D01*
X-53694102Y-40073340D01*
X-53695035Y-40072105D01*
X-53695941Y-40070890D01*
X-53696802Y-40069720D01*
X-54647743Y-38762781D01*
X-54648612Y-38761572D01*
X-54649503Y-38760316D01*
X-54650370Y-38759078D01*
X-55569445Y-37429476D01*
X-55570304Y-37428217D01*
X-55571229Y-37426843D01*
X-55572045Y-37425614D01*
X-56458596Y-36074309D01*
X-56459368Y-36073118D01*
X-56460226Y-36071777D01*
X-56461016Y-36070526D01*
X-56461307Y-36070059D01*
X-56461337Y-36069948D01*
X-56461365Y-36069966D01*
X-56499066Y-36009353D01*
X-53207078Y-36009353D01*
X-53207078Y-36057065D01*
X-53207078Y-36261277D01*
X-53167668Y-36510100D01*
X-53089819Y-36749694D01*
X-52975448Y-36974160D01*
X-52827371Y-37177971D01*
X-52649234Y-37356108D01*
X-52445423Y-37504185D01*
X-52220957Y-37618556D01*
X-51981363Y-37696405D01*
X-51732540Y-37735815D01*
X-51732539Y-37735815D01*
X-51480617Y-37735815D01*
X-51480616Y-37735815D01*
X-51231793Y-37696405D01*
X-51231790Y-37696404D01*
X-51231788Y-37696404D01*
X-51000237Y-37621168D01*
X-51000232Y-37621166D01*
X-50992199Y-37618556D01*
X-50992196Y-37618554D01*
X-50992194Y-37618554D01*
X-50987798Y-37616314D01*
X-50987003Y-37616004D01*
X-50985751Y-37615271D01*
X-50947330Y-37595694D01*
X-50910761Y-37577062D01*
X-50910762Y-37577062D01*
X-50767733Y-37504185D01*
X-50660558Y-37426318D01*
X-50660557Y-37426317D01*
X-50660556Y-37426317D01*
X-50641298Y-37412325D01*
X-50563928Y-37356113D01*
X-50563923Y-37356109D01*
X-50563919Y-37356105D01*
X-50563916Y-37356103D01*
X-50385788Y-37177975D01*
X-50385783Y-37177969D01*
X-50385779Y-37177964D01*
X-50282935Y-37036411D01*
X-50237712Y-36974166D01*
X-50237710Y-36974163D01*
X-50123338Y-36749698D01*
X-50057180Y-36546085D01*
X-50045488Y-36510101D01*
X-50006078Y-36261275D01*
X-50006078Y-36009353D01*
X-50045488Y-35760527D01*
X-50045488Y-35760524D01*
X-50123337Y-35520934D01*
X-50123337Y-35520933D01*
X-50123338Y-35520931D01*
X-50237710Y-35296466D01*
X-50237709Y-35296466D01*
X-50237712Y-35296462D01*
X-50385766Y-35092682D01*
X-50385788Y-35092653D01*
X-50563916Y-34914525D01*
X-50563945Y-34914503D01*
X-50767725Y-34766449D01*
X-50837831Y-34730728D01*
X-50992194Y-34652075D01*
X-51009038Y-34646602D01*
X-51231789Y-34574225D01*
X-51418410Y-34544667D01*
X-51480616Y-34534815D01*
X-51480617Y-34534815D01*
X-51732539Y-34534815D01*
X-51732540Y-34534815D01*
X-51856951Y-34554520D01*
X-51981364Y-34574225D01*
X-51981367Y-34574225D01*
X-52164341Y-34633678D01*
X-52220961Y-34652075D01*
X-52220962Y-34652075D01*
X-52220963Y-34652076D01*
X-52375325Y-34730728D01*
X-52445052Y-34766256D01*
X-52445416Y-34766439D01*
X-52452980Y-34771892D01*
X-52453321Y-34772183D01*
X-52649227Y-34914516D01*
X-52649232Y-34914520D01*
X-52649233Y-34914521D01*
X-52649238Y-34914525D01*
X-52827366Y-35092653D01*
X-52827369Y-35092657D01*
X-52827372Y-35092660D01*
X-52827376Y-35092665D01*
X-52884362Y-35171100D01*
X-52975448Y-35296470D01*
X-53024763Y-35393257D01*
X-53039587Y-35422351D01*
X-53086532Y-35514484D01*
X-53087465Y-35516078D01*
X-53089251Y-35519765D01*
X-53090259Y-35521794D01*
X-53091322Y-35525560D01*
X-53167667Y-35760525D01*
X-53167667Y-35760526D01*
X-53167668Y-35760530D01*
X-53207078Y-36009353D01*
X-56499066Y-36009353D01*
X-57314796Y-34697885D01*
X-57315602Y-34696572D01*
X-57316369Y-34695304D01*
X-57317116Y-34694051D01*
X-58137394Y-33301240D01*
X-58138137Y-33299960D01*
X-58138875Y-33298672D01*
X-58139583Y-33297417D01*
X-58925928Y-31885171D01*
X-58926610Y-31883929D01*
X-58927308Y-31882641D01*
X-58928054Y-31881245D01*
X-59680035Y-30450330D01*
X-59680735Y-30448976D01*
X-59681402Y-30447668D01*
X-59682065Y-30446350D01*
X-60325476Y-29146619D01*
X-60325476Y-29146617D01*
X-60399194Y-28997698D01*
X-60399824Y-28996409D01*
X-60400471Y-28995060D01*
X-60401102Y-28993726D01*
X-61082957Y-27528195D01*
X-61083584Y-27526825D01*
X-61084181Y-27525500D01*
X-61084787Y-27524135D01*
X-61731016Y-26042483D01*
X-61731619Y-26041075D01*
X-61732183Y-26039737D01*
X-61732746Y-26038381D01*
X-62342928Y-24541567D01*
X-62343495Y-24540151D01*
X-62344065Y-24538702D01*
X-62344596Y-24537327D01*
X-62918355Y-23026283D01*
X-62918870Y-23024901D01*
X-62919383Y-23023500D01*
X-62919899Y-23022065D01*
X-63456967Y-21497501D01*
X-63457442Y-21496128D01*
X-63457907Y-21494757D01*
X-63458395Y-21493288D01*
X-63958441Y-19956129D01*
X-63958905Y-19954671D01*
X-63959352Y-19953237D01*
X-63959781Y-19951831D01*
X-64422462Y-18403138D01*
X-64422896Y-18401654D01*
X-64423307Y-18400213D01*
X-64423697Y-18398813D01*
X-64848809Y-16839279D01*
X-64849197Y-16837821D01*
X-64849550Y-16836461D01*
X-64849916Y-16835015D01*
X-65237174Y-15265654D01*
X-65237511Y-15264251D01*
X-65237854Y-15262788D01*
X-65238200Y-15261271D01*
X-65587368Y-13683069D01*
X-65587693Y-13681555D01*
X-65587988Y-13680138D01*
X-65588276Y-13678715D01*
X-65899186Y-12092418D01*
X-65899472Y-12090909D01*
X-65899731Y-12089495D01*
X-65899986Y-12088053D01*
X-66172410Y-10494818D01*
X-66172655Y-10493329D01*
X-66172894Y-10491821D01*
X-66173119Y-10490347D01*
X-66406921Y-8891002D01*
X-66407126Y-8889538D01*
X-66407332Y-8888001D01*
X-66407525Y-8886492D01*
X-66602567Y-7281979D01*
X-66602744Y-7280446D01*
X-66602912Y-7278904D01*
X-66603061Y-7277455D01*
X-66759233Y-5668679D01*
X-66759371Y-5667161D01*
X-66759497Y-5665673D01*
X-66759613Y-5664202D01*
X-66876830Y-4052016D01*
X-66876927Y-4050556D01*
X-66877015Y-4049110D01*
X-66877099Y-4047576D01*
X-66955280Y-2433065D01*
X-66955344Y-2431545D01*
X-66955396Y-2430106D01*
X-66955441Y-2428628D01*
X-66994544Y-812651D01*
X-66994571Y-811175D01*
X-66994589Y-809711D01*
X-66994598Y-808187D01*
X-66994598Y808187D01*
X-66994589Y809711D01*
X-66994571Y811175D01*
X-66994544Y812651D01*
X-66955441Y2428628D01*
X-66955396Y2430106D01*
X-66955344Y2431545D01*
X-66955280Y2433065D01*
X-66877099Y4047576D01*
X-66877015Y4049110D01*
X-66876927Y4050556D01*
X-66876830Y4052016D01*
X-66759613Y5664202D01*
X-66759497Y5665673D01*
X-66759371Y5667161D01*
X-66759233Y5668679D01*
X-66603061Y7277455D01*
X-66602912Y7278904D01*
X-66602744Y7280446D01*
X-66602567Y7281979D01*
X-66407525Y8886492D01*
X-66407332Y8888001D01*
X-66407126Y8889538D01*
X-66406921Y8891002D01*
X-66173119Y10490347D01*
X-66172894Y10491821D01*
X-66172655Y10493329D01*
X-66172410Y10494818D01*
X-65899986Y12088053D01*
X-65899731Y12089495D01*
X-65899472Y12090909D01*
X-65899186Y12092418D01*
X-65588276Y13678715D01*
X-65587988Y13680138D01*
X-65587693Y13681555D01*
X-65587368Y13683069D01*
X-65238200Y15261271D01*
X-65237854Y15262788D01*
X-65237511Y15264251D01*
X-65237174Y15265654D01*
X-64849916Y16835015D01*
X-64849550Y16836461D01*
X-64849197Y16837821D01*
X-64848809Y16839279D01*
X-64423700Y18398802D01*
X-64423294Y18400256D01*
X-64422882Y18401698D01*
X-64422464Y18403128D01*
X-64247915Y18987386D01*
X-64233098Y19019428D01*
X-64229693Y19024671D01*
X-64176671Y19070173D01*
X-64107465Y19079786D01*
X-64044049Y19050458D01*
G37*
%TD.AperFunction*%
%TA.AperFunction,Conductor*%
G36*
X809641Y66994589D02*
G01*
X811176Y66994571D01*
X812652Y66994544D01*
X2428628Y66955441D01*
X2430106Y66955396D01*
X2431545Y66955344D01*
X2433065Y66955280D01*
X4047576Y66877099D01*
X4049110Y66877015D01*
X4050556Y66876927D01*
X4052016Y66876830D01*
X5664202Y66759613D01*
X5665673Y66759497D01*
X5667161Y66759371D01*
X5668679Y66759233D01*
X7277455Y66603061D01*
X7278904Y66602912D01*
X7280446Y66602744D01*
X7281979Y66602567D01*
X8886492Y66407525D01*
X8888001Y66407332D01*
X8889538Y66407126D01*
X8891002Y66406921D01*
X10490347Y66173119D01*
X10491821Y66172894D01*
X10493329Y66172655D01*
X10494818Y66172410D01*
X12088053Y65899986D01*
X12089495Y65899731D01*
X12090931Y65899467D01*
X12092418Y65899186D01*
X13678715Y65588276D01*
X13680138Y65587988D01*
X13681555Y65587693D01*
X13683069Y65587368D01*
X15261271Y65238200D01*
X15262788Y65237854D01*
X15264251Y65237511D01*
X15265654Y65237174D01*
X16835015Y64849916D01*
X16836404Y64849564D01*
X16837895Y64849177D01*
X16839279Y64848809D01*
X18398813Y64423697D01*
X18400213Y64423307D01*
X18401077Y64423060D01*
X18401696Y64422883D01*
X18403138Y64422462D01*
X19951831Y63959781D01*
X19953237Y63959352D01*
X19954671Y63958905D01*
X19956129Y63958441D01*
X21493288Y63458395D01*
X21494706Y63457923D01*
X21495788Y63457557D01*
X21496128Y63457442D01*
X21497501Y63456967D01*
X23022065Y62919899D01*
X23023500Y62919383D01*
X23024901Y62918870D01*
X23026283Y62918355D01*
X24537327Y62344596D01*
X24538702Y62344065D01*
X24540151Y62343495D01*
X24541567Y62342928D01*
X26038381Y61732746D01*
X26039737Y61732183D01*
X26041075Y61731619D01*
X26042483Y61731016D01*
X27524135Y61084787D01*
X27525500Y61084181D01*
X27526825Y61083584D01*
X27528195Y61082957D01*
X28993726Y60401102D01*
X28995062Y60400470D01*
X28996400Y60399827D01*
X28997699Y60399195D01*
X29137129Y60330173D01*
X29629980Y60086196D01*
X30374017Y59717872D01*
X30446317Y59682082D01*
X30447646Y59681414D01*
X30448987Y59680730D01*
X30450330Y59680035D01*
X31881245Y58928054D01*
X31882641Y58927308D01*
X31883929Y58926610D01*
X31885171Y58925928D01*
X33297417Y58139583D01*
X33298672Y58138875D01*
X33299960Y58138137D01*
X33301240Y58137394D01*
X34694051Y57317116D01*
X34695304Y57316369D01*
X34696572Y57315602D01*
X34697885Y57314796D01*
X36070453Y56461062D01*
X36071729Y56460257D01*
X36073042Y56459418D01*
X36074294Y56458607D01*
X37425614Y55572045D01*
X37426843Y55571229D01*
X37428217Y55570304D01*
X37429476Y55569445D01*
X38759078Y54650370D01*
X38760316Y54649503D01*
X38761572Y54648612D01*
X38762781Y54647743D01*
X40069720Y53696802D01*
X40070890Y53695941D01*
X40072105Y53695035D01*
X40073340Y53694102D01*
X41357045Y52711707D01*
X41358247Y52710775D01*
X41359335Y52709921D01*
X41360493Y52709001D01*
X42038492Y52163636D01*
X42062569Y52137820D01*
X42070531Y52126373D01*
X42092651Y52060098D01*
X42075526Y51992550D01*
X42068526Y51980686D01*
X42046588Y51953286D01*
X42041983Y51948965D01*
X42041955Y51948936D01*
X41688947Y51564382D01*
X41646121Y51510114D01*
X41572073Y51416286D01*
X41404314Y51203713D01*
X41365523Y51154560D01*
X41365507Y51154538D01*
X41073532Y50721817D01*
X41073514Y50721787D01*
X40814573Y50268523D01*
X40814564Y50268506D01*
X40814560Y50268499D01*
X40790351Y50217671D01*
X40790352Y50217671D01*
X40615218Y49849957D01*
X40599928Y49817855D01*
X40599927Y49817853D01*
X40590078Y49797175D01*
X40590073Y49797165D01*
X40401321Y49310457D01*
X40401305Y49310412D01*
X40249335Y48811033D01*
X40249330Y48811018D01*
X40249321Y48810979D01*
X40134958Y48301667D01*
X40134952Y48301640D01*
X40130977Y48274669D01*
X40058829Y47785166D01*
X40058829Y47785163D01*
X40058829Y47785161D01*
X40058515Y47780889D01*
X40058510Y47780728D01*
X40022969Y47286581D01*
X40021377Y47264450D01*
X40022806Y46742405D01*
X40022807Y46742400D01*
X40063106Y46221927D01*
X40142064Y45705846D01*
X40259227Y45197108D01*
X40413947Y44698523D01*
X40413950Y44698513D01*
X40413955Y44698501D01*
X40605369Y44212837D01*
X40832437Y43742737D01*
X40834107Y43739812D01*
X40834406Y43739332D01*
X41093881Y43290855D01*
X41388234Y42859724D01*
X41388241Y42859714D01*
X41713903Y42451675D01*
X42069034Y42069034D01*
X42451675Y41713903D01*
X42725830Y41495095D01*
X42859711Y41388243D01*
X42859728Y41388231D01*
X43075289Y41241057D01*
X43290855Y41093881D01*
X43739332Y40834406D01*
X43739812Y40834107D01*
X43742737Y40832437D01*
X44212837Y40605369D01*
X44698501Y40413955D01*
X44698513Y40413950D01*
X44698523Y40413947D01*
X45197108Y40259227D01*
X45705889Y40142054D01*
X45706473Y40141924D01*
X45708455Y40141664D01*
X45839682Y40121588D01*
X45839683Y40121588D01*
X46221927Y40063106D01*
X46742393Y40022807D01*
X47003422Y40022092D01*
X47264447Y40021377D01*
X47264451Y40021377D01*
X47264454Y40021377D01*
X47537826Y40041039D01*
X47628951Y40047593D01*
X47628951Y40047592D01*
X47785156Y40058827D01*
X48301640Y40134952D01*
X48301667Y40134958D01*
X48810979Y40249321D01*
X48811018Y40249330D01*
X48811033Y40249335D01*
X49310412Y40401305D01*
X49310448Y40401318D01*
X49606524Y40516141D01*
X49794397Y40589001D01*
X49795396Y40589361D01*
X49797175Y40590078D01*
X49797179Y40590080D01*
X49797182Y40590081D01*
X50268508Y40814565D01*
X50299789Y40832435D01*
X50721792Y41073517D01*
X50721817Y41073532D01*
X50751980Y41093884D01*
X51154545Y41365512D01*
X51154559Y41365522D01*
X51154560Y41365523D01*
X51154566Y41365527D01*
X51154573Y41365532D01*
X51564377Y41688943D01*
X51564385Y41688950D01*
X51948936Y42041955D01*
X51948940Y42041959D01*
X51948953Y42041971D01*
X51948960Y42041978D01*
X51953216Y42046514D01*
X51980785Y42068552D01*
X51992805Y42075620D01*
X52060571Y42092633D01*
X52126619Y42070418D01*
X52137914Y42062536D01*
X52163574Y42038568D01*
X52709001Y41360493D01*
X52709921Y41359335D01*
X52710775Y41358247D01*
X52711707Y41357045D01*
X53694102Y40073340D01*
X53695035Y40072105D01*
X53695941Y40070890D01*
X53696802Y40069720D01*
X54647743Y38762781D01*
X54648612Y38761572D01*
X54649503Y38760316D01*
X54650370Y38759078D01*
X55569445Y37429476D01*
X55570304Y37428217D01*
X55571229Y37426843D01*
X55572045Y37425614D01*
X56458607Y36074294D01*
X56459418Y36073042D01*
X56460257Y36071729D01*
X56461062Y36070453D01*
X57314796Y34697885D01*
X57315602Y34696572D01*
X57316369Y34695304D01*
X57317116Y34694051D01*
X58137394Y33301240D01*
X58138137Y33299960D01*
X58138651Y33299063D01*
X58138875Y33298672D01*
X58139583Y33297417D01*
X58925928Y31885171D01*
X58926610Y31883929D01*
X58927308Y31882641D01*
X58928054Y31881245D01*
X59680035Y30450330D01*
X59680735Y30448976D01*
X59681402Y30447668D01*
X59682065Y30446350D01*
X59843517Y30120208D01*
X59843517Y30120207D01*
X60318800Y29160103D01*
X60399185Y28997720D01*
X60399872Y28996310D01*
X60400488Y28995025D01*
X60401099Y28993731D01*
X61082957Y27528195D01*
X61083584Y27526825D01*
X61084181Y27525500D01*
X61084787Y27524135D01*
X61731016Y26042483D01*
X61731619Y26041075D01*
X61732183Y26039737D01*
X61732746Y26038381D01*
X62342928Y24541567D01*
X62343495Y24540151D01*
X62344065Y24538702D01*
X62344596Y24537327D01*
X62918355Y23026283D01*
X62918870Y23024901D01*
X62919383Y23023500D01*
X62919899Y23022065D01*
X63456967Y21497501D01*
X63457442Y21496128D01*
X63457907Y21494757D01*
X63458395Y21493288D01*
X63958441Y19956129D01*
X63958905Y19954671D01*
X63959352Y19953237D01*
X63959781Y19951831D01*
X64422462Y18403138D01*
X64422896Y18401654D01*
X64423307Y18400213D01*
X64423697Y18398813D01*
X64848809Y16839279D01*
X64849197Y16837821D01*
X64849550Y16836461D01*
X64849916Y16835015D01*
X65237174Y15265654D01*
X65237511Y15264251D01*
X65237854Y15262788D01*
X65238200Y15261271D01*
X65587368Y13683069D01*
X65587693Y13681555D01*
X65587988Y13680138D01*
X65588276Y13678715D01*
X65899186Y12092418D01*
X65899472Y12090909D01*
X65899731Y12089495D01*
X65899986Y12088053D01*
X66172410Y10494818D01*
X66172655Y10493329D01*
X66172894Y10491821D01*
X66173119Y10490347D01*
X66406921Y8891002D01*
X66407126Y8889538D01*
X66407332Y8888001D01*
X66407525Y8886492D01*
X66602567Y7281979D01*
X66602744Y7280446D01*
X66602912Y7278904D01*
X66603061Y7277455D01*
X66759233Y5668679D01*
X66759371Y5667161D01*
X66759497Y5665673D01*
X66759613Y5664202D01*
X66876830Y4052016D01*
X66876927Y4050556D01*
X66877015Y4049110D01*
X66877099Y4047576D01*
X66955280Y2433065D01*
X66955344Y2431545D01*
X66955396Y2430106D01*
X66955441Y2428628D01*
X66994544Y812651D01*
X66994571Y811175D01*
X66994589Y809711D01*
X66994598Y808187D01*
X66994598Y-808187D01*
X66994589Y-809711D01*
X66994571Y-811175D01*
X66994544Y-812651D01*
X66955441Y-2428628D01*
X66955396Y-2430106D01*
X66955344Y-2431545D01*
X66955280Y-2433065D01*
X66877099Y-4047576D01*
X66877015Y-4049110D01*
X66876927Y-4050556D01*
X66876830Y-4052016D01*
X66759613Y-5664202D01*
X66759497Y-5665673D01*
X66759371Y-5667161D01*
X66759233Y-5668679D01*
X66603061Y-7277455D01*
X66602912Y-7278904D01*
X66602744Y-7280446D01*
X66602567Y-7281979D01*
X66407525Y-8886492D01*
X66407332Y-8888001D01*
X66407126Y-8889538D01*
X66406921Y-8891002D01*
X66173119Y-10490347D01*
X66172894Y-10491821D01*
X66172655Y-10493329D01*
X66172410Y-10494818D01*
X65899986Y-12088053D01*
X65899731Y-12089495D01*
X65899472Y-12090909D01*
X65899186Y-12092418D01*
X65588276Y-13678715D01*
X65587988Y-13680138D01*
X65587693Y-13681555D01*
X65587368Y-13683069D01*
X65238200Y-15261271D01*
X65237854Y-15262788D01*
X65237511Y-15264251D01*
X65237174Y-15265654D01*
X64849916Y-16835015D01*
X64849550Y-16836461D01*
X64849197Y-16837821D01*
X64848809Y-16839279D01*
X64423697Y-18398813D01*
X64423307Y-18400213D01*
X64422896Y-18401654D01*
X64422462Y-18403138D01*
X63959781Y-19951831D01*
X63959352Y-19953237D01*
X63958905Y-19954671D01*
X63958441Y-19956129D01*
X63458395Y-21493288D01*
X63457907Y-21494757D01*
X63457442Y-21496128D01*
X63456967Y-21497501D01*
X62919899Y-23022065D01*
X62919383Y-23023500D01*
X62918870Y-23024901D01*
X62918355Y-23026283D01*
X62344596Y-24537327D01*
X62344065Y-24538702D01*
X62343495Y-24540151D01*
X62342928Y-24541567D01*
X61732746Y-26038381D01*
X61732183Y-26039737D01*
X61731619Y-26041075D01*
X61731016Y-26042483D01*
X61084787Y-27524135D01*
X61084181Y-27525500D01*
X61083584Y-27526825D01*
X61082957Y-27528195D01*
X60401102Y-28993726D01*
X60400471Y-28995060D01*
X60399824Y-28996409D01*
X60399194Y-28997698D01*
X60325476Y-29146617D01*
X60325476Y-29146619D01*
X59682065Y-30446350D01*
X59681402Y-30447668D01*
X59680735Y-30448976D01*
X59680035Y-30450330D01*
X58928054Y-31881245D01*
X58927308Y-31882641D01*
X58926610Y-31883929D01*
X58925928Y-31885171D01*
X58139583Y-33297417D01*
X58138875Y-33298672D01*
X58138137Y-33299960D01*
X58137394Y-33301240D01*
X57317116Y-34694051D01*
X57316369Y-34695304D01*
X57315602Y-34696572D01*
X57314796Y-34697885D01*
X56461062Y-36070453D01*
X56460257Y-36071729D01*
X56459418Y-36073042D01*
X56458607Y-36074294D01*
X55572045Y-37425614D01*
X55571229Y-37426843D01*
X55570304Y-37428217D01*
X55569445Y-37429476D01*
X54650370Y-38759078D01*
X54649503Y-38760316D01*
X54648612Y-38761572D01*
X54647743Y-38762781D01*
X53696802Y-40069720D01*
X53695941Y-40070890D01*
X53695035Y-40072105D01*
X53694102Y-40073340D01*
X52711707Y-41357045D01*
X52710775Y-41358247D01*
X52709921Y-41359335D01*
X52709001Y-41360493D01*
X52163636Y-42038492D01*
X52137820Y-42062569D01*
X52126373Y-42070531D01*
X52060098Y-42092651D01*
X51992550Y-42075526D01*
X51980684Y-42068524D01*
X51953286Y-42046588D01*
X51948965Y-42041983D01*
X51948936Y-42041955D01*
X51564385Y-41688950D01*
X51564377Y-41688943D01*
X51176733Y-41383021D01*
X51176732Y-41383020D01*
X51154585Y-41365541D01*
X51154553Y-41365517D01*
X50721817Y-41073532D01*
X50721787Y-41073514D01*
X50268523Y-40814573D01*
X50268512Y-40814567D01*
X50215392Y-40789267D01*
X50118960Y-40743338D01*
X49797182Y-40590081D01*
X49349739Y-40416556D01*
X49343597Y-40411833D01*
X49336015Y-40410247D01*
X49318994Y-40399249D01*
X49316346Y-40397213D01*
X49312300Y-40394101D01*
X49301796Y-40379688D01*
X49294353Y-40373964D01*
X49288955Y-40362066D01*
X49271152Y-40337635D01*
X49267065Y-40267885D01*
X49301336Y-40206998D01*
X49315672Y-40199017D01*
X49318022Y-40195827D01*
X49328807Y-40191706D01*
X49358003Y-40175454D01*
X49363250Y-40174151D01*
X49380166Y-40172083D01*
X49383290Y-40170890D01*
X49385738Y-40171402D01*
X49393119Y-40170500D01*
X50326964Y-40170500D01*
X50334814Y-40168118D01*
X50477497Y-40139737D01*
X50549736Y-40109815D01*
X50598070Y-40089795D01*
X50602712Y-40087871D01*
X50623172Y-40079397D01*
X50623172Y-40079396D01*
X50623179Y-40079394D01*
X50623185Y-40079389D01*
X50625524Y-40078421D01*
X50625525Y-40078420D01*
X50625532Y-40078418D01*
X50634792Y-40074582D01*
X50643677Y-40065698D01*
X50703367Y-40025814D01*
X50754289Y-39991789D01*
X51341048Y-39405027D01*
X51369293Y-39383884D01*
X51388845Y-39373208D01*
X51444729Y-39358092D01*
X51449205Y-39357964D01*
X51456699Y-39358447D01*
X51457116Y-39358357D01*
X51457496Y-39358498D01*
X51472114Y-39359440D01*
X51495125Y-39363085D01*
X51495128Y-39363085D01*
X51707698Y-39363085D01*
X51707699Y-39363085D01*
X51917655Y-39329831D01*
X52119824Y-39264142D01*
X52309228Y-39167636D01*
X52341603Y-39144114D01*
X52351699Y-39136780D01*
X52377665Y-39117914D01*
X52481198Y-39042694D01*
X52481200Y-39042691D01*
X52481204Y-39042689D01*
X52481212Y-39042680D01*
X52481261Y-39042645D01*
X52482001Y-39041891D01*
X52631516Y-38892377D01*
X52631518Y-38892373D01*
X52631521Y-38892371D01*
X52756460Y-38720405D01*
X52756459Y-38720405D01*
X52756463Y-38720401D01*
X52756465Y-38720395D01*
X52776857Y-38692329D01*
X52785142Y-38664114D01*
X52852969Y-38530997D01*
X52918658Y-38328828D01*
X52951912Y-38118872D01*
X52951912Y-37906298D01*
X52918658Y-37696342D01*
X52852969Y-37494173D01*
X52756463Y-37304769D01*
X52756461Y-37304766D01*
X52756460Y-37304764D01*
X52756114Y-37304288D01*
X52756112Y-37304284D01*
X52631524Y-37132801D01*
X52481200Y-36982477D01*
X52481198Y-36982475D01*
X52309232Y-36857536D01*
X52295031Y-36850300D01*
X52141657Y-36772152D01*
X52141652Y-36772150D01*
X52119826Y-36761029D01*
X52119825Y-36761028D01*
X52119824Y-36761028D01*
X52022962Y-36729555D01*
X51926486Y-36698208D01*
X51921964Y-36696355D01*
X51912774Y-36694185D01*
X51908011Y-36693811D01*
X51815730Y-36679195D01*
X51756369Y-36669793D01*
X51736901Y-36666709D01*
X51707702Y-36662085D01*
X51707699Y-36662085D01*
X51495125Y-36662085D01*
X51495121Y-36662085D01*
X51456188Y-36668251D01*
X51446454Y-36669793D01*
X51409066Y-36675714D01*
X51285175Y-36695337D01*
X51082994Y-36761030D01*
X50893594Y-36857534D01*
X50893591Y-36857535D01*
X50893591Y-36857536D01*
X50823677Y-36908331D01*
X50721622Y-36982477D01*
X50646363Y-37057737D01*
X50571302Y-37132798D01*
X50464916Y-37279228D01*
X50446361Y-37304767D01*
X50349857Y-37494165D01*
X50284164Y-37696344D01*
X50250912Y-37906292D01*
X50250912Y-38118874D01*
X50253571Y-38135666D01*
X50254075Y-38170949D01*
X50251221Y-38193039D01*
X50230598Y-38247146D01*
X50228078Y-38250831D01*
X50223280Y-38256613D01*
X50223109Y-38257003D01*
X50222770Y-38257227D01*
X50213404Y-38268516D01*
X49961348Y-38520573D01*
X49933097Y-38541722D01*
X49910009Y-38554330D01*
X49850579Y-38569500D01*
X22865451Y-38569500D01*
X22710814Y-38600259D01*
X22710808Y-38600261D01*
X22710798Y-38600264D01*
X22710793Y-38600265D01*
X22710775Y-38600272D01*
X22565133Y-38660598D01*
X22565124Y-38660603D01*
X22565107Y-38660613D01*
X22434016Y-38748205D01*
X22434012Y-38748208D01*
X22434012Y-38748209D01*
X22378262Y-38803960D01*
X22322511Y-38859711D01*
X22058048Y-39124173D01*
X22029797Y-39145322D01*
X22006709Y-39157930D01*
X21947279Y-39173100D01*
X17027548Y-39173100D01*
X16872935Y-39203854D01*
X16872902Y-39203862D01*
X16727218Y-39264206D01*
X16727216Y-39264207D01*
X16596108Y-39351811D01*
X16596107Y-39351812D01*
X16596101Y-39351817D01*
X7880374Y-48067544D01*
X7880373Y-48067547D01*
X7852119Y-48088698D01*
X7832570Y-48099373D01*
X7776678Y-48114491D01*
X7772215Y-48114618D01*
X7764712Y-48114135D01*
X7764297Y-48114226D01*
X7763917Y-48114084D01*
X7749291Y-48113143D01*
X7726288Y-48109500D01*
X7726287Y-48109500D01*
X7513713Y-48109500D01*
X7487567Y-48113640D01*
X7487568Y-48113641D01*
X7303759Y-48142753D01*
X7101580Y-48208445D01*
X6912182Y-48304949D01*
X6740210Y-48429892D01*
X6585399Y-48584703D01*
X6581260Y-48592093D01*
X6579890Y-48593978D01*
X6574291Y-48599739D01*
X6574485Y-48599894D01*
X6572157Y-48602825D01*
X6565011Y-48609289D01*
X6555335Y-48619248D01*
X6553137Y-48620944D01*
X6552723Y-48620407D01*
X6542106Y-48630013D01*
X6537724Y-48632829D01*
X6537706Y-48632841D01*
X6536727Y-48633597D01*
X6536498Y-48633693D01*
X6535543Y-48634367D01*
X6535396Y-48634159D01*
X6522390Y-48639658D01*
X6512596Y-48648154D01*
X6478736Y-48658115D01*
X6477946Y-48658229D01*
X6460236Y-48659500D01*
X6248724Y-48659500D01*
X6213786Y-48654476D01*
X6192414Y-48648200D01*
X6142224Y-48619386D01*
X6140048Y-48617331D01*
X6138980Y-48616323D01*
X6123791Y-48599047D01*
X6120108Y-48593978D01*
X6110104Y-48580208D01*
X5959792Y-48429896D01*
X5959786Y-48429890D01*
X5787820Y-48304951D01*
X5774167Y-48297994D01*
X5620245Y-48219567D01*
X5620240Y-48219565D01*
X5598414Y-48208444D01*
X5598413Y-48208443D01*
X5598412Y-48208443D01*
X5501550Y-48176970D01*
X5405074Y-48145623D01*
X5400552Y-48143770D01*
X5391362Y-48141600D01*
X5386599Y-48141226D01*
X5212432Y-48113641D01*
X5212432Y-48113640D01*
X5186287Y-48109500D01*
X4973713Y-48109500D01*
X4973711Y-48109500D01*
X4973706Y-48109500D01*
X4956920Y-48112157D01*
X4956920Y-48112158D01*
X4956919Y-48112158D01*
X4956913Y-48112159D01*
X4921630Y-48112662D01*
X4899544Y-48109808D01*
X4845438Y-48089185D01*
X4841756Y-48086667D01*
X4835970Y-48081866D01*
X4835580Y-48081695D01*
X4835355Y-48081356D01*
X4824072Y-48071994D01*
X3772896Y-47020816D01*
X3772891Y-47020812D01*
X3772890Y-47020811D01*
X3641791Y-46933213D01*
X3641790Y-46933212D01*
X3641785Y-46933209D01*
X3641772Y-46933202D01*
X3641773Y-46933202D01*
X3641771Y-46933201D01*
X3641763Y-46933197D01*
X3631585Y-46928982D01*
X3629893Y-46927619D01*
X3627742Y-46927314D01*
X3601242Y-46910980D01*
X3594238Y-46905337D01*
X3584064Y-46890686D01*
X3577182Y-46885141D01*
X3570416Y-46871035D01*
X3554384Y-46847949D01*
X3551883Y-46778124D01*
X3587529Y-46718032D01*
X3643528Y-46688099D01*
X3648515Y-46686921D01*
X3656840Y-46685951D01*
X3659139Y-46684896D01*
X3662186Y-46685328D01*
X3677021Y-46683600D01*
X6064564Y-46683600D01*
X6072414Y-46681218D01*
X6215097Y-46652837D01*
X6360779Y-46592494D01*
X6491889Y-46504889D01*
X9652489Y-43344289D01*
X9740094Y-43213179D01*
X9800438Y-43067497D01*
X9831200Y-42912842D01*
X9831200Y-42755157D01*
X9800438Y-42600502D01*
X9740094Y-42454821D01*
X9740092Y-42454818D01*
X9740090Y-42454814D01*
X9740086Y-42454806D01*
X9652492Y-42323713D01*
X9652486Y-42323705D01*
X9540994Y-42212213D01*
X9534403Y-42207809D01*
X9478509Y-42170462D01*
X9452256Y-42146880D01*
X9443355Y-42136229D01*
X9415470Y-42072168D01*
X9426645Y-42003200D01*
X9427546Y-42001316D01*
X9463837Y-41956535D01*
X9467218Y-41953938D01*
X9486457Y-41941790D01*
X9597816Y-41885051D01*
X9649255Y-41847678D01*
X9769786Y-41760109D01*
X9769788Y-41760106D01*
X9769792Y-41760104D01*
X9769795Y-41760100D01*
X9769848Y-41760062D01*
X9770605Y-41759290D01*
X9920104Y-41609792D01*
X9920106Y-41609788D01*
X9920109Y-41609786D01*
X10045048Y-41437820D01*
X10045047Y-41437820D01*
X10045051Y-41437816D01*
X10045053Y-41437810D01*
X10065445Y-41409744D01*
X10073730Y-41381529D01*
X10141557Y-41248412D01*
X10207246Y-41046243D01*
X10240500Y-40836287D01*
X10240500Y-40623713D01*
X10207246Y-40413757D01*
X10141557Y-40211588D01*
X10045051Y-40022184D01*
X10045049Y-40022181D01*
X10045048Y-40022179D01*
X10044702Y-40021703D01*
X10044700Y-40021699D01*
X9920112Y-39850216D01*
X9769788Y-39699892D01*
X9769786Y-39699890D01*
X9597820Y-39574951D01*
X9483761Y-39516835D01*
X9430245Y-39489567D01*
X9430240Y-39489565D01*
X9408414Y-39478444D01*
X9408413Y-39478443D01*
X9408412Y-39478443D01*
X9299210Y-39442961D01*
X9215074Y-39415623D01*
X9210552Y-39413770D01*
X9201362Y-39411600D01*
X9196599Y-39411226D01*
X9186346Y-39409602D01*
X9044957Y-39387208D01*
X9023962Y-39383883D01*
X8996290Y-39379500D01*
X8996287Y-39379500D01*
X8783713Y-39379500D01*
X8783709Y-39379500D01*
X8713727Y-39390584D01*
X8574717Y-39412601D01*
X8573844Y-39412732D01*
X8573756Y-39412752D01*
X8563688Y-39416023D01*
X8548429Y-39420982D01*
X8548427Y-39420982D01*
X8548424Y-39420983D01*
X8520364Y-39425839D01*
X8513654Y-39427000D01*
X8496587Y-39427487D01*
X8431303Y-39411070D01*
X8419758Y-39404441D01*
X8393826Y-39384590D01*
X3122137Y-34112901D01*
X-2199075Y-28791688D01*
X-2220224Y-28763438D01*
X-2225645Y-28753511D01*
X-2240499Y-28685238D01*
X-2216085Y-28619773D01*
X-2160153Y-28577900D01*
X-2160140Y-28577895D01*
X-2152953Y-28575215D01*
X-2109628Y-28567400D01*
X38849573Y-28567400D01*
X38884505Y-28572421D01*
X38909749Y-28579834D01*
X38962495Y-28611130D01*
X42965997Y-32614633D01*
X42972517Y-32626574D01*
X42987147Y-32642885D01*
X42990478Y-32648985D01*
X42994268Y-32666408D01*
X42999482Y-32675956D01*
X42998706Y-32686805D01*
X43005331Y-32717258D01*
X42980916Y-32782723D01*
X42924983Y-32824595D01*
X42884524Y-32827780D01*
X42871231Y-32831152D01*
X42865603Y-32829269D01*
X42857027Y-32829945D01*
X42851222Y-32828769D01*
X42819548Y-32817723D01*
X42812612Y-32814189D01*
X42812610Y-32814187D01*
X42779536Y-32797336D01*
X42767494Y-32791200D01*
X42690799Y-32766280D01*
X42578839Y-32729901D01*
X42578827Y-32729898D01*
X42565325Y-32725511D01*
X42565323Y-32725510D01*
X42565322Y-32725510D01*
X42550936Y-32723231D01*
X42550930Y-32723230D01*
X42367068Y-32694110D01*
X42367068Y-32694109D01*
X42355369Y-32692257D01*
X42142795Y-32692257D01*
X42131095Y-32694109D01*
X42131096Y-32694110D01*
X41932841Y-32725510D01*
X41903813Y-32734942D01*
X41730664Y-32791202D01*
X41730661Y-32791203D01*
X41730656Y-32791205D01*
X41718623Y-32797336D01*
X41685222Y-32808719D01*
X41671582Y-32811281D01*
X41602061Y-32804310D01*
X41547344Y-32760860D01*
X41547332Y-32760843D01*
X41546246Y-32759302D01*
X41524856Y-32705442D01*
X41524210Y-32700928D01*
X41523082Y-32677867D01*
X41528753Y-32550330D01*
X41494378Y-32410574D01*
X41494378Y-32410573D01*
X41422459Y-32286914D01*
X41422193Y-32286400D01*
X41422021Y-32286161D01*
X41421992Y-32286132D01*
X41317555Y-32187183D01*
X41317549Y-32187178D01*
X41317543Y-32187174D01*
X41298157Y-32176368D01*
X41265183Y-32157987D01*
X41265181Y-32157986D01*
X41265179Y-32157985D01*
X39632348Y-31464891D01*
X39603343Y-31441097D01*
X39554811Y-31438939D01*
X39411030Y-31432547D01*
X39411029Y-31432547D01*
X39411028Y-31432547D01*
X39411027Y-31432547D01*
X39271273Y-31466920D01*
X39146867Y-31539274D01*
X39146861Y-31539278D01*
X39146852Y-31539286D01*
X39146846Y-31539291D01*
X39047883Y-31643743D01*
X39047878Y-31643749D01*
X39047874Y-31643755D01*
X39018687Y-31696114D01*
X39018570Y-31696361D01*
X39018180Y-31697308D01*
X38407911Y-33135018D01*
X38335797Y-33304912D01*
X38327780Y-33323798D01*
X38327779Y-33323800D01*
X38317032Y-33349117D01*
X38317024Y-33349137D01*
X38299639Y-33406485D01*
X38299639Y-33406489D01*
X38294400Y-33524345D01*
X38293247Y-33550271D01*
X38320406Y-33660690D01*
X38327621Y-33690026D01*
X38361014Y-33747442D01*
X38384113Y-33787159D01*
X38398027Y-33811084D01*
X38399650Y-33814090D01*
X38402424Y-33817039D01*
X38404318Y-33819052D01*
X38407665Y-33821722D01*
X38483227Y-33893313D01*
X38504448Y-33913419D01*
X38504452Y-33913422D01*
X38504454Y-33913424D01*
X38556821Y-33942615D01*
X40209814Y-34644267D01*
X40267190Y-34661661D01*
X40410970Y-34668053D01*
X40550726Y-34633678D01*
X40675138Y-34561322D01*
X40759498Y-34472282D01*
X40787157Y-34450388D01*
X40799163Y-34443405D01*
X40867006Y-34426716D01*
X40933102Y-34449353D01*
X40935110Y-34450774D01*
X40972814Y-34493459D01*
X40974488Y-34496584D01*
X40983113Y-34516816D01*
X40997526Y-34561172D01*
X41074092Y-34711441D01*
X41094033Y-34750577D01*
X41218972Y-34922543D01*
X41218974Y-34922545D01*
X41369298Y-35072869D01*
X41541251Y-35197799D01*
X41541259Y-35197804D01*
X41541261Y-35197805D01*
X41541263Y-35197806D01*
X41541264Y-35197807D01*
X41541282Y-35197817D01*
X41541524Y-35197939D01*
X41730670Y-35294314D01*
X41932839Y-35360003D01*
X42142795Y-35393257D01*
X42142796Y-35393257D01*
X42355368Y-35393257D01*
X42355369Y-35393257D01*
X42565325Y-35360003D01*
X42767494Y-35294314D01*
X42956898Y-35197808D01*
X43037671Y-35139122D01*
X43068870Y-35122660D01*
X43081953Y-35117992D01*
X43151704Y-35114003D01*
X43212540Y-35148356D01*
X43214884Y-35150768D01*
X43243602Y-35198018D01*
X43244225Y-35199890D01*
X43249042Y-35219649D01*
X43264913Y-35319855D01*
X43269917Y-35351448D01*
X43269919Y-35351456D01*
X43324605Y-35519765D01*
X43331487Y-35540944D01*
X43335609Y-35553628D01*
X43432116Y-35743034D01*
X43557055Y-35915000D01*
X43557057Y-35915002D01*
X43707381Y-36065326D01*
X43879334Y-36190256D01*
X43879365Y-36190274D01*
X43879607Y-36190396D01*
X44068753Y-36286771D01*
X44270922Y-36352460D01*
X44480878Y-36385714D01*
X44480879Y-36385714D01*
X44693451Y-36385714D01*
X44693452Y-36385714D01*
X44903408Y-36352460D01*
X45105577Y-36286771D01*
X45294981Y-36190265D01*
X45360537Y-36142635D01*
X45375752Y-36131581D01*
X45406956Y-36115117D01*
X45420038Y-36110449D01*
X45489791Y-36106463D01*
X45550619Y-36140812D01*
X45552946Y-36143206D01*
X45581691Y-36190498D01*
X45582311Y-36192362D01*
X45587119Y-36212077D01*
X45587351Y-36213540D01*
X45587354Y-36213562D01*
X45608000Y-36343911D01*
X45661997Y-36510098D01*
X45673689Y-36546081D01*
X45673690Y-36546083D01*
X45755892Y-36707415D01*
X45770198Y-36735491D01*
X45895137Y-36907457D01*
X45895139Y-36907459D01*
X46045463Y-37057783D01*
X46217416Y-37182713D01*
X46217447Y-37182731D01*
X46217689Y-37182853D01*
X46406835Y-37279228D01*
X46609004Y-37344917D01*
X46818960Y-37378171D01*
X46818961Y-37378171D01*
X47031533Y-37378171D01*
X47031534Y-37378171D01*
X47241490Y-37344917D01*
X47443659Y-37279228D01*
X47633063Y-37182722D01*
X47701785Y-37132793D01*
X47805033Y-37057780D01*
X47805034Y-37057777D01*
X47805037Y-37057776D01*
X47805039Y-37057775D01*
X47805040Y-37057773D01*
X47805091Y-37057737D01*
X47805852Y-37056961D01*
X47955351Y-36907463D01*
X47955353Y-36907459D01*
X47955356Y-36907457D01*
X48080295Y-36735491D01*
X48080294Y-36735491D01*
X48080298Y-36735487D01*
X48080300Y-36735481D01*
X48100692Y-36707415D01*
X48108977Y-36679200D01*
X48176804Y-36546083D01*
X48242493Y-36343914D01*
X48275747Y-36133958D01*
X48275747Y-35921384D01*
X48242493Y-35711428D01*
X48176804Y-35509259D01*
X48080298Y-35319855D01*
X48080296Y-35319852D01*
X48080295Y-35319850D01*
X48079949Y-35319374D01*
X48079947Y-35319370D01*
X47955359Y-35147887D01*
X47805035Y-34997563D01*
X47805033Y-34997561D01*
X47633067Y-34872622D01*
X47619414Y-34865665D01*
X47465492Y-34787238D01*
X47465487Y-34787236D01*
X47443661Y-34776115D01*
X47443660Y-34776114D01*
X47443659Y-34776114D01*
X47303976Y-34730728D01*
X47250321Y-34713294D01*
X47245799Y-34711441D01*
X47236609Y-34709271D01*
X47231846Y-34708897D01*
X47080204Y-34684879D01*
X47060736Y-34681795D01*
X47031537Y-34677171D01*
X47031534Y-34677171D01*
X46818960Y-34677171D01*
X46818959Y-34677171D01*
X46818953Y-34677171D01*
X46814097Y-34677553D01*
X46814065Y-34677151D01*
X46784294Y-34677574D01*
X46762208Y-34674719D01*
X46708115Y-34654101D01*
X46704431Y-34651582D01*
X46698635Y-34646773D01*
X46698245Y-34646602D01*
X46698020Y-34646263D01*
X46686740Y-34636904D01*
X40022923Y-27973088D01*
X40001774Y-27944838D01*
X39996352Y-27934908D01*
X39992560Y-27917479D01*
X39984012Y-27901818D01*
X39985286Y-27884044D01*
X39981499Y-27866638D01*
X39987732Y-27849924D01*
X39989008Y-27832127D01*
X39999687Y-27817865D01*
X40005913Y-27801173D01*
X40020195Y-27790480D01*
X40030889Y-27776201D01*
X40061824Y-27759315D01*
X40061842Y-27759301D01*
X40065722Y-27757854D01*
X40069058Y-27756611D01*
X40112372Y-27748800D01*
X40808373Y-27748800D01*
X40843305Y-27753821D01*
X40868549Y-27761234D01*
X40921295Y-27792530D01*
X41401916Y-28273151D01*
X41423067Y-28301405D01*
X41438954Y-28330499D01*
X41451740Y-28365735D01*
X41479359Y-28504584D01*
X41479360Y-28504588D01*
X41479361Y-28504591D01*
X41479364Y-28504601D01*
X41479367Y-28504609D01*
X41479372Y-28504623D01*
X41539698Y-28650265D01*
X41539703Y-28650274D01*
X41539713Y-28650291D01*
X41627311Y-28781390D01*
X41627312Y-28781391D01*
X41627317Y-28781397D01*
X41738801Y-28892881D01*
X41738807Y-28892886D01*
X41738811Y-28892889D01*
X41869914Y-28980490D01*
X41869927Y-28980497D01*
X42014642Y-29040439D01*
X42015603Y-29040837D01*
X42159077Y-29069376D01*
X42163560Y-29070267D01*
X42164406Y-29070449D01*
X42164786Y-29070655D01*
X42165345Y-29070803D01*
X42170255Y-29071600D01*
X42327944Y-29071600D01*
X42332064Y-29071600D01*
X42339914Y-29069218D01*
X42482597Y-29040837D01*
X42628279Y-28980494D01*
X42628284Y-28980490D01*
X42628287Y-28980489D01*
X42639653Y-28972893D01*
X42663316Y-28957083D01*
X42745153Y-28902401D01*
X42776985Y-28887171D01*
X42796674Y-28881006D01*
X42808629Y-28877264D01*
X42845678Y-28871600D01*
X44030280Y-28871600D01*
X44030343Y-28871601D01*
X44032247Y-28871601D01*
X44039843Y-28871601D01*
X44197954Y-28871601D01*
X44197957Y-28871601D01*
X44350685Y-28830677D01*
X44400804Y-28801739D01*
X44487616Y-28751620D01*
X44599420Y-28639816D01*
X44599420Y-28639815D01*
X44610197Y-28629038D01*
X44612108Y-28627126D01*
X44615952Y-28623280D01*
X44619826Y-28619406D01*
X44619830Y-28619404D01*
X44619835Y-28619397D01*
X48262058Y-24977176D01*
X48290307Y-24956029D01*
X48319404Y-24940141D01*
X48354633Y-24927358D01*
X48493497Y-24899737D01*
X48639179Y-24839394D01*
X48770289Y-24751789D01*
X48881789Y-24640289D01*
X48969394Y-24509179D01*
X48973926Y-24498239D01*
X49028060Y-24367544D01*
X49029222Y-24364997D01*
X49029730Y-24363510D01*
X49029735Y-24363501D01*
X49029737Y-24363497D01*
X49059701Y-24212861D01*
X49060500Y-24208844D01*
X49060500Y-24050973D01*
X49060065Y-24048972D01*
X49057158Y-24034358D01*
X49030918Y-23902442D01*
X49030901Y-23902323D01*
X49029738Y-23896510D01*
X49029738Y-23896508D01*
X49029737Y-23896503D01*
X49029735Y-23896498D01*
X48969397Y-23750827D01*
X48969390Y-23750814D01*
X48881789Y-23619711D01*
X48881786Y-23619707D01*
X48881781Y-23619701D01*
X48770297Y-23508217D01*
X48770291Y-23508212D01*
X48770290Y-23508211D01*
X48639191Y-23420613D01*
X48639190Y-23420612D01*
X48639185Y-23420609D01*
X48639172Y-23420602D01*
X48639165Y-23420598D01*
X48493502Y-23360264D01*
X48493471Y-23360257D01*
X48338847Y-23329500D01*
X48338845Y-23329500D01*
X48338842Y-23329500D01*
X48181158Y-23329500D01*
X48181155Y-23329500D01*
X48181153Y-23329500D01*
X48026527Y-23360257D01*
X48026496Y-23360264D01*
X47880833Y-23420598D01*
X47880824Y-23420603D01*
X47880807Y-23420613D01*
X47749708Y-23508211D01*
X47749707Y-23508212D01*
X47749701Y-23508217D01*
X47638217Y-23619701D01*
X47638212Y-23619707D01*
X47638211Y-23619708D01*
X47550613Y-23750807D01*
X47550603Y-23750824D01*
X47550598Y-23750833D01*
X47490272Y-23896475D01*
X47490264Y-23896499D01*
X47490259Y-23896512D01*
X47462840Y-24034355D01*
X47462841Y-24034358D01*
X47451099Y-24067642D01*
X47435734Y-24097016D01*
X47413539Y-24127223D01*
X43919091Y-27621673D01*
X43890840Y-27642822D01*
X43867752Y-27655430D01*
X43808322Y-27670600D01*
X42846696Y-27670600D01*
X42811761Y-27665577D01*
X42779952Y-27656237D01*
X42745998Y-27640363D01*
X42628285Y-27561709D01*
X42628272Y-27561702D01*
X42628265Y-27561698D01*
X42482623Y-27501372D01*
X42482609Y-27501367D01*
X42482601Y-27501364D01*
X42482591Y-27501361D01*
X42482586Y-27501360D01*
X42482583Y-27501359D01*
X42344740Y-27473939D01*
X42344738Y-27473939D01*
X42344736Y-27473939D01*
X42311454Y-27462198D01*
X42282080Y-27446833D01*
X42251873Y-27424638D01*
X41618228Y-26790993D01*
X41618219Y-26790983D01*
X41613888Y-26786652D01*
X41495017Y-26667781D01*
X41495016Y-26667780D01*
X41427014Y-26628520D01*
X41424953Y-26627220D01*
X41420789Y-26622497D01*
X41415730Y-26618098D01*
X41393142Y-26608963D01*
X41358086Y-26588723D01*
X41319903Y-26578492D01*
X41205357Y-26547799D01*
X41205354Y-26547799D01*
X41037743Y-26547799D01*
X41037680Y-26547800D01*
X5123835Y-26547800D01*
X5120540Y-26546832D01*
X5088905Y-26542778D01*
X5083043Y-26541057D01*
X5068041Y-26531417D01*
X5056796Y-26528115D01*
X5036917Y-26511416D01*
X5024263Y-26503285D01*
X4995236Y-26439731D01*
X5005177Y-26370572D01*
X5048134Y-26320987D01*
X5050452Y-26318142D01*
X5050659Y-26318074D01*
X5050921Y-26317772D01*
X5051697Y-26317272D01*
X5053607Y-26316045D01*
X5092264Y-26299648D01*
X5714643Y-26153266D01*
X6547993Y-25916158D01*
X7369503Y-25640815D01*
X8177421Y-25327826D01*
X8970021Y-24977859D01*
X9745613Y-24591660D01*
X10502542Y-24170054D01*
X11239191Y-23713940D01*
X11953990Y-23224291D01*
X12645412Y-22702153D01*
X13311982Y-22148640D01*
X13952278Y-21564933D01*
X14564933Y-20952278D01*
X15148640Y-20311982D01*
X15702153Y-19645412D01*
X16224291Y-18953990D01*
X16713940Y-18239191D01*
X17170054Y-17502542D01*
X17591660Y-16745613D01*
X17977859Y-15970021D01*
X18327826Y-15177421D01*
X18640815Y-14369503D01*
X18916158Y-13547993D01*
X19153266Y-12714643D01*
X19351635Y-11871232D01*
X19510840Y-11019559D01*
X19630542Y-10161442D01*
X19710486Y-9298713D01*
X19750500Y-8433213D01*
X19750500Y-7566787D01*
X19710486Y-6701287D01*
X19630542Y-5838558D01*
X19510840Y-4980441D01*
X19351635Y-4128768D01*
X19153266Y-3285357D01*
X19137456Y-3229792D01*
X18977113Y-2666243D01*
X18916158Y-2452007D01*
X18640815Y-1630497D01*
X18327826Y-822579D01*
X17977859Y-29979D01*
X17591660Y745613D01*
X17170054Y1502542D01*
X16713940Y2239191D01*
X16224291Y2953990D01*
X15702153Y3645412D01*
X15148640Y4311982D01*
X14564933Y4952278D01*
X13952278Y5564933D01*
X13311982Y6148640D01*
X12645412Y6702153D01*
X11953990Y7224291D01*
X11239191Y7713940D01*
X10502542Y8170054D01*
X9745613Y8591660D01*
X8970021Y8977859D01*
X8177421Y9327826D01*
X7369503Y9640815D01*
X6547993Y9916158D01*
X5714643Y10153266D01*
X5384084Y10231012D01*
X5381141Y10232684D01*
X5351237Y10243896D01*
X5345916Y10246918D01*
X5333526Y10259732D01*
X5323336Y10265521D01*
X5307831Y10286305D01*
X5297351Y10297145D01*
X5283649Y10365658D01*
X5309163Y10430702D01*
X5362775Y10469454D01*
X5365291Y10471391D01*
X5365475Y10471406D01*
X5365771Y10471620D01*
X5368781Y10472686D01*
X5410177Y10479800D01*
X12488373Y10479800D01*
X12523310Y10474776D01*
X12548551Y10467364D01*
X12601295Y10436069D01*
X41715004Y-18677639D01*
X41715005Y-18677640D01*
X41736156Y-18705895D01*
X41743648Y-18719616D01*
X41758500Y-18787876D01*
X41758371Y-18789682D01*
X41739003Y-18847885D01*
X41734822Y-18854391D01*
X41718186Y-18875034D01*
X36460048Y-24133173D01*
X36441182Y-24147296D01*
X36431797Y-24154322D01*
X36408709Y-24166930D01*
X36349279Y-24182100D01*
X13149453Y-24182100D01*
X12994827Y-24212857D01*
X12994796Y-24212864D01*
X12849133Y-24273198D01*
X12849124Y-24273203D01*
X12849107Y-24273213D01*
X12718008Y-24360811D01*
X12718007Y-24360812D01*
X12718001Y-24360817D01*
X12606517Y-24472301D01*
X12606512Y-24472307D01*
X12606511Y-24472308D01*
X12518913Y-24603407D01*
X12518903Y-24603424D01*
X12518898Y-24603433D01*
X12458564Y-24749096D01*
X12458557Y-24749127D01*
X12427800Y-24903750D01*
X12427800Y-24903753D01*
X12427800Y-25061446D01*
X12427800Y-25061448D01*
X12427799Y-25061448D01*
X12458557Y-25216071D01*
X12458564Y-25216102D01*
X12518898Y-25361765D01*
X12518903Y-25361774D01*
X12518913Y-25361791D01*
X12606511Y-25492890D01*
X12606512Y-25492891D01*
X12606517Y-25492897D01*
X12718001Y-25604381D01*
X12718007Y-25604386D01*
X12718011Y-25604389D01*
X12849114Y-25691990D01*
X12849127Y-25691997D01*
X12849129Y-25691997D01*
X12849133Y-25692000D01*
X12920651Y-25721623D01*
X12976522Y-25744765D01*
X12994803Y-25752337D01*
X13143785Y-25781971D01*
X13145721Y-25782422D01*
X13145900Y-25782523D01*
X13149455Y-25783100D01*
X36821544Y-25783100D01*
X36825664Y-25783100D01*
X36833514Y-25780718D01*
X36976197Y-25752337D01*
X37121879Y-25691994D01*
X37252989Y-25604389D01*
X42847088Y-20010287D01*
X42875336Y-19989142D01*
X42889062Y-19981647D01*
X42957317Y-19966798D01*
X42959127Y-19966927D01*
X43017324Y-19986293D01*
X43023842Y-19990482D01*
X43044477Y-20007112D01*
X43632203Y-20594838D01*
X43653354Y-20623093D01*
X43660846Y-20636814D01*
X43675698Y-20705078D01*
X43674956Y-20715461D01*
X43661756Y-20762916D01*
X43621762Y-20841409D01*
X43621759Y-20841416D01*
X43556067Y-21043594D01*
X43537614Y-21160104D01*
X43537614Y-21160105D01*
X43522814Y-21253543D01*
X43522814Y-21466122D01*
X43522813Y-21466122D01*
X43527225Y-21493972D01*
X43556067Y-21676074D01*
X43621759Y-21878253D01*
X43681534Y-21995566D01*
X43718265Y-22067655D01*
X43843204Y-22239621D01*
X43843206Y-22239623D01*
X43993530Y-22389947D01*
X44165483Y-22514877D01*
X44165491Y-22514882D01*
X44165493Y-22514883D01*
X44165495Y-22514884D01*
X44165496Y-22514885D01*
X44165514Y-22514895D01*
X44165756Y-22515017D01*
X44354902Y-22611392D01*
X44557071Y-22677081D01*
X44767027Y-22710335D01*
X44767028Y-22710335D01*
X44979600Y-22710335D01*
X44979601Y-22710335D01*
X45189557Y-22677081D01*
X45391726Y-22611392D01*
X45581130Y-22514886D01*
X45603103Y-22498921D01*
X45753100Y-22389944D01*
X45753100Y-22389943D01*
X45753158Y-22389901D01*
X45753919Y-22389125D01*
X45903418Y-22239627D01*
X45903420Y-22239623D01*
X45903423Y-22239621D01*
X46028362Y-22067655D01*
X46028361Y-22067655D01*
X46028365Y-22067651D01*
X46124871Y-21878247D01*
X46190560Y-21676078D01*
X46223814Y-21466122D01*
X46223814Y-21253548D01*
X46190560Y-21043592D01*
X46124871Y-20841423D01*
X46028365Y-20652019D01*
X46028363Y-20652016D01*
X46028362Y-20652014D01*
X46028016Y-20651538D01*
X46028014Y-20651534D01*
X45903426Y-20480051D01*
X45753102Y-20329727D01*
X45753100Y-20329725D01*
X45581134Y-20204786D01*
X45567481Y-20197829D01*
X45413559Y-20119402D01*
X45413554Y-20119400D01*
X45391728Y-20108279D01*
X45391727Y-20108278D01*
X45391726Y-20108278D01*
X45294864Y-20076805D01*
X45198388Y-20045458D01*
X45193866Y-20043605D01*
X45184676Y-20041435D01*
X45179913Y-20041061D01*
X44998466Y-20012323D01*
X44993756Y-20011577D01*
X44979601Y-20009335D01*
X44979600Y-20009335D01*
X44814362Y-20009335D01*
X44814361Y-20009334D01*
X44814361Y-20009335D01*
X44779426Y-20004312D01*
X44754184Y-19996900D01*
X44701439Y-19965604D01*
X40980683Y-16244848D01*
X44249099Y-16244848D01*
X44279857Y-16399471D01*
X44279864Y-16399502D01*
X44340198Y-16545165D01*
X44340203Y-16545174D01*
X44340213Y-16545191D01*
X44427811Y-16676290D01*
X44427812Y-16676291D01*
X44427816Y-16676296D01*
X44945511Y-17193989D01*
X45057011Y-17305489D01*
X45188121Y-17393094D01*
X45291133Y-17435762D01*
X45333802Y-17453437D01*
X45483978Y-17483309D01*
X45485785Y-17483767D01*
X45488454Y-17484200D01*
X45488455Y-17484200D01*
X45488457Y-17484200D01*
X45488458Y-17484200D01*
X45689525Y-17484200D01*
X45723155Y-17489035D01*
X45724456Y-17489222D01*
X45738021Y-17493204D01*
X45745830Y-17495497D01*
X45796033Y-17524321D01*
X45799284Y-17527392D01*
X45804248Y-17533038D01*
X45804609Y-17533270D01*
X45804778Y-17533641D01*
X45814450Y-17544642D01*
X45828124Y-17563463D01*
X45828126Y-17563465D01*
X45978444Y-17713783D01*
X46150397Y-17838713D01*
X46150428Y-17838731D01*
X46150670Y-17838853D01*
X46339816Y-17935228D01*
X46541985Y-18000917D01*
X46751941Y-18034171D01*
X46751942Y-18034171D01*
X46964513Y-18034171D01*
X46964515Y-18034171D01*
X47103924Y-18012089D01*
X47137891Y-18011423D01*
X47177191Y-18016075D01*
X47182987Y-18016902D01*
X47187276Y-18017617D01*
X47191076Y-18018311D01*
X47340897Y-18048111D01*
X47343118Y-18048609D01*
X47343855Y-18048700D01*
X47343857Y-18048700D01*
X47343858Y-18048700D01*
X56520500Y-18048700D01*
X56587539Y-18068385D01*
X56633294Y-18121189D01*
X56644500Y-18172700D01*
X56644500Y-21466000D01*
X56644501Y-21466009D01*
X56656052Y-21573450D01*
X56656054Y-21573462D01*
X56667260Y-21624972D01*
X56701383Y-21727497D01*
X56701386Y-21727503D01*
X56779171Y-21848537D01*
X56779179Y-21848548D01*
X56824923Y-21901340D01*
X56824926Y-21901343D01*
X56824930Y-21901347D01*
X56933664Y-21995567D01*
X56933667Y-21995568D01*
X56933668Y-21995569D01*
X57027925Y-22038616D01*
X57064541Y-22055338D01*
X57131580Y-22075023D01*
X57131584Y-22075024D01*
X57274000Y-22095500D01*
X62105990Y-22095500D01*
X62106000Y-22095500D01*
X62213456Y-22083947D01*
X62264967Y-22072741D01*
X62299197Y-22061347D01*
X62367497Y-22038616D01*
X62367501Y-22038613D01*
X62367504Y-22038613D01*
X62488543Y-21960825D01*
X62541347Y-21915070D01*
X62635567Y-21806336D01*
X62695338Y-21675459D01*
X62715023Y-21608420D01*
X62715024Y-21608416D01*
X62735500Y-21466000D01*
X62735500Y-16634000D01*
X62723947Y-16526544D01*
X62712741Y-16475033D01*
X62703644Y-16447700D01*
X62678616Y-16372502D01*
X62678613Y-16372496D01*
X62648286Y-16325307D01*
X62600825Y-16251457D01*
X62598309Y-16248553D01*
X62555076Y-16198659D01*
X62555072Y-16198656D01*
X62555070Y-16198653D01*
X62446336Y-16104433D01*
X62446333Y-16104431D01*
X62446331Y-16104430D01*
X62315465Y-16044664D01*
X62315460Y-16044662D01*
X62315459Y-16044662D01*
X62248420Y-16024977D01*
X62248422Y-16024977D01*
X62248417Y-16024976D01*
X62186347Y-16016052D01*
X62106000Y-16004500D01*
X62105998Y-16004500D01*
X57274010Y-16004500D01*
X57274000Y-16004500D01*
X57273991Y-16004500D01*
X57273990Y-16004501D01*
X57166549Y-16016052D01*
X57166537Y-16016054D01*
X57115027Y-16027260D01*
X57012502Y-16061383D01*
X57012496Y-16061386D01*
X56891462Y-16139171D01*
X56891451Y-16139179D01*
X56838659Y-16184923D01*
X56744433Y-16293664D01*
X56744430Y-16293668D01*
X56707190Y-16375212D01*
X56661435Y-16428016D01*
X56594396Y-16447700D01*
X48309477Y-16447700D01*
X48309472Y-16447699D01*
X48309470Y-16447700D01*
X48274536Y-16442675D01*
X48259537Y-16438270D01*
X48200768Y-16400501D01*
X48193949Y-16392632D01*
X48169728Y-16349744D01*
X48161788Y-16325307D01*
X48109786Y-16165261D01*
X48096497Y-16139179D01*
X48013279Y-15975855D01*
X48013277Y-15975852D01*
X48013276Y-15975850D01*
X48012930Y-15975374D01*
X48012928Y-15975370D01*
X47888340Y-15803887D01*
X47738016Y-15653563D01*
X47738014Y-15653561D01*
X47566048Y-15528622D01*
X47552395Y-15521665D01*
X47398473Y-15443238D01*
X47398468Y-15443236D01*
X47376642Y-15432115D01*
X47376641Y-15432114D01*
X47376640Y-15432114D01*
X47255805Y-15392852D01*
X47183302Y-15369294D01*
X47178780Y-15367441D01*
X47169590Y-15365271D01*
X47164827Y-15364897D01*
X47112461Y-15356603D01*
X47013185Y-15340879D01*
X46993717Y-15337795D01*
X46964518Y-15333171D01*
X46964515Y-15333171D01*
X46751941Y-15333171D01*
X46751937Y-15333171D01*
X46713004Y-15339337D01*
X46703270Y-15340879D01*
X46665882Y-15346800D01*
X46541991Y-15366423D01*
X46339810Y-15432116D01*
X46150410Y-15528620D01*
X45978442Y-15653560D01*
X45924129Y-15707872D01*
X45924128Y-15707875D01*
X45895873Y-15729026D01*
X45882154Y-15736517D01*
X45813898Y-15751369D01*
X45813881Y-15751367D01*
X45813881Y-15751368D01*
X45813880Y-15751367D01*
X45812091Y-15751240D01*
X45753878Y-15731868D01*
X45747368Y-15727684D01*
X45726734Y-15711056D01*
X45559892Y-15544213D01*
X45559891Y-15544212D01*
X45559890Y-15544211D01*
X45428791Y-15456613D01*
X45428790Y-15456612D01*
X45428785Y-15456609D01*
X45428772Y-15456602D01*
X45428765Y-15456598D01*
X45283102Y-15396264D01*
X45283071Y-15396257D01*
X45128447Y-15365500D01*
X45128445Y-15365500D01*
X45128442Y-15365500D01*
X44970758Y-15365500D01*
X44970755Y-15365500D01*
X44970753Y-15365500D01*
X44816127Y-15396257D01*
X44816096Y-15396264D01*
X44670433Y-15456598D01*
X44670424Y-15456603D01*
X44670407Y-15456613D01*
X44539308Y-15544211D01*
X44539305Y-15544214D01*
X44427817Y-15655701D01*
X44427812Y-15655707D01*
X44427811Y-15655708D01*
X44340213Y-15786807D01*
X44340203Y-15786824D01*
X44340198Y-15786833D01*
X44279864Y-15932496D01*
X44279857Y-15932527D01*
X44249100Y-16087150D01*
X44249100Y-16087153D01*
X44249100Y-16244846D01*
X44249100Y-16244848D01*
X44249099Y-16244848D01*
X40980683Y-16244848D01*
X36637054Y-11901219D01*
X47492642Y-11901219D01*
X47492642Y-11905047D01*
X47492642Y-12113792D01*
X47525896Y-12323750D01*
X47525896Y-12323753D01*
X47573121Y-12469095D01*
X47591583Y-12525912D01*
X47591585Y-12525918D01*
X47687746Y-12714646D01*
X47688093Y-12715326D01*
X47813032Y-12887292D01*
X47813034Y-12887294D01*
X47963358Y-13037618D01*
X48135311Y-13162548D01*
X48135319Y-13162553D01*
X48135321Y-13162554D01*
X48135323Y-13162555D01*
X48135324Y-13162556D01*
X48135342Y-13162566D01*
X48135584Y-13162688D01*
X48324730Y-13259063D01*
X48526899Y-13324752D01*
X48736855Y-13358006D01*
X48736856Y-13358006D01*
X48949428Y-13358006D01*
X48949429Y-13358006D01*
X49159385Y-13324752D01*
X49361554Y-13259063D01*
X49550958Y-13162557D01*
X49572931Y-13146592D01*
X49722928Y-13037615D01*
X49722928Y-13037614D01*
X49722986Y-13037572D01*
X49723747Y-13036796D01*
X49873246Y-12887298D01*
X49873248Y-12887294D01*
X49873251Y-12887292D01*
X49998190Y-12715326D01*
X49998189Y-12715326D01*
X49998193Y-12715322D01*
X49998195Y-12715316D01*
X50018587Y-12687250D01*
X50026872Y-12659035D01*
X50094699Y-12525918D01*
X50160388Y-12323749D01*
X50193642Y-12113793D01*
X50193642Y-11901219D01*
X50160388Y-11691263D01*
X50094699Y-11489094D01*
X49998193Y-11299690D01*
X49998191Y-11299687D01*
X49998190Y-11299685D01*
X49997844Y-11299209D01*
X49997842Y-11299205D01*
X49873254Y-11127722D01*
X49722930Y-10977398D01*
X49722928Y-10977396D01*
X49550962Y-10852457D01*
X49537309Y-10845500D01*
X49383387Y-10767073D01*
X49383382Y-10767071D01*
X49361556Y-10755950D01*
X49361555Y-10755949D01*
X49361554Y-10755949D01*
X49264692Y-10724476D01*
X49168216Y-10693129D01*
X49163694Y-10691276D01*
X49154504Y-10689106D01*
X49149741Y-10688732D01*
X49085474Y-10678553D01*
X48998099Y-10664714D01*
X48978631Y-10661630D01*
X48949432Y-10657006D01*
X48949429Y-10657006D01*
X48736855Y-10657006D01*
X48736851Y-10657006D01*
X48697918Y-10663172D01*
X48688184Y-10664714D01*
X48650796Y-10670635D01*
X48526905Y-10690258D01*
X48324724Y-10755951D01*
X48135324Y-10852455D01*
X47963352Y-10977398D01*
X47813034Y-11127716D01*
X47688091Y-11299688D01*
X47591587Y-11489088D01*
X47525894Y-11691269D01*
X47497558Y-11870173D01*
X47497552Y-11870215D01*
X47497388Y-11871251D01*
X47492642Y-11901219D01*
X36637054Y-11901219D01*
X32043697Y-7307862D01*
X31960882Y-7225047D01*
X49477557Y-7225047D01*
X49477557Y-7437630D01*
X49498014Y-7566789D01*
X49510811Y-7647586D01*
X49510811Y-7647587D01*
X49536455Y-7726507D01*
X49542866Y-7746239D01*
X49560362Y-7800087D01*
X49576502Y-7849758D01*
X49669589Y-8032451D01*
X49673008Y-8039160D01*
X49797947Y-8211126D01*
X49797949Y-8211128D01*
X49948273Y-8361452D01*
X50120226Y-8486382D01*
X50120257Y-8486400D01*
X50120499Y-8486522D01*
X50309645Y-8582897D01*
X50511814Y-8648586D01*
X50721770Y-8681840D01*
X50721771Y-8681840D01*
X50934343Y-8681840D01*
X50934344Y-8681840D01*
X51144300Y-8648586D01*
X51346469Y-8582897D01*
X51535873Y-8486391D01*
X51609067Y-8433213D01*
X51707843Y-8361449D01*
X51707844Y-8361446D01*
X51707847Y-8361445D01*
X51707849Y-8361444D01*
X51707850Y-8361442D01*
X51707904Y-8361403D01*
X51708662Y-8360630D01*
X51858161Y-8211132D01*
X51858163Y-8211128D01*
X51858166Y-8211126D01*
X51983105Y-8039160D01*
X51983104Y-8039160D01*
X51983108Y-8039156D01*
X51983110Y-8039150D01*
X52003502Y-8011084D01*
X52011787Y-7982869D01*
X52079614Y-7849752D01*
X52145303Y-7647583D01*
X52178557Y-7437627D01*
X52178557Y-7225053D01*
X52145303Y-7015097D01*
X52079614Y-6812928D01*
X51983108Y-6623524D01*
X51983106Y-6623521D01*
X51983105Y-6623519D01*
X51982759Y-6623043D01*
X51982757Y-6623039D01*
X51858169Y-6451556D01*
X51707845Y-6301232D01*
X51707843Y-6301230D01*
X51535877Y-6176291D01*
X51522224Y-6169334D01*
X51368302Y-6090907D01*
X51368297Y-6090905D01*
X51346471Y-6079784D01*
X51346470Y-6079783D01*
X51346469Y-6079783D01*
X51249607Y-6048310D01*
X51153131Y-6016963D01*
X51148609Y-6015110D01*
X51139419Y-6012940D01*
X51134656Y-6012566D01*
X50983014Y-5988548D01*
X50963546Y-5985464D01*
X50934347Y-5980840D01*
X50934344Y-5980840D01*
X50721770Y-5980840D01*
X50721766Y-5980840D01*
X50682833Y-5987006D01*
X50673099Y-5988548D01*
X50635711Y-5994469D01*
X50511820Y-6014092D01*
X50309639Y-6079785D01*
X50120239Y-6176289D01*
X49948267Y-6301232D01*
X49797949Y-6451550D01*
X49673006Y-6623522D01*
X49576502Y-6812920D01*
X49510809Y-7015099D01*
X49477557Y-7225047D01*
X31960882Y-7225047D01*
X23233282Y1502553D01*
X14028620Y10707214D01*
X14007476Y10735457D01*
X14002052Y10745391D01*
X13987199Y10813661D01*
X14011613Y10879126D01*
X14067545Y10920999D01*
X14067555Y10921003D01*
X14074744Y10923684D01*
X14118072Y10931500D01*
X20245280Y10931500D01*
X20245343Y10931499D01*
X20247247Y10931499D01*
X20254843Y10931499D01*
X20412954Y10931499D01*
X20412957Y10931499D01*
X20527503Y10962192D01*
X20565686Y10972423D01*
X20600741Y10992662D01*
X20600741Y10992663D01*
X20615801Y11001358D01*
X20615804Y11001359D01*
X20615804Y11001360D01*
X20636696Y11013422D01*
X20636699Y11013422D01*
X20702595Y11051467D01*
X20702611Y11051477D01*
X20702617Y11051481D01*
X20702622Y11051485D01*
X20825808Y11174671D01*
X20825828Y11174693D01*
X22068354Y12417218D01*
X22096608Y12438369D01*
X22125703Y12454256D01*
X22160938Y12467041D01*
X22299786Y12494659D01*
X22299791Y12494661D01*
X22299801Y12494664D01*
X22299809Y12494667D01*
X22299823Y12494672D01*
X22445465Y12554998D01*
X22445474Y12555003D01*
X22445475Y12555003D01*
X22445485Y12555009D01*
X22445491Y12555013D01*
X22576590Y12642611D01*
X22576591Y12642612D01*
X22576597Y12642617D01*
X22688081Y12754101D01*
X22688086Y12754107D01*
X22688087Y12754108D01*
X22745249Y12839656D01*
X22775690Y12885214D01*
X22775697Y12885227D01*
X22836035Y13030898D01*
X22836037Y13030903D01*
X22866799Y13185553D01*
X22866800Y13185555D01*
X22866800Y13343244D01*
X22866799Y13343246D01*
X22859463Y13380128D01*
X22836037Y13497897D01*
X22775694Y13643579D01*
X22688089Y13774689D01*
X22673228Y13789550D01*
X22576591Y13886188D01*
X22576589Y13886188D01*
X22576589Y13886189D01*
X22445479Y13973794D01*
X22299797Y14034137D01*
X22255938Y14042860D01*
X22222823Y14049448D01*
X22222820Y14049448D01*
X22145145Y14064900D01*
X21987453Y14064900D01*
X21909777Y14049448D01*
X21894158Y14046341D01*
X21832803Y14034137D01*
X21832798Y14034135D01*
X21687127Y13973797D01*
X21687114Y13973790D01*
X21606768Y13920104D01*
X21556011Y13886189D01*
X21556009Y13886188D01*
X21556001Y13886181D01*
X21444517Y13774697D01*
X21444512Y13774691D01*
X21444511Y13774690D01*
X21356913Y13643591D01*
X21356903Y13643574D01*
X21356898Y13643565D01*
X21296572Y13497923D01*
X21296567Y13497909D01*
X21296564Y13497901D01*
X21296563Y13497897D01*
X21296559Y13497883D01*
X21269139Y13360040D01*
X21269140Y13360038D01*
X21257398Y13326754D01*
X21242033Y13297380D01*
X21219838Y13267173D01*
X20134091Y12181426D01*
X20105837Y12160275D01*
X20082749Y12147668D01*
X20023322Y12132500D01*
X-23858171Y12132500D01*
X-23893106Y12137523D01*
X-23908104Y12141927D01*
X-23966855Y12179672D01*
X-23966879Y12179700D01*
X-23966882Y12179702D01*
X-23966883Y12179704D01*
X-23968042Y12181041D01*
X-23995518Y12235902D01*
X-23997163Y12243460D01*
X-24000000Y12269831D01*
X-24000000Y22307670D01*
X-23999999Y22307676D01*
X-24000000Y22307679D01*
X-23994975Y22342614D01*
X-23990570Y22357612D01*
X-23952827Y22416355D01*
X-23952792Y22416385D01*
X-23952791Y22416387D01*
X-23952789Y22416387D01*
X-23951458Y22417542D01*
X-23896597Y22445018D01*
X-23889039Y22446663D01*
X-23862668Y22449500D01*
X37230373Y22449500D01*
X37230375Y22449499D01*
X37230376Y22449500D01*
X37265310Y22444476D01*
X37290551Y22437064D01*
X37343295Y22405769D01*
X47617777Y12131286D01*
X47729581Y12019481D01*
X47729584Y12019479D01*
X47787299Y11986157D01*
X47787300Y11986158D01*
X47807789Y11974328D01*
X47807792Y11974326D01*
X47816395Y11969360D01*
X47866515Y11940423D01*
X47969127Y11912927D01*
X47975047Y11910675D01*
X47982175Y11905264D01*
X48005229Y11894069D01*
X48010758Y11889931D01*
X48010766Y11889926D01*
X48012904Y11888623D01*
X48058835Y11839047D01*
X48109412Y11739786D01*
X48109416Y11739779D01*
X48109419Y11739774D01*
X48243622Y11555061D01*
X48243624Y11555059D01*
X48243624Y11555058D01*
X48405058Y11393624D01*
X48405061Y11393622D01*
X48589771Y11259421D01*
X48589775Y11259418D01*
X48589778Y11259417D01*
X48683263Y11211783D01*
X48793196Y11155770D01*
X49010339Y11085215D01*
X49010342Y11085214D01*
X49010344Y11085214D01*
X49235833Y11049500D01*
X50764162Y11049500D01*
X50764167Y11049500D01*
X50989654Y11085214D01*
X50989660Y11085215D01*
X51206803Y11155770D01*
X51410228Y11259421D01*
X51410231Y11259423D01*
X51417217Y11264498D01*
X51417219Y11264500D01*
X51594937Y11393621D01*
X51756379Y11555063D01*
X51890579Y11739772D01*
X51929373Y11815911D01*
X51949710Y11844758D01*
X51961430Y11857167D01*
X52019194Y11891721D01*
X52032046Y11895197D01*
X52064426Y11899500D01*
X60434218Y11899500D01*
X60469157Y11894476D01*
X60485536Y11889666D01*
X60500022Y11880573D01*
X60515389Y11876416D01*
X60542551Y11853879D01*
X60551482Y11844007D01*
X60570013Y11817113D01*
X60609421Y11739770D01*
X60743623Y11555059D01*
X60905058Y11393624D01*
X60905061Y11393622D01*
X61089771Y11259421D01*
X61089775Y11259418D01*
X61089778Y11259417D01*
X61183263Y11211783D01*
X61293196Y11155770D01*
X61510339Y11085215D01*
X61510342Y11085214D01*
X61510344Y11085214D01*
X61735833Y11049500D01*
X63264162Y11049500D01*
X63264167Y11049500D01*
X63489654Y11085214D01*
X63489660Y11085215D01*
X63706803Y11155770D01*
X63910228Y11259421D01*
X63910231Y11259423D01*
X63917217Y11264498D01*
X63917219Y11264500D01*
X64094937Y11393621D01*
X64256379Y11555063D01*
X64390579Y11739772D01*
X64459325Y11874694D01*
X64494229Y11943196D01*
X64502731Y11969360D01*
X64532978Y12062452D01*
X64564784Y12160339D01*
X64600500Y12385837D01*
X64600500Y12614162D01*
X64564784Y12839660D01*
X64556388Y12865500D01*
X64494231Y13056799D01*
X64390579Y13260228D01*
X64256379Y13444937D01*
X64094937Y13606379D01*
X63910228Y13740579D01*
X63706799Y13844231D01*
X63489660Y13914784D01*
X63489655Y13914784D01*
X63489655Y13914785D01*
X63456072Y13920104D01*
X63456071Y13920104D01*
X63264162Y13950500D01*
X63264161Y13950500D01*
X61735839Y13950500D01*
X61735838Y13950500D01*
X61510339Y13914784D01*
X61455901Y13897095D01*
X61422342Y13886192D01*
X61422336Y13886189D01*
X61422334Y13886189D01*
X61389360Y13875475D01*
X61297825Y13845734D01*
X61294062Y13844672D01*
X61292035Y13843666D01*
X61288347Y13841880D01*
X61286749Y13840944D01*
X61185884Y13789550D01*
X61185882Y13789549D01*
X61089773Y13740580D01*
X61028202Y13695845D01*
X60905063Y13606379D01*
X60743621Y13444937D01*
X60642196Y13305338D01*
X60609421Y13260228D01*
X60568824Y13180552D01*
X60566799Y13177137D01*
X60563670Y13174223D01*
X60550289Y13155241D01*
X60538569Y13142832D01*
X60480798Y13108277D01*
X60467951Y13104802D01*
X60435574Y13100500D01*
X52065782Y13100500D01*
X52030851Y13105522D01*
X52018776Y13109067D01*
X52014470Y13110331D01*
X51957454Y13146113D01*
X51948516Y13155992D01*
X51929973Y13182911D01*
X51928625Y13185558D01*
X51890579Y13260228D01*
X51756379Y13444937D01*
X51594937Y13606379D01*
X51410228Y13740579D01*
X51206799Y13844231D01*
X50989660Y13914784D01*
X50989655Y13914784D01*
X50989655Y13914785D01*
X50956072Y13920104D01*
X50956071Y13920104D01*
X50764162Y13950500D01*
X50764161Y13950500D01*
X49235839Y13950500D01*
X49235838Y13950500D01*
X49010339Y13914784D01*
X48955901Y13897095D01*
X48922342Y13886192D01*
X48922336Y13886189D01*
X48922334Y13886189D01*
X48889360Y13875475D01*
X48797825Y13845734D01*
X48794062Y13844672D01*
X48792035Y13843666D01*
X48788347Y13841880D01*
X48786749Y13840944D01*
X48685884Y13789550D01*
X48685882Y13789549D01*
X48589773Y13740580D01*
X48528202Y13695845D01*
X48405063Y13606379D01*
X48405061Y13606377D01*
X48243622Y13444938D01*
X48243620Y13444935D01*
X48238009Y13437213D01*
X48213413Y13411905D01*
X48202421Y13403429D01*
X48137315Y13378083D01*
X48068838Y13391958D01*
X48057318Y13398037D01*
X48027512Y13420020D01*
X38046261Y23401272D01*
X38046260Y23401275D01*
X38028820Y23418715D01*
X38028820Y23418716D01*
X37917016Y23530520D01*
X37830204Y23580639D01*
X37780085Y23609577D01*
X37627357Y23650501D01*
X37627354Y23650501D01*
X37459743Y23650501D01*
X37459680Y23650500D01*
X-23858171Y23650500D01*
X-23893106Y23655523D01*
X-23908104Y23659927D01*
X-23966855Y23697672D01*
X-23966879Y23697700D01*
X-23966882Y23697702D01*
X-23966883Y23697704D01*
X-23968042Y23699041D01*
X-23995518Y23753902D01*
X-23997163Y23761460D01*
X-24000000Y23787831D01*
X-24000000Y27114734D01*
X-16750500Y27114734D01*
X-16750500Y27073464D01*
X-16750500Y26885266D01*
X-16720548Y26657762D01*
X-16661158Y26436113D01*
X-16661156Y26436109D01*
X-16654744Y26420630D01*
X-16654743Y26420626D01*
X-16585771Y26254110D01*
X-16585771Y26254111D01*
X-16573344Y26224112D01*
X-16573340Y26224104D01*
X-16459699Y26027272D01*
X-16458768Y26025591D01*
X-16458599Y26025371D01*
X-16318918Y25843338D01*
X-16318911Y25843330D01*
X-16156670Y25681089D01*
X-16156661Y25681081D01*
X-16156659Y25681079D01*
X-15974627Y25541399D01*
X-15974621Y25541395D01*
X-15974617Y25541392D01*
X-15974610Y25541388D01*
X-15775881Y25426652D01*
X-15563896Y25338845D01*
X-15563889Y25338843D01*
X-15563887Y25338842D01*
X-15342238Y25279452D01*
X-15304215Y25274446D01*
X-15114742Y25249500D01*
X-14885258Y25249500D01*
X-14885257Y25249500D01*
X-14658119Y25279404D01*
X-14657788Y25279446D01*
X-14657767Y25279450D01*
X-14564076Y25304553D01*
X-14564076Y25304554D01*
X-14507651Y25319672D01*
X-14436107Y25338843D01*
X-14224117Y25426652D01*
X-14025388Y25541388D01*
X-14025371Y25541399D01*
X-13843342Y25681077D01*
X-13843332Y25681086D01*
X-13681086Y25843332D01*
X-13681077Y25843342D01*
X-13541399Y26025371D01*
X-13541388Y26025388D01*
X-13426652Y26224117D01*
X-13338845Y26436102D01*
X-13338842Y26436112D01*
X-13279453Y26657759D01*
X-13279453Y26657760D01*
X-13279452Y26657762D01*
X-13279451Y26657770D01*
X-13279450Y26657773D01*
X-13279448Y26657789D01*
X-13249500Y26885257D01*
X-13249500Y27110807D01*
X-13249500Y27114741D01*
X13249500Y27114741D01*
X13249500Y26885257D01*
X13279448Y26657789D01*
X13279450Y26657773D01*
X13279451Y26657770D01*
X13279452Y26657762D01*
X13279453Y26657760D01*
X13279453Y26657759D01*
X13338842Y26436112D01*
X13338845Y26436102D01*
X13426652Y26224117D01*
X13541388Y26025388D01*
X13541399Y26025371D01*
X13681077Y25843342D01*
X13681086Y25843332D01*
X13843332Y25681086D01*
X13843342Y25681077D01*
X14025371Y25541399D01*
X14025388Y25541388D01*
X14224117Y25426652D01*
X14436107Y25338843D01*
X14507651Y25319672D01*
X14564076Y25304554D01*
X14564076Y25304553D01*
X14657767Y25279450D01*
X14657788Y25279446D01*
X14658119Y25279404D01*
X14885257Y25249500D01*
X15114741Y25249500D01*
X15114742Y25249500D01*
X15304215Y25274446D01*
X15342238Y25279452D01*
X15563887Y25338842D01*
X15563889Y25338843D01*
X15563896Y25338845D01*
X15775881Y25426652D01*
X15974610Y25541388D01*
X15974617Y25541392D01*
X15974621Y25541395D01*
X15974627Y25541399D01*
X16156659Y25681079D01*
X16156661Y25681081D01*
X16156670Y25681089D01*
X16318911Y25843330D01*
X16318918Y25843338D01*
X16458599Y26025371D01*
X16458768Y26025591D01*
X16459699Y26027272D01*
X16573340Y26224104D01*
X16573344Y26224112D01*
X16585771Y26254111D01*
X16585771Y26254110D01*
X16654743Y26420626D01*
X16654744Y26420630D01*
X16661156Y26436109D01*
X16661158Y26436113D01*
X16720548Y26657762D01*
X16750500Y26885266D01*
X16750500Y27114734D01*
X16720548Y27342238D01*
X16661158Y27563887D01*
X16573344Y27775888D01*
X16458611Y27974612D01*
X16318919Y28156661D01*
X16318914Y28156665D01*
X16318911Y28156670D01*
X16314059Y28161522D01*
X16161512Y28314070D01*
X16160822Y28314840D01*
X16157167Y28318422D01*
X16156689Y28318895D01*
X16156675Y28318906D01*
X16156670Y28318911D01*
X16156665Y28318914D01*
X16156661Y28318919D01*
X16156518Y28319028D01*
X16156143Y28319322D01*
X16156142Y28319323D01*
X16151795Y28322716D01*
X16151061Y28323216D01*
X15974617Y28458607D01*
X15974612Y28458611D01*
X15775888Y28573344D01*
X15563887Y28661158D01*
X15342238Y28720548D01*
X15114734Y28750500D01*
X15114727Y28750500D01*
X14885273Y28750500D01*
X14885266Y28750500D01*
X14657762Y28720548D01*
X14436113Y28661158D01*
X14315480Y28611190D01*
X14224731Y28573601D01*
X14224139Y28573360D01*
X14027272Y28459699D01*
X14025591Y28458768D01*
X13848939Y28323216D01*
X13843338Y28318918D01*
X13843330Y28318911D01*
X13681089Y28156670D01*
X13681085Y28156665D01*
X13681079Y28156659D01*
X13541399Y27974627D01*
X13541395Y27974621D01*
X13541392Y27974617D01*
X13541389Y27974612D01*
X13541388Y27974610D01*
X13426652Y27775881D01*
X13358600Y27611587D01*
X13338845Y27563896D01*
X13338843Y27563889D01*
X13338842Y27563887D01*
X13328556Y27525500D01*
X13279452Y27342240D01*
X13279414Y27342036D01*
X13279284Y27340964D01*
X13249500Y27114741D01*
X-13249500Y27114741D01*
X-13279320Y27341236D01*
X-13279318Y27341246D01*
X-13279414Y27342036D01*
X-13279452Y27342240D01*
X-13328556Y27525500D01*
X-13338842Y27563887D01*
X-13338843Y27563889D01*
X-13338845Y27563896D01*
X-13358600Y27611587D01*
X-13426652Y27775881D01*
X-13541388Y27974610D01*
X-13541389Y27974612D01*
X-13541392Y27974617D01*
X-13541395Y27974621D01*
X-13541399Y27974627D01*
X-13681079Y28156659D01*
X-13681085Y28156665D01*
X-13681089Y28156670D01*
X-13843330Y28318911D01*
X-13843338Y28318918D01*
X-13848939Y28323216D01*
X-14025583Y28458762D01*
X-14027149Y28459628D01*
X-14027338Y28459737D01*
X-14224112Y28573344D01*
X-14224117Y28573346D01*
X-14224123Y28573349D01*
X-14315480Y28611190D01*
X-14315481Y28611191D01*
X-14375796Y28636174D01*
X-14436113Y28661158D01*
X-14657762Y28720548D01*
X-14885266Y28750500D01*
X-14885273Y28750500D01*
X-15114727Y28750500D01*
X-15114734Y28750500D01*
X-15342238Y28720548D01*
X-15563887Y28661158D01*
X-15775888Y28573344D01*
X-15974612Y28458611D01*
X-16156661Y28318919D01*
X-16156665Y28318914D01*
X-16156670Y28318911D01*
X-16160741Y28314840D01*
X-16161520Y28314061D01*
X-16161522Y28314059D01*
X-16314070Y28161512D01*
X-16314840Y28160822D01*
X-16318422Y28157167D01*
X-16318895Y28156689D01*
X-16318905Y28156675D01*
X-16318911Y28156670D01*
X-16318914Y28156665D01*
X-16318919Y28156661D01*
X-16319028Y28156518D01*
X-16319322Y28156143D01*
X-16319323Y28156142D01*
X-16322716Y28151795D01*
X-16323215Y28151061D01*
X-16458611Y27974612D01*
X-16573344Y27775888D01*
X-16661158Y27563887D01*
X-16720548Y27342238D01*
X-16750500Y27114734D01*
X-24000000Y27114734D01*
X-24000000Y27274472D01*
X-23994976Y27309409D01*
X-23987564Y27334650D01*
X-23956269Y27387394D01*
X-19445805Y31897859D01*
X27379500Y31897859D01*
X27379500Y30102122D01*
X27379659Y30100192D01*
X27379885Y30098545D01*
X27385908Y30042516D01*
X27436204Y29907666D01*
X27436205Y29907665D01*
X27522450Y29792456D01*
X27522456Y29792450D01*
X27637665Y29706205D01*
X27637668Y29706203D01*
X27637674Y29706200D01*
X27681291Y29689931D01*
X27681308Y29689926D01*
X27772517Y29655908D01*
X27772516Y29655908D01*
X27832116Y29649501D01*
X27832119Y29649500D01*
X27832127Y29649500D01*
X27832134Y29649500D01*
X27832135Y29649500D01*
X27835589Y29649500D01*
X29627870Y29649500D01*
X29627876Y29649500D01*
X29629806Y29649659D01*
X29631454Y29649885D01*
X29687482Y29655907D01*
X29761971Y29683690D01*
X29822328Y29706202D01*
X29822335Y29706206D01*
X29879616Y29749086D01*
X29937542Y29792450D01*
X29937548Y29792456D01*
X29976702Y29844759D01*
X30023793Y29907664D01*
X30023797Y29907671D01*
X30066579Y30022376D01*
X30083491Y30053350D01*
X30091808Y30064461D01*
X30147740Y30106334D01*
X30217432Y30111321D01*
X30217445Y30111318D01*
X30221930Y30110342D01*
X30283244Y30076860D01*
X30390218Y29969886D01*
X30562182Y29844949D01*
X30751580Y29748445D01*
X30860790Y29712961D01*
X30890258Y29692810D01*
X31123248Y29655909D01*
X31139434Y29653345D01*
X31163710Y29649500D01*
X31376287Y29649500D01*
X31376291Y29649500D01*
X31426972Y29657527D01*
X31439644Y29659534D01*
X31468454Y29664097D01*
X31571835Y29680471D01*
X31571842Y29680472D01*
X31586239Y29682753D01*
X31586241Y29682753D01*
X31586243Y29682754D01*
X31599758Y29687145D01*
X31599769Y29687148D01*
X31788416Y29748444D01*
X31977443Y29844759D01*
X31977803Y29844940D01*
X31977826Y29844954D01*
X32149782Y29969886D01*
X32300106Y30120210D01*
X32300109Y30120213D01*
X32425048Y30292179D01*
X32425051Y30292184D01*
X32521557Y30481588D01*
X32587246Y30683757D01*
X32620500Y30893713D01*
X32620500Y31106287D01*
X32587246Y31316243D01*
X32521557Y31518412D01*
X32425051Y31707816D01*
X32301736Y31877546D01*
X32300109Y31879786D01*
X32300108Y31879786D01*
X32300076Y31879831D01*
X32300075Y31879831D01*
X32300065Y31879845D01*
X32299295Y31880600D01*
X32149792Y32030104D01*
X32149788Y32030106D01*
X32149786Y32030109D01*
X32058636Y32096332D01*
X31978553Y32154516D01*
X31977896Y32154999D01*
X31977827Y32155042D01*
X31977820Y32155048D01*
X31977816Y32155051D01*
X31788412Y32251557D01*
X31586243Y32317246D01*
X31376287Y32350500D01*
X31376286Y32350500D01*
X31163714Y32350500D01*
X31163713Y32350500D01*
X30953757Y32317246D01*
X30751588Y32251557D01*
X30562184Y32155051D01*
X30562181Y32155049D01*
X30562179Y32155048D01*
X30561703Y32154702D01*
X30561699Y32154700D01*
X30390216Y32030112D01*
X30390213Y32030109D01*
X30289277Y31929173D01*
X30261030Y31908027D01*
X30248842Y31901372D01*
X30180572Y31886521D01*
X30115111Y31910935D01*
X30111423Y31913696D01*
X30069563Y31969620D01*
X30062382Y31988875D01*
X30023796Y32092331D01*
X29937546Y32207546D01*
X29822331Y32293796D01*
X29687483Y32344091D01*
X29627873Y32350500D01*
X27832128Y32350499D01*
X27783757Y32345299D01*
X27783756Y32345300D01*
X27783749Y32345298D01*
X27772516Y32344091D01*
X27637671Y32293797D01*
X27637664Y32293793D01*
X27581242Y32251555D01*
X27522456Y32207548D01*
X27522450Y32207542D01*
X27436205Y32092333D01*
X27436203Y32092330D01*
X27385907Y31957482D01*
X27379501Y31897882D01*
X27379500Y31897859D01*
X-19445805Y31897859D01*
X-19356489Y31987175D01*
X-14078923Y37264741D01*
X21949500Y37264741D01*
X21949500Y37260807D01*
X21949500Y37035257D01*
X21979448Y36807789D01*
X21979450Y36807773D01*
X21979451Y36807770D01*
X21979452Y36807762D01*
X21979453Y36807760D01*
X21979453Y36807759D01*
X22038842Y36586112D01*
X22038845Y36586102D01*
X22126652Y36374117D01*
X22241388Y36175388D01*
X22241399Y36175371D01*
X22381077Y35993342D01*
X22381086Y35993332D01*
X22543332Y35831086D01*
X22543342Y35831077D01*
X22725371Y35691399D01*
X22725388Y35691388D01*
X22924117Y35576652D01*
X23136107Y35488843D01*
X23207651Y35469672D01*
X23264076Y35454554D01*
X23264076Y35454553D01*
X23357767Y35429450D01*
X23357788Y35429446D01*
X23358119Y35429404D01*
X23585257Y35399500D01*
X23814741Y35399500D01*
X23814742Y35399500D01*
X24004215Y35424446D01*
X24042238Y35429452D01*
X24263887Y35488842D01*
X24263892Y35488844D01*
X24263903Y35488848D01*
X24293684Y35501184D01*
X24293686Y35501185D01*
X24475872Y35576648D01*
X24475881Y35576652D01*
X24490171Y35584902D01*
X24674617Y35691392D01*
X24674621Y35691395D01*
X24674627Y35691399D01*
X24856659Y35831079D01*
X24856661Y35831081D01*
X24856670Y35831089D01*
X25018911Y35993330D01*
X25018918Y35993338D01*
X25078589Y36071102D01*
X25158768Y36175591D01*
X25159699Y36177272D01*
X25273340Y36374104D01*
X25273344Y36374112D01*
X25285771Y36404111D01*
X25285771Y36404110D01*
X25354743Y36570626D01*
X25354744Y36570630D01*
X25361156Y36586109D01*
X25361158Y36586113D01*
X25420548Y36807762D01*
X25450500Y37035266D01*
X25450500Y37264734D01*
X25450499Y37264741D01*
X34549500Y37264741D01*
X34549500Y37260807D01*
X34549500Y37035257D01*
X34579448Y36807789D01*
X34579450Y36807773D01*
X34579451Y36807770D01*
X34579452Y36807762D01*
X34579453Y36807760D01*
X34579453Y36807759D01*
X34638842Y36586112D01*
X34638845Y36586102D01*
X34726652Y36374117D01*
X34841388Y36175388D01*
X34841399Y36175371D01*
X34981077Y35993342D01*
X34981086Y35993332D01*
X35143332Y35831086D01*
X35143342Y35831077D01*
X35325371Y35691399D01*
X35325388Y35691388D01*
X35524117Y35576652D01*
X35736107Y35488843D01*
X35807651Y35469672D01*
X35864076Y35454554D01*
X35864076Y35454553D01*
X35957767Y35429450D01*
X35957788Y35429446D01*
X35958119Y35429404D01*
X36185257Y35399500D01*
X36414741Y35399500D01*
X36414742Y35399500D01*
X36604215Y35424446D01*
X36642238Y35429452D01*
X36863887Y35488842D01*
X36863892Y35488844D01*
X36863903Y35488848D01*
X36893684Y35501184D01*
X36893686Y35501185D01*
X37075872Y35576648D01*
X37075881Y35576652D01*
X37090171Y35584902D01*
X37274617Y35691392D01*
X37274621Y35691395D01*
X37274627Y35691399D01*
X37456659Y35831079D01*
X37456661Y35831081D01*
X37456670Y35831089D01*
X37618911Y35993330D01*
X37618918Y35993338D01*
X37678589Y36071102D01*
X37758768Y36175591D01*
X37759699Y36177272D01*
X37873340Y36374104D01*
X37873344Y36374112D01*
X37885771Y36404111D01*
X37885771Y36404110D01*
X37954743Y36570626D01*
X37954744Y36570630D01*
X37961156Y36586109D01*
X37961158Y36586113D01*
X38020548Y36807762D01*
X38050500Y37035266D01*
X38050500Y37264734D01*
X38020548Y37492238D01*
X37961158Y37713887D01*
X37873344Y37925888D01*
X37758611Y38124612D01*
X37618919Y38306661D01*
X37618914Y38306665D01*
X37618911Y38306670D01*
X37614059Y38311522D01*
X37461512Y38464070D01*
X37460822Y38464840D01*
X37457167Y38468422D01*
X37456689Y38468895D01*
X37456675Y38468906D01*
X37456670Y38468911D01*
X37456665Y38468914D01*
X37456661Y38468919D01*
X37456518Y38469028D01*
X37456143Y38469322D01*
X37456142Y38469323D01*
X37451795Y38472716D01*
X37451061Y38473216D01*
X37274617Y38608607D01*
X37274612Y38608611D01*
X37075888Y38723344D01*
X36863887Y38811158D01*
X36642238Y38870548D01*
X36414734Y38900500D01*
X36414727Y38900500D01*
X36185273Y38900500D01*
X36185266Y38900500D01*
X35957762Y38870548D01*
X35736113Y38811158D01*
X35617805Y38762153D01*
X35524731Y38723601D01*
X35524139Y38723360D01*
X35327272Y38609699D01*
X35325591Y38608768D01*
X35148939Y38473216D01*
X35143338Y38468918D01*
X35143330Y38468911D01*
X34981089Y38306670D01*
X34981085Y38306665D01*
X34981079Y38306659D01*
X34841399Y38124627D01*
X34841395Y38124621D01*
X34841392Y38124617D01*
X34726657Y37925890D01*
X34726650Y37925876D01*
X34647925Y37735815D01*
X34638842Y37713887D01*
X34582653Y37504182D01*
X34579453Y37492241D01*
X34579414Y37492036D01*
X34579319Y37491257D01*
X34579320Y37491236D01*
X34549500Y37264741D01*
X25450499Y37264741D01*
X25420548Y37492238D01*
X25361158Y37713887D01*
X25273344Y37925888D01*
X25158611Y38124612D01*
X25018919Y38306661D01*
X25018914Y38306665D01*
X25018911Y38306670D01*
X25014059Y38311522D01*
X24861512Y38464070D01*
X24860822Y38464840D01*
X24857167Y38468422D01*
X24856689Y38468895D01*
X24856675Y38468906D01*
X24856670Y38468911D01*
X24856665Y38468914D01*
X24856661Y38468919D01*
X24856518Y38469028D01*
X24856143Y38469322D01*
X24856142Y38469323D01*
X24851795Y38472716D01*
X24851061Y38473216D01*
X24674617Y38608607D01*
X24674612Y38608611D01*
X24475888Y38723344D01*
X24263887Y38811158D01*
X24042238Y38870548D01*
X23814734Y38900500D01*
X23814727Y38900500D01*
X23585273Y38900500D01*
X23585266Y38900500D01*
X23357762Y38870548D01*
X23136113Y38811158D01*
X23017805Y38762153D01*
X22924731Y38723601D01*
X22924139Y38723360D01*
X22727272Y38609699D01*
X22725591Y38608768D01*
X22548939Y38473216D01*
X22543338Y38468918D01*
X22543330Y38468911D01*
X22381089Y38306670D01*
X22381085Y38306665D01*
X22381079Y38306659D01*
X22241399Y38124627D01*
X22241395Y38124621D01*
X22241392Y38124617D01*
X22126657Y37925890D01*
X22126650Y37925876D01*
X22047925Y37735815D01*
X22038842Y37713887D01*
X21982653Y37504182D01*
X21979453Y37492241D01*
X21979414Y37492036D01*
X21979319Y37491257D01*
X21979320Y37491236D01*
X21949500Y37264741D01*
X-14078923Y37264741D01*
X-13987182Y37356482D01*
X-4069691Y47273972D01*
X-4041442Y47295120D01*
X-4018353Y47307729D01*
X-3958921Y47322900D01*
X29064780Y47322900D01*
X29064843Y47322899D01*
X29066747Y47322899D01*
X29074343Y47322899D01*
X29232454Y47322899D01*
X29232457Y47322899D01*
X29347003Y47353592D01*
X29385186Y47363823D01*
X29420241Y47384062D01*
X29420241Y47384063D01*
X29435301Y47392758D01*
X29435304Y47392759D01*
X29435304Y47392760D01*
X29456196Y47404822D01*
X29456199Y47404822D01*
X29522095Y47442867D01*
X29522111Y47442877D01*
X29522117Y47442881D01*
X29522122Y47442885D01*
X29645308Y47566071D01*
X29645328Y47566093D01*
X32042865Y49963630D01*
X32042870Y49963635D01*
X32071121Y49984784D01*
X32086105Y49992966D01*
X32151729Y50007979D01*
X32165020Y50007314D01*
X32197138Y50001401D01*
X32223754Y49992753D01*
X32223760Y49992752D01*
X32405004Y49964045D01*
X32405005Y49964046D01*
X32433712Y49959500D01*
X32433713Y49959500D01*
X32433714Y49959500D01*
X32646286Y49959500D01*
X32646287Y49959500D01*
X32751985Y49976241D01*
X32846598Y49991226D01*
X32851362Y49991601D01*
X32860552Y49993770D01*
X32865074Y49995623D01*
X33058416Y50058444D01*
X33247443Y50154759D01*
X33247803Y50154940D01*
X33247826Y50154954D01*
X33419782Y50279886D01*
X33570106Y50430210D01*
X33570109Y50430213D01*
X33695050Y50602182D01*
X33695054Y50602190D01*
X33695363Y50602693D01*
X33696496Y50604174D01*
X33697912Y50606122D01*
X33697960Y50606086D01*
X33710934Y50623034D01*
X33720643Y50633315D01*
X33780983Y50668541D01*
X33850789Y50665552D01*
X33904507Y50629383D01*
X33910708Y50622227D01*
X33922723Y50605814D01*
X33924943Y50602190D01*
X34049892Y50430210D01*
X34200210Y50279892D01*
X34365964Y50159466D01*
X34365969Y50159462D01*
X34372184Y50154948D01*
X34372185Y50154947D01*
X34397716Y50141938D01*
X34399543Y50140930D01*
X34401623Y50138829D01*
X34424758Y50122521D01*
X34437167Y50110801D01*
X34471720Y50053039D01*
X34475196Y50040192D01*
X34479500Y50007806D01*
X34479500Y45019059D01*
X34479499Y45019046D01*
X34479499Y44893037D01*
X34473601Y44872951D01*
X34520425Y44698206D01*
X34528577Y44684085D01*
X34528587Y44684072D01*
X34549359Y44648096D01*
X34549360Y44648095D01*
X34599481Y44561282D01*
X34599481Y44561281D01*
X34599485Y44561276D01*
X45070569Y34090193D01*
X45070572Y34090192D01*
X45091723Y34061938D01*
X45104331Y34038849D01*
X45119500Y33979420D01*
X45119500Y18377594D01*
X45114476Y18342657D01*
X45105136Y18310850D01*
X45089262Y18276896D01*
X45010609Y18159185D01*
X45010606Y18159179D01*
X45010603Y18159174D01*
X45010598Y18159165D01*
X44950264Y18013502D01*
X44950264Y18013501D01*
X44950261Y18013491D01*
X44950257Y18013471D01*
X44919500Y17858848D01*
X44919500Y17701150D01*
X44919499Y17701150D01*
X44950257Y17546527D01*
X44950264Y17546496D01*
X45010598Y17400833D01*
X45010603Y17400824D01*
X45010613Y17400807D01*
X45098211Y17269708D01*
X45098212Y17269707D01*
X45098217Y17269701D01*
X45209701Y17158217D01*
X45209707Y17158212D01*
X45209708Y17158211D01*
X45340807Y17070613D01*
X45340824Y17070603D01*
X45340833Y17070598D01*
X45486496Y17010264D01*
X45486527Y17010257D01*
X45641151Y16979500D01*
X45798846Y16979500D01*
X45798848Y16979500D01*
X45953471Y17010257D01*
X45953502Y17010264D01*
X46099165Y17070598D01*
X46099174Y17070603D01*
X46099175Y17070603D01*
X46099185Y17070609D01*
X46099191Y17070613D01*
X46230290Y17158211D01*
X46230291Y17158212D01*
X46230297Y17158217D01*
X46341781Y17269701D01*
X46341786Y17269707D01*
X46341787Y17269708D01*
X46429385Y17400807D01*
X46429390Y17400814D01*
X46429397Y17400827D01*
X46489735Y17546498D01*
X46489737Y17546503D01*
X46520499Y17701153D01*
X46520500Y17701155D01*
X46520500Y17858844D01*
X46520499Y17858846D01*
X46519531Y17863713D01*
X46489737Y18013497D01*
X46429394Y18159179D01*
X46351300Y18276053D01*
X46336070Y18307889D01*
X46326165Y18339523D01*
X46320500Y18376575D01*
X46320500Y34369053D01*
X46320500Y34369056D01*
X46320499Y34369061D01*
X46312082Y34400475D01*
X46312081Y34400480D01*
X46279577Y34521785D01*
X46249300Y34574225D01*
X46200520Y34658716D01*
X46088716Y34770520D01*
X46088715Y34770520D01*
X46071279Y34787956D01*
X46071272Y34787960D01*
X44597956Y36261276D01*
X50006078Y36261276D01*
X50006078Y36256898D01*
X50006078Y36009353D01*
X50045488Y35760527D01*
X50045488Y35760524D01*
X50105234Y35576648D01*
X50123338Y35520931D01*
X50169974Y35429404D01*
X50237712Y35296462D01*
X50385766Y35092682D01*
X50385788Y35092653D01*
X50563916Y34914525D01*
X50563945Y34914503D01*
X50767725Y34766449D01*
X50767729Y34766447D01*
X50992194Y34652075D01*
X51036860Y34637561D01*
X51138822Y34604432D01*
X51168289Y34584282D01*
X51397675Y34547951D01*
X51480612Y34534815D01*
X51480616Y34534815D01*
X51480617Y34534815D01*
X51732539Y34534815D01*
X51732540Y34534815D01*
X51856951Y34554520D01*
X51981365Y34574225D01*
X52220965Y34652076D01*
X52375325Y34730728D01*
X52445420Y34766443D01*
X52445426Y34766447D01*
X52451033Y34770521D01*
X52649227Y34914516D01*
X52649232Y34914520D01*
X52649233Y34914521D01*
X52649238Y34914525D01*
X52827366Y35092653D01*
X52827369Y35092657D01*
X52827372Y35092660D01*
X52827376Y35092665D01*
X52975445Y35296466D01*
X52975448Y35296470D01*
X53048874Y35440577D01*
X53079756Y35501185D01*
X53089817Y35520930D01*
X53089817Y35520931D01*
X53096321Y35540946D01*
X53167667Y35760525D01*
X53167667Y35760528D01*
X53167668Y35760530D01*
X53207078Y36009353D01*
X53207078Y36261277D01*
X53167668Y36510100D01*
X53089819Y36749694D01*
X52975448Y36974160D01*
X52827371Y37177971D01*
X52649234Y37356108D01*
X52445423Y37504185D01*
X52220957Y37618556D01*
X51981363Y37696405D01*
X51732540Y37735815D01*
X51732539Y37735815D01*
X51480617Y37735815D01*
X51480616Y37735815D01*
X51231793Y37696405D01*
X51231790Y37696404D01*
X51231788Y37696404D01*
X51000237Y37621168D01*
X51000232Y37621166D01*
X50992199Y37618556D01*
X50992196Y37618554D01*
X50992194Y37618554D01*
X50987798Y37616314D01*
X50987003Y37616004D01*
X50985751Y37615271D01*
X50947330Y37595694D01*
X50910761Y37577062D01*
X50910762Y37577062D01*
X50767731Y37504184D01*
X50759512Y37498212D01*
X50751292Y37492240D01*
X50563928Y37356113D01*
X50563923Y37356109D01*
X50563920Y37356106D01*
X50563916Y37356103D01*
X50385788Y37177975D01*
X50385785Y37177971D01*
X50385783Y37177969D01*
X50385779Y37177964D01*
X50385766Y37177946D01*
X50282104Y37035266D01*
X50237710Y36974163D01*
X50152922Y36807759D01*
X50123336Y36749694D01*
X50122673Y36747921D01*
X50122009Y36745609D01*
X50045488Y36510104D01*
X50045488Y36510101D01*
X50018432Y36339278D01*
X50018418Y36339187D01*
X50018339Y36338686D01*
X50006078Y36261276D01*
X44597956Y36261276D01*
X35729419Y45129814D01*
X35708272Y45158066D01*
X35695666Y45181154D01*
X35680500Y45240577D01*
X35680500Y50006451D01*
X35685522Y50041384D01*
X35690331Y50057763D01*
X35726115Y50114779D01*
X35735988Y50123712D01*
X35762881Y50142243D01*
X35787814Y50154947D01*
X35787815Y50154948D01*
X35959786Y50279890D01*
X36110109Y50430213D01*
X36235050Y50602182D01*
X36235054Y50602190D01*
X36235363Y50602693D01*
X36236496Y50604174D01*
X36237912Y50606122D01*
X36237960Y50606086D01*
X36250934Y50623034D01*
X36260643Y50633315D01*
X36320983Y50668541D01*
X36390789Y50665552D01*
X36444507Y50629383D01*
X36450708Y50622227D01*
X36462723Y50605814D01*
X36464943Y50602190D01*
X36589892Y50430210D01*
X36740210Y50279892D01*
X36912182Y50154949D01*
X37101580Y50058445D01*
X37210790Y50022961D01*
X37240258Y50002810D01*
X37473248Y49965909D01*
X37485011Y49964046D01*
X37513710Y49959500D01*
X37513713Y49959500D01*
X37513714Y49959500D01*
X37726286Y49959500D01*
X37726287Y49959500D01*
X37831985Y49976241D01*
X37926598Y49991226D01*
X37931362Y49991601D01*
X37940552Y49993770D01*
X37945074Y49995623D01*
X38138416Y50058444D01*
X38327443Y50154759D01*
X38327803Y50154940D01*
X38327826Y50154954D01*
X38499782Y50279886D01*
X38650106Y50430210D01*
X38650109Y50430213D01*
X38775048Y50602179D01*
X38779515Y50610946D01*
X38785675Y50623034D01*
X38836011Y50721826D01*
X38871557Y50791588D01*
X38937246Y50993757D01*
X38970500Y51203713D01*
X38970500Y51416287D01*
X38937246Y51626243D01*
X38871557Y51828412D01*
X38775051Y52017816D01*
X38728279Y52082193D01*
X38650109Y52189786D01*
X38650106Y52189788D01*
X38650104Y52189792D01*
X38650101Y52189794D01*
X38650065Y52189845D01*
X38649303Y52190592D01*
X38499792Y52340104D01*
X38499788Y52340106D01*
X38499786Y52340109D01*
X38408636Y52406332D01*
X38328553Y52464516D01*
X38327896Y52464999D01*
X38327827Y52465042D01*
X38327820Y52465048D01*
X38327816Y52465051D01*
X38138412Y52561557D01*
X37936243Y52627246D01*
X37726287Y52660500D01*
X37726286Y52660500D01*
X37513714Y52660500D01*
X37513713Y52660500D01*
X37303757Y52627246D01*
X37101588Y52561557D01*
X36912184Y52465051D01*
X36912181Y52465049D01*
X36912179Y52465048D01*
X36911703Y52464702D01*
X36911699Y52464700D01*
X36740216Y52340112D01*
X36740213Y52340109D01*
X36589890Y52189786D01*
X36464951Y52017820D01*
X36464949Y52017816D01*
X36464634Y52017302D01*
X36463482Y52015797D01*
X36462087Y52013877D01*
X36462038Y52013911D01*
X36449063Y51996961D01*
X36439356Y51986683D01*
X36379018Y51951458D01*
X36309213Y51954446D01*
X36255491Y51990618D01*
X36249286Y51997779D01*
X36237267Y52014199D01*
X36235058Y52017803D01*
X36235051Y52017816D01*
X36188279Y52082193D01*
X36110109Y52189786D01*
X36110106Y52189788D01*
X36110104Y52189792D01*
X36110101Y52189794D01*
X36110065Y52189845D01*
X36109303Y52190592D01*
X35959792Y52340104D01*
X35959788Y52340106D01*
X35959786Y52340109D01*
X35868636Y52406332D01*
X35788553Y52464516D01*
X35787896Y52464999D01*
X35787827Y52465042D01*
X35787820Y52465048D01*
X35787816Y52465051D01*
X35598412Y52561557D01*
X35396243Y52627246D01*
X35186287Y52660500D01*
X35186286Y52660500D01*
X34973714Y52660500D01*
X34973713Y52660500D01*
X34763757Y52627246D01*
X34561588Y52561557D01*
X34372184Y52465051D01*
X34372181Y52465049D01*
X34372179Y52465048D01*
X34371703Y52464702D01*
X34371699Y52464700D01*
X34200216Y52340112D01*
X34200213Y52340109D01*
X34049890Y52189786D01*
X33924951Y52017820D01*
X33924949Y52017816D01*
X33924634Y52017302D01*
X33923482Y52015797D01*
X33922087Y52013877D01*
X33922038Y52013911D01*
X33909063Y51996961D01*
X33899356Y51986683D01*
X33839018Y51951458D01*
X33769213Y51954446D01*
X33715491Y51990618D01*
X33709286Y51997779D01*
X33697267Y52014199D01*
X33695058Y52017803D01*
X33695051Y52017816D01*
X33648279Y52082193D01*
X33570109Y52189786D01*
X33570106Y52189788D01*
X33570104Y52189792D01*
X33570101Y52189794D01*
X33570065Y52189845D01*
X33569303Y52190592D01*
X33419792Y52340104D01*
X33419788Y52340106D01*
X33419786Y52340109D01*
X33328636Y52406332D01*
X33248553Y52464516D01*
X33247896Y52464999D01*
X33247827Y52465042D01*
X33247820Y52465048D01*
X33247816Y52465051D01*
X33058412Y52561557D01*
X32856243Y52627246D01*
X32646287Y52660500D01*
X32646286Y52660500D01*
X32433714Y52660500D01*
X32433713Y52660500D01*
X32223757Y52627246D01*
X32021588Y52561557D01*
X31832184Y52465051D01*
X31832181Y52465049D01*
X31832179Y52465048D01*
X31831703Y52464702D01*
X31831699Y52464700D01*
X31660216Y52340112D01*
X31660213Y52340109D01*
X31509890Y52189786D01*
X31384951Y52017820D01*
X31384949Y52017816D01*
X31384634Y52017302D01*
X31383482Y52015797D01*
X31382087Y52013877D01*
X31382038Y52013911D01*
X31369063Y51996961D01*
X31359356Y51986683D01*
X31299018Y51951458D01*
X31229213Y51954446D01*
X31175491Y51990618D01*
X31169286Y51997779D01*
X31157267Y52014199D01*
X31155058Y52017803D01*
X31155051Y52017816D01*
X31108279Y52082193D01*
X31030109Y52189786D01*
X31030106Y52189788D01*
X31030104Y52189792D01*
X31030101Y52189794D01*
X31030065Y52189845D01*
X31029303Y52190592D01*
X30879792Y52340104D01*
X30879788Y52340106D01*
X30879786Y52340109D01*
X30788636Y52406332D01*
X30708553Y52464516D01*
X30707896Y52464999D01*
X30707827Y52465042D01*
X30707820Y52465048D01*
X30707816Y52465051D01*
X30518412Y52561557D01*
X30316243Y52627246D01*
X30106287Y52660500D01*
X30106286Y52660500D01*
X29893714Y52660500D01*
X29893713Y52660500D01*
X29683757Y52627246D01*
X29481588Y52561557D01*
X29292184Y52465051D01*
X29292181Y52465049D01*
X29292179Y52465048D01*
X29291703Y52464702D01*
X29291699Y52464700D01*
X29120216Y52340112D01*
X29120213Y52340109D01*
X28969890Y52189786D01*
X28844951Y52017820D01*
X28844949Y52017816D01*
X28844634Y52017302D01*
X28843482Y52015797D01*
X28842087Y52013877D01*
X28842038Y52013911D01*
X28829063Y51996961D01*
X28819356Y51986683D01*
X28759018Y51951458D01*
X28689213Y51954446D01*
X28635491Y51990618D01*
X28629286Y51997779D01*
X28617267Y52014199D01*
X28615058Y52017803D01*
X28615051Y52017816D01*
X28568279Y52082193D01*
X28490109Y52189786D01*
X28490106Y52189788D01*
X28490104Y52189792D01*
X28490101Y52189794D01*
X28490065Y52189845D01*
X28489303Y52190592D01*
X28339792Y52340104D01*
X28339788Y52340106D01*
X28339786Y52340109D01*
X28248636Y52406332D01*
X28168553Y52464516D01*
X28167896Y52464999D01*
X28167827Y52465042D01*
X28167820Y52465048D01*
X28167816Y52465051D01*
X27978412Y52561557D01*
X27776243Y52627246D01*
X27566287Y52660500D01*
X27566286Y52660500D01*
X27353714Y52660500D01*
X27353713Y52660500D01*
X27143757Y52627246D01*
X26941588Y52561557D01*
X26752184Y52465051D01*
X26752181Y52465049D01*
X26752179Y52465048D01*
X26751703Y52464702D01*
X26751699Y52464700D01*
X26580216Y52340112D01*
X26429886Y52189782D01*
X26304954Y52017826D01*
X26304940Y52017803D01*
X26304759Y52017443D01*
X26208442Y51828412D01*
X26208440Y51828406D01*
X26190000Y51771651D01*
X26190000Y51771649D01*
X26142752Y51626239D01*
X26109500Y51416291D01*
X26109500Y51203707D01*
X26142752Y50993759D01*
X26208445Y50791580D01*
X26304949Y50602182D01*
X26429892Y50430210D01*
X26580210Y50279892D01*
X26752182Y50154949D01*
X26941580Y50058445D01*
X27050790Y50022961D01*
X27080258Y50002810D01*
X27313248Y49965909D01*
X27325011Y49964046D01*
X27353710Y49959500D01*
X27353713Y49959500D01*
X27353714Y49959500D01*
X27566286Y49959500D01*
X27566287Y49959500D01*
X27671985Y49976241D01*
X27766598Y49991226D01*
X27771362Y49991601D01*
X27780552Y49993770D01*
X27785074Y49995623D01*
X27978416Y50058444D01*
X28167443Y50154759D01*
X28167803Y50154940D01*
X28167826Y50154954D01*
X28339782Y50279886D01*
X28490106Y50430210D01*
X28490109Y50430213D01*
X28615050Y50602182D01*
X28615054Y50602190D01*
X28615363Y50602693D01*
X28616496Y50604174D01*
X28617912Y50606122D01*
X28617960Y50606086D01*
X28630934Y50623034D01*
X28640643Y50633315D01*
X28700983Y50668541D01*
X28770789Y50665552D01*
X28824507Y50629383D01*
X28830708Y50622227D01*
X28842723Y50605814D01*
X28844943Y50602190D01*
X28969892Y50430210D01*
X29120210Y50279892D01*
X29292182Y50154949D01*
X29481580Y50058445D01*
X29590790Y50022961D01*
X29620258Y50002810D01*
X29846185Y49967027D01*
X29846190Y49967026D01*
X29853248Y49965909D01*
X29893713Y49959500D01*
X29893714Y49959500D01*
X30025669Y49959500D01*
X30028268Y49959391D01*
X30031524Y49958284D01*
X30058010Y49954476D01*
X30068863Y49951289D01*
X30087645Y49939218D01*
X30094424Y49936915D01*
X30097767Y49932712D01*
X30127640Y49913514D01*
X30156663Y49849957D01*
X30146722Y49780807D01*
X30143535Y49773829D01*
X30118421Y49737657D01*
X28953591Y48572826D01*
X28925337Y48551675D01*
X28902249Y48539068D01*
X28842822Y48523900D01*
X-4190443Y48523900D01*
X-4348558Y48523900D01*
X-4389481Y48512934D01*
X-4501284Y48482977D01*
X-4638216Y48403920D01*
X-4750020Y48292116D01*
X-4750020Y48292115D01*
X-4767456Y48274679D01*
X-4767460Y48274672D01*
X-23775719Y29266414D01*
X-23803957Y29245275D01*
X-23813895Y29239848D01*
X-23882163Y29224998D01*
X-23947628Y29249414D01*
X-23989494Y29305334D01*
X-23992176Y29312522D01*
X-24000000Y29355870D01*
X-24000000Y34138670D01*
X-23994975Y34173614D01*
X-23990570Y34188612D01*
X-23980939Y34203601D01*
X-23975932Y34220675D01*
X-23952827Y34247355D01*
X-23951458Y34248542D01*
X-23896597Y34276018D01*
X-23889039Y34277663D01*
X-23862668Y34280500D01*
X-21857620Y34280500D01*
X-21857557Y34280499D01*
X-21855653Y34280499D01*
X-21848057Y34280499D01*
X-21689946Y34280499D01*
X-21689943Y34280499D01*
X-21551544Y34317582D01*
X-21551538Y34317585D01*
X-21537215Y34321423D01*
X-21537211Y34321424D01*
X-21466721Y34362122D01*
X-21466697Y34362135D01*
X-21400296Y34400470D01*
X-21400284Y34400478D01*
X-21288478Y34512286D01*
X-21288477Y34512286D01*
X-12397003Y43403761D01*
X-8012933Y47787831D01*
X-3592900Y52207864D01*
X21029500Y52207864D01*
X21029500Y52207860D01*
X21029500Y50412122D01*
X21029659Y50410192D01*
X21029885Y50408545D01*
X21035908Y50352517D01*
X21035908Y50352516D01*
X21086202Y50217671D01*
X21086203Y50217670D01*
X21086203Y50217667D01*
X21172450Y50102456D01*
X21172456Y50102450D01*
X21287665Y50016205D01*
X21287668Y50016203D01*
X21287674Y50016200D01*
X21331291Y49999931D01*
X21331308Y49999926D01*
X21422517Y49965908D01*
X21422516Y49965908D01*
X21482116Y49959501D01*
X21482119Y49959500D01*
X21482127Y49959500D01*
X21482134Y49959500D01*
X21482135Y49959500D01*
X21485589Y49959500D01*
X23277870Y49959500D01*
X23277876Y49959500D01*
X23279806Y49959659D01*
X23281454Y49959885D01*
X23337482Y49965907D01*
X23428703Y49999931D01*
X23472328Y50016202D01*
X23472335Y50016206D01*
X23572674Y50091320D01*
X23587542Y50102450D01*
X23587548Y50102456D01*
X23673795Y50217667D01*
X23673796Y50217670D01*
X23673797Y50217671D01*
X23724091Y50352517D01*
X23730500Y50412127D01*
X23730499Y52207872D01*
X23724091Y52267483D01*
X23673796Y52402331D01*
X23587546Y52517546D01*
X23472331Y52603796D01*
X23337483Y52654091D01*
X23277873Y52660500D01*
X21482128Y52660499D01*
X21433757Y52655299D01*
X21433756Y52655300D01*
X21433749Y52655298D01*
X21422516Y52654091D01*
X21287671Y52603797D01*
X21287664Y52603793D01*
X21231242Y52561555D01*
X21172456Y52517548D01*
X21172450Y52517542D01*
X21086205Y52402333D01*
X21086203Y52402330D01*
X21035907Y52267482D01*
X21029548Y52208319D01*
X21029546Y52208298D01*
X21029501Y52207876D01*
X21029500Y52207864D01*
X-3592900Y52207864D01*
X1313976Y57114741D01*
X13249500Y57114741D01*
X13249500Y57110807D01*
X13249500Y56885257D01*
X13279448Y56657789D01*
X13279450Y56657773D01*
X13279451Y56657770D01*
X13279452Y56657762D01*
X13279453Y56657760D01*
X13279453Y56657759D01*
X13338842Y56436112D01*
X13338845Y56436102D01*
X13426652Y56224117D01*
X13541388Y56025388D01*
X13541399Y56025371D01*
X13681077Y55843342D01*
X13681086Y55843332D01*
X13843332Y55681086D01*
X13843342Y55681077D01*
X14025371Y55541399D01*
X14025388Y55541388D01*
X14224117Y55426652D01*
X14436107Y55338843D01*
X14507651Y55319672D01*
X14564076Y55304554D01*
X14564076Y55304553D01*
X14657767Y55279450D01*
X14657788Y55279446D01*
X14658119Y55279404D01*
X14885257Y55249500D01*
X15114741Y55249500D01*
X15114742Y55249500D01*
X15304215Y55274446D01*
X15342238Y55279452D01*
X15563887Y55338842D01*
X15563889Y55338843D01*
X15563896Y55338845D01*
X15775881Y55426652D01*
X15974610Y55541388D01*
X15974617Y55541392D01*
X15974621Y55541395D01*
X15974627Y55541399D01*
X16156659Y55681079D01*
X16156661Y55681081D01*
X16156670Y55681089D01*
X16318911Y55843330D01*
X16318918Y55843338D01*
X16458599Y56025371D01*
X16458768Y56025591D01*
X16459699Y56027272D01*
X16573340Y56224104D01*
X16573344Y56224112D01*
X16585771Y56254111D01*
X16585771Y56254110D01*
X16654743Y56420626D01*
X16654744Y56420630D01*
X16661156Y56436109D01*
X16661158Y56436113D01*
X16720548Y56657762D01*
X16750500Y56885266D01*
X16750500Y57114734D01*
X16720548Y57342238D01*
X16661158Y57563887D01*
X16573344Y57775888D01*
X16458611Y57974612D01*
X16318919Y58156661D01*
X16318914Y58156665D01*
X16318911Y58156670D01*
X16314059Y58161522D01*
X16161512Y58314070D01*
X16160822Y58314840D01*
X16157167Y58318422D01*
X16156689Y58318895D01*
X16156675Y58318906D01*
X16156670Y58318911D01*
X16156665Y58318914D01*
X16156661Y58318919D01*
X16156518Y58319028D01*
X16156143Y58319322D01*
X16156142Y58319323D01*
X16151795Y58322716D01*
X16151061Y58323216D01*
X15974617Y58458607D01*
X15974612Y58458611D01*
X15775888Y58573344D01*
X15563887Y58661158D01*
X15342238Y58720548D01*
X15114734Y58750500D01*
X15114727Y58750500D01*
X14885273Y58750500D01*
X14885266Y58750500D01*
X14657762Y58720548D01*
X14436113Y58661158D01*
X14315480Y58611190D01*
X14224731Y58573601D01*
X14224139Y58573360D01*
X14027272Y58459699D01*
X14025591Y58458768D01*
X13848939Y58323216D01*
X13843338Y58318918D01*
X13843330Y58318911D01*
X13681089Y58156670D01*
X13681085Y58156665D01*
X13681079Y58156659D01*
X13541399Y57974627D01*
X13541395Y57974621D01*
X13541392Y57974617D01*
X13541389Y57974612D01*
X13541388Y57974610D01*
X13426652Y57775881D01*
X13426648Y57775872D01*
X13345257Y57579374D01*
X13345256Y57579370D01*
X13338843Y57563890D01*
X13338840Y57563881D01*
X13279452Y57342240D01*
X13279414Y57342036D01*
X13279319Y57341257D01*
X13279320Y57341236D01*
X13249500Y57114741D01*
X1313976Y57114741D01*
X5852870Y61653635D01*
X5881121Y61674784D01*
X5887421Y61678224D01*
X5896105Y61682966D01*
X5961730Y61697979D01*
X5975019Y61697314D01*
X6007138Y61691401D01*
X6033755Y61682753D01*
X6033756Y61682752D01*
X6209315Y61654948D01*
X6209316Y61654948D01*
X6243713Y61649500D01*
X6243714Y61649500D01*
X6456286Y61649500D01*
X6456287Y61649500D01*
X6561985Y61666241D01*
X6603802Y61672864D01*
X6656598Y61681226D01*
X6661362Y61681601D01*
X6670552Y61683770D01*
X6675074Y61685623D01*
X6868416Y61748444D01*
X7057443Y61844759D01*
X7057803Y61844940D01*
X7057826Y61844954D01*
X7229782Y61969886D01*
X7380106Y62120210D01*
X7380109Y62120213D01*
X7505050Y62292182D01*
X7505054Y62292190D01*
X7505363Y62292693D01*
X7506496Y62294174D01*
X7507912Y62296122D01*
X7507960Y62296086D01*
X7520934Y62313034D01*
X7530643Y62323315D01*
X7590983Y62358541D01*
X7660789Y62355552D01*
X7714507Y62319383D01*
X7720708Y62312227D01*
X7732723Y62295814D01*
X7734943Y62292190D01*
X7859892Y62120210D01*
X8010210Y61969892D01*
X8182182Y61844949D01*
X8371580Y61748445D01*
X8480790Y61712961D01*
X8510259Y61692809D01*
X8744199Y61655756D01*
X8744200Y61655757D01*
X8783712Y61649500D01*
X8783713Y61649500D01*
X8783714Y61649500D01*
X8996286Y61649500D01*
X8996287Y61649500D01*
X9101985Y61666241D01*
X9143802Y61672864D01*
X9196598Y61681226D01*
X9201362Y61681601D01*
X9210552Y61683770D01*
X9215074Y61685623D01*
X9408416Y61748444D01*
X9597443Y61844759D01*
X9597803Y61844940D01*
X9597826Y61844954D01*
X9769782Y61969886D01*
X9920106Y62120210D01*
X9920109Y62120213D01*
X10045048Y62292179D01*
X10071338Y62343776D01*
X10141557Y62481588D01*
X10207246Y62683757D01*
X10240500Y62893713D01*
X10240500Y63106287D01*
X10207246Y63316243D01*
X10141557Y63518412D01*
X10045051Y63707816D01*
X10029086Y63729789D01*
X9920109Y63879786D01*
X9920107Y63879787D01*
X9920064Y63879846D01*
X9919290Y63880605D01*
X9769792Y64030104D01*
X9769788Y64030106D01*
X9769786Y64030109D01*
X9678636Y64096332D01*
X9598553Y64154516D01*
X9597896Y64154999D01*
X9597827Y64155042D01*
X9597820Y64155048D01*
X9597816Y64155051D01*
X9408412Y64251557D01*
X9206243Y64317246D01*
X8996287Y64350500D01*
X8996286Y64350500D01*
X8783717Y64350500D01*
X8783713Y64350500D01*
X8766919Y64347839D01*
X8731636Y64347335D01*
X8709542Y64350190D01*
X8655439Y64370812D01*
X8651752Y64373332D01*
X8645971Y64378129D01*
X8645581Y64378301D01*
X8645356Y64378639D01*
X8634081Y64387994D01*
X8005889Y65016189D01*
X7874779Y65103794D01*
X7729097Y65164137D01*
X7685238Y65172860D01*
X7652123Y65179448D01*
X7652120Y65179448D01*
X7574445Y65194900D01*
X-5034448Y65194900D01*
X-5096640Y65182528D01*
X-5189090Y65164139D01*
X-5189093Y65164138D01*
X-5189098Y65164137D01*
X-5196959Y65160879D01*
X-5196979Y65160877D01*
X-5196978Y65160873D01*
X-5221556Y65150691D01*
X-5231763Y65146464D01*
X-5231765Y65146463D01*
X-5334772Y65103797D01*
X-5334779Y65103794D01*
X-5454169Y65024020D01*
X-5465890Y65016188D01*
X-6089630Y64392445D01*
X-6117878Y64371299D01*
X-6137430Y64360623D01*
X-6193315Y64345507D01*
X-6197794Y64345379D01*
X-6205285Y64345862D01*
X-6205701Y64345772D01*
X-6206080Y64345913D01*
X-6220702Y64346855D01*
X-6243713Y64350500D01*
X-6243717Y64350500D01*
X-6456286Y64350500D01*
X-6456287Y64350500D01*
X-6666243Y64317246D01*
X-6868412Y64251557D01*
X-7057816Y64155051D01*
X-7057820Y64155048D01*
X-7057827Y64155042D01*
X-7057896Y64154999D01*
X-7058553Y64154516D01*
X-7138636Y64096332D01*
X-7229786Y64030109D01*
X-7229787Y64030107D01*
X-7229846Y64030064D01*
X-7230605Y64029290D01*
X-7380104Y63879792D01*
X-7380106Y63879788D01*
X-7380109Y63879786D01*
X-7489086Y63729789D01*
X-7505051Y63707816D01*
X-7601557Y63518412D01*
X-7667246Y63316243D01*
X-7700500Y63106287D01*
X-7700500Y63106286D01*
X-7700500Y62893714D01*
X-7697840Y62876922D01*
X-7697336Y62841632D01*
X-7700191Y62819541D01*
X-7720801Y62765456D01*
X-7723318Y62761774D01*
X-7728133Y62755968D01*
X-7728306Y62755577D01*
X-7728645Y62755351D01*
X-7737999Y62744077D01*
X-8361865Y62120213D01*
X-8453059Y62029018D01*
X-8481304Y62007875D01*
X-8501614Y61996785D01*
X-8504396Y61995267D01*
X-8563821Y61980100D01*
X-19641165Y61980100D01*
X-19649019Y61977716D01*
X-19791697Y61949338D01*
X-19937379Y61888994D01*
X-20068489Y61801389D01*
X-20068492Y61801386D01*
X-21505947Y60363930D01*
X-22908058Y58961819D01*
X-22969381Y58928334D01*
X-22995739Y58925500D01*
X-27815990Y58925500D01*
X-27816000Y58925500D01*
X-27923456Y58913947D01*
X-27974967Y58902741D01*
X-28009197Y58891347D01*
X-28077497Y58868616D01*
X-28077501Y58868613D01*
X-28077504Y58868613D01*
X-28198543Y58790825D01*
X-28251347Y58745070D01*
X-28345567Y58636336D01*
X-28405338Y58505459D01*
X-28425023Y58438420D01*
X-28425024Y58438416D01*
X-28445500Y58296000D01*
X-28445500Y58295997D01*
X-28445500Y55287940D01*
X-28465185Y55220901D01*
X-28481819Y55200259D01*
X-30883159Y52798918D01*
X-30911404Y52777775D01*
X-30926222Y52769685D01*
X-30934496Y52765167D01*
X-30993921Y52750000D01*
X-34946096Y52750000D01*
X-34981029Y52755022D01*
X-35006272Y52762434D01*
X-35059019Y52793731D01*
X-35092652Y52827365D01*
X-35092653Y52827366D01*
X-35092657Y52827369D01*
X-35092660Y52827372D01*
X-35092665Y52827376D01*
X-35181127Y52891647D01*
X-35295689Y52974881D01*
X-35296384Y52975393D01*
X-35296466Y52975445D01*
X-35296470Y52975448D01*
X-35439499Y53048325D01*
X-35439498Y53048325D01*
X-35476067Y53066957D01*
X-35518090Y53088369D01*
X-35521803Y53090262D01*
X-35525558Y53091321D01*
X-35760527Y53167667D01*
X-35760530Y53167668D01*
X-36009353Y53207078D01*
X-36009354Y53207078D01*
X-36261276Y53207078D01*
X-36261277Y53207078D01*
X-36510100Y53167668D01*
X-36749694Y53089819D01*
X-36974160Y52975448D01*
X-37177971Y52827371D01*
X-37206423Y52798918D01*
X-37234668Y52777775D01*
X-37249486Y52769685D01*
X-37257760Y52765167D01*
X-37317185Y52750000D01*
X-40923111Y52750000D01*
X-40958038Y52755021D01*
X-40968891Y52758207D01*
X-41027672Y52795977D01*
X-41056701Y52859531D01*
X-41046762Y52928690D01*
X-41046761Y52928693D01*
X-41045250Y52932002D01*
X-41007813Y52978968D01*
X-40073340Y53694102D01*
X-40072105Y53695035D01*
X-40070890Y53695941D01*
X-40069720Y53696802D01*
X-38762781Y54647743D01*
X-38761572Y54648612D01*
X-38760316Y54649503D01*
X-38759078Y54650370D01*
X-37429476Y55569445D01*
X-37428217Y55570304D01*
X-37426843Y55571229D01*
X-37425614Y55572045D01*
X-36074294Y56458607D01*
X-36073042Y56459418D01*
X-36071729Y56460257D01*
X-36070453Y56461062D01*
X-34697885Y57314796D01*
X-34696572Y57315602D01*
X-34695304Y57316369D01*
X-34694051Y57317116D01*
X-33301240Y58137394D01*
X-33299960Y58138137D01*
X-33298672Y58138875D01*
X-33297417Y58139583D01*
X-31885171Y58925928D01*
X-31883929Y58926610D01*
X-31882641Y58927308D01*
X-31881245Y58928054D01*
X-30450330Y59680035D01*
X-30448987Y59680730D01*
X-30447646Y59681414D01*
X-30446317Y59682082D01*
X-30374017Y59717872D01*
X-29629980Y60086196D01*
X-29137129Y60330173D01*
X-28997699Y60399195D01*
X-28996400Y60399827D01*
X-28995062Y60400470D01*
X-28993726Y60401102D01*
X-27528195Y61082957D01*
X-27526825Y61083584D01*
X-27525500Y61084181D01*
X-27524135Y61084787D01*
X-26042483Y61731016D01*
X-26041075Y61731619D01*
X-26039737Y61732183D01*
X-26038381Y61732746D01*
X-24541567Y62342928D01*
X-24540151Y62343495D01*
X-24538702Y62344065D01*
X-24537327Y62344596D01*
X-23026283Y62918355D01*
X-23024901Y62918870D01*
X-23023500Y62919383D01*
X-23022065Y62919899D01*
X-21497501Y63456967D01*
X-21496128Y63457442D01*
X-21495788Y63457557D01*
X-21494706Y63457923D01*
X-21493288Y63458395D01*
X-19956129Y63958441D01*
X-19954671Y63958905D01*
X-19953237Y63959352D01*
X-19951831Y63959781D01*
X-18403138Y64422462D01*
X-18401696Y64422883D01*
X-18401077Y64423060D01*
X-18400213Y64423307D01*
X-18398813Y64423697D01*
X-16839279Y64848809D01*
X-16837895Y64849177D01*
X-16836404Y64849564D01*
X-16835015Y64849916D01*
X-15265654Y65237174D01*
X-15264251Y65237511D01*
X-15262788Y65237854D01*
X-15261271Y65238200D01*
X-13683069Y65587368D01*
X-13681555Y65587693D01*
X-13680138Y65587988D01*
X-13678715Y65588276D01*
X-12092418Y65899186D01*
X-12090931Y65899467D01*
X-12089495Y65899731D01*
X-12088053Y65899986D01*
X-10494818Y66172410D01*
X-10493329Y66172655D01*
X-10491821Y66172894D01*
X-10490347Y66173119D01*
X-8891002Y66406921D01*
X-8889538Y66407126D01*
X-8888001Y66407332D01*
X-8886492Y66407525D01*
X-7281979Y66602567D01*
X-7280446Y66602744D01*
X-7278904Y66602912D01*
X-7277455Y66603061D01*
X-5668679Y66759233D01*
X-5667161Y66759371D01*
X-5665673Y66759497D01*
X-5664202Y66759613D01*
X-4052016Y66876830D01*
X-4050556Y66876927D01*
X-4049110Y66877015D01*
X-4047576Y66877099D01*
X-2433065Y66955280D01*
X-2431545Y66955344D01*
X-2430106Y66955396D01*
X-2428628Y66955441D01*
X-812652Y66994544D01*
X-811176Y66994571D01*
X-809641Y66994589D01*
X-808188Y66994598D01*
X808188Y66994598D01*
X809641Y66994589D01*
G37*
%TD.AperFunction*%
%TA.AperFunction,Conductor*%
G36*
X-32757396Y-7255023D02*
G01*
X-32742397Y-7259427D01*
X-32727407Y-7269056D01*
X-32710324Y-7274067D01*
X-32683644Y-7297172D01*
X-32682457Y-7298541D01*
X-32654978Y-7353414D01*
X-32653332Y-7360979D01*
X-32650500Y-7387331D01*
X-32650500Y-7536287D01*
X-32617246Y-7746243D01*
X-32551557Y-7948412D01*
X-32455051Y-8137816D01*
X-32455048Y-8137820D01*
X-32455042Y-8137827D01*
X-32454999Y-8137896D01*
X-32454516Y-8138553D01*
X-32401804Y-8211105D01*
X-32330109Y-8309786D01*
X-32330107Y-8309787D01*
X-32330064Y-8309846D01*
X-32329290Y-8310605D01*
X-32179792Y-8460104D01*
X-32179788Y-8460106D01*
X-32179786Y-8460109D01*
X-32143611Y-8486391D01*
X-32007816Y-8585051D01*
X-32007793Y-8585062D01*
X-32007324Y-8585351D01*
X-32005875Y-8586459D01*
X-32003871Y-8587916D01*
X-32003907Y-8587966D01*
X-31986955Y-8600940D01*
X-31976674Y-8610651D01*
X-31941455Y-8670994D01*
X-31944450Y-8740799D01*
X-31980618Y-8794509D01*
X-31987764Y-8800701D01*
X-32004128Y-8812686D01*
X-32007824Y-8814953D01*
X-32179782Y-8939886D01*
X-32330112Y-9090216D01*
X-32455042Y-9262169D01*
X-32455060Y-9262200D01*
X-32455182Y-9262442D01*
X-32551557Y-9451588D01*
X-32617246Y-9653757D01*
X-32650500Y-9863713D01*
X-32650500Y-10076287D01*
X-32617246Y-10286243D01*
X-32551557Y-10488412D01*
X-32455051Y-10677816D01*
X-32455048Y-10677820D01*
X-32455042Y-10677827D01*
X-32454999Y-10677896D01*
X-32454516Y-10678553D01*
X-32446011Y-10690259D01*
X-32330109Y-10849786D01*
X-32330107Y-10849787D01*
X-32330064Y-10849846D01*
X-32329290Y-10850605D01*
X-32179792Y-11000104D01*
X-32179788Y-11000106D01*
X-32179786Y-11000109D01*
X-32029789Y-11109086D01*
X-32007816Y-11125051D01*
X-32005848Y-11126053D01*
X-32000360Y-11129946D01*
X-31998892Y-11131804D01*
X-31986955Y-11140940D01*
X-31976675Y-11150650D01*
X-31941455Y-11210994D01*
X-31944450Y-11280799D01*
X-31980618Y-11334509D01*
X-31987764Y-11340701D01*
X-32004128Y-11352686D01*
X-32007824Y-11354953D01*
X-32179782Y-11479886D01*
X-32330112Y-11630216D01*
X-32455042Y-11802169D01*
X-32455060Y-11802200D01*
X-32455182Y-11802442D01*
X-32551557Y-11991588D01*
X-32617246Y-12193757D01*
X-32650500Y-12403713D01*
X-32650500Y-12616287D01*
X-32617246Y-12826243D01*
X-32551557Y-13028412D01*
X-32455051Y-13217816D01*
X-32455048Y-13217820D01*
X-32455042Y-13217827D01*
X-32454999Y-13217896D01*
X-32454516Y-13218553D01*
X-32425085Y-13259061D01*
X-32330109Y-13389786D01*
X-32330107Y-13389787D01*
X-32330064Y-13389846D01*
X-32329290Y-13390605D01*
X-32179792Y-13540104D01*
X-32179788Y-13540106D01*
X-32179786Y-13540109D01*
X-32029789Y-13649086D01*
X-32007816Y-13665051D01*
X-32005848Y-13666053D01*
X-32000360Y-13669946D01*
X-31998892Y-13671804D01*
X-31986955Y-13680940D01*
X-31976675Y-13690650D01*
X-31941455Y-13750994D01*
X-31944450Y-13820799D01*
X-31980618Y-13874509D01*
X-31987764Y-13880701D01*
X-32004128Y-13892686D01*
X-32007824Y-13894953D01*
X-32179782Y-14019886D01*
X-32330112Y-14170216D01*
X-32455042Y-14342169D01*
X-32455047Y-14342177D01*
X-32455048Y-14342179D01*
X-32455049Y-14342181D01*
X-32455051Y-14342184D01*
X-32455053Y-14342188D01*
X-32455060Y-14342200D01*
X-32455182Y-14342442D01*
X-32551557Y-14531588D01*
X-32617246Y-14733757D01*
X-32650500Y-14943713D01*
X-32650500Y-15156287D01*
X-32617246Y-15366243D01*
X-32551557Y-15568412D01*
X-32455051Y-15757816D01*
X-32455048Y-15757820D01*
X-32455042Y-15757827D01*
X-32454999Y-15757896D01*
X-32454516Y-15758553D01*
X-32433969Y-15786833D01*
X-32330109Y-15929786D01*
X-32330107Y-15929787D01*
X-32330064Y-15929846D01*
X-32329290Y-15930605D01*
X-32179792Y-16080104D01*
X-32179788Y-16080106D01*
X-32179786Y-16080109D01*
X-32029789Y-16189086D01*
X-32007816Y-16205051D01*
X-32005848Y-16206053D01*
X-32000360Y-16209946D01*
X-31998892Y-16211804D01*
X-31986955Y-16220940D01*
X-31976675Y-16230650D01*
X-31941455Y-16290994D01*
X-31944450Y-16360799D01*
X-31980618Y-16414509D01*
X-31987764Y-16420701D01*
X-32004128Y-16432686D01*
X-32007824Y-16434953D01*
X-32179782Y-16559886D01*
X-32330112Y-16710216D01*
X-32455042Y-16882169D01*
X-32455060Y-16882200D01*
X-32455182Y-16882442D01*
X-32551557Y-17071588D01*
X-32617246Y-17273757D01*
X-32650500Y-17483713D01*
X-32650500Y-17696287D01*
X-32617246Y-17906243D01*
X-32551557Y-18108412D01*
X-32455051Y-18297816D01*
X-32455048Y-18297820D01*
X-32455042Y-18297827D01*
X-32454999Y-18297896D01*
X-32454516Y-18298553D01*
X-32396332Y-18378636D01*
X-32330109Y-18469786D01*
X-32330107Y-18469787D01*
X-32330064Y-18469846D01*
X-32329290Y-18470605D01*
X-32179792Y-18620104D01*
X-32179788Y-18620106D01*
X-32179786Y-18620109D01*
X-32083248Y-18690247D01*
X-32007816Y-18745051D01*
X-31818412Y-18841557D01*
X-31616243Y-18907246D01*
X-31406287Y-18940500D01*
X-31406286Y-18940500D01*
X-31193714Y-18940500D01*
X-31193713Y-18940500D01*
X-30983757Y-18907246D01*
X-30981178Y-18906408D01*
X-30958429Y-18899016D01*
X-30958426Y-18899015D01*
X-30958424Y-18899014D01*
X-30923647Y-18892997D01*
X-30906589Y-18892510D01*
X-30841314Y-18908920D01*
X-30829760Y-18915554D01*
X-30803832Y-18935400D01*
X-20878161Y-28861072D01*
X-20878160Y-28861075D01*
X-20860720Y-28878515D01*
X-20860720Y-28878516D01*
X-20748916Y-28990320D01*
X-20662104Y-29040439D01*
X-20611985Y-29069377D01*
X-20459258Y-29110300D01*
X-20459257Y-29110300D01*
X-3648127Y-29110300D01*
X-3613195Y-29115322D01*
X-3606360Y-29117328D01*
X-3587950Y-29122734D01*
X-3535206Y-29154028D01*
X3972849Y-36662085D01*
X6465975Y-39155211D01*
X6487124Y-39183461D01*
X6492545Y-39193388D01*
X6507399Y-39261661D01*
X6482985Y-39327126D01*
X6427053Y-39368999D01*
X6427049Y-39369001D01*
X6419861Y-39371682D01*
X6376527Y-39379500D01*
X6243709Y-39379500D01*
X6204776Y-39385666D01*
X6195042Y-39387208D01*
X6157654Y-39393129D01*
X6033763Y-39412752D01*
X5831582Y-39478445D01*
X5642182Y-39574949D01*
X5470210Y-39699892D01*
X5319892Y-39850210D01*
X5319890Y-39850213D01*
X5194952Y-40022179D01*
X5194945Y-40022188D01*
X5194634Y-40022696D01*
X5193499Y-40024177D01*
X5192085Y-40026125D01*
X5192036Y-40026089D01*
X5179063Y-40043037D01*
X5179060Y-40043041D01*
X5169353Y-40053319D01*
X5109011Y-40088542D01*
X5039205Y-40085550D01*
X4985488Y-40049378D01*
X4979285Y-40042219D01*
X4967274Y-40025811D01*
X4965053Y-40022187D01*
X4965051Y-40022184D01*
X4965050Y-40022182D01*
X4840109Y-39850213D01*
X4689786Y-39699890D01*
X4517820Y-39574951D01*
X4403761Y-39516835D01*
X4350245Y-39489567D01*
X4350240Y-39489565D01*
X4328414Y-39478444D01*
X4328413Y-39478443D01*
X4328412Y-39478443D01*
X4219210Y-39442961D01*
X4135074Y-39415623D01*
X4130552Y-39413770D01*
X4121362Y-39411600D01*
X4116599Y-39411226D01*
X4106346Y-39409602D01*
X3964957Y-39387208D01*
X3943962Y-39383883D01*
X3916290Y-39379500D01*
X3916287Y-39379500D01*
X3703713Y-39379500D01*
X3703709Y-39379500D01*
X3664776Y-39385666D01*
X3655042Y-39387208D01*
X3617654Y-39393129D01*
X3493763Y-39412752D01*
X3291582Y-39478445D01*
X3102182Y-39574949D01*
X2930210Y-39699892D01*
X2779892Y-39850210D01*
X2779890Y-39850213D01*
X2654952Y-40022179D01*
X2654945Y-40022188D01*
X2654634Y-40022696D01*
X2653499Y-40024177D01*
X2652085Y-40026125D01*
X2652036Y-40026089D01*
X2639063Y-40043037D01*
X2639060Y-40043041D01*
X2629353Y-40053319D01*
X2569011Y-40088542D01*
X2499205Y-40085550D01*
X2445488Y-40049378D01*
X2439285Y-40042219D01*
X2427274Y-40025811D01*
X2425053Y-40022187D01*
X2425051Y-40022184D01*
X2425050Y-40022182D01*
X2300109Y-39850213D01*
X2149786Y-39699890D01*
X1977820Y-39574951D01*
X1863761Y-39516835D01*
X1810245Y-39489567D01*
X1810240Y-39489565D01*
X1788414Y-39478444D01*
X1788413Y-39478443D01*
X1788412Y-39478443D01*
X1679210Y-39442961D01*
X1595074Y-39415623D01*
X1590552Y-39413770D01*
X1581362Y-39411600D01*
X1576599Y-39411226D01*
X1566346Y-39409602D01*
X1424957Y-39387208D01*
X1403962Y-39383883D01*
X1376290Y-39379500D01*
X1376287Y-39379500D01*
X1163713Y-39379500D01*
X1163709Y-39379500D01*
X1124776Y-39385666D01*
X1115042Y-39387208D01*
X1077654Y-39393129D01*
X953763Y-39412752D01*
X751582Y-39478445D01*
X562182Y-39574949D01*
X390210Y-39699892D01*
X239892Y-39850210D01*
X239890Y-39850213D01*
X114952Y-40022179D01*
X114945Y-40022188D01*
X114634Y-40022696D01*
X113498Y-40024179D01*
X112085Y-40026125D01*
X112036Y-40026089D01*
X99064Y-40043037D01*
X95155Y-40047176D01*
X89356Y-40053315D01*
X29018Y-40088540D01*
X-40788Y-40085552D01*
X-94507Y-40049383D01*
X-100708Y-40042227D01*
X-112723Y-40025814D01*
X-114943Y-40022190D01*
X-239892Y-39850210D01*
X-390210Y-39699892D01*
X-562182Y-39574949D01*
X-751580Y-39478445D01*
X-860790Y-39442961D01*
X-890259Y-39422809D01*
X-1124199Y-39385756D01*
X-1124200Y-39385757D01*
X-1163712Y-39379500D01*
X-1163713Y-39379500D01*
X-1376287Y-39379500D01*
X-1416745Y-39385908D01*
X-1481265Y-39396127D01*
X-1576603Y-39411227D01*
X-1576606Y-39411227D01*
X-1586243Y-39412753D01*
X-1586246Y-39412754D01*
X-1586247Y-39412754D01*
X-1611569Y-39420982D01*
X-1611570Y-39420982D01*
X-1611573Y-39420983D01*
X-1639633Y-39425839D01*
X-1646342Y-39427000D01*
X-1663410Y-39427487D01*
X-1728693Y-39411071D01*
X-1740236Y-39404443D01*
X-1766171Y-39384591D01*
X-8204477Y-32946286D01*
X-8316281Y-32834481D01*
X-8316290Y-32834475D01*
X-8316289Y-32834475D01*
X-8359688Y-32809419D01*
X-8359689Y-32809420D01*
X-8403095Y-32784360D01*
X-8403099Y-32784357D01*
X-8439071Y-32763587D01*
X-8439077Y-32763582D01*
X-8453209Y-32755423D01*
X-8498585Y-32743264D01*
X-8498586Y-32743265D01*
X-8605943Y-32714499D01*
X-8764057Y-32714499D01*
X-8771653Y-32714499D01*
X-8773557Y-32714499D01*
X-8773620Y-32714500D01*
X-33037072Y-32714500D01*
X-33037074Y-32714499D01*
X-33037075Y-32714500D01*
X-33072009Y-32709476D01*
X-33097250Y-32702064D01*
X-33149994Y-32670769D01*
X-55353633Y-10467129D01*
X-55374785Y-10438873D01*
X-55382966Y-10423890D01*
X-55397979Y-10358279D01*
X-55397718Y-10353059D01*
X-55397314Y-10344981D01*
X-55391399Y-10312852D01*
X-55382754Y-10286249D01*
X-55381227Y-10276605D01*
X-55381227Y-10276603D01*
X-55349500Y-10076291D01*
X-55349500Y-9863707D01*
X-55382752Y-9653759D01*
X-55448445Y-9451580D01*
X-55544949Y-9262182D01*
X-55669892Y-9090210D01*
X-55820210Y-8939892D01*
X-55893710Y-8886492D01*
X-55992182Y-8814949D01*
X-55992183Y-8814948D01*
X-55992188Y-8814945D01*
X-55992696Y-8814634D01*
X-55994177Y-8813499D01*
X-55996125Y-8812085D01*
X-55996089Y-8812036D01*
X-56013041Y-8799060D01*
X-56023319Y-8789353D01*
X-56058542Y-8729011D01*
X-56055550Y-8659205D01*
X-56019378Y-8605488D01*
X-56012219Y-8599285D01*
X-55995811Y-8587274D01*
X-55992187Y-8585053D01*
X-55992184Y-8585051D01*
X-55992182Y-8585050D01*
X-55820213Y-8460109D01*
X-55669890Y-8309786D01*
X-55544951Y-8137820D01*
X-55494679Y-8039156D01*
X-55448445Y-7948418D01*
X-55416388Y-7849758D01*
X-55416386Y-7849752D01*
X-55408137Y-7824367D01*
X-55382753Y-7746243D01*
X-55382753Y-7746238D01*
X-55349500Y-7536286D01*
X-55349500Y-7391829D01*
X-55349499Y-7391822D01*
X-55349500Y-7391820D01*
X-55344475Y-7356888D01*
X-55340070Y-7341887D01*
X-55302327Y-7283144D01*
X-55302292Y-7283113D01*
X-55302291Y-7283112D01*
X-55302289Y-7283111D01*
X-55300958Y-7281957D01*
X-55246083Y-7254477D01*
X-55238521Y-7252832D01*
X-55212168Y-7250000D01*
X-32792330Y-7250000D01*
X-32757396Y-7255023D01*
G37*
%TD.AperFunction*%
%TD*%
%TA.AperFunction,Conductor*%
%TO.N,3V3*%
G36*
X-59746961Y13950315D02*
G01*
X-59701206Y13897511D01*
X-59690000Y13846000D01*
X-59690000Y10284000D01*
X-59709685Y10216961D01*
X-59762489Y10171206D01*
X-59814000Y10160000D01*
X-63376000Y10160000D01*
X-63443039Y10179685D01*
X-63488794Y10232489D01*
X-63500000Y10284000D01*
X-63500000Y13846000D01*
X-63480315Y13913039D01*
X-63427511Y13958794D01*
X-63376000Y13970000D01*
X-59814000Y13970000D01*
X-59746961Y13950315D01*
G37*
%TD.AperFunction*%
%TD*%
%TA.AperFunction,Conductor*%
%TO.N,3V3*%
G36*
X-22916961Y58400315D02*
G01*
X-22871206Y58347511D01*
X-22860000Y58296000D01*
X-22860000Y54734000D01*
X-22879685Y54666961D01*
X-22932489Y54621206D01*
X-22984000Y54610000D01*
X-27816000Y54610000D01*
X-27883039Y54629685D01*
X-27928794Y54682489D01*
X-27940000Y54734000D01*
X-27940000Y58296000D01*
X-27920315Y58363039D01*
X-27867511Y58408794D01*
X-27816000Y58420000D01*
X-22984000Y58420000D01*
X-22916961Y58400315D01*
G37*
%TD.AperFunction*%
%TD*%
M02*
