%TF.GenerationSoftware,KiCad,Pcbnew,10.0.1*%
%TF.CreationDate,2026-06-16T09:21:58+03:00*%
%TF.ProjectId,va5pcb,76613570-6362-42e6-9b69-6361645f7063,rev?*%
%TF.SameCoordinates,Original*%
%TF.FileFunction,Soldermask,Bot*%
%TF.FilePolarity,Negative*%
%FSLAX46Y46*%
G04 Gerber Fmt 4.6, Leading zero omitted, Abs format (unit mm)*
G04 Created by KiCad (PCBNEW 10.0.1) date 2026-06-16 09:21:58*
%MOMM*%
%LPD*%
G01*
G04 APERTURE LIST*
G04 Aperture macros list*
%AMRotRect*
0 Rectangle, with rotation*
0 The origin of the aperture is its center*
0 $1 length*
0 $2 width*
0 $3 Rotation angle, in degrees counterclockwise*
0 Add horizontal line*
21,1,$1,$2,0,0,$3*%
G04 Aperture macros list end*
%ADD10O,3.200000X1.900000*%
%ADD11R,1.700000X1.700000*%
%ADD12C,1.700000*%
%ADD13RotRect,1.700000X1.700000X157.000000*%
%ADD14RotRect,1.700000X1.700000X67.000000*%
G04 APERTURE END LIST*
D10*
%TO.C,SW1*%
X50000000Y12500000D03*
X62500000Y12500000D03*
X50000000Y7500000D03*
X62500000Y7500000D03*
%TD*%
D11*
%TO.C,J5*%
X22380000Y51310000D03*
D12*
X24920000Y51310000D03*
X27460000Y51310000D03*
X30000000Y51310000D03*
X32540000Y51310000D03*
X35080000Y51310000D03*
X37620000Y51310000D03*
%TD*%
D13*
%TO.C,J6*%
X42888400Y-26036000D03*
D12*
X43880857Y-23697918D03*
X44873314Y-21359835D03*
X45865771Y-19021753D03*
X46858228Y-16683671D03*
X47850685Y-14345588D03*
X48843142Y-12007506D03*
X49835599Y-9669424D03*
X50828057Y-7331340D03*
%TD*%
D14*
%TO.C,J7*%
X39911000Y-33050300D03*
D12*
X42249082Y-34042757D03*
X44587165Y-35035214D03*
X46925247Y-36027671D03*
X49263329Y-37020128D03*
X51601412Y-38012585D03*
%TD*%
D11*
%TO.C,J11*%
X28730000Y31000000D03*
D12*
X31270000Y31000000D03*
%TD*%
D11*
%TO.C,J4*%
X4000000Y-62540000D03*
D12*
X4000000Y-60000000D03*
X4000000Y-57460000D03*
%TD*%
D11*
%TO.C,J13*%
X-25400000Y48260000D03*
D12*
X-25400000Y45720000D03*
X-25400000Y43180000D03*
X-25400000Y40640000D03*
%TD*%
D11*
%TO.C,J3*%
X-4000000Y-62540000D03*
D12*
X-4000000Y-60000000D03*
X-4000000Y-57460000D03*
%TD*%
D11*
%TO.C,J1*%
X-56700000Y30670000D03*
D12*
X-56700000Y28130000D03*
X-56700000Y25590000D03*
X-56700000Y23050000D03*
X-56700000Y20510000D03*
X-56700000Y17970000D03*
X-56700000Y15430000D03*
X-56700000Y12890000D03*
X-56700000Y10350000D03*
X-56700000Y7810000D03*
X-56700000Y5270000D03*
X-56700000Y2730000D03*
X-56700000Y190000D03*
X-56700000Y-2350000D03*
X-56700000Y-4890000D03*
X-56700000Y-7430000D03*
X-56700000Y-9970000D03*
X-56700000Y-12510000D03*
X-56700000Y-15050000D03*
X-56700000Y-17590000D03*
X-56700000Y-20130000D03*
X-56700000Y-22670000D03*
%TD*%
D11*
%TO.C,J10*%
X-7620000Y-49460000D03*
D12*
X-5080000Y-49460000D03*
X-2540000Y-49460000D03*
X0Y-49460000D03*
X2540000Y-49460000D03*
X5080000Y-49460000D03*
X7620000Y-49460000D03*
%TD*%
D11*
%TO.C,J2*%
X-31300000Y30670000D03*
D12*
X-31300000Y28130000D03*
X-31300000Y25590000D03*
X-31300000Y23050000D03*
X-31300000Y20510000D03*
X-31300000Y17970000D03*
X-31300000Y15430000D03*
X-31300000Y12890000D03*
X-31300000Y10350000D03*
X-31300000Y7810000D03*
X-31300000Y5270000D03*
X-31300000Y2730000D03*
X-31300000Y190000D03*
X-31300000Y-2350000D03*
X-31300000Y-4890000D03*
X-31300000Y-7430000D03*
X-31300000Y-9970000D03*
X-31300000Y-12510000D03*
X-31300000Y-15050000D03*
X-31300000Y-17590000D03*
X-31300000Y-20130000D03*
X-31300000Y-22670000D03*
%TD*%
D11*
%TO.C,J8*%
X-8890000Y63000000D03*
D12*
X-6350000Y63000000D03*
X-3810000Y63000000D03*
X-1270000Y63000000D03*
X1270000Y63000000D03*
X3810000Y63000000D03*
X6350000Y63000000D03*
X8890000Y63000000D03*
%TD*%
D11*
%TO.C,J9*%
X-8890000Y-40730000D03*
D12*
X-6350000Y-40730000D03*
X-3810000Y-40730000D03*
X-1270000Y-40730000D03*
X1270000Y-40730000D03*
X3810000Y-40730000D03*
X6350000Y-40730000D03*
X8890000Y-40730000D03*
%TD*%
M02*
