%TF.GenerationSoftware,KiCad,Pcbnew,10.0.1*%
%TF.CreationDate,2026-06-16T09:21:58+03:00*%
%TF.ProjectId,va5pcb,76613570-6362-42e6-9b69-6361645f7063,rev?*%
%TF.SameCoordinates,Original*%
%TF.FileFunction,Legend,Top*%
%TF.FilePolarity,Positive*%
%FSLAX46Y46*%
G04 Gerber Fmt 4.6, Leading zero omitted, Abs format (unit mm)*
G04 Created by KiCad (PCBNEW 10.0.1) date 2026-06-16 09:21:58*
%MOMM*%
%LPD*%
G01*
G04 APERTURE LIST*
%ADD10C,0.120000*%
%ADD11C,0.150000*%
G04 APERTURE END LIST*
D10*
X-60690476Y31106144D02*
X-60195238Y31106144D01*
X-60195238Y31106144D02*
X-60461904Y30801382D01*
X-60461904Y30801382D02*
X-60347619Y30801382D01*
X-60347619Y30801382D02*
X-60271428Y30763287D01*
X-60271428Y30763287D02*
X-60233333Y30725192D01*
X-60233333Y30725192D02*
X-60195238Y30649001D01*
X-60195238Y30649001D02*
X-60195238Y30458525D01*
X-60195238Y30458525D02*
X-60233333Y30382335D01*
X-60233333Y30382335D02*
X-60271428Y30344240D01*
X-60271428Y30344240D02*
X-60347619Y30306144D01*
X-60347619Y30306144D02*
X-60576190Y30306144D01*
X-60576190Y30306144D02*
X-60652381Y30344240D01*
X-60652381Y30344240D02*
X-60690476Y30382335D01*
X-59966666Y31106144D02*
X-59699999Y30306144D01*
X-59699999Y30306144D02*
X-59433333Y31106144D01*
X-59242857Y31106144D02*
X-58747619Y31106144D01*
X-58747619Y31106144D02*
X-59014285Y30801382D01*
X-59014285Y30801382D02*
X-58900000Y30801382D01*
X-58900000Y30801382D02*
X-58823809Y30763287D01*
X-58823809Y30763287D02*
X-58785714Y30725192D01*
X-58785714Y30725192D02*
X-58747619Y30649001D01*
X-58747619Y30649001D02*
X-58747619Y30458525D01*
X-58747619Y30458525D02*
X-58785714Y30382335D01*
X-58785714Y30382335D02*
X-58823809Y30344240D01*
X-58823809Y30344240D02*
X-58900000Y30306144D01*
X-58900000Y30306144D02*
X-59128571Y30306144D01*
X-59128571Y30306144D02*
X-59204762Y30344240D01*
X-59204762Y30344240D02*
X-59242857Y30382335D01*
X-60290475Y25645192D02*
X-60023809Y25645192D01*
X-59909523Y25226144D02*
X-60290475Y25226144D01*
X-60290475Y25226144D02*
X-60290475Y26026144D01*
X-60290475Y26026144D02*
X-59909523Y26026144D01*
X-59566665Y25226144D02*
X-59566665Y26026144D01*
X-59566665Y26026144D02*
X-59109522Y25226144D01*
X-59109522Y25226144D02*
X-59109522Y26026144D01*
X-59547618Y23219478D02*
X-59547618Y22686144D01*
X-59738094Y23524240D02*
X-59928571Y22952811D01*
X-59928571Y22952811D02*
X-59433332Y22952811D01*
X-59509523Y20946144D02*
X-59890475Y20946144D01*
X-59890475Y20946144D02*
X-59928571Y20565192D01*
X-59928571Y20565192D02*
X-59890475Y20603287D01*
X-59890475Y20603287D02*
X-59814285Y20641382D01*
X-59814285Y20641382D02*
X-59623809Y20641382D01*
X-59623809Y20641382D02*
X-59547618Y20603287D01*
X-59547618Y20603287D02*
X-59509523Y20565192D01*
X-59509523Y20565192D02*
X-59471428Y20489001D01*
X-59471428Y20489001D02*
X-59471428Y20298525D01*
X-59471428Y20298525D02*
X-59509523Y20222335D01*
X-59509523Y20222335D02*
X-59547618Y20184240D01*
X-59547618Y20184240D02*
X-59623809Y20146144D01*
X-59623809Y20146144D02*
X-59814285Y20146144D01*
X-59814285Y20146144D02*
X-59890475Y20184240D01*
X-59890475Y20184240D02*
X-59928571Y20222335D01*
X-59547618Y18406144D02*
X-59699999Y18406144D01*
X-59699999Y18406144D02*
X-59776190Y18368049D01*
X-59776190Y18368049D02*
X-59814285Y18329954D01*
X-59814285Y18329954D02*
X-59890475Y18215668D01*
X-59890475Y18215668D02*
X-59928571Y18063287D01*
X-59928571Y18063287D02*
X-59928571Y17758525D01*
X-59928571Y17758525D02*
X-59890475Y17682335D01*
X-59890475Y17682335D02*
X-59852380Y17644240D01*
X-59852380Y17644240D02*
X-59776190Y17606144D01*
X-59776190Y17606144D02*
X-59623809Y17606144D01*
X-59623809Y17606144D02*
X-59547618Y17644240D01*
X-59547618Y17644240D02*
X-59509523Y17682335D01*
X-59509523Y17682335D02*
X-59471428Y17758525D01*
X-59471428Y17758525D02*
X-59471428Y17949001D01*
X-59471428Y17949001D02*
X-59509523Y18025192D01*
X-59509523Y18025192D02*
X-59547618Y18063287D01*
X-59547618Y18063287D02*
X-59623809Y18101382D01*
X-59623809Y18101382D02*
X-59776190Y18101382D01*
X-59776190Y18101382D02*
X-59852380Y18063287D01*
X-59852380Y18063287D02*
X-59890475Y18025192D01*
X-59890475Y18025192D02*
X-59928571Y17949001D01*
X-59966666Y15866144D02*
X-59433332Y15866144D01*
X-59433332Y15866144D02*
X-59776190Y15066144D01*
X-59852381Y12526144D02*
X-60309524Y12526144D01*
X-60080952Y12526144D02*
X-60080952Y13326144D01*
X-60080952Y13326144D02*
X-60157143Y13211859D01*
X-60157143Y13211859D02*
X-60233333Y13135668D01*
X-60233333Y13135668D02*
X-60309524Y13097573D01*
X-59128571Y13326144D02*
X-59509523Y13326144D01*
X-59509523Y13326144D02*
X-59547619Y12945192D01*
X-59547619Y12945192D02*
X-59509523Y12983287D01*
X-59509523Y12983287D02*
X-59433333Y13021382D01*
X-59433333Y13021382D02*
X-59242857Y13021382D01*
X-59242857Y13021382D02*
X-59166666Y12983287D01*
X-59166666Y12983287D02*
X-59128571Y12945192D01*
X-59128571Y12945192D02*
X-59090476Y12869001D01*
X-59090476Y12869001D02*
X-59090476Y12678525D01*
X-59090476Y12678525D02*
X-59128571Y12602335D01*
X-59128571Y12602335D02*
X-59166666Y12564240D01*
X-59166666Y12564240D02*
X-59242857Y12526144D01*
X-59242857Y12526144D02*
X-59433333Y12526144D01*
X-59433333Y12526144D02*
X-59509523Y12564240D01*
X-59509523Y12564240D02*
X-59547619Y12602335D01*
X-59852381Y9986144D02*
X-60309524Y9986144D01*
X-60080952Y9986144D02*
X-60080952Y10786144D01*
X-60080952Y10786144D02*
X-60157143Y10671859D01*
X-60157143Y10671859D02*
X-60233333Y10595668D01*
X-60233333Y10595668D02*
X-60309524Y10557573D01*
X-59166666Y10786144D02*
X-59319047Y10786144D01*
X-59319047Y10786144D02*
X-59395238Y10748049D01*
X-59395238Y10748049D02*
X-59433333Y10709954D01*
X-59433333Y10709954D02*
X-59509523Y10595668D01*
X-59509523Y10595668D02*
X-59547619Y10443287D01*
X-59547619Y10443287D02*
X-59547619Y10138525D01*
X-59547619Y10138525D02*
X-59509523Y10062335D01*
X-59509523Y10062335D02*
X-59471428Y10024240D01*
X-59471428Y10024240D02*
X-59395238Y9986144D01*
X-59395238Y9986144D02*
X-59242857Y9986144D01*
X-59242857Y9986144D02*
X-59166666Y10024240D01*
X-59166666Y10024240D02*
X-59128571Y10062335D01*
X-59128571Y10062335D02*
X-59090476Y10138525D01*
X-59090476Y10138525D02*
X-59090476Y10329001D01*
X-59090476Y10329001D02*
X-59128571Y10405192D01*
X-59128571Y10405192D02*
X-59166666Y10443287D01*
X-59166666Y10443287D02*
X-59242857Y10481382D01*
X-59242857Y10481382D02*
X-59395238Y10481382D01*
X-59395238Y10481382D02*
X-59471428Y10443287D01*
X-59471428Y10443287D02*
X-59509523Y10405192D01*
X-59509523Y10405192D02*
X-59547619Y10329001D01*
X-59852381Y7446144D02*
X-60309524Y7446144D01*
X-60080952Y7446144D02*
X-60080952Y8246144D01*
X-60080952Y8246144D02*
X-60157143Y8131859D01*
X-60157143Y8131859D02*
X-60233333Y8055668D01*
X-60233333Y8055668D02*
X-60309524Y8017573D01*
X-59585714Y8246144D02*
X-59052380Y8246144D01*
X-59052380Y8246144D02*
X-59395238Y7446144D01*
X-59852381Y4906144D02*
X-60309524Y4906144D01*
X-60080952Y4906144D02*
X-60080952Y5706144D01*
X-60080952Y5706144D02*
X-60157143Y5591859D01*
X-60157143Y5591859D02*
X-60233333Y5515668D01*
X-60233333Y5515668D02*
X-60309524Y5477573D01*
X-59395238Y5363287D02*
X-59471428Y5401382D01*
X-59471428Y5401382D02*
X-59509523Y5439478D01*
X-59509523Y5439478D02*
X-59547619Y5515668D01*
X-59547619Y5515668D02*
X-59547619Y5553763D01*
X-59547619Y5553763D02*
X-59509523Y5629954D01*
X-59509523Y5629954D02*
X-59471428Y5668049D01*
X-59471428Y5668049D02*
X-59395238Y5706144D01*
X-59395238Y5706144D02*
X-59242857Y5706144D01*
X-59242857Y5706144D02*
X-59166666Y5668049D01*
X-59166666Y5668049D02*
X-59128571Y5629954D01*
X-59128571Y5629954D02*
X-59090476Y5553763D01*
X-59090476Y5553763D02*
X-59090476Y5515668D01*
X-59090476Y5515668D02*
X-59128571Y5439478D01*
X-59128571Y5439478D02*
X-59166666Y5401382D01*
X-59166666Y5401382D02*
X-59242857Y5363287D01*
X-59242857Y5363287D02*
X-59395238Y5363287D01*
X-59395238Y5363287D02*
X-59471428Y5325192D01*
X-59471428Y5325192D02*
X-59509523Y5287097D01*
X-59509523Y5287097D02*
X-59547619Y5210906D01*
X-59547619Y5210906D02*
X-59547619Y5058525D01*
X-59547619Y5058525D02*
X-59509523Y4982335D01*
X-59509523Y4982335D02*
X-59471428Y4944240D01*
X-59471428Y4944240D02*
X-59395238Y4906144D01*
X-59395238Y4906144D02*
X-59242857Y4906144D01*
X-59242857Y4906144D02*
X-59166666Y4944240D01*
X-59166666Y4944240D02*
X-59128571Y4982335D01*
X-59128571Y4982335D02*
X-59090476Y5058525D01*
X-59090476Y5058525D02*
X-59090476Y5210906D01*
X-59090476Y5210906D02*
X-59128571Y5287097D01*
X-59128571Y5287097D02*
X-59166666Y5325192D01*
X-59166666Y5325192D02*
X-59242857Y5363287D01*
X-59776190Y2823287D02*
X-59852380Y2861382D01*
X-59852380Y2861382D02*
X-59890475Y2899478D01*
X-59890475Y2899478D02*
X-59928571Y2975668D01*
X-59928571Y2975668D02*
X-59928571Y3013763D01*
X-59928571Y3013763D02*
X-59890475Y3089954D01*
X-59890475Y3089954D02*
X-59852380Y3128049D01*
X-59852380Y3128049D02*
X-59776190Y3166144D01*
X-59776190Y3166144D02*
X-59623809Y3166144D01*
X-59623809Y3166144D02*
X-59547618Y3128049D01*
X-59547618Y3128049D02*
X-59509523Y3089954D01*
X-59509523Y3089954D02*
X-59471428Y3013763D01*
X-59471428Y3013763D02*
X-59471428Y2975668D01*
X-59471428Y2975668D02*
X-59509523Y2899478D01*
X-59509523Y2899478D02*
X-59547618Y2861382D01*
X-59547618Y2861382D02*
X-59623809Y2823287D01*
X-59623809Y2823287D02*
X-59776190Y2823287D01*
X-59776190Y2823287D02*
X-59852380Y2785192D01*
X-59852380Y2785192D02*
X-59890475Y2747097D01*
X-59890475Y2747097D02*
X-59928571Y2670906D01*
X-59928571Y2670906D02*
X-59928571Y2518525D01*
X-59928571Y2518525D02*
X-59890475Y2442335D01*
X-59890475Y2442335D02*
X-59852380Y2404240D01*
X-59852380Y2404240D02*
X-59776190Y2366144D01*
X-59776190Y2366144D02*
X-59623809Y2366144D01*
X-59623809Y2366144D02*
X-59547618Y2404240D01*
X-59547618Y2404240D02*
X-59509523Y2442335D01*
X-59509523Y2442335D02*
X-59471428Y2518525D01*
X-59471428Y2518525D02*
X-59471428Y2670906D01*
X-59471428Y2670906D02*
X-59509523Y2747097D01*
X-59509523Y2747097D02*
X-59547618Y2785192D01*
X-59547618Y2785192D02*
X-59623809Y2823287D01*
X-59966666Y626144D02*
X-59471428Y626144D01*
X-59471428Y626144D02*
X-59738094Y321382D01*
X-59738094Y321382D02*
X-59623809Y321382D01*
X-59623809Y321382D02*
X-59547618Y283287D01*
X-59547618Y283287D02*
X-59509523Y245192D01*
X-59509523Y245192D02*
X-59471428Y169001D01*
X-59471428Y169001D02*
X-59471428Y-21474D01*
X-59471428Y-21474D02*
X-59509523Y-97664D01*
X-59509523Y-97664D02*
X-59547618Y-135760D01*
X-59547618Y-135760D02*
X-59623809Y-173855D01*
X-59623809Y-173855D02*
X-59852380Y-173855D01*
X-59852380Y-173855D02*
X-59928571Y-135760D01*
X-59928571Y-135760D02*
X-59966666Y-97664D01*
X-59928571Y-2180521D02*
X-59928571Y-2713855D01*
X-60119047Y-1875760D02*
X-60309524Y-2447188D01*
X-60309524Y-2447188D02*
X-59814285Y-2447188D01*
X-59166666Y-1913855D02*
X-59319047Y-1913855D01*
X-59319047Y-1913855D02*
X-59395238Y-1951950D01*
X-59395238Y-1951950D02*
X-59433333Y-1990045D01*
X-59433333Y-1990045D02*
X-59509523Y-2104331D01*
X-59509523Y-2104331D02*
X-59547619Y-2256712D01*
X-59547619Y-2256712D02*
X-59547619Y-2561474D01*
X-59547619Y-2561474D02*
X-59509523Y-2637664D01*
X-59509523Y-2637664D02*
X-59471428Y-2675760D01*
X-59471428Y-2675760D02*
X-59395238Y-2713855D01*
X-59395238Y-2713855D02*
X-59242857Y-2713855D01*
X-59242857Y-2713855D02*
X-59166666Y-2675760D01*
X-59166666Y-2675760D02*
X-59128571Y-2637664D01*
X-59128571Y-2637664D02*
X-59090476Y-2561474D01*
X-59090476Y-2561474D02*
X-59090476Y-2370998D01*
X-59090476Y-2370998D02*
X-59128571Y-2294807D01*
X-59128571Y-2294807D02*
X-59166666Y-2256712D01*
X-59166666Y-2256712D02*
X-59242857Y-2218617D01*
X-59242857Y-2218617D02*
X-59395238Y-2218617D01*
X-59395238Y-2218617D02*
X-59471428Y-2256712D01*
X-59471428Y-2256712D02*
X-59509523Y-2294807D01*
X-59509523Y-2294807D02*
X-59547619Y-2370998D01*
X-59852380Y-5253855D02*
X-59699999Y-5253855D01*
X-59699999Y-5253855D02*
X-59623809Y-5215760D01*
X-59623809Y-5215760D02*
X-59585713Y-5177664D01*
X-59585713Y-5177664D02*
X-59509523Y-5063379D01*
X-59509523Y-5063379D02*
X-59471428Y-4910998D01*
X-59471428Y-4910998D02*
X-59471428Y-4606236D01*
X-59471428Y-4606236D02*
X-59509523Y-4530045D01*
X-59509523Y-4530045D02*
X-59547618Y-4491950D01*
X-59547618Y-4491950D02*
X-59623809Y-4453855D01*
X-59623809Y-4453855D02*
X-59776190Y-4453855D01*
X-59776190Y-4453855D02*
X-59852380Y-4491950D01*
X-59852380Y-4491950D02*
X-59890475Y-4530045D01*
X-59890475Y-4530045D02*
X-59928571Y-4606236D01*
X-59928571Y-4606236D02*
X-59928571Y-4796712D01*
X-59928571Y-4796712D02*
X-59890475Y-4872902D01*
X-59890475Y-4872902D02*
X-59852380Y-4910998D01*
X-59852380Y-4910998D02*
X-59776190Y-4949093D01*
X-59776190Y-4949093D02*
X-59623809Y-4949093D01*
X-59623809Y-4949093D02*
X-59547618Y-4910998D01*
X-59547618Y-4910998D02*
X-59509523Y-4872902D01*
X-59509523Y-4872902D02*
X-59471428Y-4796712D01*
X-59852381Y-7793855D02*
X-60309524Y-7793855D01*
X-60080952Y-7793855D02*
X-60080952Y-6993855D01*
X-60080952Y-6993855D02*
X-60157143Y-7108140D01*
X-60157143Y-7108140D02*
X-60233333Y-7184331D01*
X-60233333Y-7184331D02*
X-60309524Y-7222426D01*
X-59357142Y-6993855D02*
X-59280952Y-6993855D01*
X-59280952Y-6993855D02*
X-59204761Y-7031950D01*
X-59204761Y-7031950D02*
X-59166666Y-7070045D01*
X-59166666Y-7070045D02*
X-59128571Y-7146236D01*
X-59128571Y-7146236D02*
X-59090476Y-7298617D01*
X-59090476Y-7298617D02*
X-59090476Y-7489093D01*
X-59090476Y-7489093D02*
X-59128571Y-7641474D01*
X-59128571Y-7641474D02*
X-59166666Y-7717664D01*
X-59166666Y-7717664D02*
X-59204761Y-7755760D01*
X-59204761Y-7755760D02*
X-59280952Y-7793855D01*
X-59280952Y-7793855D02*
X-59357142Y-7793855D01*
X-59357142Y-7793855D02*
X-59433333Y-7755760D01*
X-59433333Y-7755760D02*
X-59471428Y-7717664D01*
X-59471428Y-7717664D02*
X-59509523Y-7641474D01*
X-59509523Y-7641474D02*
X-59547619Y-7489093D01*
X-59547619Y-7489093D02*
X-59547619Y-7298617D01*
X-59547619Y-7298617D02*
X-59509523Y-7146236D01*
X-59509523Y-7146236D02*
X-59471428Y-7070045D01*
X-59471428Y-7070045D02*
X-59433333Y-7031950D01*
X-59433333Y-7031950D02*
X-59357142Y-6993855D01*
X-59852381Y-10333855D02*
X-60309524Y-10333855D01*
X-60080952Y-10333855D02*
X-60080952Y-9533855D01*
X-60080952Y-9533855D02*
X-60157143Y-9648140D01*
X-60157143Y-9648140D02*
X-60233333Y-9724331D01*
X-60233333Y-9724331D02*
X-60309524Y-9762426D01*
X-59090476Y-10333855D02*
X-59547619Y-10333855D01*
X-59319047Y-10333855D02*
X-59319047Y-9533855D01*
X-59319047Y-9533855D02*
X-59395238Y-9648140D01*
X-59395238Y-9648140D02*
X-59471428Y-9724331D01*
X-59471428Y-9724331D02*
X-59547619Y-9762426D01*
X-59852381Y-12873855D02*
X-60309524Y-12873855D01*
X-60080952Y-12873855D02*
X-60080952Y-12073855D01*
X-60080952Y-12073855D02*
X-60157143Y-12188140D01*
X-60157143Y-12188140D02*
X-60233333Y-12264331D01*
X-60233333Y-12264331D02*
X-60309524Y-12302426D01*
X-59547619Y-12150045D02*
X-59509523Y-12111950D01*
X-59509523Y-12111950D02*
X-59433333Y-12073855D01*
X-59433333Y-12073855D02*
X-59242857Y-12073855D01*
X-59242857Y-12073855D02*
X-59166666Y-12111950D01*
X-59166666Y-12111950D02*
X-59128571Y-12150045D01*
X-59128571Y-12150045D02*
X-59090476Y-12226236D01*
X-59090476Y-12226236D02*
X-59090476Y-12302426D01*
X-59090476Y-12302426D02*
X-59128571Y-12416712D01*
X-59128571Y-12416712D02*
X-59585714Y-12873855D01*
X-59585714Y-12873855D02*
X-59090476Y-12873855D01*
X-59852381Y-15413855D02*
X-60309524Y-15413855D01*
X-60080952Y-15413855D02*
X-60080952Y-14613855D01*
X-60080952Y-14613855D02*
X-60157143Y-14728140D01*
X-60157143Y-14728140D02*
X-60233333Y-14804331D01*
X-60233333Y-14804331D02*
X-60309524Y-14842426D01*
X-59585714Y-14613855D02*
X-59090476Y-14613855D01*
X-59090476Y-14613855D02*
X-59357142Y-14918617D01*
X-59357142Y-14918617D02*
X-59242857Y-14918617D01*
X-59242857Y-14918617D02*
X-59166666Y-14956712D01*
X-59166666Y-14956712D02*
X-59128571Y-14994807D01*
X-59128571Y-14994807D02*
X-59090476Y-15070998D01*
X-59090476Y-15070998D02*
X-59090476Y-15261474D01*
X-59090476Y-15261474D02*
X-59128571Y-15337664D01*
X-59128571Y-15337664D02*
X-59166666Y-15375760D01*
X-59166666Y-15375760D02*
X-59242857Y-15413855D01*
X-59242857Y-15413855D02*
X-59471428Y-15413855D01*
X-59471428Y-15413855D02*
X-59547619Y-15375760D01*
X-59547619Y-15375760D02*
X-59585714Y-15337664D01*
X-59852381Y-17953855D02*
X-60309524Y-17953855D01*
X-60080952Y-17953855D02*
X-60080952Y-17153855D01*
X-60080952Y-17153855D02*
X-60157143Y-17268140D01*
X-60157143Y-17268140D02*
X-60233333Y-17344331D01*
X-60233333Y-17344331D02*
X-60309524Y-17382426D01*
X-59166666Y-17420521D02*
X-59166666Y-17953855D01*
X-59357142Y-17115760D02*
X-59547619Y-17687188D01*
X-59547619Y-17687188D02*
X-59052380Y-17687188D01*
X-59852380Y-19693855D02*
X-60233332Y-19693855D01*
X-60233332Y-19693855D02*
X-60271428Y-20074807D01*
X-60271428Y-20074807D02*
X-60233332Y-20036712D01*
X-60233332Y-20036712D02*
X-60157142Y-19998617D01*
X-60157142Y-19998617D02*
X-59966666Y-19998617D01*
X-59966666Y-19998617D02*
X-59890475Y-20036712D01*
X-59890475Y-20036712D02*
X-59852380Y-20074807D01*
X-59852380Y-20074807D02*
X-59814285Y-20150998D01*
X-59814285Y-20150998D02*
X-59814285Y-20341474D01*
X-59814285Y-20341474D02*
X-59852380Y-20417664D01*
X-59852380Y-20417664D02*
X-59890475Y-20455760D01*
X-59890475Y-20455760D02*
X-59966666Y-20493855D01*
X-59966666Y-20493855D02*
X-60157142Y-20493855D01*
X-60157142Y-20493855D02*
X-60233332Y-20455760D01*
X-60233332Y-20455760D02*
X-60271428Y-20417664D01*
X-59585713Y-19693855D02*
X-59319046Y-20493855D01*
X-59319046Y-20493855D02*
X-59052380Y-19693855D01*
X-59490476Y-22271950D02*
X-59566666Y-22233855D01*
X-59566666Y-22233855D02*
X-59680952Y-22233855D01*
X-59680952Y-22233855D02*
X-59795238Y-22271950D01*
X-59795238Y-22271950D02*
X-59871428Y-22348140D01*
X-59871428Y-22348140D02*
X-59909523Y-22424331D01*
X-59909523Y-22424331D02*
X-59947619Y-22576712D01*
X-59947619Y-22576712D02*
X-59947619Y-22690998D01*
X-59947619Y-22690998D02*
X-59909523Y-22843379D01*
X-59909523Y-22843379D02*
X-59871428Y-22919569D01*
X-59871428Y-22919569D02*
X-59795238Y-22995760D01*
X-59795238Y-22995760D02*
X-59680952Y-23033855D01*
X-59680952Y-23033855D02*
X-59604761Y-23033855D01*
X-59604761Y-23033855D02*
X-59490476Y-22995760D01*
X-59490476Y-22995760D02*
X-59452380Y-22957664D01*
X-59452380Y-22957664D02*
X-59452380Y-22690998D01*
X-59452380Y-22690998D02*
X-59604761Y-22690998D01*
X-28090476Y31068049D02*
X-28166666Y31106144D01*
X-28166666Y31106144D02*
X-28280952Y31106144D01*
X-28280952Y31106144D02*
X-28395238Y31068049D01*
X-28395238Y31068049D02*
X-28471428Y30991859D01*
X-28471428Y30991859D02*
X-28509523Y30915668D01*
X-28509523Y30915668D02*
X-28547619Y30763287D01*
X-28547619Y30763287D02*
X-28547619Y30649001D01*
X-28547619Y30649001D02*
X-28509523Y30496620D01*
X-28509523Y30496620D02*
X-28471428Y30420430D01*
X-28471428Y30420430D02*
X-28395238Y30344240D01*
X-28395238Y30344240D02*
X-28280952Y30306144D01*
X-28280952Y30306144D02*
X-28204761Y30306144D01*
X-28204761Y30306144D02*
X-28090476Y30344240D01*
X-28090476Y30344240D02*
X-28052380Y30382335D01*
X-28052380Y30382335D02*
X-28052380Y30649001D01*
X-28052380Y30649001D02*
X-28204761Y30649001D01*
X-28909523Y28566144D02*
X-28452380Y28566144D01*
X-28680952Y27766144D02*
X-28680952Y28566144D01*
X-28261904Y28566144D02*
X-27728570Y27766144D01*
X-27728570Y28566144D02*
X-28261904Y27766144D01*
X-28433332Y25226144D02*
X-28699999Y25607097D01*
X-28890475Y25226144D02*
X-28890475Y26026144D01*
X-28890475Y26026144D02*
X-28585713Y26026144D01*
X-28585713Y26026144D02*
X-28509523Y25988049D01*
X-28509523Y25988049D02*
X-28471428Y25949954D01*
X-28471428Y25949954D02*
X-28433332Y25873763D01*
X-28433332Y25873763D02*
X-28433332Y25759478D01*
X-28433332Y25759478D02*
X-28471428Y25683287D01*
X-28471428Y25683287D02*
X-28509523Y25645192D01*
X-28509523Y25645192D02*
X-28585713Y25607097D01*
X-28585713Y25607097D02*
X-28890475Y25607097D01*
X-28166666Y26026144D02*
X-27633332Y25226144D01*
X-27633332Y26026144D02*
X-28166666Y25226144D01*
X-28071428Y22686144D02*
X-28528571Y22686144D01*
X-28299999Y22686144D02*
X-28299999Y23486144D01*
X-28299999Y23486144D02*
X-28376190Y23371859D01*
X-28376190Y23371859D02*
X-28452380Y23295668D01*
X-28452380Y23295668D02*
X-28528571Y23257573D01*
X-28528571Y20869954D02*
X-28490475Y20908049D01*
X-28490475Y20908049D02*
X-28414285Y20946144D01*
X-28414285Y20946144D02*
X-28223809Y20946144D01*
X-28223809Y20946144D02*
X-28147618Y20908049D01*
X-28147618Y20908049D02*
X-28109523Y20869954D01*
X-28109523Y20869954D02*
X-28071428Y20793763D01*
X-28071428Y20793763D02*
X-28071428Y20717573D01*
X-28071428Y20717573D02*
X-28109523Y20603287D01*
X-28109523Y20603287D02*
X-28566666Y20146144D01*
X-28566666Y20146144D02*
X-28071428Y20146144D01*
X-28528571Y18139478D02*
X-28528571Y17606144D01*
X-28719047Y18444240D02*
X-28909524Y17872811D01*
X-28909524Y17872811D02*
X-28414285Y17872811D01*
X-28147619Y18329954D02*
X-28109523Y18368049D01*
X-28109523Y18368049D02*
X-28033333Y18406144D01*
X-28033333Y18406144D02*
X-27842857Y18406144D01*
X-27842857Y18406144D02*
X-27766666Y18368049D01*
X-27766666Y18368049D02*
X-27728571Y18329954D01*
X-27728571Y18329954D02*
X-27690476Y18253763D01*
X-27690476Y18253763D02*
X-27690476Y18177573D01*
X-27690476Y18177573D02*
X-27728571Y18063287D01*
X-27728571Y18063287D02*
X-28185714Y17606144D01*
X-28185714Y17606144D02*
X-27690476Y17606144D01*
X-28528571Y15599478D02*
X-28528571Y15066144D01*
X-28719047Y15904240D02*
X-28909524Y15332811D01*
X-28909524Y15332811D02*
X-28414285Y15332811D01*
X-27690476Y15066144D02*
X-28147619Y15066144D01*
X-27919047Y15066144D02*
X-27919047Y15866144D01*
X-27919047Y15866144D02*
X-27995238Y15751859D01*
X-27995238Y15751859D02*
X-28071428Y15675668D01*
X-28071428Y15675668D02*
X-28147619Y15637573D01*
X-28528571Y13059478D02*
X-28528571Y12526144D01*
X-28719047Y13364240D02*
X-28909524Y12792811D01*
X-28909524Y12792811D02*
X-28414285Y12792811D01*
X-27957142Y13326144D02*
X-27880952Y13326144D01*
X-27880952Y13326144D02*
X-27804761Y13288049D01*
X-27804761Y13288049D02*
X-27766666Y13249954D01*
X-27766666Y13249954D02*
X-27728571Y13173763D01*
X-27728571Y13173763D02*
X-27690476Y13021382D01*
X-27690476Y13021382D02*
X-27690476Y12830906D01*
X-27690476Y12830906D02*
X-27728571Y12678525D01*
X-27728571Y12678525D02*
X-27766666Y12602335D01*
X-27766666Y12602335D02*
X-27804761Y12564240D01*
X-27804761Y12564240D02*
X-27880952Y12526144D01*
X-27880952Y12526144D02*
X-27957142Y12526144D01*
X-27957142Y12526144D02*
X-28033333Y12564240D01*
X-28033333Y12564240D02*
X-28071428Y12602335D01*
X-28071428Y12602335D02*
X-28109523Y12678525D01*
X-28109523Y12678525D02*
X-28147619Y12830906D01*
X-28147619Y12830906D02*
X-28147619Y13021382D01*
X-28147619Y13021382D02*
X-28109523Y13173763D01*
X-28109523Y13173763D02*
X-28071428Y13249954D01*
X-28071428Y13249954D02*
X-28033333Y13288049D01*
X-28033333Y13288049D02*
X-27957142Y13326144D01*
X-28947619Y10786144D02*
X-28452381Y10786144D01*
X-28452381Y10786144D02*
X-28719047Y10481382D01*
X-28719047Y10481382D02*
X-28604762Y10481382D01*
X-28604762Y10481382D02*
X-28528571Y10443287D01*
X-28528571Y10443287D02*
X-28490476Y10405192D01*
X-28490476Y10405192D02*
X-28452381Y10329001D01*
X-28452381Y10329001D02*
X-28452381Y10138525D01*
X-28452381Y10138525D02*
X-28490476Y10062335D01*
X-28490476Y10062335D02*
X-28528571Y10024240D01*
X-28528571Y10024240D02*
X-28604762Y9986144D01*
X-28604762Y9986144D02*
X-28833333Y9986144D01*
X-28833333Y9986144D02*
X-28909524Y10024240D01*
X-28909524Y10024240D02*
X-28947619Y10062335D01*
X-28071428Y9986144D02*
X-27919047Y9986144D01*
X-27919047Y9986144D02*
X-27842857Y10024240D01*
X-27842857Y10024240D02*
X-27804761Y10062335D01*
X-27804761Y10062335D02*
X-27728571Y10176620D01*
X-27728571Y10176620D02*
X-27690476Y10329001D01*
X-27690476Y10329001D02*
X-27690476Y10633763D01*
X-27690476Y10633763D02*
X-27728571Y10709954D01*
X-27728571Y10709954D02*
X-27766666Y10748049D01*
X-27766666Y10748049D02*
X-27842857Y10786144D01*
X-27842857Y10786144D02*
X-27995238Y10786144D01*
X-27995238Y10786144D02*
X-28071428Y10748049D01*
X-28071428Y10748049D02*
X-28109523Y10709954D01*
X-28109523Y10709954D02*
X-28147619Y10633763D01*
X-28147619Y10633763D02*
X-28147619Y10443287D01*
X-28147619Y10443287D02*
X-28109523Y10367097D01*
X-28109523Y10367097D02*
X-28071428Y10329001D01*
X-28071428Y10329001D02*
X-27995238Y10290906D01*
X-27995238Y10290906D02*
X-27842857Y10290906D01*
X-27842857Y10290906D02*
X-27766666Y10329001D01*
X-27766666Y10329001D02*
X-27728571Y10367097D01*
X-27728571Y10367097D02*
X-27690476Y10443287D01*
X-28947619Y8246144D02*
X-28452381Y8246144D01*
X-28452381Y8246144D02*
X-28719047Y7941382D01*
X-28719047Y7941382D02*
X-28604762Y7941382D01*
X-28604762Y7941382D02*
X-28528571Y7903287D01*
X-28528571Y7903287D02*
X-28490476Y7865192D01*
X-28490476Y7865192D02*
X-28452381Y7789001D01*
X-28452381Y7789001D02*
X-28452381Y7598525D01*
X-28452381Y7598525D02*
X-28490476Y7522335D01*
X-28490476Y7522335D02*
X-28528571Y7484240D01*
X-28528571Y7484240D02*
X-28604762Y7446144D01*
X-28604762Y7446144D02*
X-28833333Y7446144D01*
X-28833333Y7446144D02*
X-28909524Y7484240D01*
X-28909524Y7484240D02*
X-28947619Y7522335D01*
X-27995238Y7903287D02*
X-28071428Y7941382D01*
X-28071428Y7941382D02*
X-28109523Y7979478D01*
X-28109523Y7979478D02*
X-28147619Y8055668D01*
X-28147619Y8055668D02*
X-28147619Y8093763D01*
X-28147619Y8093763D02*
X-28109523Y8169954D01*
X-28109523Y8169954D02*
X-28071428Y8208049D01*
X-28071428Y8208049D02*
X-27995238Y8246144D01*
X-27995238Y8246144D02*
X-27842857Y8246144D01*
X-27842857Y8246144D02*
X-27766666Y8208049D01*
X-27766666Y8208049D02*
X-27728571Y8169954D01*
X-27728571Y8169954D02*
X-27690476Y8093763D01*
X-27690476Y8093763D02*
X-27690476Y8055668D01*
X-27690476Y8055668D02*
X-27728571Y7979478D01*
X-27728571Y7979478D02*
X-27766666Y7941382D01*
X-27766666Y7941382D02*
X-27842857Y7903287D01*
X-27842857Y7903287D02*
X-27995238Y7903287D01*
X-27995238Y7903287D02*
X-28071428Y7865192D01*
X-28071428Y7865192D02*
X-28109523Y7827097D01*
X-28109523Y7827097D02*
X-28147619Y7750906D01*
X-28147619Y7750906D02*
X-28147619Y7598525D01*
X-28147619Y7598525D02*
X-28109523Y7522335D01*
X-28109523Y7522335D02*
X-28071428Y7484240D01*
X-28071428Y7484240D02*
X-27995238Y7446144D01*
X-27995238Y7446144D02*
X-27842857Y7446144D01*
X-27842857Y7446144D02*
X-27766666Y7484240D01*
X-27766666Y7484240D02*
X-27728571Y7522335D01*
X-27728571Y7522335D02*
X-27690476Y7598525D01*
X-27690476Y7598525D02*
X-27690476Y7750906D01*
X-27690476Y7750906D02*
X-27728571Y7827097D01*
X-27728571Y7827097D02*
X-27766666Y7865192D01*
X-27766666Y7865192D02*
X-27842857Y7903287D01*
X-28947619Y5706144D02*
X-28452381Y5706144D01*
X-28452381Y5706144D02*
X-28719047Y5401382D01*
X-28719047Y5401382D02*
X-28604762Y5401382D01*
X-28604762Y5401382D02*
X-28528571Y5363287D01*
X-28528571Y5363287D02*
X-28490476Y5325192D01*
X-28490476Y5325192D02*
X-28452381Y5249001D01*
X-28452381Y5249001D02*
X-28452381Y5058525D01*
X-28452381Y5058525D02*
X-28490476Y4982335D01*
X-28490476Y4982335D02*
X-28528571Y4944240D01*
X-28528571Y4944240D02*
X-28604762Y4906144D01*
X-28604762Y4906144D02*
X-28833333Y4906144D01*
X-28833333Y4906144D02*
X-28909524Y4944240D01*
X-28909524Y4944240D02*
X-28947619Y4982335D01*
X-28185714Y5706144D02*
X-27652380Y5706144D01*
X-27652380Y5706144D02*
X-27995238Y4906144D01*
X-28947619Y3166144D02*
X-28452381Y3166144D01*
X-28452381Y3166144D02*
X-28719047Y2861382D01*
X-28719047Y2861382D02*
X-28604762Y2861382D01*
X-28604762Y2861382D02*
X-28528571Y2823287D01*
X-28528571Y2823287D02*
X-28490476Y2785192D01*
X-28490476Y2785192D02*
X-28452381Y2709001D01*
X-28452381Y2709001D02*
X-28452381Y2518525D01*
X-28452381Y2518525D02*
X-28490476Y2442335D01*
X-28490476Y2442335D02*
X-28528571Y2404240D01*
X-28528571Y2404240D02*
X-28604762Y2366144D01*
X-28604762Y2366144D02*
X-28833333Y2366144D01*
X-28833333Y2366144D02*
X-28909524Y2404240D01*
X-28909524Y2404240D02*
X-28947619Y2442335D01*
X-27766666Y3166144D02*
X-27919047Y3166144D01*
X-27919047Y3166144D02*
X-27995238Y3128049D01*
X-27995238Y3128049D02*
X-28033333Y3089954D01*
X-28033333Y3089954D02*
X-28109523Y2975668D01*
X-28109523Y2975668D02*
X-28147619Y2823287D01*
X-28147619Y2823287D02*
X-28147619Y2518525D01*
X-28147619Y2518525D02*
X-28109523Y2442335D01*
X-28109523Y2442335D02*
X-28071428Y2404240D01*
X-28071428Y2404240D02*
X-27995238Y2366144D01*
X-27995238Y2366144D02*
X-27842857Y2366144D01*
X-27842857Y2366144D02*
X-27766666Y2404240D01*
X-27766666Y2404240D02*
X-27728571Y2442335D01*
X-27728571Y2442335D02*
X-27690476Y2518525D01*
X-27690476Y2518525D02*
X-27690476Y2709001D01*
X-27690476Y2709001D02*
X-27728571Y2785192D01*
X-27728571Y2785192D02*
X-27766666Y2823287D01*
X-27766666Y2823287D02*
X-27842857Y2861382D01*
X-27842857Y2861382D02*
X-27995238Y2861382D01*
X-27995238Y2861382D02*
X-28071428Y2823287D01*
X-28071428Y2823287D02*
X-28109523Y2785192D01*
X-28109523Y2785192D02*
X-28147619Y2709001D01*
X-28947619Y626144D02*
X-28452381Y626144D01*
X-28452381Y626144D02*
X-28719047Y321382D01*
X-28719047Y321382D02*
X-28604762Y321382D01*
X-28604762Y321382D02*
X-28528571Y283287D01*
X-28528571Y283287D02*
X-28490476Y245192D01*
X-28490476Y245192D02*
X-28452381Y169001D01*
X-28452381Y169001D02*
X-28452381Y-21474D01*
X-28452381Y-21474D02*
X-28490476Y-97664D01*
X-28490476Y-97664D02*
X-28528571Y-135760D01*
X-28528571Y-135760D02*
X-28604762Y-173855D01*
X-28604762Y-173855D02*
X-28833333Y-173855D01*
X-28833333Y-173855D02*
X-28909524Y-135760D01*
X-28909524Y-135760D02*
X-28947619Y-97664D01*
X-27728571Y626144D02*
X-28109523Y626144D01*
X-28109523Y626144D02*
X-28147619Y245192D01*
X-28147619Y245192D02*
X-28109523Y283287D01*
X-28109523Y283287D02*
X-28033333Y321382D01*
X-28033333Y321382D02*
X-27842857Y321382D01*
X-27842857Y321382D02*
X-27766666Y283287D01*
X-27766666Y283287D02*
X-27728571Y245192D01*
X-27728571Y245192D02*
X-27690476Y169001D01*
X-27690476Y169001D02*
X-27690476Y-21474D01*
X-27690476Y-21474D02*
X-27728571Y-97664D01*
X-27728571Y-97664D02*
X-27766666Y-135760D01*
X-27766666Y-135760D02*
X-27842857Y-173855D01*
X-27842857Y-173855D02*
X-28033333Y-173855D01*
X-28033333Y-173855D02*
X-28109523Y-135760D01*
X-28109523Y-135760D02*
X-28147619Y-97664D01*
X-28338094Y-1913855D02*
X-28261904Y-1913855D01*
X-28261904Y-1913855D02*
X-28185713Y-1951950D01*
X-28185713Y-1951950D02*
X-28147618Y-1990045D01*
X-28147618Y-1990045D02*
X-28109523Y-2066236D01*
X-28109523Y-2066236D02*
X-28071428Y-2218617D01*
X-28071428Y-2218617D02*
X-28071428Y-2409093D01*
X-28071428Y-2409093D02*
X-28109523Y-2561474D01*
X-28109523Y-2561474D02*
X-28147618Y-2637664D01*
X-28147618Y-2637664D02*
X-28185713Y-2675760D01*
X-28185713Y-2675760D02*
X-28261904Y-2713855D01*
X-28261904Y-2713855D02*
X-28338094Y-2713855D01*
X-28338094Y-2713855D02*
X-28414285Y-2675760D01*
X-28414285Y-2675760D02*
X-28452380Y-2637664D01*
X-28452380Y-2637664D02*
X-28490475Y-2561474D01*
X-28490475Y-2561474D02*
X-28528571Y-2409093D01*
X-28528571Y-2409093D02*
X-28528571Y-2218617D01*
X-28528571Y-2218617D02*
X-28490475Y-2066236D01*
X-28490475Y-2066236D02*
X-28452380Y-1990045D01*
X-28452380Y-1990045D02*
X-28414285Y-1951950D01*
X-28414285Y-1951950D02*
X-28338094Y-1913855D01*
X-28528571Y-4720521D02*
X-28528571Y-5253855D01*
X-28719047Y-4415760D02*
X-28909524Y-4987188D01*
X-28909524Y-4987188D02*
X-28414285Y-4987188D01*
X-27728571Y-4453855D02*
X-28109523Y-4453855D01*
X-28109523Y-4453855D02*
X-28147619Y-4834807D01*
X-28147619Y-4834807D02*
X-28109523Y-4796712D01*
X-28109523Y-4796712D02*
X-28033333Y-4758617D01*
X-28033333Y-4758617D02*
X-27842857Y-4758617D01*
X-27842857Y-4758617D02*
X-27766666Y-4796712D01*
X-27766666Y-4796712D02*
X-27728571Y-4834807D01*
X-27728571Y-4834807D02*
X-27690476Y-4910998D01*
X-27690476Y-4910998D02*
X-27690476Y-5101474D01*
X-27690476Y-5101474D02*
X-27728571Y-5177664D01*
X-27728571Y-5177664D02*
X-27766666Y-5215760D01*
X-27766666Y-5215760D02*
X-27842857Y-5253855D01*
X-27842857Y-5253855D02*
X-28033333Y-5253855D01*
X-28033333Y-5253855D02*
X-28109523Y-5215760D01*
X-28109523Y-5215760D02*
X-28147619Y-5177664D01*
X-28528571Y-7260521D02*
X-28528571Y-7793855D01*
X-28719047Y-6955760D02*
X-28909524Y-7527188D01*
X-28909524Y-7527188D02*
X-28414285Y-7527188D01*
X-27995238Y-7336712D02*
X-28071428Y-7298617D01*
X-28071428Y-7298617D02*
X-28109523Y-7260521D01*
X-28109523Y-7260521D02*
X-28147619Y-7184331D01*
X-28147619Y-7184331D02*
X-28147619Y-7146236D01*
X-28147619Y-7146236D02*
X-28109523Y-7070045D01*
X-28109523Y-7070045D02*
X-28071428Y-7031950D01*
X-28071428Y-7031950D02*
X-27995238Y-6993855D01*
X-27995238Y-6993855D02*
X-27842857Y-6993855D01*
X-27842857Y-6993855D02*
X-27766666Y-7031950D01*
X-27766666Y-7031950D02*
X-27728571Y-7070045D01*
X-27728571Y-7070045D02*
X-27690476Y-7146236D01*
X-27690476Y-7146236D02*
X-27690476Y-7184331D01*
X-27690476Y-7184331D02*
X-27728571Y-7260521D01*
X-27728571Y-7260521D02*
X-27766666Y-7298617D01*
X-27766666Y-7298617D02*
X-27842857Y-7336712D01*
X-27842857Y-7336712D02*
X-27995238Y-7336712D01*
X-27995238Y-7336712D02*
X-28071428Y-7374807D01*
X-28071428Y-7374807D02*
X-28109523Y-7412902D01*
X-28109523Y-7412902D02*
X-28147619Y-7489093D01*
X-28147619Y-7489093D02*
X-28147619Y-7641474D01*
X-28147619Y-7641474D02*
X-28109523Y-7717664D01*
X-28109523Y-7717664D02*
X-28071428Y-7755760D01*
X-28071428Y-7755760D02*
X-27995238Y-7793855D01*
X-27995238Y-7793855D02*
X-27842857Y-7793855D01*
X-27842857Y-7793855D02*
X-27766666Y-7755760D01*
X-27766666Y-7755760D02*
X-27728571Y-7717664D01*
X-27728571Y-7717664D02*
X-27690476Y-7641474D01*
X-27690476Y-7641474D02*
X-27690476Y-7489093D01*
X-27690476Y-7489093D02*
X-27728571Y-7412902D01*
X-27728571Y-7412902D02*
X-27766666Y-7374807D01*
X-27766666Y-7374807D02*
X-27842857Y-7336712D01*
X-28528571Y-9800521D02*
X-28528571Y-10333855D01*
X-28719047Y-9495760D02*
X-28909524Y-10067188D01*
X-28909524Y-10067188D02*
X-28414285Y-10067188D01*
X-28185714Y-9533855D02*
X-27652380Y-9533855D01*
X-27652380Y-9533855D02*
X-27995238Y-10333855D01*
X-28909524Y-12150045D02*
X-28871428Y-12111950D01*
X-28871428Y-12111950D02*
X-28795238Y-12073855D01*
X-28795238Y-12073855D02*
X-28604762Y-12073855D01*
X-28604762Y-12073855D02*
X-28528571Y-12111950D01*
X-28528571Y-12111950D02*
X-28490476Y-12150045D01*
X-28490476Y-12150045D02*
X-28452381Y-12226236D01*
X-28452381Y-12226236D02*
X-28452381Y-12302426D01*
X-28452381Y-12302426D02*
X-28490476Y-12416712D01*
X-28490476Y-12416712D02*
X-28947619Y-12873855D01*
X-28947619Y-12873855D02*
X-28452381Y-12873855D01*
X-27690476Y-12873855D02*
X-28147619Y-12873855D01*
X-27919047Y-12873855D02*
X-27919047Y-12073855D01*
X-27919047Y-12073855D02*
X-27995238Y-12188140D01*
X-27995238Y-12188140D02*
X-28071428Y-12264331D01*
X-28071428Y-12264331D02*
X-28147619Y-12302426D01*
X-28909524Y-14690045D02*
X-28871428Y-14651950D01*
X-28871428Y-14651950D02*
X-28795238Y-14613855D01*
X-28795238Y-14613855D02*
X-28604762Y-14613855D01*
X-28604762Y-14613855D02*
X-28528571Y-14651950D01*
X-28528571Y-14651950D02*
X-28490476Y-14690045D01*
X-28490476Y-14690045D02*
X-28452381Y-14766236D01*
X-28452381Y-14766236D02*
X-28452381Y-14842426D01*
X-28452381Y-14842426D02*
X-28490476Y-14956712D01*
X-28490476Y-14956712D02*
X-28947619Y-15413855D01*
X-28947619Y-15413855D02*
X-28452381Y-15413855D01*
X-27957142Y-14613855D02*
X-27880952Y-14613855D01*
X-27880952Y-14613855D02*
X-27804761Y-14651950D01*
X-27804761Y-14651950D02*
X-27766666Y-14690045D01*
X-27766666Y-14690045D02*
X-27728571Y-14766236D01*
X-27728571Y-14766236D02*
X-27690476Y-14918617D01*
X-27690476Y-14918617D02*
X-27690476Y-15109093D01*
X-27690476Y-15109093D02*
X-27728571Y-15261474D01*
X-27728571Y-15261474D02*
X-27766666Y-15337664D01*
X-27766666Y-15337664D02*
X-27804761Y-15375760D01*
X-27804761Y-15375760D02*
X-27880952Y-15413855D01*
X-27880952Y-15413855D02*
X-27957142Y-15413855D01*
X-27957142Y-15413855D02*
X-28033333Y-15375760D01*
X-28033333Y-15375760D02*
X-28071428Y-15337664D01*
X-28071428Y-15337664D02*
X-28109523Y-15261474D01*
X-28109523Y-15261474D02*
X-28147619Y-15109093D01*
X-28147619Y-15109093D02*
X-28147619Y-14918617D01*
X-28147619Y-14918617D02*
X-28109523Y-14766236D01*
X-28109523Y-14766236D02*
X-28071428Y-14690045D01*
X-28071428Y-14690045D02*
X-28033333Y-14651950D01*
X-28033333Y-14651950D02*
X-27957142Y-14613855D01*
X-28452381Y-17953855D02*
X-28909524Y-17953855D01*
X-28680952Y-17953855D02*
X-28680952Y-17153855D01*
X-28680952Y-17153855D02*
X-28757143Y-17268140D01*
X-28757143Y-17268140D02*
X-28833333Y-17344331D01*
X-28833333Y-17344331D02*
X-28909524Y-17382426D01*
X-28071428Y-17953855D02*
X-27919047Y-17953855D01*
X-27919047Y-17953855D02*
X-27842857Y-17915760D01*
X-27842857Y-17915760D02*
X-27804761Y-17877664D01*
X-27804761Y-17877664D02*
X-27728571Y-17763379D01*
X-27728571Y-17763379D02*
X-27690476Y-17610998D01*
X-27690476Y-17610998D02*
X-27690476Y-17306236D01*
X-27690476Y-17306236D02*
X-27728571Y-17230045D01*
X-27728571Y-17230045D02*
X-27766666Y-17191950D01*
X-27766666Y-17191950D02*
X-27842857Y-17153855D01*
X-27842857Y-17153855D02*
X-27995238Y-17153855D01*
X-27995238Y-17153855D02*
X-28071428Y-17191950D01*
X-28071428Y-17191950D02*
X-28109523Y-17230045D01*
X-28109523Y-17230045D02*
X-28147619Y-17306236D01*
X-28147619Y-17306236D02*
X-28147619Y-17496712D01*
X-28147619Y-17496712D02*
X-28109523Y-17572902D01*
X-28109523Y-17572902D02*
X-28071428Y-17610998D01*
X-28071428Y-17610998D02*
X-27995238Y-17649093D01*
X-27995238Y-17649093D02*
X-27842857Y-17649093D01*
X-27842857Y-17649093D02*
X-27766666Y-17610998D01*
X-27766666Y-17610998D02*
X-27728571Y-17572902D01*
X-27728571Y-17572902D02*
X-27690476Y-17496712D01*
X-23352381Y47896144D02*
X-23809524Y47896144D01*
X-23580952Y47896144D02*
X-23580952Y48696144D01*
X-23580952Y48696144D02*
X-23657143Y48581859D01*
X-23657143Y48581859D02*
X-23733333Y48505668D01*
X-23733333Y48505668D02*
X-23809524Y48467573D01*
X-22628571Y48696144D02*
X-23009523Y48696144D01*
X-23009523Y48696144D02*
X-23047619Y48315192D01*
X-23047619Y48315192D02*
X-23009523Y48353287D01*
X-23009523Y48353287D02*
X-22933333Y48391382D01*
X-22933333Y48391382D02*
X-22742857Y48391382D01*
X-22742857Y48391382D02*
X-22666666Y48353287D01*
X-22666666Y48353287D02*
X-22628571Y48315192D01*
X-22628571Y48315192D02*
X-22590476Y48239001D01*
X-22590476Y48239001D02*
X-22590476Y48048525D01*
X-22590476Y48048525D02*
X-22628571Y47972335D01*
X-22628571Y47972335D02*
X-22666666Y47934240D01*
X-22666666Y47934240D02*
X-22742857Y47896144D01*
X-22742857Y47896144D02*
X-22933333Y47896144D01*
X-22933333Y47896144D02*
X-23009523Y47934240D01*
X-23009523Y47934240D02*
X-23047619Y47972335D01*
X-23352381Y45356144D02*
X-23809524Y45356144D01*
X-23580952Y45356144D02*
X-23580952Y46156144D01*
X-23580952Y46156144D02*
X-23657143Y46041859D01*
X-23657143Y46041859D02*
X-23733333Y45965668D01*
X-23733333Y45965668D02*
X-23809524Y45927573D01*
X-22666666Y46156144D02*
X-22819047Y46156144D01*
X-22819047Y46156144D02*
X-22895238Y46118049D01*
X-22895238Y46118049D02*
X-22933333Y46079954D01*
X-22933333Y46079954D02*
X-23009523Y45965668D01*
X-23009523Y45965668D02*
X-23047619Y45813287D01*
X-23047619Y45813287D02*
X-23047619Y45508525D01*
X-23047619Y45508525D02*
X-23009523Y45432335D01*
X-23009523Y45432335D02*
X-22971428Y45394240D01*
X-22971428Y45394240D02*
X-22895238Y45356144D01*
X-22895238Y45356144D02*
X-22742857Y45356144D01*
X-22742857Y45356144D02*
X-22666666Y45394240D01*
X-22666666Y45394240D02*
X-22628571Y45432335D01*
X-22628571Y45432335D02*
X-22590476Y45508525D01*
X-22590476Y45508525D02*
X-22590476Y45699001D01*
X-22590476Y45699001D02*
X-22628571Y45775192D01*
X-22628571Y45775192D02*
X-22666666Y45813287D01*
X-22666666Y45813287D02*
X-22742857Y45851382D01*
X-22742857Y45851382D02*
X-22895238Y45851382D01*
X-22895238Y45851382D02*
X-22971428Y45813287D01*
X-22971428Y45813287D02*
X-23009523Y45775192D01*
X-23009523Y45775192D02*
X-23047619Y45699001D01*
X-23352381Y42816144D02*
X-23809524Y42816144D01*
X-23580952Y42816144D02*
X-23580952Y43616144D01*
X-23580952Y43616144D02*
X-23657143Y43501859D01*
X-23657143Y43501859D02*
X-23733333Y43425668D01*
X-23733333Y43425668D02*
X-23809524Y43387573D01*
X-22895238Y43273287D02*
X-22971428Y43311382D01*
X-22971428Y43311382D02*
X-23009523Y43349478D01*
X-23009523Y43349478D02*
X-23047619Y43425668D01*
X-23047619Y43425668D02*
X-23047619Y43463763D01*
X-23047619Y43463763D02*
X-23009523Y43539954D01*
X-23009523Y43539954D02*
X-22971428Y43578049D01*
X-22971428Y43578049D02*
X-22895238Y43616144D01*
X-22895238Y43616144D02*
X-22742857Y43616144D01*
X-22742857Y43616144D02*
X-22666666Y43578049D01*
X-22666666Y43578049D02*
X-22628571Y43539954D01*
X-22628571Y43539954D02*
X-22590476Y43463763D01*
X-22590476Y43463763D02*
X-22590476Y43425668D01*
X-22590476Y43425668D02*
X-22628571Y43349478D01*
X-22628571Y43349478D02*
X-22666666Y43311382D01*
X-22666666Y43311382D02*
X-22742857Y43273287D01*
X-22742857Y43273287D02*
X-22895238Y43273287D01*
X-22895238Y43273287D02*
X-22971428Y43235192D01*
X-22971428Y43235192D02*
X-23009523Y43197097D01*
X-23009523Y43197097D02*
X-23047619Y43120906D01*
X-23047619Y43120906D02*
X-23047619Y42968525D01*
X-23047619Y42968525D02*
X-23009523Y42892335D01*
X-23009523Y42892335D02*
X-22971428Y42854240D01*
X-22971428Y42854240D02*
X-22895238Y42816144D01*
X-22895238Y42816144D02*
X-22742857Y42816144D01*
X-22742857Y42816144D02*
X-22666666Y42854240D01*
X-22666666Y42854240D02*
X-22628571Y42892335D01*
X-22628571Y42892335D02*
X-22590476Y42968525D01*
X-22590476Y42968525D02*
X-22590476Y43120906D01*
X-22590476Y43120906D02*
X-22628571Y43197097D01*
X-22628571Y43197097D02*
X-22666666Y43235192D01*
X-22666666Y43235192D02*
X-22742857Y43273287D01*
X-23276190Y40733287D02*
X-23352380Y40771382D01*
X-23352380Y40771382D02*
X-23390475Y40809478D01*
X-23390475Y40809478D02*
X-23428571Y40885668D01*
X-23428571Y40885668D02*
X-23428571Y40923763D01*
X-23428571Y40923763D02*
X-23390475Y40999954D01*
X-23390475Y40999954D02*
X-23352380Y41038049D01*
X-23352380Y41038049D02*
X-23276190Y41076144D01*
X-23276190Y41076144D02*
X-23123809Y41076144D01*
X-23123809Y41076144D02*
X-23047618Y41038049D01*
X-23047618Y41038049D02*
X-23009523Y40999954D01*
X-23009523Y40999954D02*
X-22971428Y40923763D01*
X-22971428Y40923763D02*
X-22971428Y40885668D01*
X-22971428Y40885668D02*
X-23009523Y40809478D01*
X-23009523Y40809478D02*
X-23047618Y40771382D01*
X-23047618Y40771382D02*
X-23123809Y40733287D01*
X-23123809Y40733287D02*
X-23276190Y40733287D01*
X-23276190Y40733287D02*
X-23352380Y40695192D01*
X-23352380Y40695192D02*
X-23390475Y40657097D01*
X-23390475Y40657097D02*
X-23428571Y40580906D01*
X-23428571Y40580906D02*
X-23428571Y40428525D01*
X-23428571Y40428525D02*
X-23390475Y40352335D01*
X-23390475Y40352335D02*
X-23352380Y40314240D01*
X-23352380Y40314240D02*
X-23276190Y40276144D01*
X-23276190Y40276144D02*
X-23123809Y40276144D01*
X-23123809Y40276144D02*
X-23047618Y40314240D01*
X-23047618Y40314240D02*
X-23009523Y40352335D01*
X-23009523Y40352335D02*
X-22971428Y40428525D01*
X-22971428Y40428525D02*
X-22971428Y40580906D01*
X-22971428Y40580906D02*
X-23009523Y40657097D01*
X-23009523Y40657097D02*
X-23047618Y40695192D01*
X-23047618Y40695192D02*
X-23123809Y40733287D01*
X-9499523Y65598049D02*
X-9575713Y65636144D01*
X-9575713Y65636144D02*
X-9689999Y65636144D01*
X-9689999Y65636144D02*
X-9804285Y65598049D01*
X-9804285Y65598049D02*
X-9880475Y65521859D01*
X-9880475Y65521859D02*
X-9918570Y65445668D01*
X-9918570Y65445668D02*
X-9956666Y65293287D01*
X-9956666Y65293287D02*
X-9956666Y65179001D01*
X-9956666Y65179001D02*
X-9918570Y65026620D01*
X-9918570Y65026620D02*
X-9880475Y64950430D01*
X-9880475Y64950430D02*
X-9804285Y64874240D01*
X-9804285Y64874240D02*
X-9689999Y64836144D01*
X-9689999Y64836144D02*
X-9613808Y64836144D01*
X-9613808Y64836144D02*
X-9499523Y64874240D01*
X-9499523Y64874240D02*
X-9461427Y64912335D01*
X-9461427Y64912335D02*
X-9461427Y65179001D01*
X-9461427Y65179001D02*
X-9613808Y65179001D01*
X-9118570Y64836144D02*
X-9118570Y65636144D01*
X-9118570Y65636144D02*
X-8661427Y64836144D01*
X-8661427Y64836144D02*
X-8661427Y65636144D01*
X-8280475Y64836144D02*
X-8280475Y65636144D01*
X-8280475Y65636144D02*
X-8089999Y65636144D01*
X-8089999Y65636144D02*
X-7975713Y65598049D01*
X-7975713Y65598049D02*
X-7899523Y65521859D01*
X-7899523Y65521859D02*
X-7861428Y65445668D01*
X-7861428Y65445668D02*
X-7823332Y65293287D01*
X-7823332Y65293287D02*
X-7823332Y65179001D01*
X-7823332Y65179001D02*
X-7861428Y65026620D01*
X-7861428Y65026620D02*
X-7899523Y64950430D01*
X-7899523Y64950430D02*
X-7975713Y64874240D01*
X-7975713Y64874240D02*
X-8089999Y64836144D01*
X-8089999Y64836144D02*
X-8280475Y64836144D01*
X-9042380Y-38893855D02*
X-8889999Y-38893855D01*
X-8889999Y-38893855D02*
X-8813809Y-38855760D01*
X-8813809Y-38855760D02*
X-8775713Y-38817664D01*
X-8775713Y-38817664D02*
X-8699523Y-38703379D01*
X-8699523Y-38703379D02*
X-8661428Y-38550998D01*
X-8661428Y-38550998D02*
X-8661428Y-38246236D01*
X-8661428Y-38246236D02*
X-8699523Y-38170045D01*
X-8699523Y-38170045D02*
X-8737618Y-38131950D01*
X-8737618Y-38131950D02*
X-8813809Y-38093855D01*
X-8813809Y-38093855D02*
X-8966190Y-38093855D01*
X-8966190Y-38093855D02*
X-9042380Y-38131950D01*
X-9042380Y-38131950D02*
X-9080475Y-38170045D01*
X-9080475Y-38170045D02*
X-9118571Y-38246236D01*
X-9118571Y-38246236D02*
X-9118571Y-38436712D01*
X-9118571Y-38436712D02*
X-9080475Y-38512902D01*
X-9080475Y-38512902D02*
X-9042380Y-38550998D01*
X-9042380Y-38550998D02*
X-8966190Y-38589093D01*
X-8966190Y-38589093D02*
X-8813809Y-38589093D01*
X-8813809Y-38589093D02*
X-8737618Y-38550998D01*
X-8737618Y-38550998D02*
X-8699523Y-38512902D01*
X-8699523Y-38512902D02*
X-8661428Y-38436712D01*
X-8229523Y-46823855D02*
X-7734285Y-46823855D01*
X-7734285Y-46823855D02*
X-8000951Y-47128617D01*
X-8000951Y-47128617D02*
X-7886666Y-47128617D01*
X-7886666Y-47128617D02*
X-7810475Y-47166712D01*
X-7810475Y-47166712D02*
X-7772380Y-47204807D01*
X-7772380Y-47204807D02*
X-7734285Y-47280998D01*
X-7734285Y-47280998D02*
X-7734285Y-47471474D01*
X-7734285Y-47471474D02*
X-7772380Y-47547664D01*
X-7772380Y-47547664D02*
X-7810475Y-47585760D01*
X-7810475Y-47585760D02*
X-7886666Y-47623855D01*
X-7886666Y-47623855D02*
X-8115237Y-47623855D01*
X-8115237Y-47623855D02*
X-8191428Y-47585760D01*
X-8191428Y-47585760D02*
X-8229523Y-47547664D01*
X-7505713Y-46823855D02*
X-7239046Y-47623855D01*
X-7239046Y-47623855D02*
X-6972380Y-46823855D01*
X-7416666Y65636144D02*
X-7149999Y64836144D01*
X-7149999Y64836144D02*
X-6883333Y65636144D01*
X-6159523Y64912335D02*
X-6197619Y64874240D01*
X-6197619Y64874240D02*
X-6311904Y64836144D01*
X-6311904Y64836144D02*
X-6388095Y64836144D01*
X-6388095Y64836144D02*
X-6502381Y64874240D01*
X-6502381Y64874240D02*
X-6578571Y64950430D01*
X-6578571Y64950430D02*
X-6616666Y65026620D01*
X-6616666Y65026620D02*
X-6654762Y65179001D01*
X-6654762Y65179001D02*
X-6654762Y65293287D01*
X-6654762Y65293287D02*
X-6616666Y65445668D01*
X-6616666Y65445668D02*
X-6578571Y65521859D01*
X-6578571Y65521859D02*
X-6502381Y65598049D01*
X-6502381Y65598049D02*
X-6388095Y65636144D01*
X-6388095Y65636144D02*
X-6311904Y65636144D01*
X-6311904Y65636144D02*
X-6197619Y65598049D01*
X-6197619Y65598049D02*
X-6159523Y65559954D01*
X-5359523Y64912335D02*
X-5397619Y64874240D01*
X-5397619Y64874240D02*
X-5511904Y64836144D01*
X-5511904Y64836144D02*
X-5588095Y64836144D01*
X-5588095Y64836144D02*
X-5702381Y64874240D01*
X-5702381Y64874240D02*
X-5778571Y64950430D01*
X-5778571Y64950430D02*
X-5816666Y65026620D01*
X-5816666Y65026620D02*
X-5854762Y65179001D01*
X-5854762Y65179001D02*
X-5854762Y65293287D01*
X-5854762Y65293287D02*
X-5816666Y65445668D01*
X-5816666Y65445668D02*
X-5778571Y65521859D01*
X-5778571Y65521859D02*
X-5702381Y65598049D01*
X-5702381Y65598049D02*
X-5588095Y65636144D01*
X-5588095Y65636144D02*
X-5511904Y65636144D01*
X-5511904Y65636144D02*
X-5397619Y65598049D01*
X-5397619Y65598049D02*
X-5359523Y65559954D01*
X-6578571Y-38360521D02*
X-6578571Y-38893855D01*
X-6769047Y-38055760D02*
X-6959524Y-38627188D01*
X-6959524Y-38627188D02*
X-6464285Y-38627188D01*
X-6045238Y-38436712D02*
X-6121428Y-38398617D01*
X-6121428Y-38398617D02*
X-6159523Y-38360521D01*
X-6159523Y-38360521D02*
X-6197619Y-38284331D01*
X-6197619Y-38284331D02*
X-6197619Y-38246236D01*
X-6197619Y-38246236D02*
X-6159523Y-38170045D01*
X-6159523Y-38170045D02*
X-6121428Y-38131950D01*
X-6121428Y-38131950D02*
X-6045238Y-38093855D01*
X-6045238Y-38093855D02*
X-5892857Y-38093855D01*
X-5892857Y-38093855D02*
X-5816666Y-38131950D01*
X-5816666Y-38131950D02*
X-5778571Y-38170045D01*
X-5778571Y-38170045D02*
X-5740476Y-38246236D01*
X-5740476Y-38246236D02*
X-5740476Y-38284331D01*
X-5740476Y-38284331D02*
X-5778571Y-38360521D01*
X-5778571Y-38360521D02*
X-5816666Y-38398617D01*
X-5816666Y-38398617D02*
X-5892857Y-38436712D01*
X-5892857Y-38436712D02*
X-6045238Y-38436712D01*
X-6045238Y-38436712D02*
X-6121428Y-38474807D01*
X-6121428Y-38474807D02*
X-6159523Y-38512902D01*
X-6159523Y-38512902D02*
X-6197619Y-38589093D01*
X-6197619Y-38589093D02*
X-6197619Y-38741474D01*
X-6197619Y-38741474D02*
X-6159523Y-38817664D01*
X-6159523Y-38817664D02*
X-6121428Y-38855760D01*
X-6121428Y-38855760D02*
X-6045238Y-38893855D01*
X-6045238Y-38893855D02*
X-5892857Y-38893855D01*
X-5892857Y-38893855D02*
X-5816666Y-38855760D01*
X-5816666Y-38855760D02*
X-5778571Y-38817664D01*
X-5778571Y-38817664D02*
X-5740476Y-38741474D01*
X-5740476Y-38741474D02*
X-5740476Y-38589093D01*
X-5740476Y-38589093D02*
X-5778571Y-38512902D01*
X-5778571Y-38512902D02*
X-5816666Y-38474807D01*
X-5816666Y-38474807D02*
X-5892857Y-38436712D01*
X-6771428Y-57823855D02*
X-7152380Y-57823855D01*
X-7152380Y-57823855D02*
X-7152380Y-57023855D01*
X-5933333Y-56985760D02*
X-6619047Y-58014331D01*
X-5209523Y-57823855D02*
X-5476190Y-57442902D01*
X-5666666Y-57823855D02*
X-5666666Y-57023855D01*
X-5666666Y-57023855D02*
X-5361904Y-57023855D01*
X-5361904Y-57023855D02*
X-5285714Y-57061950D01*
X-5285714Y-57061950D02*
X-5247619Y-57100045D01*
X-5247619Y-57100045D02*
X-5209523Y-57176236D01*
X-5209523Y-57176236D02*
X-5209523Y-57290521D01*
X-5209523Y-57290521D02*
X-5247619Y-57366712D01*
X-5247619Y-57366712D02*
X-5285714Y-57404807D01*
X-5285714Y-57404807D02*
X-5361904Y-57442902D01*
X-5361904Y-57442902D02*
X-5666666Y-57442902D01*
X-6923809Y-59563855D02*
X-6733333Y-60363855D01*
X-6733333Y-60363855D02*
X-6580952Y-59792426D01*
X-6580952Y-59792426D02*
X-6428571Y-60363855D01*
X-6428571Y-60363855D02*
X-6238095Y-59563855D01*
X-5971428Y-60325760D02*
X-5857142Y-60363855D01*
X-5857142Y-60363855D02*
X-5666666Y-60363855D01*
X-5666666Y-60363855D02*
X-5590475Y-60325760D01*
X-5590475Y-60325760D02*
X-5552380Y-60287664D01*
X-5552380Y-60287664D02*
X-5514285Y-60211474D01*
X-5514285Y-60211474D02*
X-5514285Y-60135283D01*
X-5514285Y-60135283D02*
X-5552380Y-60059093D01*
X-5552380Y-60059093D02*
X-5590475Y-60020998D01*
X-5590475Y-60020998D02*
X-5666666Y-59982902D01*
X-5666666Y-59982902D02*
X-5819047Y-59944807D01*
X-5819047Y-59944807D02*
X-5895237Y-59906712D01*
X-5895237Y-59906712D02*
X-5933332Y-59868617D01*
X-5933332Y-59868617D02*
X-5971428Y-59792426D01*
X-5971428Y-59792426D02*
X-5971428Y-59716236D01*
X-5971428Y-59716236D02*
X-5933332Y-59640045D01*
X-5933332Y-59640045D02*
X-5895237Y-59601950D01*
X-5895237Y-59601950D02*
X-5819047Y-59563855D01*
X-5819047Y-59563855D02*
X-5628570Y-59563855D01*
X-5628570Y-59563855D02*
X-5514285Y-59601950D01*
X-7228571Y-62865760D02*
X-7114285Y-62903855D01*
X-7114285Y-62903855D02*
X-6923809Y-62903855D01*
X-6923809Y-62903855D02*
X-6847618Y-62865760D01*
X-6847618Y-62865760D02*
X-6809523Y-62827664D01*
X-6809523Y-62827664D02*
X-6771428Y-62751474D01*
X-6771428Y-62751474D02*
X-6771428Y-62675283D01*
X-6771428Y-62675283D02*
X-6809523Y-62599093D01*
X-6809523Y-62599093D02*
X-6847618Y-62560998D01*
X-6847618Y-62560998D02*
X-6923809Y-62522902D01*
X-6923809Y-62522902D02*
X-7076190Y-62484807D01*
X-7076190Y-62484807D02*
X-7152380Y-62446712D01*
X-7152380Y-62446712D02*
X-7190475Y-62408617D01*
X-7190475Y-62408617D02*
X-7228571Y-62332426D01*
X-7228571Y-62332426D02*
X-7228571Y-62256236D01*
X-7228571Y-62256236D02*
X-7190475Y-62180045D01*
X-7190475Y-62180045D02*
X-7152380Y-62141950D01*
X-7152380Y-62141950D02*
X-7076190Y-62103855D01*
X-7076190Y-62103855D02*
X-6885713Y-62103855D01*
X-6885713Y-62103855D02*
X-6771428Y-62141950D01*
X-5971427Y-62827664D02*
X-6009523Y-62865760D01*
X-6009523Y-62865760D02*
X-6123808Y-62903855D01*
X-6123808Y-62903855D02*
X-6199999Y-62903855D01*
X-6199999Y-62903855D02*
X-6314285Y-62865760D01*
X-6314285Y-62865760D02*
X-6390475Y-62789569D01*
X-6390475Y-62789569D02*
X-6428570Y-62713379D01*
X-6428570Y-62713379D02*
X-6466666Y-62560998D01*
X-6466666Y-62560998D02*
X-6466666Y-62446712D01*
X-6466666Y-62446712D02*
X-6428570Y-62294331D01*
X-6428570Y-62294331D02*
X-6390475Y-62218140D01*
X-6390475Y-62218140D02*
X-6314285Y-62141950D01*
X-6314285Y-62141950D02*
X-6199999Y-62103855D01*
X-6199999Y-62103855D02*
X-6123808Y-62103855D01*
X-6123808Y-62103855D02*
X-6009523Y-62141950D01*
X-6009523Y-62141950D02*
X-5971427Y-62180045D01*
X-5628570Y-62903855D02*
X-5628570Y-62103855D01*
X-5171427Y-62903855D02*
X-5514285Y-62446712D01*
X-5171427Y-62103855D02*
X-5628570Y-62560998D01*
X-5689523Y-46823855D02*
X-5194285Y-46823855D01*
X-5194285Y-46823855D02*
X-5460951Y-47128617D01*
X-5460951Y-47128617D02*
X-5346666Y-47128617D01*
X-5346666Y-47128617D02*
X-5270475Y-47166712D01*
X-5270475Y-47166712D02*
X-5232380Y-47204807D01*
X-5232380Y-47204807D02*
X-5194285Y-47280998D01*
X-5194285Y-47280998D02*
X-5194285Y-47471474D01*
X-5194285Y-47471474D02*
X-5232380Y-47547664D01*
X-5232380Y-47547664D02*
X-5270475Y-47585760D01*
X-5270475Y-47585760D02*
X-5346666Y-47623855D01*
X-5346666Y-47623855D02*
X-5575237Y-47623855D01*
X-5575237Y-47623855D02*
X-5651428Y-47585760D01*
X-5651428Y-47585760D02*
X-5689523Y-47547664D01*
X-4965713Y-46823855D02*
X-4699046Y-47623855D01*
X-4699046Y-47623855D02*
X-4432380Y-46823855D01*
X-4762381Y64874240D02*
X-4648095Y64836144D01*
X-4648095Y64836144D02*
X-4457619Y64836144D01*
X-4457619Y64836144D02*
X-4381428Y64874240D01*
X-4381428Y64874240D02*
X-4343333Y64912335D01*
X-4343333Y64912335D02*
X-4305238Y64988525D01*
X-4305238Y64988525D02*
X-4305238Y65064716D01*
X-4305238Y65064716D02*
X-4343333Y65140906D01*
X-4343333Y65140906D02*
X-4381428Y65179001D01*
X-4381428Y65179001D02*
X-4457619Y65217097D01*
X-4457619Y65217097D02*
X-4610000Y65255192D01*
X-4610000Y65255192D02*
X-4686190Y65293287D01*
X-4686190Y65293287D02*
X-4724285Y65331382D01*
X-4724285Y65331382D02*
X-4762381Y65407573D01*
X-4762381Y65407573D02*
X-4762381Y65483763D01*
X-4762381Y65483763D02*
X-4724285Y65559954D01*
X-4724285Y65559954D02*
X-4686190Y65598049D01*
X-4686190Y65598049D02*
X-4610000Y65636144D01*
X-4610000Y65636144D02*
X-4419523Y65636144D01*
X-4419523Y65636144D02*
X-4305238Y65598049D01*
X-3505237Y64912335D02*
X-3543333Y64874240D01*
X-3543333Y64874240D02*
X-3657618Y64836144D01*
X-3657618Y64836144D02*
X-3733809Y64836144D01*
X-3733809Y64836144D02*
X-3848095Y64874240D01*
X-3848095Y64874240D02*
X-3924285Y64950430D01*
X-3924285Y64950430D02*
X-3962380Y65026620D01*
X-3962380Y65026620D02*
X-4000476Y65179001D01*
X-4000476Y65179001D02*
X-4000476Y65293287D01*
X-4000476Y65293287D02*
X-3962380Y65445668D01*
X-3962380Y65445668D02*
X-3924285Y65521859D01*
X-3924285Y65521859D02*
X-3848095Y65598049D01*
X-3848095Y65598049D02*
X-3733809Y65636144D01*
X-3733809Y65636144D02*
X-3657618Y65636144D01*
X-3657618Y65636144D02*
X-3543333Y65598049D01*
X-3543333Y65598049D02*
X-3505237Y65559954D01*
X-2781428Y64836144D02*
X-3162380Y64836144D01*
X-3162380Y64836144D02*
X-3162380Y65636144D01*
X-3962381Y-38893855D02*
X-4419524Y-38893855D01*
X-4190952Y-38893855D02*
X-4190952Y-38093855D01*
X-4190952Y-38093855D02*
X-4267143Y-38208140D01*
X-4267143Y-38208140D02*
X-4343333Y-38284331D01*
X-4343333Y-38284331D02*
X-4419524Y-38322426D01*
X-3467142Y-38093855D02*
X-3390952Y-38093855D01*
X-3390952Y-38093855D02*
X-3314761Y-38131950D01*
X-3314761Y-38131950D02*
X-3276666Y-38170045D01*
X-3276666Y-38170045D02*
X-3238571Y-38246236D01*
X-3238571Y-38246236D02*
X-3200476Y-38398617D01*
X-3200476Y-38398617D02*
X-3200476Y-38589093D01*
X-3200476Y-38589093D02*
X-3238571Y-38741474D01*
X-3238571Y-38741474D02*
X-3276666Y-38817664D01*
X-3276666Y-38817664D02*
X-3314761Y-38855760D01*
X-3314761Y-38855760D02*
X-3390952Y-38893855D01*
X-3390952Y-38893855D02*
X-3467142Y-38893855D01*
X-3467142Y-38893855D02*
X-3543333Y-38855760D01*
X-3543333Y-38855760D02*
X-3581428Y-38817664D01*
X-3581428Y-38817664D02*
X-3619523Y-38741474D01*
X-3619523Y-38741474D02*
X-3657619Y-38589093D01*
X-3657619Y-38589093D02*
X-3657619Y-38398617D01*
X-3657619Y-38398617D02*
X-3619523Y-38246236D01*
X-3619523Y-38246236D02*
X-3581428Y-38170045D01*
X-3581428Y-38170045D02*
X-3543333Y-38131950D01*
X-3543333Y-38131950D02*
X-3467142Y-38093855D01*
X-2330476Y-46861950D02*
X-2406666Y-46823855D01*
X-2406666Y-46823855D02*
X-2520952Y-46823855D01*
X-2520952Y-46823855D02*
X-2635238Y-46861950D01*
X-2635238Y-46861950D02*
X-2711428Y-46938140D01*
X-2711428Y-46938140D02*
X-2749523Y-47014331D01*
X-2749523Y-47014331D02*
X-2787619Y-47166712D01*
X-2787619Y-47166712D02*
X-2787619Y-47280998D01*
X-2787619Y-47280998D02*
X-2749523Y-47433379D01*
X-2749523Y-47433379D02*
X-2711428Y-47509569D01*
X-2711428Y-47509569D02*
X-2635238Y-47585760D01*
X-2635238Y-47585760D02*
X-2520952Y-47623855D01*
X-2520952Y-47623855D02*
X-2444761Y-47623855D01*
X-2444761Y-47623855D02*
X-2330476Y-47585760D01*
X-2330476Y-47585760D02*
X-2292380Y-47547664D01*
X-2292380Y-47547664D02*
X-2292380Y-47280998D01*
X-2292380Y-47280998D02*
X-2444761Y-47280998D01*
X-2241428Y64874240D02*
X-2127142Y64836144D01*
X-2127142Y64836144D02*
X-1936666Y64836144D01*
X-1936666Y64836144D02*
X-1860475Y64874240D01*
X-1860475Y64874240D02*
X-1822380Y64912335D01*
X-1822380Y64912335D02*
X-1784285Y64988525D01*
X-1784285Y64988525D02*
X-1784285Y65064716D01*
X-1784285Y65064716D02*
X-1822380Y65140906D01*
X-1822380Y65140906D02*
X-1860475Y65179001D01*
X-1860475Y65179001D02*
X-1936666Y65217097D01*
X-1936666Y65217097D02*
X-2089047Y65255192D01*
X-2089047Y65255192D02*
X-2165237Y65293287D01*
X-2165237Y65293287D02*
X-2203332Y65331382D01*
X-2203332Y65331382D02*
X-2241428Y65407573D01*
X-2241428Y65407573D02*
X-2241428Y65483763D01*
X-2241428Y65483763D02*
X-2203332Y65559954D01*
X-2203332Y65559954D02*
X-2165237Y65598049D01*
X-2165237Y65598049D02*
X-2089047Y65636144D01*
X-2089047Y65636144D02*
X-1898570Y65636144D01*
X-1898570Y65636144D02*
X-1784285Y65598049D01*
X-1441427Y64836144D02*
X-1441427Y65636144D01*
X-1441427Y65636144D02*
X-1250951Y65636144D01*
X-1250951Y65636144D02*
X-1136665Y65598049D01*
X-1136665Y65598049D02*
X-1060475Y65521859D01*
X-1060475Y65521859D02*
X-1022380Y65445668D01*
X-1022380Y65445668D02*
X-984284Y65293287D01*
X-984284Y65293287D02*
X-984284Y65179001D01*
X-984284Y65179001D02*
X-1022380Y65026620D01*
X-1022380Y65026620D02*
X-1060475Y64950430D01*
X-1060475Y64950430D02*
X-1136665Y64874240D01*
X-1136665Y64874240D02*
X-1250951Y64836144D01*
X-1250951Y64836144D02*
X-1441427Y64836144D01*
X-679523Y65064716D02*
X-298570Y65064716D01*
X-755713Y64836144D02*
X-489046Y65636144D01*
X-489046Y65636144D02*
X-222380Y64836144D01*
X-1422381Y-38893855D02*
X-1879524Y-38893855D01*
X-1650952Y-38893855D02*
X-1650952Y-38093855D01*
X-1650952Y-38093855D02*
X-1727143Y-38208140D01*
X-1727143Y-38208140D02*
X-1803333Y-38284331D01*
X-1803333Y-38284331D02*
X-1879524Y-38322426D01*
X-660476Y-38893855D02*
X-1117619Y-38893855D01*
X-889047Y-38893855D02*
X-889047Y-38093855D01*
X-889047Y-38093855D02*
X-965238Y-38208140D01*
X-965238Y-38208140D02*
X-1041428Y-38284331D01*
X-1041428Y-38284331D02*
X-1117619Y-38322426D01*
X209523Y-46861950D02*
X133333Y-46823855D01*
X133333Y-46823855D02*
X19047Y-46823855D01*
X19047Y-46823855D02*
X-95238Y-46861950D01*
X-95238Y-46861950D02*
X-171428Y-46938140D01*
X-171428Y-46938140D02*
X-209523Y-47014331D01*
X-209523Y-47014331D02*
X-247619Y-47166712D01*
X-247619Y-47166712D02*
X-247619Y-47280998D01*
X-247619Y-47280998D02*
X-209523Y-47433379D01*
X-209523Y-47433379D02*
X-171428Y-47509569D01*
X-171428Y-47509569D02*
X-95238Y-47585760D01*
X-95238Y-47585760D02*
X19047Y-47623855D01*
X19047Y-47623855D02*
X95238Y-47623855D01*
X95238Y-47623855D02*
X209523Y-47585760D01*
X209523Y-47585760D02*
X247619Y-47547664D01*
X247619Y-47547664D02*
X247619Y-47280998D01*
X247619Y-47280998D02*
X95238Y-47280998D01*
X774762Y64836144D02*
X508095Y65217097D01*
X317619Y64836144D02*
X317619Y65636144D01*
X317619Y65636144D02*
X622381Y65636144D01*
X622381Y65636144D02*
X698571Y65598049D01*
X698571Y65598049D02*
X736666Y65559954D01*
X736666Y65559954D02*
X774762Y65483763D01*
X774762Y65483763D02*
X774762Y65369478D01*
X774762Y65369478D02*
X736666Y65293287D01*
X736666Y65293287D02*
X698571Y65255192D01*
X698571Y65255192D02*
X622381Y65217097D01*
X622381Y65217097D02*
X317619Y65217097D01*
X1117619Y65255192D02*
X1384285Y65255192D01*
X1498571Y64836144D02*
X1117619Y64836144D01*
X1117619Y64836144D02*
X1117619Y65636144D01*
X1117619Y65636144D02*
X1498571Y65636144D01*
X1803333Y64874240D02*
X1917619Y64836144D01*
X1917619Y64836144D02*
X2108095Y64836144D01*
X2108095Y64836144D02*
X2184286Y64874240D01*
X2184286Y64874240D02*
X2222381Y64912335D01*
X2222381Y64912335D02*
X2260476Y64988525D01*
X2260476Y64988525D02*
X2260476Y65064716D01*
X2260476Y65064716D02*
X2222381Y65140906D01*
X2222381Y65140906D02*
X2184286Y65179001D01*
X2184286Y65179001D02*
X2108095Y65217097D01*
X2108095Y65217097D02*
X1955714Y65255192D01*
X1955714Y65255192D02*
X1879524Y65293287D01*
X1879524Y65293287D02*
X1841429Y65331382D01*
X1841429Y65331382D02*
X1803333Y65407573D01*
X1803333Y65407573D02*
X1803333Y65483763D01*
X1803333Y65483763D02*
X1841429Y65559954D01*
X1841429Y65559954D02*
X1879524Y65598049D01*
X1879524Y65598049D02*
X1955714Y65636144D01*
X1955714Y65636144D02*
X2146191Y65636144D01*
X2146191Y65636144D02*
X2260476Y65598049D01*
X1117618Y-38893855D02*
X660475Y-38893855D01*
X889047Y-38893855D02*
X889047Y-38093855D01*
X889047Y-38093855D02*
X812856Y-38208140D01*
X812856Y-38208140D02*
X736666Y-38284331D01*
X736666Y-38284331D02*
X660475Y-38322426D01*
X1422380Y-38170045D02*
X1460476Y-38131950D01*
X1460476Y-38131950D02*
X1536666Y-38093855D01*
X1536666Y-38093855D02*
X1727142Y-38093855D01*
X1727142Y-38093855D02*
X1803333Y-38131950D01*
X1803333Y-38131950D02*
X1841428Y-38170045D01*
X1841428Y-38170045D02*
X1879523Y-38246236D01*
X1879523Y-38246236D02*
X1879523Y-38322426D01*
X1879523Y-38322426D02*
X1841428Y-38436712D01*
X1841428Y-38436712D02*
X1384285Y-38893855D01*
X1384285Y-38893855D02*
X1879523Y-38893855D01*
X2749523Y-46861950D02*
X2673333Y-46823855D01*
X2673333Y-46823855D02*
X2559047Y-46823855D01*
X2559047Y-46823855D02*
X2444761Y-46861950D01*
X2444761Y-46861950D02*
X2368571Y-46938140D01*
X2368571Y-46938140D02*
X2330476Y-47014331D01*
X2330476Y-47014331D02*
X2292380Y-47166712D01*
X2292380Y-47166712D02*
X2292380Y-47280998D01*
X2292380Y-47280998D02*
X2330476Y-47433379D01*
X2330476Y-47433379D02*
X2368571Y-47509569D01*
X2368571Y-47509569D02*
X2444761Y-47585760D01*
X2444761Y-47585760D02*
X2559047Y-47623855D01*
X2559047Y-47623855D02*
X2635238Y-47623855D01*
X2635238Y-47623855D02*
X2749523Y-47585760D01*
X2749523Y-47585760D02*
X2787619Y-47547664D01*
X2787619Y-47547664D02*
X2787619Y-47280998D01*
X2787619Y-47280998D02*
X2635238Y-47280998D01*
X3200476Y64836144D02*
X3200476Y65636144D01*
X3200476Y65636144D02*
X3390952Y65636144D01*
X3390952Y65636144D02*
X3505238Y65598049D01*
X3505238Y65598049D02*
X3581428Y65521859D01*
X3581428Y65521859D02*
X3619523Y65445668D01*
X3619523Y65445668D02*
X3657619Y65293287D01*
X3657619Y65293287D02*
X3657619Y65179001D01*
X3657619Y65179001D02*
X3619523Y65026620D01*
X3619523Y65026620D02*
X3581428Y64950430D01*
X3581428Y64950430D02*
X3505238Y64874240D01*
X3505238Y64874240D02*
X3390952Y64836144D01*
X3390952Y64836144D02*
X3200476Y64836144D01*
X4457619Y64912335D02*
X4419523Y64874240D01*
X4419523Y64874240D02*
X4305238Y64836144D01*
X4305238Y64836144D02*
X4229047Y64836144D01*
X4229047Y64836144D02*
X4114761Y64874240D01*
X4114761Y64874240D02*
X4038571Y64950430D01*
X4038571Y64950430D02*
X4000476Y65026620D01*
X4000476Y65026620D02*
X3962380Y65179001D01*
X3962380Y65179001D02*
X3962380Y65293287D01*
X3962380Y65293287D02*
X4000476Y65445668D01*
X4000476Y65445668D02*
X4038571Y65521859D01*
X4038571Y65521859D02*
X4114761Y65598049D01*
X4114761Y65598049D02*
X4229047Y65636144D01*
X4229047Y65636144D02*
X4305238Y65636144D01*
X4305238Y65636144D02*
X4419523Y65598049D01*
X4419523Y65598049D02*
X4457619Y65559954D01*
X3657618Y-38893855D02*
X3200475Y-38893855D01*
X3429047Y-38893855D02*
X3429047Y-38093855D01*
X3429047Y-38093855D02*
X3352856Y-38208140D01*
X3352856Y-38208140D02*
X3276666Y-38284331D01*
X3276666Y-38284331D02*
X3200475Y-38322426D01*
X3924285Y-38093855D02*
X4419523Y-38093855D01*
X4419523Y-38093855D02*
X4152857Y-38398617D01*
X4152857Y-38398617D02*
X4267142Y-38398617D01*
X4267142Y-38398617D02*
X4343333Y-38436712D01*
X4343333Y-38436712D02*
X4381428Y-38474807D01*
X4381428Y-38474807D02*
X4419523Y-38550998D01*
X4419523Y-38550998D02*
X4419523Y-38741474D01*
X4419523Y-38741474D02*
X4381428Y-38817664D01*
X4381428Y-38817664D02*
X4343333Y-38855760D01*
X4343333Y-38855760D02*
X4267142Y-38893855D01*
X4267142Y-38893855D02*
X4038571Y-38893855D01*
X4038571Y-38893855D02*
X3962380Y-38855760D01*
X3962380Y-38855760D02*
X3924285Y-38817664D01*
X4927619Y-46823855D02*
X4546667Y-46823855D01*
X4546667Y-46823855D02*
X4508571Y-47204807D01*
X4508571Y-47204807D02*
X4546667Y-47166712D01*
X4546667Y-47166712D02*
X4622857Y-47128617D01*
X4622857Y-47128617D02*
X4813333Y-47128617D01*
X4813333Y-47128617D02*
X4889524Y-47166712D01*
X4889524Y-47166712D02*
X4927619Y-47204807D01*
X4927619Y-47204807D02*
X4965714Y-47280998D01*
X4965714Y-47280998D02*
X4965714Y-47471474D01*
X4965714Y-47471474D02*
X4927619Y-47547664D01*
X4927619Y-47547664D02*
X4889524Y-47585760D01*
X4889524Y-47585760D02*
X4813333Y-47623855D01*
X4813333Y-47623855D02*
X4622857Y-47623855D01*
X4622857Y-47623855D02*
X4546667Y-47585760D01*
X4546667Y-47585760D02*
X4508571Y-47547664D01*
X5194286Y-46823855D02*
X5460953Y-47623855D01*
X5460953Y-47623855D02*
X5727619Y-46823855D01*
X5590476Y-57061950D02*
X5514286Y-57023855D01*
X5514286Y-57023855D02*
X5400000Y-57023855D01*
X5400000Y-57023855D02*
X5285714Y-57061950D01*
X5285714Y-57061950D02*
X5209524Y-57138140D01*
X5209524Y-57138140D02*
X5171429Y-57214331D01*
X5171429Y-57214331D02*
X5133333Y-57366712D01*
X5133333Y-57366712D02*
X5133333Y-57480998D01*
X5133333Y-57480998D02*
X5171429Y-57633379D01*
X5171429Y-57633379D02*
X5209524Y-57709569D01*
X5209524Y-57709569D02*
X5285714Y-57785760D01*
X5285714Y-57785760D02*
X5400000Y-57823855D01*
X5400000Y-57823855D02*
X5476191Y-57823855D01*
X5476191Y-57823855D02*
X5590476Y-57785760D01*
X5590476Y-57785760D02*
X5628572Y-57747664D01*
X5628572Y-57747664D02*
X5628572Y-57480998D01*
X5628572Y-57480998D02*
X5476191Y-57480998D01*
X5971429Y-57823855D02*
X5971429Y-57023855D01*
X5971429Y-57023855D02*
X6428572Y-57823855D01*
X6428572Y-57823855D02*
X6428572Y-57023855D01*
X6809524Y-57823855D02*
X6809524Y-57023855D01*
X6809524Y-57023855D02*
X7000000Y-57023855D01*
X7000000Y-57023855D02*
X7114286Y-57061950D01*
X7114286Y-57061950D02*
X7190476Y-57138140D01*
X7190476Y-57138140D02*
X7228571Y-57214331D01*
X7228571Y-57214331D02*
X7266667Y-57366712D01*
X7266667Y-57366712D02*
X7266667Y-57480998D01*
X7266667Y-57480998D02*
X7228571Y-57633379D01*
X7228571Y-57633379D02*
X7190476Y-57709569D01*
X7190476Y-57709569D02*
X7114286Y-57785760D01*
X7114286Y-57785760D02*
X7000000Y-57823855D01*
X7000000Y-57823855D02*
X6809524Y-57823855D01*
X5133333Y-59563855D02*
X5400000Y-60363855D01*
X5400000Y-60363855D02*
X5666666Y-59563855D01*
X5933333Y-60363855D02*
X5933333Y-59563855D01*
X5933333Y-59563855D02*
X6123809Y-59563855D01*
X6123809Y-59563855D02*
X6238095Y-59601950D01*
X6238095Y-59601950D02*
X6314285Y-59678140D01*
X6314285Y-59678140D02*
X6352380Y-59754331D01*
X6352380Y-59754331D02*
X6390476Y-59906712D01*
X6390476Y-59906712D02*
X6390476Y-60020998D01*
X6390476Y-60020998D02*
X6352380Y-60173379D01*
X6352380Y-60173379D02*
X6314285Y-60249569D01*
X6314285Y-60249569D02*
X6238095Y-60325760D01*
X6238095Y-60325760D02*
X6123809Y-60363855D01*
X6123809Y-60363855D02*
X5933333Y-60363855D01*
X6733333Y-60363855D02*
X6733333Y-59563855D01*
X6733333Y-59563855D02*
X6923809Y-59563855D01*
X6923809Y-59563855D02*
X7038095Y-59601950D01*
X7038095Y-59601950D02*
X7114285Y-59678140D01*
X7114285Y-59678140D02*
X7152380Y-59754331D01*
X7152380Y-59754331D02*
X7190476Y-59906712D01*
X7190476Y-59906712D02*
X7190476Y-60020998D01*
X7190476Y-60020998D02*
X7152380Y-60173379D01*
X7152380Y-60173379D02*
X7114285Y-60249569D01*
X7114285Y-60249569D02*
X7038095Y-60325760D01*
X7038095Y-60325760D02*
X6923809Y-60363855D01*
X6923809Y-60363855D02*
X6733333Y-60363855D01*
X5571428Y-62865760D02*
X5685714Y-62903855D01*
X5685714Y-62903855D02*
X5876190Y-62903855D01*
X5876190Y-62903855D02*
X5952381Y-62865760D01*
X5952381Y-62865760D02*
X5990476Y-62827664D01*
X5990476Y-62827664D02*
X6028571Y-62751474D01*
X6028571Y-62751474D02*
X6028571Y-62675283D01*
X6028571Y-62675283D02*
X5990476Y-62599093D01*
X5990476Y-62599093D02*
X5952381Y-62560998D01*
X5952381Y-62560998D02*
X5876190Y-62522902D01*
X5876190Y-62522902D02*
X5723809Y-62484807D01*
X5723809Y-62484807D02*
X5647619Y-62446712D01*
X5647619Y-62446712D02*
X5609524Y-62408617D01*
X5609524Y-62408617D02*
X5571428Y-62332426D01*
X5571428Y-62332426D02*
X5571428Y-62256236D01*
X5571428Y-62256236D02*
X5609524Y-62180045D01*
X5609524Y-62180045D02*
X5647619Y-62141950D01*
X5647619Y-62141950D02*
X5723809Y-62103855D01*
X5723809Y-62103855D02*
X5914286Y-62103855D01*
X5914286Y-62103855D02*
X6028571Y-62141950D01*
X6371429Y-62903855D02*
X6371429Y-62103855D01*
X6371429Y-62103855D02*
X6561905Y-62103855D01*
X6561905Y-62103855D02*
X6676191Y-62141950D01*
X6676191Y-62141950D02*
X6752381Y-62218140D01*
X6752381Y-62218140D02*
X6790476Y-62294331D01*
X6790476Y-62294331D02*
X6828572Y-62446712D01*
X6828572Y-62446712D02*
X6828572Y-62560998D01*
X6828572Y-62560998D02*
X6790476Y-62713379D01*
X6790476Y-62713379D02*
X6752381Y-62789569D01*
X6752381Y-62789569D02*
X6676191Y-62865760D01*
X6676191Y-62865760D02*
X6561905Y-62903855D01*
X6561905Y-62903855D02*
X6371429Y-62903855D01*
X6216667Y64912335D02*
X6178571Y64874240D01*
X6178571Y64874240D02*
X6064286Y64836144D01*
X6064286Y64836144D02*
X5988095Y64836144D01*
X5988095Y64836144D02*
X5873809Y64874240D01*
X5873809Y64874240D02*
X5797619Y64950430D01*
X5797619Y64950430D02*
X5759524Y65026620D01*
X5759524Y65026620D02*
X5721428Y65179001D01*
X5721428Y65179001D02*
X5721428Y65293287D01*
X5721428Y65293287D02*
X5759524Y65445668D01*
X5759524Y65445668D02*
X5797619Y65521859D01*
X5797619Y65521859D02*
X5873809Y65598049D01*
X5873809Y65598049D02*
X5988095Y65636144D01*
X5988095Y65636144D02*
X6064286Y65636144D01*
X6064286Y65636144D02*
X6178571Y65598049D01*
X6178571Y65598049D02*
X6216667Y65559954D01*
X6521428Y64874240D02*
X6635714Y64836144D01*
X6635714Y64836144D02*
X6826190Y64836144D01*
X6826190Y64836144D02*
X6902381Y64874240D01*
X6902381Y64874240D02*
X6940476Y64912335D01*
X6940476Y64912335D02*
X6978571Y64988525D01*
X6978571Y64988525D02*
X6978571Y65064716D01*
X6978571Y65064716D02*
X6940476Y65140906D01*
X6940476Y65140906D02*
X6902381Y65179001D01*
X6902381Y65179001D02*
X6826190Y65217097D01*
X6826190Y65217097D02*
X6673809Y65255192D01*
X6673809Y65255192D02*
X6597619Y65293287D01*
X6597619Y65293287D02*
X6559524Y65331382D01*
X6559524Y65331382D02*
X6521428Y65407573D01*
X6521428Y65407573D02*
X6521428Y65483763D01*
X6521428Y65483763D02*
X6559524Y65559954D01*
X6559524Y65559954D02*
X6597619Y65598049D01*
X6597619Y65598049D02*
X6673809Y65636144D01*
X6673809Y65636144D02*
X6864286Y65636144D01*
X6864286Y65636144D02*
X6978571Y65598049D01*
X6197618Y-38893855D02*
X5740475Y-38893855D01*
X5969047Y-38893855D02*
X5969047Y-38093855D01*
X5969047Y-38093855D02*
X5892856Y-38208140D01*
X5892856Y-38208140D02*
X5816666Y-38284331D01*
X5816666Y-38284331D02*
X5740475Y-38322426D01*
X6883333Y-38360521D02*
X6883333Y-38893855D01*
X6692857Y-38055760D02*
X6502380Y-38627188D01*
X6502380Y-38627188D02*
X6997619Y-38627188D01*
X7467619Y-46823855D02*
X7086667Y-46823855D01*
X7086667Y-46823855D02*
X7048571Y-47204807D01*
X7048571Y-47204807D02*
X7086667Y-47166712D01*
X7086667Y-47166712D02*
X7162857Y-47128617D01*
X7162857Y-47128617D02*
X7353333Y-47128617D01*
X7353333Y-47128617D02*
X7429524Y-47166712D01*
X7429524Y-47166712D02*
X7467619Y-47204807D01*
X7467619Y-47204807D02*
X7505714Y-47280998D01*
X7505714Y-47280998D02*
X7505714Y-47471474D01*
X7505714Y-47471474D02*
X7467619Y-47547664D01*
X7467619Y-47547664D02*
X7429524Y-47585760D01*
X7429524Y-47585760D02*
X7353333Y-47623855D01*
X7353333Y-47623855D02*
X7162857Y-47623855D01*
X7162857Y-47623855D02*
X7086667Y-47585760D01*
X7086667Y-47585760D02*
X7048571Y-47547664D01*
X7734286Y-46823855D02*
X8000953Y-47623855D01*
X8000953Y-47623855D02*
X8267619Y-46823855D01*
X8223333Y65255192D02*
X8337619Y65217097D01*
X8337619Y65217097D02*
X8375714Y65179001D01*
X8375714Y65179001D02*
X8413810Y65102811D01*
X8413810Y65102811D02*
X8413810Y64988525D01*
X8413810Y64988525D02*
X8375714Y64912335D01*
X8375714Y64912335D02*
X8337619Y64874240D01*
X8337619Y64874240D02*
X8261429Y64836144D01*
X8261429Y64836144D02*
X7956667Y64836144D01*
X7956667Y64836144D02*
X7956667Y65636144D01*
X7956667Y65636144D02*
X8223333Y65636144D01*
X8223333Y65636144D02*
X8299524Y65598049D01*
X8299524Y65598049D02*
X8337619Y65559954D01*
X8337619Y65559954D02*
X8375714Y65483763D01*
X8375714Y65483763D02*
X8375714Y65407573D01*
X8375714Y65407573D02*
X8337619Y65331382D01*
X8337619Y65331382D02*
X8299524Y65293287D01*
X8299524Y65293287D02*
X8223333Y65255192D01*
X8223333Y65255192D02*
X7956667Y65255192D01*
X9137619Y64836144D02*
X8756667Y64836144D01*
X8756667Y64836144D02*
X8756667Y65636144D01*
X9404286Y64836144D02*
X9404286Y65636144D01*
X9861429Y64836144D02*
X9518571Y65293287D01*
X9861429Y65636144D02*
X9404286Y65179001D01*
X8737618Y-38893855D02*
X8280475Y-38893855D01*
X8509047Y-38893855D02*
X8509047Y-38093855D01*
X8509047Y-38093855D02*
X8432856Y-38208140D01*
X8432856Y-38208140D02*
X8356666Y-38284331D01*
X8356666Y-38284331D02*
X8280475Y-38322426D01*
X9118571Y-38893855D02*
X9270952Y-38893855D01*
X9270952Y-38893855D02*
X9347142Y-38855760D01*
X9347142Y-38855760D02*
X9385238Y-38817664D01*
X9385238Y-38817664D02*
X9461428Y-38703379D01*
X9461428Y-38703379D02*
X9499523Y-38550998D01*
X9499523Y-38550998D02*
X9499523Y-38246236D01*
X9499523Y-38246236D02*
X9461428Y-38170045D01*
X9461428Y-38170045D02*
X9423333Y-38131950D01*
X9423333Y-38131950D02*
X9347142Y-38093855D01*
X9347142Y-38093855D02*
X9194761Y-38093855D01*
X9194761Y-38093855D02*
X9118571Y-38131950D01*
X9118571Y-38131950D02*
X9080476Y-38170045D01*
X9080476Y-38170045D02*
X9042380Y-38246236D01*
X9042380Y-38246236D02*
X9042380Y-38436712D01*
X9042380Y-38436712D02*
X9080476Y-38512902D01*
X9080476Y-38512902D02*
X9118571Y-38550998D01*
X9118571Y-38550998D02*
X9194761Y-38589093D01*
X9194761Y-38589093D02*
X9347142Y-38589093D01*
X9347142Y-38589093D02*
X9423333Y-38550998D01*
X9423333Y-38550998D02*
X9461428Y-38512902D01*
X9461428Y-38512902D02*
X9499523Y-38436712D01*
X21503810Y53946144D02*
X21770477Y53146144D01*
X21770477Y53146144D02*
X22037143Y53946144D01*
X22303810Y53146144D02*
X22303810Y53946144D01*
X22684762Y53146144D02*
X22684762Y53946144D01*
X22684762Y53946144D02*
X23141905Y53146144D01*
X23141905Y53146144D02*
X23141905Y53946144D01*
X24310476Y53908049D02*
X24234286Y53946144D01*
X24234286Y53946144D02*
X24120000Y53946144D01*
X24120000Y53946144D02*
X24005714Y53908049D01*
X24005714Y53908049D02*
X23929524Y53831859D01*
X23929524Y53831859D02*
X23891429Y53755668D01*
X23891429Y53755668D02*
X23853333Y53603287D01*
X23853333Y53603287D02*
X23853333Y53489001D01*
X23853333Y53489001D02*
X23891429Y53336620D01*
X23891429Y53336620D02*
X23929524Y53260430D01*
X23929524Y53260430D02*
X24005714Y53184240D01*
X24005714Y53184240D02*
X24120000Y53146144D01*
X24120000Y53146144D02*
X24196191Y53146144D01*
X24196191Y53146144D02*
X24310476Y53184240D01*
X24310476Y53184240D02*
X24348572Y53222335D01*
X24348572Y53222335D02*
X24348572Y53489001D01*
X24348572Y53489001D02*
X24196191Y53489001D01*
X24691429Y53146144D02*
X24691429Y53946144D01*
X24691429Y53946144D02*
X25148572Y53146144D01*
X25148572Y53146144D02*
X25148572Y53946144D01*
X25529524Y53146144D02*
X25529524Y53946144D01*
X25529524Y53946144D02*
X25720000Y53946144D01*
X25720000Y53946144D02*
X25834286Y53908049D01*
X25834286Y53908049D02*
X25910476Y53831859D01*
X25910476Y53831859D02*
X25948571Y53755668D01*
X25948571Y53755668D02*
X25986667Y53603287D01*
X25986667Y53603287D02*
X25986667Y53489001D01*
X25986667Y53489001D02*
X25948571Y53336620D01*
X25948571Y53336620D02*
X25910476Y53260430D01*
X25910476Y53260430D02*
X25834286Y53184240D01*
X25834286Y53184240D02*
X25720000Y53146144D01*
X25720000Y53146144D02*
X25529524Y53146144D01*
X26831428Y53184240D02*
X26945714Y53146144D01*
X26945714Y53146144D02*
X27136190Y53146144D01*
X27136190Y53146144D02*
X27212381Y53184240D01*
X27212381Y53184240D02*
X27250476Y53222335D01*
X27250476Y53222335D02*
X27288571Y53298525D01*
X27288571Y53298525D02*
X27288571Y53374716D01*
X27288571Y53374716D02*
X27250476Y53450906D01*
X27250476Y53450906D02*
X27212381Y53489001D01*
X27212381Y53489001D02*
X27136190Y53527097D01*
X27136190Y53527097D02*
X26983809Y53565192D01*
X26983809Y53565192D02*
X26907619Y53603287D01*
X26907619Y53603287D02*
X26869524Y53641382D01*
X26869524Y53641382D02*
X26831428Y53717573D01*
X26831428Y53717573D02*
X26831428Y53793763D01*
X26831428Y53793763D02*
X26869524Y53869954D01*
X26869524Y53869954D02*
X26907619Y53908049D01*
X26907619Y53908049D02*
X26983809Y53946144D01*
X26983809Y53946144D02*
X27174286Y53946144D01*
X27174286Y53946144D02*
X27288571Y53908049D01*
X27631429Y53146144D02*
X27631429Y53946144D01*
X27631429Y53946144D02*
X27821905Y53946144D01*
X27821905Y53946144D02*
X27936191Y53908049D01*
X27936191Y53908049D02*
X28012381Y53831859D01*
X28012381Y53831859D02*
X28050476Y53755668D01*
X28050476Y53755668D02*
X28088572Y53603287D01*
X28088572Y53603287D02*
X28088572Y53489001D01*
X28088572Y53489001D02*
X28050476Y53336620D01*
X28050476Y53336620D02*
X28012381Y53260430D01*
X28012381Y53260430D02*
X27936191Y53184240D01*
X27936191Y53184240D02*
X27821905Y53146144D01*
X27821905Y53146144D02*
X27631429Y53146144D01*
X27701428Y32874240D02*
X27815714Y32836144D01*
X27815714Y32836144D02*
X28006190Y32836144D01*
X28006190Y32836144D02*
X28082381Y32874240D01*
X28082381Y32874240D02*
X28120476Y32912335D01*
X28120476Y32912335D02*
X28158571Y32988525D01*
X28158571Y32988525D02*
X28158571Y33064716D01*
X28158571Y33064716D02*
X28120476Y33140906D01*
X28120476Y33140906D02*
X28082381Y33179001D01*
X28082381Y33179001D02*
X28006190Y33217097D01*
X28006190Y33217097D02*
X27853809Y33255192D01*
X27853809Y33255192D02*
X27777619Y33293287D01*
X27777619Y33293287D02*
X27739524Y33331382D01*
X27739524Y33331382D02*
X27701428Y33407573D01*
X27701428Y33407573D02*
X27701428Y33483763D01*
X27701428Y33483763D02*
X27739524Y33559954D01*
X27739524Y33559954D02*
X27777619Y33598049D01*
X27777619Y33598049D02*
X27853809Y33636144D01*
X27853809Y33636144D02*
X28044286Y33636144D01*
X28044286Y33636144D02*
X28158571Y33598049D01*
X28958572Y32912335D02*
X28920476Y32874240D01*
X28920476Y32874240D02*
X28806191Y32836144D01*
X28806191Y32836144D02*
X28730000Y32836144D01*
X28730000Y32836144D02*
X28615714Y32874240D01*
X28615714Y32874240D02*
X28539524Y32950430D01*
X28539524Y32950430D02*
X28501429Y33026620D01*
X28501429Y33026620D02*
X28463333Y33179001D01*
X28463333Y33179001D02*
X28463333Y33293287D01*
X28463333Y33293287D02*
X28501429Y33445668D01*
X28501429Y33445668D02*
X28539524Y33521859D01*
X28539524Y33521859D02*
X28615714Y33598049D01*
X28615714Y33598049D02*
X28730000Y33636144D01*
X28730000Y33636144D02*
X28806191Y33636144D01*
X28806191Y33636144D02*
X28920476Y33598049D01*
X28920476Y33598049D02*
X28958572Y33559954D01*
X29301429Y32836144D02*
X29301429Y33636144D01*
X29758572Y32836144D02*
X29415714Y33293287D01*
X29758572Y33636144D02*
X29301429Y33179001D01*
X29257143Y53908049D02*
X29180953Y53946144D01*
X29180953Y53946144D02*
X29066667Y53946144D01*
X29066667Y53946144D02*
X28952381Y53908049D01*
X28952381Y53908049D02*
X28876191Y53831859D01*
X28876191Y53831859D02*
X28838096Y53755668D01*
X28838096Y53755668D02*
X28800000Y53603287D01*
X28800000Y53603287D02*
X28800000Y53489001D01*
X28800000Y53489001D02*
X28838096Y53336620D01*
X28838096Y53336620D02*
X28876191Y53260430D01*
X28876191Y53260430D02*
X28952381Y53184240D01*
X28952381Y53184240D02*
X29066667Y53146144D01*
X29066667Y53146144D02*
X29142858Y53146144D01*
X29142858Y53146144D02*
X29257143Y53184240D01*
X29257143Y53184240D02*
X29295239Y53222335D01*
X29295239Y53222335D02*
X29295239Y53489001D01*
X29295239Y53489001D02*
X29142858Y53489001D01*
X29600000Y53374716D02*
X29980953Y53374716D01*
X29523810Y53146144D02*
X29790477Y53946144D01*
X29790477Y53946144D02*
X30057143Y53146144D01*
X30323810Y53146144D02*
X30323810Y53946144D01*
X30704762Y53146144D02*
X30704762Y53946144D01*
X30704762Y53946144D02*
X31161905Y53146144D01*
X31161905Y53146144D02*
X31161905Y53946144D01*
X30527143Y33598049D02*
X30450953Y33636144D01*
X30450953Y33636144D02*
X30336667Y33636144D01*
X30336667Y33636144D02*
X30222381Y33598049D01*
X30222381Y33598049D02*
X30146191Y33521859D01*
X30146191Y33521859D02*
X30108096Y33445668D01*
X30108096Y33445668D02*
X30070000Y33293287D01*
X30070000Y33293287D02*
X30070000Y33179001D01*
X30070000Y33179001D02*
X30108096Y33026620D01*
X30108096Y33026620D02*
X30146191Y32950430D01*
X30146191Y32950430D02*
X30222381Y32874240D01*
X30222381Y32874240D02*
X30336667Y32836144D01*
X30336667Y32836144D02*
X30412858Y32836144D01*
X30412858Y32836144D02*
X30527143Y32874240D01*
X30527143Y32874240D02*
X30565239Y32912335D01*
X30565239Y32912335D02*
X30565239Y33179001D01*
X30565239Y33179001D02*
X30412858Y33179001D01*
X30870000Y33064716D02*
X31250953Y33064716D01*
X30793810Y32836144D02*
X31060477Y33636144D01*
X31060477Y33636144D02*
X31327143Y32836144D01*
X31593810Y32836144D02*
X31593810Y33636144D01*
X31974762Y32836144D02*
X31974762Y33636144D01*
X31974762Y33636144D02*
X32431905Y32836144D01*
X32431905Y32836144D02*
X32431905Y33636144D01*
X31720953Y53146144D02*
X31720953Y53946144D01*
X31720953Y53946144D02*
X31911429Y53946144D01*
X31911429Y53946144D02*
X32025715Y53908049D01*
X32025715Y53908049D02*
X32101905Y53831859D01*
X32101905Y53831859D02*
X32140000Y53755668D01*
X32140000Y53755668D02*
X32178096Y53603287D01*
X32178096Y53603287D02*
X32178096Y53489001D01*
X32178096Y53489001D02*
X32140000Y53336620D01*
X32140000Y53336620D02*
X32101905Y53260430D01*
X32101905Y53260430D02*
X32025715Y53184240D01*
X32025715Y53184240D02*
X31911429Y53146144D01*
X31911429Y53146144D02*
X31720953Y53146144D01*
X32520953Y53146144D02*
X32520953Y53946144D01*
X32901905Y53146144D02*
X32901905Y53946144D01*
X32901905Y53946144D02*
X33359048Y53146144D01*
X33359048Y53146144D02*
X33359048Y53946144D01*
X34013333Y53565192D02*
X34127619Y53527097D01*
X34127619Y53527097D02*
X34165714Y53489001D01*
X34165714Y53489001D02*
X34203810Y53412811D01*
X34203810Y53412811D02*
X34203810Y53298525D01*
X34203810Y53298525D02*
X34165714Y53222335D01*
X34165714Y53222335D02*
X34127619Y53184240D01*
X34127619Y53184240D02*
X34051429Y53146144D01*
X34051429Y53146144D02*
X33746667Y53146144D01*
X33746667Y53146144D02*
X33746667Y53946144D01*
X33746667Y53946144D02*
X34013333Y53946144D01*
X34013333Y53946144D02*
X34089524Y53908049D01*
X34089524Y53908049D02*
X34127619Y53869954D01*
X34127619Y53869954D02*
X34165714Y53793763D01*
X34165714Y53793763D02*
X34165714Y53717573D01*
X34165714Y53717573D02*
X34127619Y53641382D01*
X34127619Y53641382D02*
X34089524Y53603287D01*
X34089524Y53603287D02*
X34013333Y53565192D01*
X34013333Y53565192D02*
X33746667Y53565192D01*
X35003810Y53222335D02*
X34965714Y53184240D01*
X34965714Y53184240D02*
X34851429Y53146144D01*
X34851429Y53146144D02*
X34775238Y53146144D01*
X34775238Y53146144D02*
X34660952Y53184240D01*
X34660952Y53184240D02*
X34584762Y53260430D01*
X34584762Y53260430D02*
X34546667Y53336620D01*
X34546667Y53336620D02*
X34508571Y53489001D01*
X34508571Y53489001D02*
X34508571Y53603287D01*
X34508571Y53603287D02*
X34546667Y53755668D01*
X34546667Y53755668D02*
X34584762Y53831859D01*
X34584762Y53831859D02*
X34660952Y53908049D01*
X34660952Y53908049D02*
X34775238Y53946144D01*
X34775238Y53946144D02*
X34851429Y53946144D01*
X34851429Y53946144D02*
X34965714Y53908049D01*
X34965714Y53908049D02*
X35003810Y53869954D01*
X35727619Y53146144D02*
X35346667Y53146144D01*
X35346667Y53146144D02*
X35346667Y53946144D01*
X35994286Y53146144D02*
X35994286Y53946144D01*
X36451429Y53146144D02*
X36108571Y53603287D01*
X36451429Y53946144D02*
X35994286Y53489001D01*
X37067619Y53146144D02*
X36686667Y53146144D01*
X36686667Y53146144D02*
X36686667Y53946144D01*
X37791429Y53146144D02*
X37524762Y53527097D01*
X37334286Y53146144D02*
X37334286Y53946144D01*
X37334286Y53946144D02*
X37639048Y53946144D01*
X37639048Y53946144D02*
X37715238Y53908049D01*
X37715238Y53908049D02*
X37753333Y53869954D01*
X37753333Y53869954D02*
X37791429Y53793763D01*
X37791429Y53793763D02*
X37791429Y53679478D01*
X37791429Y53679478D02*
X37753333Y53603287D01*
X37753333Y53603287D02*
X37715238Y53565192D01*
X37715238Y53565192D02*
X37639048Y53527097D01*
X37639048Y53527097D02*
X37334286Y53527097D01*
X38591429Y53222335D02*
X38553333Y53184240D01*
X38553333Y53184240D02*
X38439048Y53146144D01*
X38439048Y53146144D02*
X38362857Y53146144D01*
X38362857Y53146144D02*
X38248571Y53184240D01*
X38248571Y53184240D02*
X38172381Y53260430D01*
X38172381Y53260430D02*
X38134286Y53336620D01*
X38134286Y53336620D02*
X38096190Y53489001D01*
X38096190Y53489001D02*
X38096190Y53603287D01*
X38096190Y53603287D02*
X38134286Y53755668D01*
X38134286Y53755668D02*
X38172381Y53831859D01*
X38172381Y53831859D02*
X38248571Y53908049D01*
X38248571Y53908049D02*
X38362857Y53946144D01*
X38362857Y53946144D02*
X38439048Y53946144D01*
X38439048Y53946144D02*
X38553333Y53908049D01*
X38553333Y53908049D02*
X38591429Y53869954D01*
X38022866Y-35401148D02*
X38137152Y-35439243D01*
X38137152Y-35439243D02*
X38327628Y-35439243D01*
X38327628Y-35439243D02*
X38403819Y-35401148D01*
X38403819Y-35401148D02*
X38441914Y-35363052D01*
X38441914Y-35363052D02*
X38480009Y-35286862D01*
X38480009Y-35286862D02*
X38480009Y-35210671D01*
X38480009Y-35210671D02*
X38441914Y-35134481D01*
X38441914Y-35134481D02*
X38403819Y-35096386D01*
X38403819Y-35096386D02*
X38327628Y-35058290D01*
X38327628Y-35058290D02*
X38175247Y-35020195D01*
X38175247Y-35020195D02*
X38099057Y-34982100D01*
X38099057Y-34982100D02*
X38060962Y-34944005D01*
X38060962Y-34944005D02*
X38022866Y-34867814D01*
X38022866Y-34867814D02*
X38022866Y-34791624D01*
X38022866Y-34791624D02*
X38060962Y-34715433D01*
X38060962Y-34715433D02*
X38099057Y-34677338D01*
X38099057Y-34677338D02*
X38175247Y-34639243D01*
X38175247Y-34639243D02*
X38365724Y-34639243D01*
X38365724Y-34639243D02*
X38480009Y-34677338D01*
X39280010Y-35363052D02*
X39241914Y-35401148D01*
X39241914Y-35401148D02*
X39127629Y-35439243D01*
X39127629Y-35439243D02*
X39051438Y-35439243D01*
X39051438Y-35439243D02*
X38937152Y-35401148D01*
X38937152Y-35401148D02*
X38860962Y-35324957D01*
X38860962Y-35324957D02*
X38822867Y-35248767D01*
X38822867Y-35248767D02*
X38784771Y-35096386D01*
X38784771Y-35096386D02*
X38784771Y-34982100D01*
X38784771Y-34982100D02*
X38822867Y-34829719D01*
X38822867Y-34829719D02*
X38860962Y-34753528D01*
X38860962Y-34753528D02*
X38937152Y-34677338D01*
X38937152Y-34677338D02*
X39051438Y-34639243D01*
X39051438Y-34639243D02*
X39127629Y-34639243D01*
X39127629Y-34639243D02*
X39241914Y-34677338D01*
X39241914Y-34677338D02*
X39280010Y-34715433D01*
X39622867Y-35439243D02*
X39622867Y-34639243D01*
X40080010Y-35439243D02*
X39737152Y-34982100D01*
X40080010Y-34639243D02*
X39622867Y-35096386D01*
X40349021Y-25121230D02*
X40082355Y-25121230D01*
X40082355Y-25540278D02*
X40082355Y-24740278D01*
X40082355Y-24740278D02*
X40463307Y-24740278D01*
X41149021Y-25540278D02*
X40768069Y-25540278D01*
X40768069Y-25540278D02*
X40768069Y-24740278D01*
X41301402Y-24740278D02*
X41758545Y-24740278D01*
X41529973Y-25540278D02*
X41529973Y-24740278D01*
X40646662Y-36012652D02*
X40760948Y-36050747D01*
X40760948Y-36050747D02*
X40799043Y-36088843D01*
X40799043Y-36088843D02*
X40837139Y-36165033D01*
X40837139Y-36165033D02*
X40837139Y-36279319D01*
X40837139Y-36279319D02*
X40799043Y-36355509D01*
X40799043Y-36355509D02*
X40760948Y-36393605D01*
X40760948Y-36393605D02*
X40684758Y-36431700D01*
X40684758Y-36431700D02*
X40379996Y-36431700D01*
X40379996Y-36431700D02*
X40379996Y-35631700D01*
X40379996Y-35631700D02*
X40646662Y-35631700D01*
X40646662Y-35631700D02*
X40722853Y-35669795D01*
X40722853Y-35669795D02*
X40760948Y-35707890D01*
X40760948Y-35707890D02*
X40799043Y-35784081D01*
X40799043Y-35784081D02*
X40799043Y-35860271D01*
X40799043Y-35860271D02*
X40760948Y-35936462D01*
X40760948Y-35936462D02*
X40722853Y-35974557D01*
X40722853Y-35974557D02*
X40646662Y-36012652D01*
X40646662Y-36012652D02*
X40379996Y-36012652D01*
X41637139Y-36355509D02*
X41599043Y-36393605D01*
X41599043Y-36393605D02*
X41484758Y-36431700D01*
X41484758Y-36431700D02*
X41408567Y-36431700D01*
X41408567Y-36431700D02*
X41294281Y-36393605D01*
X41294281Y-36393605D02*
X41218091Y-36317414D01*
X41218091Y-36317414D02*
X41179996Y-36241224D01*
X41179996Y-36241224D02*
X41141900Y-36088843D01*
X41141900Y-36088843D02*
X41141900Y-35974557D01*
X41141900Y-35974557D02*
X41179996Y-35822176D01*
X41179996Y-35822176D02*
X41218091Y-35745985D01*
X41218091Y-35745985D02*
X41294281Y-35669795D01*
X41294281Y-35669795D02*
X41408567Y-35631700D01*
X41408567Y-35631700D02*
X41484758Y-35631700D01*
X41484758Y-35631700D02*
X41599043Y-35669795D01*
X41599043Y-35669795D02*
X41637139Y-35707890D01*
X41979996Y-36431700D02*
X41979996Y-35631700D01*
X42437139Y-36431700D02*
X42094281Y-35974557D01*
X42437139Y-35631700D02*
X41979996Y-36088843D01*
X40427192Y-23202196D02*
X40427192Y-22402196D01*
X40427192Y-22402196D02*
X40617668Y-22402196D01*
X40617668Y-22402196D02*
X40731954Y-22440291D01*
X40731954Y-22440291D02*
X40808144Y-22516481D01*
X40808144Y-22516481D02*
X40846239Y-22592672D01*
X40846239Y-22592672D02*
X40884335Y-22745053D01*
X40884335Y-22745053D02*
X40884335Y-22859339D01*
X40884335Y-22859339D02*
X40846239Y-23011720D01*
X40846239Y-23011720D02*
X40808144Y-23087910D01*
X40808144Y-23087910D02*
X40731954Y-23164101D01*
X40731954Y-23164101D02*
X40617668Y-23202196D01*
X40617668Y-23202196D02*
X40427192Y-23202196D01*
X41227192Y-22783148D02*
X41493858Y-22783148D01*
X41608144Y-23202196D02*
X41227192Y-23202196D01*
X41227192Y-23202196D02*
X41227192Y-22402196D01*
X41227192Y-22402196D02*
X41608144Y-22402196D01*
X41951002Y-23202196D02*
X41951002Y-22402196D01*
X41951002Y-22402196D02*
X42217668Y-22973624D01*
X42217668Y-22973624D02*
X42484335Y-22402196D01*
X42484335Y-22402196D02*
X42484335Y-23202196D01*
X42865288Y-23202196D02*
X42865288Y-22402196D01*
X42865288Y-22402196D02*
X43170050Y-22402196D01*
X43170050Y-22402196D02*
X43246240Y-22440291D01*
X43246240Y-22440291D02*
X43284335Y-22478386D01*
X43284335Y-22478386D02*
X43322431Y-22554577D01*
X43322431Y-22554577D02*
X43322431Y-22668862D01*
X43322431Y-22668862D02*
X43284335Y-22745053D01*
X43284335Y-22745053D02*
X43246240Y-22783148D01*
X43246240Y-22783148D02*
X43170050Y-22821243D01*
X43170050Y-22821243D02*
X42865288Y-22821243D01*
X41438696Y-20064113D02*
X41972030Y-20864113D01*
X41972030Y-20064113D02*
X41438696Y-20864113D01*
X42238696Y-20826018D02*
X42352982Y-20864113D01*
X42352982Y-20864113D02*
X42543458Y-20864113D01*
X42543458Y-20864113D02*
X42619649Y-20826018D01*
X42619649Y-20826018D02*
X42657744Y-20787922D01*
X42657744Y-20787922D02*
X42695839Y-20711732D01*
X42695839Y-20711732D02*
X42695839Y-20635541D01*
X42695839Y-20635541D02*
X42657744Y-20559351D01*
X42657744Y-20559351D02*
X42619649Y-20521256D01*
X42619649Y-20521256D02*
X42543458Y-20483160D01*
X42543458Y-20483160D02*
X42391077Y-20445065D01*
X42391077Y-20445065D02*
X42314887Y-20406970D01*
X42314887Y-20406970D02*
X42276792Y-20368875D01*
X42276792Y-20368875D02*
X42238696Y-20292684D01*
X42238696Y-20292684D02*
X42238696Y-20216494D01*
X42238696Y-20216494D02*
X42276792Y-20140303D01*
X42276792Y-20140303D02*
X42314887Y-20102208D01*
X42314887Y-20102208D02*
X42391077Y-20064113D01*
X42391077Y-20064113D02*
X42581554Y-20064113D01*
X42581554Y-20064113D02*
X42695839Y-20102208D01*
X43038697Y-20864113D02*
X43038697Y-20064113D01*
X43038697Y-20064113D02*
X43305363Y-20635541D01*
X43305363Y-20635541D02*
X43572030Y-20064113D01*
X43572030Y-20064113D02*
X43572030Y-20864113D01*
X43838697Y-20064113D02*
X44295840Y-20064113D01*
X44067268Y-20864113D02*
X44067268Y-20064113D01*
X42908556Y-37424157D02*
X42908556Y-36624157D01*
X42908556Y-36624157D02*
X43099032Y-36624157D01*
X43099032Y-36624157D02*
X43213318Y-36662252D01*
X43213318Y-36662252D02*
X43289508Y-36738442D01*
X43289508Y-36738442D02*
X43327603Y-36814633D01*
X43327603Y-36814633D02*
X43365699Y-36967014D01*
X43365699Y-36967014D02*
X43365699Y-37081300D01*
X43365699Y-37081300D02*
X43327603Y-37233681D01*
X43327603Y-37233681D02*
X43289508Y-37309871D01*
X43289508Y-37309871D02*
X43213318Y-37386062D01*
X43213318Y-37386062D02*
X43099032Y-37424157D01*
X43099032Y-37424157D02*
X42908556Y-37424157D01*
X43708556Y-37424157D02*
X43708556Y-36624157D01*
X44089508Y-37424157D02*
X44089508Y-36624157D01*
X44089508Y-36624157D02*
X44546651Y-37424157D01*
X44546651Y-37424157D02*
X44546651Y-36624157D01*
X43193058Y-18106983D02*
X42926392Y-18106983D01*
X42926392Y-18526031D02*
X42926392Y-17726031D01*
X42926392Y-17726031D02*
X43307344Y-17726031D01*
X43612106Y-18526031D02*
X43612106Y-17726031D01*
X43612106Y-17726031D02*
X43878772Y-18297459D01*
X43878772Y-18297459D02*
X44145439Y-17726031D01*
X44145439Y-17726031D02*
X44145439Y-18526031D01*
X44412106Y-17726031D02*
X44869249Y-17726031D01*
X44640677Y-18526031D02*
X44640677Y-17726031D01*
X43537896Y-15959377D02*
X43918849Y-15959377D01*
X43461706Y-16187949D02*
X43728373Y-15387949D01*
X43728373Y-15387949D02*
X43995039Y-16187949D01*
X44185515Y-15387949D02*
X44680753Y-15387949D01*
X44680753Y-15387949D02*
X44414087Y-15692711D01*
X44414087Y-15692711D02*
X44528372Y-15692711D01*
X44528372Y-15692711D02*
X44604563Y-15730806D01*
X44604563Y-15730806D02*
X44642658Y-15768901D01*
X44642658Y-15768901D02*
X44680753Y-15845092D01*
X44680753Y-15845092D02*
X44680753Y-16035568D01*
X44680753Y-16035568D02*
X44642658Y-16111758D01*
X44642658Y-16111758D02*
X44604563Y-16149854D01*
X44604563Y-16149854D02*
X44528372Y-16187949D01*
X44528372Y-16187949D02*
X44299801Y-16187949D01*
X44299801Y-16187949D02*
X44223610Y-16149854D01*
X44223610Y-16149854D02*
X44185515Y-16111758D01*
X44909325Y-15387949D02*
X45175992Y-16187949D01*
X45175992Y-16187949D02*
X45442658Y-15387949D01*
X45633134Y-15387949D02*
X46128372Y-15387949D01*
X46128372Y-15387949D02*
X45861706Y-15692711D01*
X45861706Y-15692711D02*
X45975991Y-15692711D01*
X45975991Y-15692711D02*
X46052182Y-15730806D01*
X46052182Y-15730806D02*
X46090277Y-15768901D01*
X46090277Y-15768901D02*
X46128372Y-15845092D01*
X46128372Y-15845092D02*
X46128372Y-16035568D01*
X46128372Y-16035568D02*
X46090277Y-16111758D01*
X46090277Y-16111758D02*
X46052182Y-16149854D01*
X46052182Y-16149854D02*
X45975991Y-16187949D01*
X45975991Y-16187949D02*
X45747420Y-16187949D01*
X45747420Y-16187949D02*
X45671229Y-16149854D01*
X45671229Y-16149854D02*
X45633134Y-16111758D01*
X44416068Y-13621294D02*
X44797021Y-13621294D01*
X44339878Y-13849866D02*
X44606545Y-13049866D01*
X44606545Y-13049866D02*
X44873211Y-13849866D01*
X45558925Y-13087961D02*
X45482735Y-13049866D01*
X45482735Y-13049866D02*
X45368449Y-13049866D01*
X45368449Y-13049866D02*
X45254163Y-13087961D01*
X45254163Y-13087961D02*
X45177973Y-13164151D01*
X45177973Y-13164151D02*
X45139878Y-13240342D01*
X45139878Y-13240342D02*
X45101782Y-13392723D01*
X45101782Y-13392723D02*
X45101782Y-13507009D01*
X45101782Y-13507009D02*
X45139878Y-13659390D01*
X45139878Y-13659390D02*
X45177973Y-13735580D01*
X45177973Y-13735580D02*
X45254163Y-13811771D01*
X45254163Y-13811771D02*
X45368449Y-13849866D01*
X45368449Y-13849866D02*
X45444640Y-13849866D01*
X45444640Y-13849866D02*
X45558925Y-13811771D01*
X45558925Y-13811771D02*
X45597021Y-13773675D01*
X45597021Y-13773675D02*
X45597021Y-13507009D01*
X45597021Y-13507009D02*
X45444640Y-13507009D01*
X45939878Y-13849866D02*
X45939878Y-13049866D01*
X45939878Y-13049866D02*
X46397021Y-13849866D01*
X46397021Y-13849866D02*
X46397021Y-13049866D01*
X46777973Y-13849866D02*
X46777973Y-13049866D01*
X46777973Y-13049866D02*
X46968449Y-13049866D01*
X46968449Y-13049866D02*
X47082735Y-13087961D01*
X47082735Y-13087961D02*
X47158925Y-13164151D01*
X47158925Y-13164151D02*
X47197020Y-13240342D01*
X47197020Y-13240342D02*
X47235116Y-13392723D01*
X47235116Y-13392723D02*
X47235116Y-13507009D01*
X47235116Y-13507009D02*
X47197020Y-13659390D01*
X47197020Y-13659390D02*
X47158925Y-13735580D01*
X47158925Y-13735580D02*
X47082735Y-13811771D01*
X47082735Y-13811771D02*
X46968449Y-13849866D01*
X46968449Y-13849866D02*
X46777973Y-13849866D01*
X45513304Y-38416614D02*
X45132352Y-38416614D01*
X45132352Y-38416614D02*
X45132352Y-37616614D01*
X46237114Y-38340423D02*
X46199018Y-38378519D01*
X46199018Y-38378519D02*
X46084733Y-38416614D01*
X46084733Y-38416614D02*
X46008542Y-38416614D01*
X46008542Y-38416614D02*
X45894256Y-38378519D01*
X45894256Y-38378519D02*
X45818066Y-38302328D01*
X45818066Y-38302328D02*
X45779971Y-38226138D01*
X45779971Y-38226138D02*
X45741875Y-38073757D01*
X45741875Y-38073757D02*
X45741875Y-37959471D01*
X45741875Y-37959471D02*
X45779971Y-37807090D01*
X45779971Y-37807090D02*
X45818066Y-37730899D01*
X45818066Y-37730899D02*
X45894256Y-37654709D01*
X45894256Y-37654709D02*
X46008542Y-37616614D01*
X46008542Y-37616614D02*
X46084733Y-37616614D01*
X46084733Y-37616614D02*
X46199018Y-37654709D01*
X46199018Y-37654709D02*
X46237114Y-37692804D01*
X46579971Y-38416614D02*
X46579971Y-37616614D01*
X47037114Y-38416614D02*
X46694256Y-37959471D01*
X47037114Y-37616614D02*
X46579971Y-38073757D01*
X45922811Y-11511784D02*
X45656144Y-11130831D01*
X45465668Y-11511784D02*
X45465668Y-10711784D01*
X45465668Y-10711784D02*
X45770430Y-10711784D01*
X45770430Y-10711784D02*
X45846620Y-10749879D01*
X45846620Y-10749879D02*
X45884715Y-10787974D01*
X45884715Y-10787974D02*
X45922811Y-10864165D01*
X45922811Y-10864165D02*
X45922811Y-10978450D01*
X45922811Y-10978450D02*
X45884715Y-11054641D01*
X45884715Y-11054641D02*
X45846620Y-11092736D01*
X45846620Y-11092736D02*
X45770430Y-11130831D01*
X45770430Y-11130831D02*
X45465668Y-11130831D01*
X46418049Y-10711784D02*
X46570430Y-10711784D01*
X46570430Y-10711784D02*
X46646620Y-10749879D01*
X46646620Y-10749879D02*
X46722811Y-10826069D01*
X46722811Y-10826069D02*
X46760906Y-10978450D01*
X46760906Y-10978450D02*
X46760906Y-11245117D01*
X46760906Y-11245117D02*
X46722811Y-11397498D01*
X46722811Y-11397498D02*
X46646620Y-11473689D01*
X46646620Y-11473689D02*
X46570430Y-11511784D01*
X46570430Y-11511784D02*
X46418049Y-11511784D01*
X46418049Y-11511784D02*
X46341858Y-11473689D01*
X46341858Y-11473689D02*
X46265668Y-11397498D01*
X46265668Y-11397498D02*
X46227572Y-11245117D01*
X46227572Y-11245117D02*
X46227572Y-10978450D01*
X46227572Y-10978450D02*
X46265668Y-10826069D01*
X46265668Y-10826069D02*
X46341858Y-10749879D01*
X46341858Y-10749879D02*
X46418049Y-10711784D01*
X47103763Y-10711784D02*
X47103763Y-11359403D01*
X47103763Y-11359403D02*
X47141858Y-11435593D01*
X47141858Y-11435593D02*
X47179953Y-11473689D01*
X47179953Y-11473689D02*
X47256144Y-11511784D01*
X47256144Y-11511784D02*
X47408525Y-11511784D01*
X47408525Y-11511784D02*
X47484715Y-11473689D01*
X47484715Y-11473689D02*
X47522810Y-11435593D01*
X47522810Y-11435593D02*
X47560906Y-11359403D01*
X47560906Y-11359403D02*
X47560906Y-10711784D01*
X47827572Y-10711784D02*
X48284715Y-10711784D01*
X48056143Y-11511784D02*
X48056143Y-10711784D01*
X47794243Y-38647166D02*
X47718053Y-38609071D01*
X47718053Y-38609071D02*
X47603767Y-38609071D01*
X47603767Y-38609071D02*
X47489481Y-38647166D01*
X47489481Y-38647166D02*
X47413291Y-38723356D01*
X47413291Y-38723356D02*
X47375196Y-38799547D01*
X47375196Y-38799547D02*
X47337100Y-38951928D01*
X47337100Y-38951928D02*
X47337100Y-39066214D01*
X47337100Y-39066214D02*
X47375196Y-39218595D01*
X47375196Y-39218595D02*
X47413291Y-39294785D01*
X47413291Y-39294785D02*
X47489481Y-39370976D01*
X47489481Y-39370976D02*
X47603767Y-39409071D01*
X47603767Y-39409071D02*
X47679958Y-39409071D01*
X47679958Y-39409071D02*
X47794243Y-39370976D01*
X47794243Y-39370976D02*
X47832339Y-39332880D01*
X47832339Y-39332880D02*
X47832339Y-39066214D01*
X47832339Y-39066214D02*
X47679958Y-39066214D01*
X48175196Y-39409071D02*
X48175196Y-38609071D01*
X48175196Y-38609071D02*
X48632339Y-39409071D01*
X48632339Y-39409071D02*
X48632339Y-38609071D01*
X49013291Y-39409071D02*
X49013291Y-38609071D01*
X49013291Y-38609071D02*
X49203767Y-38609071D01*
X49203767Y-38609071D02*
X49318053Y-38647166D01*
X49318053Y-38647166D02*
X49394243Y-38723356D01*
X49394243Y-38723356D02*
X49432338Y-38799547D01*
X49432338Y-38799547D02*
X49470434Y-38951928D01*
X49470434Y-38951928D02*
X49470434Y-39066214D01*
X49470434Y-39066214D02*
X49432338Y-39218595D01*
X49432338Y-39218595D02*
X49394243Y-39294785D01*
X49394243Y-39294785D02*
X49318053Y-39370976D01*
X49318053Y-39370976D02*
X49203767Y-39409071D01*
X49203767Y-39409071D02*
X49013291Y-39409071D01*
X47507726Y-6835619D02*
X47126774Y-6835619D01*
X47126774Y-6835619D02*
X47126774Y-6035619D01*
X48231536Y-6835619D02*
X47964869Y-6454666D01*
X47774393Y-6835619D02*
X47774393Y-6035619D01*
X47774393Y-6035619D02*
X48079155Y-6035619D01*
X48079155Y-6035619D02*
X48155345Y-6073714D01*
X48155345Y-6073714D02*
X48193440Y-6111809D01*
X48193440Y-6111809D02*
X48231536Y-6188000D01*
X48231536Y-6188000D02*
X48231536Y-6302285D01*
X48231536Y-6302285D02*
X48193440Y-6378476D01*
X48193440Y-6378476D02*
X48155345Y-6416571D01*
X48155345Y-6416571D02*
X48079155Y-6454666D01*
X48079155Y-6454666D02*
X47774393Y-6454666D01*
X48726774Y-6035619D02*
X48879155Y-6035619D01*
X48879155Y-6035619D02*
X48955345Y-6073714D01*
X48955345Y-6073714D02*
X49031536Y-6149904D01*
X49031536Y-6149904D02*
X49069631Y-6302285D01*
X49069631Y-6302285D02*
X49069631Y-6568952D01*
X49069631Y-6568952D02*
X49031536Y-6721333D01*
X49031536Y-6721333D02*
X48955345Y-6797524D01*
X48955345Y-6797524D02*
X48879155Y-6835619D01*
X48879155Y-6835619D02*
X48726774Y-6835619D01*
X48726774Y-6835619D02*
X48650583Y-6797524D01*
X48650583Y-6797524D02*
X48574393Y-6721333D01*
X48574393Y-6721333D02*
X48536297Y-6568952D01*
X48536297Y-6568952D02*
X48536297Y-6302285D01*
X48536297Y-6302285D02*
X48574393Y-6149904D01*
X48574393Y-6149904D02*
X48650583Y-6073714D01*
X48650583Y-6073714D02*
X48726774Y-6035619D01*
X49412488Y-6035619D02*
X49412488Y-6683238D01*
X49412488Y-6683238D02*
X49450583Y-6759428D01*
X49450583Y-6759428D02*
X49488678Y-6797524D01*
X49488678Y-6797524D02*
X49564869Y-6835619D01*
X49564869Y-6835619D02*
X49717250Y-6835619D01*
X49717250Y-6835619D02*
X49793440Y-6797524D01*
X49793440Y-6797524D02*
X49831535Y-6759428D01*
X49831535Y-6759428D02*
X49869631Y-6683238D01*
X49869631Y-6683238D02*
X49869631Y-6035619D01*
X50136297Y-6035619D02*
X50593440Y-6035619D01*
X50364868Y-6835619D02*
X50364868Y-6035619D01*
X49865660Y-39601528D02*
X50132327Y-40401528D01*
X50132327Y-40401528D02*
X50398993Y-39601528D01*
X50665660Y-40401528D02*
X50665660Y-39601528D01*
X51046612Y-40401528D02*
X51046612Y-39601528D01*
X51046612Y-39601528D02*
X51503755Y-40401528D01*
X51503755Y-40401528D02*
X51503755Y-39601528D01*
X-456379Y-56976191D02*
X543620Y-56976191D01*
X-456379Y-57452381D02*
X543620Y-57452381D01*
X543620Y-57452381D02*
X-456379Y-58023809D01*
X-456379Y-58023809D02*
X543620Y-58023809D01*
X-456379Y-58500000D02*
X543620Y-58500000D01*
X543620Y-58500000D02*
X-170664Y-58833333D01*
X-170664Y-58833333D02*
X543620Y-59166666D01*
X543620Y-59166666D02*
X-456379Y-59166666D01*
X-456379Y-59642857D02*
X543620Y-59642857D01*
X543620Y-59642857D02*
X543620Y-60023809D01*
X543620Y-60023809D02*
X496001Y-60119047D01*
X496001Y-60119047D02*
X448382Y-60166666D01*
X448382Y-60166666D02*
X353144Y-60214285D01*
X353144Y-60214285D02*
X210287Y-60214285D01*
X210287Y-60214285D02*
X115049Y-60166666D01*
X115049Y-60166666D02*
X67430Y-60119047D01*
X67430Y-60119047D02*
X19811Y-60023809D01*
X19811Y-60023809D02*
X19811Y-59642857D01*
X210287Y-61071428D02*
X-456379Y-61071428D01*
X591240Y-60833333D02*
X-123045Y-60595238D01*
X-123045Y-60595238D02*
X-123045Y-61214285D01*
X210287Y-62023809D02*
X-456379Y-62023809D01*
X591240Y-61785714D02*
X-123045Y-61547619D01*
X-123045Y-61547619D02*
X-123045Y-62166666D01*
X-456379Y-63071428D02*
X-456379Y-62500000D01*
X-456379Y-62785714D02*
X543620Y-62785714D01*
X543620Y-62785714D02*
X400763Y-62690476D01*
X400763Y-62690476D02*
X305525Y-62595238D01*
X305525Y-62595238D02*
X257906Y-62500000D01*
X22408079Y22273749D02*
X22122274Y21626100D01*
X22122274Y21626100D02*
X22753693Y21946168D01*
X23397735Y21795002D02*
X23466858Y21729486D01*
X23466858Y21729486D02*
X23503222Y21629408D01*
X23503222Y21629408D02*
X23505026Y21562089D01*
X23505026Y21562089D02*
X23474071Y21460208D01*
X23474071Y21460208D02*
X23377600Y21289205D01*
X23377600Y21289205D02*
X23213810Y21116398D01*
X23213810Y21116398D02*
X23048217Y21010911D01*
X23048217Y21010911D02*
X22948139Y20974546D01*
X22948139Y20974546D02*
X22880820Y20972743D01*
X22880820Y20972743D02*
X22778939Y21003697D01*
X22778939Y21003697D02*
X22709817Y21069213D01*
X22709817Y21069213D02*
X22673452Y21169291D01*
X22673452Y21169291D02*
X22671649Y21236610D01*
X22671649Y21236610D02*
X22702603Y21338491D01*
X22702603Y21338491D02*
X22799074Y21509494D01*
X22799074Y21509494D02*
X22962864Y21682301D01*
X22962864Y21682301D02*
X23128458Y21787788D01*
X23128458Y21787788D02*
X23228535Y21824153D01*
X23228535Y21824153D02*
X23295854Y21825956D01*
X23295854Y21825956D02*
X23397735Y21795002D01*
X23328314Y20614208D02*
X23330118Y20546888D01*
X23330118Y20546888D02*
X23262798Y20545085D01*
X23262798Y20545085D02*
X23260995Y20612405D01*
X23260995Y20612405D02*
X23328314Y20614208D01*
X23328314Y20614208D02*
X23262798Y20545085D01*
X23988586Y19857167D02*
X23573850Y20250263D01*
X23781218Y20053715D02*
X24469136Y20779503D01*
X24469136Y20779503D02*
X24301740Y20741335D01*
X24301740Y20741335D02*
X24167101Y20737729D01*
X24167101Y20737729D02*
X24065220Y20768684D01*
X25125802Y20157101D02*
X25194924Y20091585D01*
X25194924Y20091585D02*
X25231289Y19991508D01*
X25231289Y19991508D02*
X25233092Y19924188D01*
X25233092Y19924188D02*
X25202138Y19822308D01*
X25202138Y19822308D02*
X25105667Y19651304D01*
X25105667Y19651304D02*
X24941877Y19478498D01*
X24941877Y19478498D02*
X24776284Y19373010D01*
X24776284Y19373010D02*
X24676206Y19336646D01*
X24676206Y19336646D02*
X24608887Y19334842D01*
X24608887Y19334842D02*
X24507006Y19365797D01*
X24507006Y19365797D02*
X24437884Y19431313D01*
X24437884Y19431313D02*
X24401519Y19531390D01*
X24401519Y19531390D02*
X24399716Y19598710D01*
X24399716Y19598710D02*
X24430670Y19700590D01*
X24430670Y19700590D02*
X24527141Y19871594D01*
X24527141Y19871594D02*
X24690931Y20044401D01*
X24690931Y20044401D02*
X24856524Y20149888D01*
X24856524Y20149888D02*
X24956602Y20186253D01*
X24956602Y20186253D02*
X25023921Y20188056D01*
X25023921Y20188056D02*
X25125802Y20157101D01*
X27237651Y18024223D02*
X27304970Y18026027D01*
X27304970Y18026027D02*
X27406851Y17995072D01*
X27406851Y17995072D02*
X27579658Y17831282D01*
X27579658Y17831282D02*
X27616022Y17731205D01*
X27616022Y17731205D02*
X27617826Y17663885D01*
X27617826Y17663885D02*
X27586871Y17562004D01*
X27586871Y17562004D02*
X27521355Y17492882D01*
X27521355Y17492882D02*
X27388520Y17421956D01*
X27388520Y17421956D02*
X26580687Y17400316D01*
X26580687Y17400316D02*
X27029985Y16974462D01*
X28167201Y17274396D02*
X28236323Y17208880D01*
X28236323Y17208880D02*
X28272688Y17108802D01*
X28272688Y17108802D02*
X28274491Y17041483D01*
X28274491Y17041483D02*
X28243537Y16939602D01*
X28243537Y16939602D02*
X28147066Y16768599D01*
X28147066Y16768599D02*
X27983276Y16595792D01*
X27983276Y16595792D02*
X27817682Y16490305D01*
X27817682Y16490305D02*
X27717605Y16453940D01*
X27717605Y16453940D02*
X27650286Y16452137D01*
X27650286Y16452137D02*
X27548405Y16483091D01*
X27548405Y16483091D02*
X27479282Y16548607D01*
X27479282Y16548607D02*
X27442918Y16648685D01*
X27442918Y16648685D02*
X27441114Y16716004D01*
X27441114Y16716004D02*
X27472069Y16817885D01*
X27472069Y16817885D02*
X27568540Y16988888D01*
X27568540Y16988888D02*
X27732330Y17161695D01*
X27732330Y17161695D02*
X27897923Y17267182D01*
X27897923Y17267182D02*
X27998000Y17303547D01*
X27998000Y17303547D02*
X28065320Y17305350D01*
X28065320Y17305350D02*
X28167201Y17274396D01*
X28620105Y16713903D02*
X28687424Y16715706D01*
X28687424Y16715706D02*
X28789305Y16684751D01*
X28789305Y16684751D02*
X28962111Y16520961D01*
X28962111Y16520961D02*
X28998476Y16420884D01*
X28998476Y16420884D02*
X29000279Y16353565D01*
X29000279Y16353565D02*
X28969325Y16251684D01*
X28969325Y16251684D02*
X28903809Y16182561D01*
X28903809Y16182561D02*
X28770973Y16111635D01*
X28770973Y16111635D02*
X27963141Y16089995D01*
X27963141Y16089995D02*
X28412439Y15664141D01*
X29722461Y15800285D02*
X29584216Y15931317D01*
X29584216Y15931317D02*
X29482335Y15962272D01*
X29482335Y15962272D02*
X29415016Y15960468D01*
X29415016Y15960468D02*
X29247619Y15922300D01*
X29247619Y15922300D02*
X29082025Y15816813D01*
X29082025Y15816813D02*
X28819961Y15540322D01*
X28819961Y15540322D02*
X28789007Y15438442D01*
X28789007Y15438442D02*
X28790810Y15371122D01*
X28790810Y15371122D02*
X28827175Y15271045D01*
X28827175Y15271045D02*
X28965420Y15140013D01*
X28965420Y15140013D02*
X29067301Y15109058D01*
X29067301Y15109058D02*
X29134620Y15110862D01*
X29134620Y15110862D02*
X29234697Y15147226D01*
X29234697Y15147226D02*
X29398488Y15320033D01*
X29398488Y15320033D02*
X29429442Y15421914D01*
X29429442Y15421914D02*
X29427639Y15489233D01*
X29427639Y15489233D02*
X29391274Y15589310D01*
X29391274Y15589310D02*
X29253029Y15720342D01*
X29253029Y15720342D02*
X29151148Y15751297D01*
X29151148Y15751297D02*
X29083829Y15749494D01*
X29083829Y15749494D02*
X28983751Y15713129D01*
X29676782Y14990649D02*
X30229763Y14466521D01*
X31139476Y14457207D02*
X31208599Y14391691D01*
X31208599Y14391691D02*
X31244963Y14291613D01*
X31244963Y14291613D02*
X31246767Y14224294D01*
X31246767Y14224294D02*
X31215812Y14122413D01*
X31215812Y14122413D02*
X31119341Y13951410D01*
X31119341Y13951410D02*
X30955551Y13778603D01*
X30955551Y13778603D02*
X30789958Y13673116D01*
X30789958Y13673116D02*
X30689880Y13636751D01*
X30689880Y13636751D02*
X30622561Y13634948D01*
X30622561Y13634948D02*
X30520680Y13665903D01*
X30520680Y13665903D02*
X30451558Y13731419D01*
X30451558Y13731419D02*
X30415193Y13831496D01*
X30415193Y13831496D02*
X30413390Y13898815D01*
X30413390Y13898815D02*
X30444344Y14000696D01*
X30444344Y14000696D02*
X30540815Y14171699D01*
X30540815Y14171699D02*
X30704605Y14344506D01*
X30704605Y14344506D02*
X30870198Y14449993D01*
X30870198Y14449993D02*
X30970276Y14486358D01*
X30970276Y14486358D02*
X31037595Y14488161D01*
X31037595Y14488161D02*
X31139476Y14457207D01*
X32003509Y13638256D02*
X31865264Y13769288D01*
X31865264Y13769288D02*
X31763383Y13800243D01*
X31763383Y13800243D02*
X31696064Y13798440D01*
X31696064Y13798440D02*
X31528667Y13760272D01*
X31528667Y13760272D02*
X31363074Y13654784D01*
X31363074Y13654784D02*
X31101010Y13378294D01*
X31101010Y13378294D02*
X31070055Y13276413D01*
X31070055Y13276413D02*
X31071858Y13209094D01*
X31071858Y13209094D02*
X31108223Y13109016D01*
X31108223Y13109016D02*
X31246469Y12977984D01*
X31246469Y12977984D02*
X31348349Y12947030D01*
X31348349Y12947030D02*
X31415669Y12948833D01*
X31415669Y12948833D02*
X31515746Y12985198D01*
X31515746Y12985198D02*
X31679536Y13158004D01*
X31679536Y13158004D02*
X31710491Y13259885D01*
X31710491Y13259885D02*
X31708687Y13327204D01*
X31708687Y13327204D02*
X31672323Y13427282D01*
X31672323Y13427282D02*
X31534077Y13558314D01*
X31534077Y13558314D02*
X31432197Y13589268D01*
X31432197Y13589268D02*
X31364877Y13587465D01*
X31364877Y13587465D02*
X31264800Y13551100D01*
X31957830Y12828621D02*
X32510812Y12304493D01*
X32974535Y11340084D02*
X32559799Y11733180D01*
X32767167Y11536632D02*
X33455086Y12262420D01*
X33455086Y12262420D02*
X33287689Y12224252D01*
X33287689Y12224252D02*
X33153050Y12220645D01*
X33153050Y12220645D02*
X33051170Y12251600D01*
X33873428Y11734685D02*
X33940748Y11736488D01*
X33940748Y11736488D02*
X34042629Y11705534D01*
X34042629Y11705534D02*
X34215435Y11541744D01*
X34215435Y11541744D02*
X34251800Y11441666D01*
X34251800Y11441666D02*
X34253603Y11374347D01*
X34253603Y11374347D02*
X34222649Y11272466D01*
X34222649Y11272466D02*
X34157133Y11203344D01*
X34157133Y11203344D02*
X34024297Y11132418D01*
X34024297Y11132418D02*
X33216465Y11110778D01*
X33216465Y11110778D02*
X33665762Y10684924D01*
X29617125Y24443923D02*
X29296758Y23829032D01*
X29296758Y23829032D02*
X29762583Y24043614D01*
X29762583Y24043614D02*
X29573249Y23566968D01*
X29573249Y23566968D02*
X30170106Y23919795D01*
X30377474Y23723247D02*
X30057107Y23108356D01*
X30057107Y23108356D02*
X30522933Y23322937D01*
X30522933Y23322937D02*
X30333598Y22846292D01*
X30333598Y22846292D02*
X30930456Y23199119D01*
X31137824Y23002571D02*
X30817457Y22387680D01*
X30817457Y22387680D02*
X31283282Y22602261D01*
X31283282Y22602261D02*
X31093948Y22125616D01*
X31093948Y22125616D02*
X31690805Y22478442D01*
X31574200Y21801642D02*
X31576003Y21734323D01*
X31576003Y21734323D02*
X31508684Y21732520D01*
X31508684Y21732520D02*
X31506880Y21799839D01*
X31506880Y21799839D02*
X31574200Y21801642D01*
X31574200Y21801642D02*
X31508684Y21732520D01*
X31854297Y21404940D02*
X32312909Y21888799D01*
X32542215Y22130728D02*
X32474896Y22128925D01*
X32474896Y22128925D02*
X32476699Y22061605D01*
X32476699Y22061605D02*
X32544018Y22063409D01*
X32544018Y22063409D02*
X32542215Y22130728D01*
X32542215Y22130728D02*
X32476699Y22061605D01*
X32303594Y20979086D02*
X32267229Y21079163D01*
X32267229Y21079163D02*
X32265426Y21146483D01*
X32265426Y21146483D02*
X32296381Y21248363D01*
X32296381Y21248363D02*
X32492929Y21455731D01*
X32492929Y21455731D02*
X32593006Y21492096D01*
X32593006Y21492096D02*
X32660325Y21493899D01*
X32660325Y21493899D02*
X32762206Y21462945D01*
X32762206Y21462945D02*
X32865890Y21364671D01*
X32865890Y21364671D02*
X32902255Y21264593D01*
X32902255Y21264593D02*
X32904058Y21197274D01*
X32904058Y21197274D02*
X32873103Y21095393D01*
X32873103Y21095393D02*
X32676555Y20888025D01*
X32676555Y20888025D02*
X32576478Y20851661D01*
X32576478Y20851661D02*
X32509159Y20849857D01*
X32509159Y20849857D02*
X32407278Y20880812D01*
X32407278Y20880812D02*
X32303594Y20979086D01*
X32960259Y20356684D02*
X32923895Y20456761D01*
X32923895Y20456761D02*
X32954849Y20558642D01*
X32954849Y20558642D02*
X33544494Y21180746D01*
X33340435Y19996345D02*
X33304070Y20096423D01*
X33304070Y20096423D02*
X33335025Y20198303D01*
X33335025Y20198303D02*
X33924669Y20820407D01*
X33927978Y19439459D02*
X34288316Y19819633D01*
X34288316Y19819633D02*
X34319270Y19921514D01*
X34319270Y19921514D02*
X34282906Y20021591D01*
X34282906Y20021591D02*
X34144660Y20152624D01*
X34144660Y20152624D02*
X34042780Y20183578D01*
X33960736Y19474020D02*
X33858855Y19504975D01*
X33858855Y19504975D02*
X33686048Y19668765D01*
X33686048Y19668765D02*
X33649684Y19768842D01*
X33649684Y19768842D02*
X33680638Y19870723D01*
X33680638Y19870723D02*
X33746154Y19939845D01*
X33746154Y19939845D02*
X33846232Y19976210D01*
X33846232Y19976210D02*
X33948112Y19945255D01*
X33948112Y19945255D02*
X34120919Y19781465D01*
X34120919Y19781465D02*
X34222800Y19750511D01*
X34273591Y19111878D02*
X34732203Y19595737D01*
X34666687Y19526615D02*
X34734007Y19528418D01*
X34734007Y19528418D02*
X34835887Y19497463D01*
X34835887Y19497463D02*
X34939571Y19399189D01*
X34939571Y19399189D02*
X34975936Y19299112D01*
X34975936Y19299112D02*
X34944981Y19197231D01*
X34944981Y19197231D02*
X34584643Y18817056D01*
X34944981Y19197231D02*
X35045059Y19233596D01*
X35045059Y19233596D02*
X35146939Y19202641D01*
X35146939Y19202641D02*
X35250623Y19104367D01*
X35250623Y19104367D02*
X35286988Y19004290D01*
X35286988Y19004290D02*
X35256033Y18902409D01*
X35256033Y18902409D02*
X34895695Y18522234D01*
X35552361Y17899832D02*
X35912699Y18280007D01*
X35912699Y18280007D02*
X35943653Y18381888D01*
X35943653Y18381888D02*
X35907289Y18481965D01*
X35907289Y18481965D02*
X35769043Y18612997D01*
X35769043Y18612997D02*
X35667163Y18643952D01*
X35585119Y17934394D02*
X35483238Y17965348D01*
X35483238Y17965348D02*
X35310431Y18129138D01*
X35310431Y18129138D02*
X35274067Y18229216D01*
X35274067Y18229216D02*
X35305021Y18331096D01*
X35305021Y18331096D02*
X35370537Y18400219D01*
X35370537Y18400219D02*
X35470615Y18436584D01*
X35470615Y18436584D02*
X35572495Y18405629D01*
X35572495Y18405629D02*
X35745302Y18241839D01*
X35745302Y18241839D02*
X35847183Y18210884D01*
X35963490Y17641375D02*
X35965293Y17574055D01*
X35965293Y17574055D02*
X35897974Y17572252D01*
X35897974Y17572252D02*
X35896171Y17639571D01*
X35896171Y17639571D02*
X35963490Y17641375D01*
X35963490Y17641375D02*
X35897974Y17572252D01*
X36587397Y16984412D02*
X36485517Y17015366D01*
X36485517Y17015366D02*
X36347271Y17146398D01*
X36347271Y17146398D02*
X36310906Y17246476D01*
X36310906Y17246476D02*
X36309103Y17313795D01*
X36309103Y17313795D02*
X36340058Y17415676D01*
X36340058Y17415676D02*
X36536606Y17623044D01*
X36536606Y17623044D02*
X36636683Y17659408D01*
X36636683Y17659408D02*
X36704003Y17661212D01*
X36704003Y17661212D02*
X36805883Y17630257D01*
X36805883Y17630257D02*
X36944129Y17499225D01*
X36944129Y17499225D02*
X36980493Y17399148D01*
X36969375Y16556754D02*
X36933011Y16656831D01*
X36933011Y16656831D02*
X36931207Y16724151D01*
X36931207Y16724151D02*
X36962162Y16826031D01*
X36962162Y16826031D02*
X37158710Y17033399D01*
X37158710Y17033399D02*
X37258788Y17069764D01*
X37258788Y17069764D02*
X37326107Y17071567D01*
X37326107Y17071567D02*
X37427988Y17040613D01*
X37427988Y17040613D02*
X37531672Y16942339D01*
X37531672Y16942339D02*
X37568036Y16842261D01*
X37568036Y16842261D02*
X37569840Y16774942D01*
X37569840Y16774942D02*
X37538885Y16673061D01*
X37538885Y16673061D02*
X37342337Y16465693D01*
X37342337Y16465693D02*
X37242260Y16429329D01*
X37242260Y16429329D02*
X37174940Y16427525D01*
X37174940Y16427525D02*
X37073059Y16458480D01*
X37073059Y16458480D02*
X36969375Y16556754D01*
X37522357Y16032626D02*
X37980969Y16516485D01*
X37915453Y16447362D02*
X37982772Y16449165D01*
X37982772Y16449165D02*
X38084653Y16418210D01*
X38084653Y16418210D02*
X38188337Y16319936D01*
X38188337Y16319936D02*
X38224702Y16219859D01*
X38224702Y16219859D02*
X38193747Y16117978D01*
X38193747Y16117978D02*
X37833409Y15737804D01*
X38193747Y16117978D02*
X38293825Y16154343D01*
X38293825Y16154343D02*
X38395705Y16123388D01*
X38395705Y16123388D02*
X38499389Y16025114D01*
X38499389Y16025114D02*
X38535754Y15925037D01*
X38535754Y15925037D02*
X38504799Y15823156D01*
X38504799Y15823156D02*
X38144461Y15442982D01*
X-62785475Y12608620D02*
X-62166428Y12608620D01*
X-62166428Y12608620D02*
X-62499761Y12227668D01*
X-62499761Y12227668D02*
X-62356904Y12227668D01*
X-62356904Y12227668D02*
X-62261666Y12180049D01*
X-62261666Y12180049D02*
X-62214047Y12132430D01*
X-62214047Y12132430D02*
X-62166428Y12037192D01*
X-62166428Y12037192D02*
X-62166428Y11799097D01*
X-62166428Y11799097D02*
X-62214047Y11703859D01*
X-62214047Y11703859D02*
X-62261666Y11656240D01*
X-62261666Y11656240D02*
X-62356904Y11608620D01*
X-62356904Y11608620D02*
X-62642618Y11608620D01*
X-62642618Y11608620D02*
X-62737856Y11656240D01*
X-62737856Y11656240D02*
X-62785475Y11703859D01*
X-61833094Y12275287D02*
X-61594999Y11608620D01*
X-61594999Y11608620D02*
X-61356904Y12275287D01*
X-61071189Y12608620D02*
X-60452142Y12608620D01*
X-60452142Y12608620D02*
X-60785475Y12227668D01*
X-60785475Y12227668D02*
X-60642618Y12227668D01*
X-60642618Y12227668D02*
X-60547380Y12180049D01*
X-60547380Y12180049D02*
X-60499761Y12132430D01*
X-60499761Y12132430D02*
X-60452142Y12037192D01*
X-60452142Y12037192D02*
X-60452142Y11799097D01*
X-60452142Y11799097D02*
X-60499761Y11703859D01*
X-60499761Y11703859D02*
X-60547380Y11656240D01*
X-60547380Y11656240D02*
X-60642618Y11608620D01*
X-60642618Y11608620D02*
X-60928332Y11608620D01*
X-60928332Y11608620D02*
X-61023570Y11656240D01*
X-61023570Y11656240D02*
X-61071189Y11703859D01*
X-35666666Y-42456379D02*
X-35666666Y-43265902D01*
X-35666666Y-43265902D02*
X-35619047Y-43361140D01*
X-35619047Y-43361140D02*
X-35571428Y-43408760D01*
X-35571428Y-43408760D02*
X-35476190Y-43456379D01*
X-35476190Y-43456379D02*
X-35285714Y-43456379D01*
X-35285714Y-43456379D02*
X-35190476Y-43408760D01*
X-35190476Y-43408760D02*
X-35142857Y-43361140D01*
X-35142857Y-43361140D02*
X-35095238Y-43265902D01*
X-35095238Y-43265902D02*
X-35095238Y-42456379D01*
X-34666666Y-43408760D02*
X-34523809Y-43456379D01*
X-34523809Y-43456379D02*
X-34285714Y-43456379D01*
X-34285714Y-43456379D02*
X-34190476Y-43408760D01*
X-34190476Y-43408760D02*
X-34142857Y-43361140D01*
X-34142857Y-43361140D02*
X-34095238Y-43265902D01*
X-34095238Y-43265902D02*
X-34095238Y-43170664D01*
X-34095238Y-43170664D02*
X-34142857Y-43075426D01*
X-34142857Y-43075426D02*
X-34190476Y-43027807D01*
X-34190476Y-43027807D02*
X-34285714Y-42980188D01*
X-34285714Y-42980188D02*
X-34476190Y-42932569D01*
X-34476190Y-42932569D02*
X-34571428Y-42884950D01*
X-34571428Y-42884950D02*
X-34619047Y-42837331D01*
X-34619047Y-42837331D02*
X-34666666Y-42742093D01*
X-34666666Y-42742093D02*
X-34666666Y-42646855D01*
X-34666666Y-42646855D02*
X-34619047Y-42551617D01*
X-34619047Y-42551617D02*
X-34571428Y-42503998D01*
X-34571428Y-42503998D02*
X-34476190Y-42456379D01*
X-34476190Y-42456379D02*
X-34238095Y-42456379D01*
X-34238095Y-42456379D02*
X-34095238Y-42503998D01*
X-33333333Y-42932569D02*
X-33190476Y-42980188D01*
X-33190476Y-42980188D02*
X-33142857Y-43027807D01*
X-33142857Y-43027807D02*
X-33095238Y-43123045D01*
X-33095238Y-43123045D02*
X-33095238Y-43265902D01*
X-33095238Y-43265902D02*
X-33142857Y-43361140D01*
X-33142857Y-43361140D02*
X-33190476Y-43408760D01*
X-33190476Y-43408760D02*
X-33285714Y-43456379D01*
X-33285714Y-43456379D02*
X-33666666Y-43456379D01*
X-33666666Y-43456379D02*
X-33666666Y-42456379D01*
X-33666666Y-42456379D02*
X-33333333Y-42456379D01*
X-33333333Y-42456379D02*
X-33238095Y-42503998D01*
X-33238095Y-42503998D02*
X-33190476Y-42551617D01*
X-33190476Y-42551617D02*
X-33142857Y-42646855D01*
X-33142857Y-42646855D02*
X-33142857Y-42742093D01*
X-33142857Y-42742093D02*
X-33190476Y-42837331D01*
X-33190476Y-42837331D02*
X-33238095Y-42884950D01*
X-33238095Y-42884950D02*
X-33333333Y-42932569D01*
X-33333333Y-42932569D02*
X-33666666Y-42932569D01*
X-32666666Y-43075426D02*
X-31904762Y-43075426D01*
X-30857143Y-43361140D02*
X-30904762Y-43408760D01*
X-30904762Y-43408760D02*
X-31047619Y-43456379D01*
X-31047619Y-43456379D02*
X-31142857Y-43456379D01*
X-31142857Y-43456379D02*
X-31285714Y-43408760D01*
X-31285714Y-43408760D02*
X-31380952Y-43313521D01*
X-31380952Y-43313521D02*
X-31428571Y-43218283D01*
X-31428571Y-43218283D02*
X-31476190Y-43027807D01*
X-31476190Y-43027807D02*
X-31476190Y-42884950D01*
X-31476190Y-42884950D02*
X-31428571Y-42694474D01*
X-31428571Y-42694474D02*
X-31380952Y-42599236D01*
X-31380952Y-42599236D02*
X-31285714Y-42503998D01*
X-31285714Y-42503998D02*
X-31142857Y-42456379D01*
X-31142857Y-42456379D02*
X-31047619Y-42456379D01*
X-31047619Y-42456379D02*
X-30904762Y-42503998D01*
X-30904762Y-42503998D02*
X-30857143Y-42551617D01*
X-29190476Y-42456379D02*
X-29666666Y-42456379D01*
X-29666666Y-42456379D02*
X-29714285Y-42932569D01*
X-29714285Y-42932569D02*
X-29666666Y-42884950D01*
X-29666666Y-42884950D02*
X-29571428Y-42837331D01*
X-29571428Y-42837331D02*
X-29333333Y-42837331D01*
X-29333333Y-42837331D02*
X-29238095Y-42884950D01*
X-29238095Y-42884950D02*
X-29190476Y-42932569D01*
X-29190476Y-42932569D02*
X-29142857Y-43027807D01*
X-29142857Y-43027807D02*
X-29142857Y-43265902D01*
X-29142857Y-43265902D02*
X-29190476Y-43361140D01*
X-29190476Y-43361140D02*
X-29238095Y-43408760D01*
X-29238095Y-43408760D02*
X-29333333Y-43456379D01*
X-29333333Y-43456379D02*
X-29571428Y-43456379D01*
X-29571428Y-43456379D02*
X-29666666Y-43408760D01*
X-29666666Y-43408760D02*
X-29714285Y-43361140D01*
X-28857142Y-42456379D02*
X-28523809Y-43456379D01*
X-28523809Y-43456379D02*
X-28190476Y-42456379D01*
X-26590475Y57058620D02*
X-25971428Y57058620D01*
X-25971428Y57058620D02*
X-26304761Y56677668D01*
X-26304761Y56677668D02*
X-26161904Y56677668D01*
X-26161904Y56677668D02*
X-26066666Y56630049D01*
X-26066666Y56630049D02*
X-26019047Y56582430D01*
X-26019047Y56582430D02*
X-25971428Y56487192D01*
X-25971428Y56487192D02*
X-25971428Y56249097D01*
X-25971428Y56249097D02*
X-26019047Y56153859D01*
X-26019047Y56153859D02*
X-26066666Y56106240D01*
X-26066666Y56106240D02*
X-26161904Y56058620D01*
X-26161904Y56058620D02*
X-26447618Y56058620D01*
X-26447618Y56058620D02*
X-26542856Y56106240D01*
X-26542856Y56106240D02*
X-26590475Y56153859D01*
X-25638094Y56725287D02*
X-25399999Y56058620D01*
X-25399999Y56058620D02*
X-25161904Y56725287D01*
X-24876189Y57058620D02*
X-24257142Y57058620D01*
X-24257142Y57058620D02*
X-24590475Y56677668D01*
X-24590475Y56677668D02*
X-24447618Y56677668D01*
X-24447618Y56677668D02*
X-24352380Y56630049D01*
X-24352380Y56630049D02*
X-24304761Y56582430D01*
X-24304761Y56582430D02*
X-24257142Y56487192D01*
X-24257142Y56487192D02*
X-24257142Y56249097D01*
X-24257142Y56249097D02*
X-24304761Y56153859D01*
X-24304761Y56153859D02*
X-24352380Y56106240D01*
X-24352380Y56106240D02*
X-24447618Y56058620D01*
X-24447618Y56058620D02*
X-24733332Y56058620D01*
X-24733332Y56058620D02*
X-24828570Y56106240D01*
X-24828570Y56106240D02*
X-24876189Y56153859D01*
X11738095Y-49916379D02*
X11738095Y-48916379D01*
X11738095Y-48916379D02*
X12119047Y-48916379D01*
X12119047Y-48916379D02*
X12214285Y-48963998D01*
X12214285Y-48963998D02*
X12261904Y-49011617D01*
X12261904Y-49011617D02*
X12309523Y-49106855D01*
X12309523Y-49106855D02*
X12309523Y-49249712D01*
X12309523Y-49249712D02*
X12261904Y-49344950D01*
X12261904Y-49344950D02*
X12214285Y-49392569D01*
X12214285Y-49392569D02*
X12119047Y-49440188D01*
X12119047Y-49440188D02*
X11738095Y-49440188D01*
X12928571Y-48916379D02*
X13119047Y-48916379D01*
X13119047Y-48916379D02*
X13214285Y-48963998D01*
X13214285Y-48963998D02*
X13309523Y-49059236D01*
X13309523Y-49059236D02*
X13357142Y-49249712D01*
X13357142Y-49249712D02*
X13357142Y-49583045D01*
X13357142Y-49583045D02*
X13309523Y-49773521D01*
X13309523Y-49773521D02*
X13214285Y-49868760D01*
X13214285Y-49868760D02*
X13119047Y-49916379D01*
X13119047Y-49916379D02*
X12928571Y-49916379D01*
X12928571Y-49916379D02*
X12833333Y-49868760D01*
X12833333Y-49868760D02*
X12738095Y-49773521D01*
X12738095Y-49773521D02*
X12690476Y-49583045D01*
X12690476Y-49583045D02*
X12690476Y-49249712D01*
X12690476Y-49249712D02*
X12738095Y-49059236D01*
X12738095Y-49059236D02*
X12833333Y-48963998D01*
X12833333Y-48963998D02*
X12928571Y-48916379D01*
X13690476Y-48916379D02*
X13928571Y-49916379D01*
X13928571Y-49916379D02*
X14119047Y-49202093D01*
X14119047Y-49202093D02*
X14309523Y-49916379D01*
X14309523Y-49916379D02*
X14547619Y-48916379D01*
X14928571Y-49392569D02*
X15261904Y-49392569D01*
X15404761Y-49916379D02*
X14928571Y-49916379D01*
X14928571Y-49916379D02*
X14928571Y-48916379D01*
X14928571Y-48916379D02*
X15404761Y-48916379D01*
X16404761Y-49916379D02*
X16071428Y-49440188D01*
X15833333Y-49916379D02*
X15833333Y-48916379D01*
X15833333Y-48916379D02*
X16214285Y-48916379D01*
X16214285Y-48916379D02*
X16309523Y-48963998D01*
X16309523Y-48963998D02*
X16357142Y-49011617D01*
X16357142Y-49011617D02*
X16404761Y-49106855D01*
X16404761Y-49106855D02*
X16404761Y-49249712D01*
X16404761Y-49249712D02*
X16357142Y-49344950D01*
X16357142Y-49344950D02*
X16309523Y-49392569D01*
X16309523Y-49392569D02*
X16214285Y-49440188D01*
X16214285Y-49440188D02*
X15833333Y-49440188D01*
X18166666Y-49916379D02*
X17833333Y-49440188D01*
X17595238Y-49916379D02*
X17595238Y-48916379D01*
X17595238Y-48916379D02*
X17976190Y-48916379D01*
X17976190Y-48916379D02*
X18071428Y-48963998D01*
X18071428Y-48963998D02*
X18119047Y-49011617D01*
X18119047Y-49011617D02*
X18166666Y-49106855D01*
X18166666Y-49106855D02*
X18166666Y-49249712D01*
X18166666Y-49249712D02*
X18119047Y-49344950D01*
X18119047Y-49344950D02*
X18071428Y-49392569D01*
X18071428Y-49392569D02*
X17976190Y-49440188D01*
X17976190Y-49440188D02*
X17595238Y-49440188D01*
X18547619Y-49630664D02*
X19023809Y-49630664D01*
X18452381Y-49916379D02*
X18785714Y-48916379D01*
X18785714Y-48916379D02*
X19119047Y-49916379D01*
X19452381Y-49916379D02*
X19452381Y-48916379D01*
X20404761Y-49916379D02*
X19928571Y-49916379D01*
X19928571Y-49916379D02*
X19928571Y-48916379D01*
X25952381Y41543620D02*
X25952381Y42543620D01*
X25952381Y42543620D02*
X26285714Y41829335D01*
X26285714Y41829335D02*
X26619047Y42543620D01*
X26619047Y42543620D02*
X26619047Y41543620D01*
X27047619Y41829335D02*
X27523809Y41829335D01*
X26952381Y41543620D02*
X27285714Y42543620D01*
X27285714Y42543620D02*
X27619047Y41543620D01*
X27857143Y42543620D02*
X28523809Y41543620D01*
X28523809Y42543620D02*
X27857143Y41543620D01*
X28952381Y41543620D02*
X29142857Y41543620D01*
X29142857Y41543620D02*
X29238095Y41591240D01*
X29238095Y41591240D02*
X29285714Y41638859D01*
X29285714Y41638859D02*
X29380952Y41781716D01*
X29380952Y41781716D02*
X29428571Y41972192D01*
X29428571Y41972192D02*
X29428571Y42353144D01*
X29428571Y42353144D02*
X29380952Y42448382D01*
X29380952Y42448382D02*
X29333333Y42496001D01*
X29333333Y42496001D02*
X29238095Y42543620D01*
X29238095Y42543620D02*
X29047619Y42543620D01*
X29047619Y42543620D02*
X28952381Y42496001D01*
X28952381Y42496001D02*
X28904762Y42448382D01*
X28904762Y42448382D02*
X28857143Y42353144D01*
X28857143Y42353144D02*
X28857143Y42115049D01*
X28857143Y42115049D02*
X28904762Y42019811D01*
X28904762Y42019811D02*
X28952381Y41972192D01*
X28952381Y41972192D02*
X29047619Y41924573D01*
X29047619Y41924573D02*
X29238095Y41924573D01*
X29238095Y41924573D02*
X29333333Y41972192D01*
X29333333Y41972192D02*
X29380952Y42019811D01*
X29380952Y42019811D02*
X29428571Y42115049D01*
X30000000Y42115049D02*
X29904762Y42162668D01*
X29904762Y42162668D02*
X29857143Y42210287D01*
X29857143Y42210287D02*
X29809524Y42305525D01*
X29809524Y42305525D02*
X29809524Y42353144D01*
X29809524Y42353144D02*
X29857143Y42448382D01*
X29857143Y42448382D02*
X29904762Y42496001D01*
X29904762Y42496001D02*
X30000000Y42543620D01*
X30000000Y42543620D02*
X30190476Y42543620D01*
X30190476Y42543620D02*
X30285714Y42496001D01*
X30285714Y42496001D02*
X30333333Y42448382D01*
X30333333Y42448382D02*
X30380952Y42353144D01*
X30380952Y42353144D02*
X30380952Y42305525D01*
X30380952Y42305525D02*
X30333333Y42210287D01*
X30333333Y42210287D02*
X30285714Y42162668D01*
X30285714Y42162668D02*
X30190476Y42115049D01*
X30190476Y42115049D02*
X30000000Y42115049D01*
X30000000Y42115049D02*
X29904762Y42067430D01*
X29904762Y42067430D02*
X29857143Y42019811D01*
X29857143Y42019811D02*
X29809524Y41924573D01*
X29809524Y41924573D02*
X29809524Y41734097D01*
X29809524Y41734097D02*
X29857143Y41638859D01*
X29857143Y41638859D02*
X29904762Y41591240D01*
X29904762Y41591240D02*
X30000000Y41543620D01*
X30000000Y41543620D02*
X30190476Y41543620D01*
X30190476Y41543620D02*
X30285714Y41591240D01*
X30285714Y41591240D02*
X30333333Y41638859D01*
X30333333Y41638859D02*
X30380952Y41734097D01*
X30380952Y41734097D02*
X30380952Y41924573D01*
X30380952Y41924573D02*
X30333333Y42019811D01*
X30333333Y42019811D02*
X30285714Y42067430D01*
X30285714Y42067430D02*
X30190476Y42115049D01*
X30714286Y42543620D02*
X31333333Y42543620D01*
X31333333Y42543620D02*
X31000000Y42162668D01*
X31000000Y42162668D02*
X31142857Y42162668D01*
X31142857Y42162668D02*
X31238095Y42115049D01*
X31238095Y42115049D02*
X31285714Y42067430D01*
X31285714Y42067430D02*
X31333333Y41972192D01*
X31333333Y41972192D02*
X31333333Y41734097D01*
X31333333Y41734097D02*
X31285714Y41638859D01*
X31285714Y41638859D02*
X31238095Y41591240D01*
X31238095Y41591240D02*
X31142857Y41543620D01*
X31142857Y41543620D02*
X30857143Y41543620D01*
X30857143Y41543620D02*
X30761905Y41591240D01*
X30761905Y41591240D02*
X30714286Y41638859D01*
X32238095Y42543620D02*
X31761905Y42543620D01*
X31761905Y42543620D02*
X31714286Y42067430D01*
X31714286Y42067430D02*
X31761905Y42115049D01*
X31761905Y42115049D02*
X31857143Y42162668D01*
X31857143Y42162668D02*
X32095238Y42162668D01*
X32095238Y42162668D02*
X32190476Y42115049D01*
X32190476Y42115049D02*
X32238095Y42067430D01*
X32238095Y42067430D02*
X32285714Y41972192D01*
X32285714Y41972192D02*
X32285714Y41734097D01*
X32285714Y41734097D02*
X32238095Y41638859D01*
X32238095Y41638859D02*
X32190476Y41591240D01*
X32190476Y41591240D02*
X32095238Y41543620D01*
X32095238Y41543620D02*
X31857143Y41543620D01*
X31857143Y41543620D02*
X31761905Y41591240D01*
X31761905Y41591240D02*
X31714286Y41638859D01*
X32619048Y42543620D02*
X33285714Y42543620D01*
X33285714Y42543620D02*
X32857143Y41543620D01*
X33619048Y41829335D02*
X34095238Y41829335D01*
X33523810Y41543620D02*
X33857143Y42543620D01*
X33857143Y42543620D02*
X34190476Y41543620D01*
X47833333Y-22456379D02*
X47833333Y-21456379D01*
X47833333Y-21456379D02*
X48214285Y-21456379D01*
X48214285Y-21456379D02*
X48309523Y-21503998D01*
X48309523Y-21503998D02*
X48357142Y-21551617D01*
X48357142Y-21551617D02*
X48404761Y-21646855D01*
X48404761Y-21646855D02*
X48404761Y-21789712D01*
X48404761Y-21789712D02*
X48357142Y-21884950D01*
X48357142Y-21884950D02*
X48309523Y-21932569D01*
X48309523Y-21932569D02*
X48214285Y-21980188D01*
X48214285Y-21980188D02*
X47833333Y-21980188D01*
X49404761Y-22361140D02*
X49357142Y-22408760D01*
X49357142Y-22408760D02*
X49214285Y-22456379D01*
X49214285Y-22456379D02*
X49119047Y-22456379D01*
X49119047Y-22456379D02*
X48976190Y-22408760D01*
X48976190Y-22408760D02*
X48880952Y-22313521D01*
X48880952Y-22313521D02*
X48833333Y-22218283D01*
X48833333Y-22218283D02*
X48785714Y-22027807D01*
X48785714Y-22027807D02*
X48785714Y-21884950D01*
X48785714Y-21884950D02*
X48833333Y-21694474D01*
X48833333Y-21694474D02*
X48880952Y-21599236D01*
X48880952Y-21599236D02*
X48976190Y-21503998D01*
X48976190Y-21503998D02*
X49119047Y-21456379D01*
X49119047Y-21456379D02*
X49214285Y-21456379D01*
X49214285Y-21456379D02*
X49357142Y-21503998D01*
X49357142Y-21503998D02*
X49404761Y-21551617D01*
X49833333Y-22456379D02*
X49833333Y-21456379D01*
X49833333Y-21456379D02*
X50166666Y-22170664D01*
X50166666Y-22170664D02*
X50499999Y-21456379D01*
X50499999Y-21456379D02*
X50499999Y-22456379D01*
X51452380Y-21456379D02*
X50976190Y-21456379D01*
X50976190Y-21456379D02*
X50928571Y-21932569D01*
X50928571Y-21932569D02*
X50976190Y-21884950D01*
X50976190Y-21884950D02*
X51071428Y-21837331D01*
X51071428Y-21837331D02*
X51309523Y-21837331D01*
X51309523Y-21837331D02*
X51404761Y-21884950D01*
X51404761Y-21884950D02*
X51452380Y-21932569D01*
X51452380Y-21932569D02*
X51499999Y-22027807D01*
X51499999Y-22027807D02*
X51499999Y-22265902D01*
X51499999Y-22265902D02*
X51452380Y-22361140D01*
X51452380Y-22361140D02*
X51404761Y-22408760D01*
X51404761Y-22408760D02*
X51309523Y-22456379D01*
X51309523Y-22456379D02*
X51071428Y-22456379D01*
X51071428Y-22456379D02*
X50976190Y-22408760D01*
X50976190Y-22408760D02*
X50928571Y-22361140D01*
X52452380Y-22456379D02*
X51880952Y-22456379D01*
X52166666Y-22456379D02*
X52166666Y-21456379D01*
X52166666Y-21456379D02*
X52071428Y-21599236D01*
X52071428Y-21599236D02*
X51976190Y-21694474D01*
X51976190Y-21694474D02*
X51880952Y-21742093D01*
X53071428Y-21456379D02*
X53166666Y-21456379D01*
X53166666Y-21456379D02*
X53261904Y-21503998D01*
X53261904Y-21503998D02*
X53309523Y-21551617D01*
X53309523Y-21551617D02*
X53357142Y-21646855D01*
X53357142Y-21646855D02*
X53404761Y-21837331D01*
X53404761Y-21837331D02*
X53404761Y-22075426D01*
X53404761Y-22075426D02*
X53357142Y-22265902D01*
X53357142Y-22265902D02*
X53309523Y-22361140D01*
X53309523Y-22361140D02*
X53261904Y-22408760D01*
X53261904Y-22408760D02*
X53166666Y-22456379D01*
X53166666Y-22456379D02*
X53071428Y-22456379D01*
X53071428Y-22456379D02*
X52976190Y-22408760D01*
X52976190Y-22408760D02*
X52928571Y-22361140D01*
X52928571Y-22361140D02*
X52880952Y-22265902D01*
X52880952Y-22265902D02*
X52833333Y-22075426D01*
X52833333Y-22075426D02*
X52833333Y-21837331D01*
X52833333Y-21837331D02*
X52880952Y-21646855D01*
X52880952Y-21646855D02*
X52928571Y-21551617D01*
X52928571Y-21551617D02*
X52976190Y-21503998D01*
X52976190Y-21503998D02*
X53071428Y-21456379D01*
X53785714Y-21551617D02*
X53833333Y-21503998D01*
X53833333Y-21503998D02*
X53928571Y-21456379D01*
X53928571Y-21456379D02*
X54166666Y-21456379D01*
X54166666Y-21456379D02*
X54261904Y-21503998D01*
X54261904Y-21503998D02*
X54309523Y-21551617D01*
X54309523Y-21551617D02*
X54357142Y-21646855D01*
X54357142Y-21646855D02*
X54357142Y-21742093D01*
X54357142Y-21742093D02*
X54309523Y-21884950D01*
X54309523Y-21884950D02*
X53738095Y-22456379D01*
X53738095Y-22456379D02*
X54357142Y-22456379D01*
X54738095Y-22170664D02*
X55214285Y-22170664D01*
X54642857Y-22456379D02*
X54976190Y-21456379D01*
X54976190Y-21456379D02*
X55309523Y-22456379D01*
X58499524Y-18506379D02*
X59118571Y-18506379D01*
X59118571Y-18506379D02*
X58785238Y-18887331D01*
X58785238Y-18887331D02*
X58928095Y-18887331D01*
X58928095Y-18887331D02*
X59023333Y-18934950D01*
X59023333Y-18934950D02*
X59070952Y-18982569D01*
X59070952Y-18982569D02*
X59118571Y-19077807D01*
X59118571Y-19077807D02*
X59118571Y-19315902D01*
X59118571Y-19315902D02*
X59070952Y-19411140D01*
X59070952Y-19411140D02*
X59023333Y-19458760D01*
X59023333Y-19458760D02*
X58928095Y-19506379D01*
X58928095Y-19506379D02*
X58642381Y-19506379D01*
X58642381Y-19506379D02*
X58547143Y-19458760D01*
X58547143Y-19458760D02*
X58499524Y-19411140D01*
X59451905Y-18839712D02*
X59690000Y-19506379D01*
X59690000Y-19506379D02*
X59928095Y-18839712D01*
X60213810Y-18506379D02*
X60832857Y-18506379D01*
X60832857Y-18506379D02*
X60499524Y-18887331D01*
X60499524Y-18887331D02*
X60642381Y-18887331D01*
X60642381Y-18887331D02*
X60737619Y-18934950D01*
X60737619Y-18934950D02*
X60785238Y-18982569D01*
X60785238Y-18982569D02*
X60832857Y-19077807D01*
X60832857Y-19077807D02*
X60832857Y-19315902D01*
X60832857Y-19315902D02*
X60785238Y-19411140D01*
X60785238Y-19411140D02*
X60737619Y-19458760D01*
X60737619Y-19458760D02*
X60642381Y-19506379D01*
X60642381Y-19506379D02*
X60356667Y-19506379D01*
X60356667Y-19506379D02*
X60261429Y-19458760D01*
X60261429Y-19458760D02*
X60213810Y-19411140D01*
X-48457141Y4079668D02*
X-48057141Y4079668D01*
X-47885713Y3451097D02*
X-48457141Y3451097D01*
X-48457141Y3451097D02*
X-48457141Y4651097D01*
X-48457141Y4651097D02*
X-47885713Y4651097D01*
X-47428570Y3508240D02*
X-47257142Y3451097D01*
X-47257142Y3451097D02*
X-46971427Y3451097D01*
X-46971427Y3451097D02*
X-46857142Y3508240D01*
X-46857142Y3508240D02*
X-46799999Y3565382D01*
X-46799999Y3565382D02*
X-46742856Y3679668D01*
X-46742856Y3679668D02*
X-46742856Y3793954D01*
X-46742856Y3793954D02*
X-46799999Y3908240D01*
X-46799999Y3908240D02*
X-46857142Y3965382D01*
X-46857142Y3965382D02*
X-46971427Y4022525D01*
X-46971427Y4022525D02*
X-47199999Y4079668D01*
X-47199999Y4079668D02*
X-47314284Y4136811D01*
X-47314284Y4136811D02*
X-47371427Y4193954D01*
X-47371427Y4193954D02*
X-47428570Y4308240D01*
X-47428570Y4308240D02*
X-47428570Y4422525D01*
X-47428570Y4422525D02*
X-47371427Y4536811D01*
X-47371427Y4536811D02*
X-47314284Y4593954D01*
X-47314284Y4593954D02*
X-47199999Y4651097D01*
X-47199999Y4651097D02*
X-46914284Y4651097D01*
X-46914284Y4651097D02*
X-46742856Y4593954D01*
X-46228570Y3451097D02*
X-46228570Y4651097D01*
X-46228570Y4651097D02*
X-45771427Y4651097D01*
X-45771427Y4651097D02*
X-45657142Y4593954D01*
X-45657142Y4593954D02*
X-45599999Y4536811D01*
X-45599999Y4536811D02*
X-45542856Y4422525D01*
X-45542856Y4422525D02*
X-45542856Y4251097D01*
X-45542856Y4251097D02*
X-45599999Y4136811D01*
X-45599999Y4136811D02*
X-45657142Y4079668D01*
X-45657142Y4079668D02*
X-45771427Y4022525D01*
X-45771427Y4022525D02*
X-46228570Y4022525D01*
X-45142856Y4651097D02*
X-44399999Y4651097D01*
X-44399999Y4651097D02*
X-44799999Y4193954D01*
X-44799999Y4193954D02*
X-44628570Y4193954D01*
X-44628570Y4193954D02*
X-44514285Y4136811D01*
X-44514285Y4136811D02*
X-44457142Y4079668D01*
X-44457142Y4079668D02*
X-44399999Y3965382D01*
X-44399999Y3965382D02*
X-44399999Y3679668D01*
X-44399999Y3679668D02*
X-44457142Y3565382D01*
X-44457142Y3565382D02*
X-44514285Y3508240D01*
X-44514285Y3508240D02*
X-44628570Y3451097D01*
X-44628570Y3451097D02*
X-44971427Y3451097D01*
X-44971427Y3451097D02*
X-45085713Y3508240D01*
X-45085713Y3508240D02*
X-45142856Y3565382D01*
X-43942856Y4536811D02*
X-43885713Y4593954D01*
X-43885713Y4593954D02*
X-43771428Y4651097D01*
X-43771428Y4651097D02*
X-43485713Y4651097D01*
X-43485713Y4651097D02*
X-43371428Y4593954D01*
X-43371428Y4593954D02*
X-43314285Y4536811D01*
X-43314285Y4536811D02*
X-43257142Y4422525D01*
X-43257142Y4422525D02*
X-43257142Y4308240D01*
X-43257142Y4308240D02*
X-43314285Y4136811D01*
X-43314285Y4136811D02*
X-43999999Y3451097D01*
X-43999999Y3451097D02*
X-43257142Y3451097D01*
X-42742856Y3908240D02*
X-41828571Y3908240D01*
X-41314285Y3508240D02*
X-41142857Y3451097D01*
X-41142857Y3451097D02*
X-40857142Y3451097D01*
X-40857142Y3451097D02*
X-40742857Y3508240D01*
X-40742857Y3508240D02*
X-40685714Y3565382D01*
X-40685714Y3565382D02*
X-40628571Y3679668D01*
X-40628571Y3679668D02*
X-40628571Y3793954D01*
X-40628571Y3793954D02*
X-40685714Y3908240D01*
X-40685714Y3908240D02*
X-40742857Y3965382D01*
X-40742857Y3965382D02*
X-40857142Y4022525D01*
X-40857142Y4022525D02*
X-41085714Y4079668D01*
X-41085714Y4079668D02*
X-41199999Y4136811D01*
X-41199999Y4136811D02*
X-41257142Y4193954D01*
X-41257142Y4193954D02*
X-41314285Y4308240D01*
X-41314285Y4308240D02*
X-41314285Y4422525D01*
X-41314285Y4422525D02*
X-41257142Y4536811D01*
X-41257142Y4536811D02*
X-41199999Y4593954D01*
X-41199999Y4593954D02*
X-41085714Y4651097D01*
X-41085714Y4651097D02*
X-40799999Y4651097D01*
X-40799999Y4651097D02*
X-40628571Y4593954D01*
X-40228571Y4651097D02*
X-39485714Y4651097D01*
X-39485714Y4651097D02*
X-39885714Y4193954D01*
X-39885714Y4193954D02*
X-39714285Y4193954D01*
X-39714285Y4193954D02*
X-39600000Y4136811D01*
X-39600000Y4136811D02*
X-39542857Y4079668D01*
X-39542857Y4079668D02*
X-39485714Y3965382D01*
X-39485714Y3965382D02*
X-39485714Y3679668D01*
X-39485714Y3679668D02*
X-39542857Y3565382D01*
X-39542857Y3565382D02*
X-39600000Y3508240D01*
X-39600000Y3508240D02*
X-39714285Y3451097D01*
X-39714285Y3451097D02*
X-40057142Y3451097D01*
X-40057142Y3451097D02*
X-40171428Y3508240D01*
X-40171428Y3508240D02*
X-40228571Y3565382D01*
X-2514285Y42593954D02*
X-2628571Y42651097D01*
X-2628571Y42651097D02*
X-2799999Y42651097D01*
X-2799999Y42651097D02*
X-2971428Y42593954D01*
X-2971428Y42593954D02*
X-3085713Y42479668D01*
X-3085713Y42479668D02*
X-3142856Y42365382D01*
X-3142856Y42365382D02*
X-3199999Y42136811D01*
X-3199999Y42136811D02*
X-3199999Y41965382D01*
X-3199999Y41965382D02*
X-3142856Y41736811D01*
X-3142856Y41736811D02*
X-3085713Y41622525D01*
X-3085713Y41622525D02*
X-2971428Y41508240D01*
X-2971428Y41508240D02*
X-2799999Y41451097D01*
X-2799999Y41451097D02*
X-2685713Y41451097D01*
X-2685713Y41451097D02*
X-2514285Y41508240D01*
X-2514285Y41508240D02*
X-2457142Y41565382D01*
X-2457142Y41565382D02*
X-2457142Y41965382D01*
X-2457142Y41965382D02*
X-2685713Y41965382D01*
X-1257142Y41565382D02*
X-1314285Y41508240D01*
X-1314285Y41508240D02*
X-1485713Y41451097D01*
X-1485713Y41451097D02*
X-1599999Y41451097D01*
X-1599999Y41451097D02*
X-1771428Y41508240D01*
X-1771428Y41508240D02*
X-1885713Y41622525D01*
X-1885713Y41622525D02*
X-1942856Y41736811D01*
X-1942856Y41736811D02*
X-1999999Y41965382D01*
X-1999999Y41965382D02*
X-1999999Y42136811D01*
X-1999999Y42136811D02*
X-1942856Y42365382D01*
X-1942856Y42365382D02*
X-1885713Y42479668D01*
X-1885713Y42479668D02*
X-1771428Y42593954D01*
X-1771428Y42593954D02*
X-1599999Y42651097D01*
X-1599999Y42651097D02*
X-1485713Y42651097D01*
X-1485713Y42651097D02*
X-1314285Y42593954D01*
X-1314285Y42593954D02*
X-1257142Y42536811D01*
X-685713Y41451097D02*
X-457142Y41451097D01*
X-457142Y41451097D02*
X-342856Y41508240D01*
X-342856Y41508240D02*
X-285713Y41565382D01*
X-285713Y41565382D02*
X-171428Y41736811D01*
X-171428Y41736811D02*
X-114285Y41965382D01*
X-114285Y41965382D02*
X-114285Y42422525D01*
X-114285Y42422525D02*
X-171428Y42536811D01*
X-171428Y42536811D02*
X-228571Y42593954D01*
X-228571Y42593954D02*
X-342856Y42651097D01*
X-342856Y42651097D02*
X-571428Y42651097D01*
X-571428Y42651097D02*
X-685713Y42593954D01*
X-685713Y42593954D02*
X-742856Y42536811D01*
X-742856Y42536811D02*
X-799999Y42422525D01*
X-799999Y42422525D02*
X-799999Y42136811D01*
X-799999Y42136811D02*
X-742856Y42022525D01*
X-742856Y42022525D02*
X-685713Y41965382D01*
X-685713Y41965382D02*
X-571428Y41908240D01*
X-571428Y41908240D02*
X-342856Y41908240D01*
X-342856Y41908240D02*
X-228571Y41965382D01*
X-228571Y41965382D02*
X-171428Y42022525D01*
X-171428Y42022525D02*
X-114285Y42136811D01*
X342857Y41793954D02*
X914286Y41793954D01*
X228571Y41451097D02*
X628571Y42651097D01*
X628571Y42651097D02*
X1028571Y41451097D01*
X1657142Y42651097D02*
X1771428Y42651097D01*
X1771428Y42651097D02*
X1885714Y42593954D01*
X1885714Y42593954D02*
X1942857Y42536811D01*
X1942857Y42536811D02*
X1999999Y42422525D01*
X1999999Y42422525D02*
X2057142Y42193954D01*
X2057142Y42193954D02*
X2057142Y41908240D01*
X2057142Y41908240D02*
X1999999Y41679668D01*
X1999999Y41679668D02*
X1942857Y41565382D01*
X1942857Y41565382D02*
X1885714Y41508240D01*
X1885714Y41508240D02*
X1771428Y41451097D01*
X1771428Y41451097D02*
X1657142Y41451097D01*
X1657142Y41451097D02*
X1542857Y41508240D01*
X1542857Y41508240D02*
X1485714Y41565382D01*
X1485714Y41565382D02*
X1428571Y41679668D01*
X1428571Y41679668D02*
X1371428Y41908240D01*
X1371428Y41908240D02*
X1371428Y42193954D01*
X1371428Y42193954D02*
X1428571Y42422525D01*
X1428571Y42422525D02*
X1485714Y42536811D01*
X1485714Y42536811D02*
X1542857Y42593954D01*
X1542857Y42593954D02*
X1657142Y42651097D01*
X3199999Y41451097D02*
X2514285Y41451097D01*
X2857142Y41451097D02*
X2857142Y42651097D01*
X2857142Y42651097D02*
X2742856Y42479668D01*
X2742856Y42479668D02*
X2628571Y42365382D01*
X2628571Y42365382D02*
X2514285Y42308240D01*
X24577712Y25548331D02*
X23908729Y24115690D01*
X23908729Y24115690D02*
X25303501Y24860413D01*
X24790043Y23280361D02*
X24735496Y23430477D01*
X24735496Y23430477D02*
X24732791Y23531456D01*
X24732791Y23531456D02*
X24779223Y23684277D01*
X24779223Y23684277D02*
X25074045Y23995329D01*
X25074045Y23995329D02*
X25224161Y24049876D01*
X25224161Y24049876D02*
X25325140Y24052581D01*
X25325140Y24052581D02*
X25477961Y24006149D01*
X25477961Y24006149D02*
X25633487Y23858738D01*
X25633487Y23858738D02*
X25688034Y23708622D01*
X25688034Y23708622D02*
X25690739Y23607643D01*
X25690739Y23607643D02*
X25644307Y23454822D01*
X25644307Y23454822D02*
X25349485Y23143769D01*
X25349485Y23143769D02*
X25199369Y23089222D01*
X25199369Y23089222D02*
X25098390Y23086517D01*
X25098390Y23086517D02*
X24945569Y23132949D01*
X24945569Y23132949D02*
X24790043Y23280361D01*
X25619516Y22494168D02*
X26307434Y23219956D01*
X26651393Y23582850D02*
X26550414Y23580145D01*
X26550414Y23580145D02*
X26553119Y23479166D01*
X26553119Y23479166D02*
X26654098Y23481871D01*
X26654098Y23481871D02*
X26651393Y23582850D01*
X26651393Y23582850D02*
X26553119Y23479166D01*
X26653651Y21612407D02*
X26500830Y21658839D01*
X26500830Y21658839D02*
X26293462Y21855387D01*
X26293462Y21855387D02*
X26238915Y22005503D01*
X26238915Y22005503D02*
X26236210Y22106482D01*
X26236210Y22106482D02*
X26282642Y22259303D01*
X26282642Y22259303D02*
X26577464Y22570355D01*
X26577464Y22570355D02*
X26727580Y22624902D01*
X26727580Y22624902D02*
X26828559Y22627607D01*
X26828559Y22627607D02*
X26981380Y22581175D01*
X26981380Y22581175D02*
X27188748Y22384627D01*
X27188748Y22384627D02*
X27243295Y22234511D01*
X27534965Y20777078D02*
X27382144Y20823510D01*
X27382144Y20823510D02*
X27174776Y21020058D01*
X27174776Y21020058D02*
X27120229Y21170174D01*
X27120229Y21170174D02*
X27166661Y21322995D01*
X27166661Y21322995D02*
X27559757Y21737731D01*
X27559757Y21737731D02*
X27709873Y21792278D01*
X27709873Y21792278D02*
X27862694Y21745846D01*
X27862694Y21745846D02*
X28070062Y21549298D01*
X28070062Y21549298D02*
X28124609Y21399182D01*
X28124609Y21399182D02*
X28078177Y21246361D01*
X28078177Y21246361D02*
X27979903Y21142677D01*
X27979903Y21142677D02*
X27363209Y21530363D01*
X29076700Y19807862D02*
X29595120Y19316492D01*
X28678194Y19595084D02*
X30072965Y20339808D01*
X30072965Y20339808D02*
X29403982Y18907166D01*
X29764171Y18664186D02*
X29818718Y18514070D01*
X29818718Y18514070D02*
X30026086Y18317522D01*
X30026086Y18317522D02*
X30178907Y18271090D01*
X30178907Y18271090D02*
X30329023Y18325637D01*
X30329023Y18325637D02*
X30378160Y18377479D01*
X30378160Y18377479D02*
X30424592Y18530300D01*
X30424592Y18530300D02*
X30370045Y18680416D01*
X30370045Y18680416D02*
X30214519Y18827827D01*
X30214519Y18827827D02*
X30159972Y18977943D01*
X30159972Y18977943D02*
X30206404Y19130764D01*
X30206404Y19130764D02*
X30255541Y19182606D01*
X30255541Y19182606D02*
X30405657Y19237153D01*
X30405657Y19237153D02*
X30558478Y19190721D01*
X30558478Y19190721D02*
X30714004Y19043310D01*
X30714004Y19043310D02*
X30768551Y18893194D01*
X30645485Y17828857D02*
X30700032Y17678741D01*
X30700032Y17678741D02*
X30907401Y17482193D01*
X30907401Y17482193D02*
X31060222Y17435761D01*
X31060222Y17435761D02*
X31210338Y17490308D01*
X31210338Y17490308D02*
X31259475Y17542150D01*
X31259475Y17542150D02*
X31305907Y17694971D01*
X31305907Y17694971D02*
X31251360Y17845087D01*
X31251360Y17845087D02*
X31095834Y17992498D01*
X31095834Y17992498D02*
X31041287Y18142614D01*
X31041287Y18142614D02*
X31087719Y18295435D01*
X31087719Y18295435D02*
X31136856Y18347277D01*
X31136856Y18347277D02*
X31286972Y18401824D01*
X31286972Y18401824D02*
X31439793Y18355392D01*
X31439793Y18355392D02*
X31595319Y18207981D01*
X31595319Y18207981D02*
X31649866Y18057865D01*
X31529505Y16892548D02*
X32217423Y17618336D01*
X32561382Y17981231D02*
X32460403Y17978526D01*
X32460403Y17978526D02*
X32463108Y17877546D01*
X32463108Y17877546D02*
X32564087Y17880251D01*
X32564087Y17880251D02*
X32561382Y17981231D01*
X32561382Y17981231D02*
X32463108Y17877546D01*
X32045220Y16502157D02*
X32099767Y16352041D01*
X32099767Y16352041D02*
X32307135Y16155493D01*
X32307135Y16155493D02*
X32459956Y16109061D01*
X32459956Y16109061D02*
X32610072Y16163608D01*
X32610072Y16163608D02*
X32659209Y16215450D01*
X32659209Y16215450D02*
X32705641Y16368271D01*
X32705641Y16368271D02*
X32651094Y16518387D01*
X32651094Y16518387D02*
X32495568Y16665798D01*
X32495568Y16665798D02*
X32441021Y16815914D01*
X32441021Y16815914D02*
X32487453Y16968735D01*
X32487453Y16968735D02*
X32536590Y17020577D01*
X32536590Y17020577D02*
X32686706Y17075124D01*
X32686706Y17075124D02*
X32839528Y17028692D01*
X32839528Y17028692D02*
X32995054Y16881281D01*
X32995054Y16881281D02*
X33049601Y16731165D01*
X33461632Y16439048D02*
X33876368Y16045951D01*
X33961117Y16654531D02*
X33076651Y15721374D01*
X33076651Y15721374D02*
X33030219Y15568553D01*
X33030219Y15568553D02*
X33084766Y15418437D01*
X33084766Y15418437D02*
X33188450Y15320163D01*
X34017922Y14533971D02*
X34558429Y15104233D01*
X34558429Y15104233D02*
X34604861Y15257054D01*
X34604861Y15257054D02*
X34550314Y15407170D01*
X34550314Y15407170D02*
X34342946Y15603718D01*
X34342946Y15603718D02*
X34190125Y15650150D01*
X34067059Y14585813D02*
X33914238Y14632245D01*
X33914238Y14632245D02*
X33655028Y14877930D01*
X33655028Y14877930D02*
X33600481Y15028046D01*
X33600481Y15028046D02*
X33646913Y15180867D01*
X33646913Y15180867D02*
X33745187Y15284551D01*
X33745187Y15284551D02*
X33895303Y15339098D01*
X33895303Y15339098D02*
X34048124Y15292666D01*
X34048124Y15292666D02*
X34307334Y15046981D01*
X34307334Y15046981D02*
X34460155Y15000549D01*
X35224261Y14768389D02*
X34536342Y14042601D01*
X35125987Y14664705D02*
X35226966Y14667410D01*
X35226966Y14667410D02*
X35379787Y14620978D01*
X35379787Y14620978D02*
X35535313Y14473567D01*
X35535313Y14473567D02*
X35589860Y14323451D01*
X35589860Y14323451D02*
X35543428Y14170630D01*
X35543428Y14170630D02*
X35002920Y13600367D01*
X36053733Y13982196D02*
X36468469Y13589100D01*
X36553218Y14197679D02*
X35668752Y13264523D01*
X35668752Y13264523D02*
X35622320Y13111702D01*
X35622320Y13111702D02*
X35676867Y12961586D01*
X35676867Y12961586D02*
X35780551Y12863312D01*
X38523215Y12330473D02*
X38004794Y12821843D01*
X38004794Y12821843D02*
X37461582Y12352560D01*
X37461582Y12352560D02*
X37562561Y12355265D01*
X37562561Y12355265D02*
X37715382Y12308833D01*
X37715382Y12308833D02*
X37974592Y12063148D01*
X37974592Y12063148D02*
X38029139Y11913032D01*
X38029139Y11913032D02*
X38031844Y11812053D01*
X38031844Y11812053D02*
X37985412Y11659232D01*
X37985412Y11659232D02*
X37739727Y11400022D01*
X37739727Y11400022D02*
X37589611Y11345475D01*
X37589611Y11345475D02*
X37488632Y11342770D01*
X37488632Y11342770D02*
X37335811Y11389202D01*
X37335811Y11389202D02*
X37076601Y11634887D01*
X37076601Y11634887D02*
X37022054Y11785003D01*
X37022054Y11785003D02*
X37019349Y11885982D01*
D11*
X54496667Y17502800D02*
X54639524Y17455180D01*
X54639524Y17455180D02*
X54877619Y17455180D01*
X54877619Y17455180D02*
X54972857Y17502800D01*
X54972857Y17502800D02*
X55020476Y17550419D01*
X55020476Y17550419D02*
X55068095Y17645657D01*
X55068095Y17645657D02*
X55068095Y17740895D01*
X55068095Y17740895D02*
X55020476Y17836133D01*
X55020476Y17836133D02*
X54972857Y17883752D01*
X54972857Y17883752D02*
X54877619Y17931371D01*
X54877619Y17931371D02*
X54687143Y17978990D01*
X54687143Y17978990D02*
X54591905Y18026609D01*
X54591905Y18026609D02*
X54544286Y18074228D01*
X54544286Y18074228D02*
X54496667Y18169466D01*
X54496667Y18169466D02*
X54496667Y18264704D01*
X54496667Y18264704D02*
X54544286Y18359942D01*
X54544286Y18359942D02*
X54591905Y18407561D01*
X54591905Y18407561D02*
X54687143Y18455180D01*
X54687143Y18455180D02*
X54925238Y18455180D01*
X54925238Y18455180D02*
X55068095Y18407561D01*
X55401429Y18455180D02*
X55639524Y17455180D01*
X55639524Y17455180D02*
X55830000Y18169466D01*
X55830000Y18169466D02*
X56020476Y17455180D01*
X56020476Y17455180D02*
X56258572Y18455180D01*
X57163333Y17455180D02*
X56591905Y17455180D01*
X56877619Y17455180D02*
X56877619Y18455180D01*
X56877619Y18455180D02*
X56782381Y18312323D01*
X56782381Y18312323D02*
X56687143Y18217085D01*
X56687143Y18217085D02*
X56591905Y18169466D01*
X-31167058Y-46948688D02*
X-31197398Y-46368216D01*
X-31651657Y-46645877D02*
X-31121737Y-45797829D01*
X-31121737Y-45797829D02*
X-30798672Y-45999703D01*
X-30798672Y-45999703D02*
X-30743139Y-46090555D01*
X-30743139Y-46090555D02*
X-30727990Y-46156172D01*
X-30727990Y-46156172D02*
X-30738076Y-46262173D01*
X-30738076Y-46262173D02*
X-30813778Y-46383323D01*
X-30813778Y-46383323D02*
X-30904630Y-46438855D01*
X-30904630Y-46438855D02*
X-30970248Y-46454004D01*
X-30970248Y-46454004D02*
X-31076248Y-46443919D01*
X-31076248Y-46443919D02*
X-31399314Y-46242045D01*
X-30359393Y-47453373D02*
X-30843992Y-47150562D01*
X-30601692Y-47301968D02*
X-30071773Y-46453920D01*
X-30071773Y-46453920D02*
X-30228242Y-46524601D01*
X-30228242Y-46524601D02*
X-30359477Y-46554899D01*
X-30359477Y-46554899D02*
X-30465478Y-46544814D01*
X19064819Y50976666D02*
X19779104Y50976666D01*
X19779104Y50976666D02*
X19921961Y50929047D01*
X19921961Y50929047D02*
X20017200Y50833809D01*
X20017200Y50833809D02*
X20064819Y50690952D01*
X20064819Y50690952D02*
X20064819Y50595714D01*
X19064819Y51929047D02*
X19064819Y51452857D01*
X19064819Y51452857D02*
X19541009Y51405238D01*
X19541009Y51405238D02*
X19493390Y51452857D01*
X19493390Y51452857D02*
X19445771Y51548095D01*
X19445771Y51548095D02*
X19445771Y51786190D01*
X19445771Y51786190D02*
X19493390Y51881428D01*
X19493390Y51881428D02*
X19541009Y51929047D01*
X19541009Y51929047D02*
X19636247Y51976666D01*
X19636247Y51976666D02*
X19874342Y51976666D01*
X19874342Y51976666D02*
X19969580Y51929047D01*
X19969580Y51929047D02*
X20017200Y51881428D01*
X20017200Y51881428D02*
X20064819Y51786190D01*
X20064819Y51786190D02*
X20064819Y51548095D01*
X20064819Y51548095D02*
X20017200Y51452857D01*
X20017200Y51452857D02*
X19969580Y51405238D01*
X41712259Y-27953712D02*
X41433165Y-28611215D01*
X41433165Y-28611215D02*
X41333513Y-28724110D01*
X41333513Y-28724110D02*
X41208633Y-28774565D01*
X41208633Y-28774565D02*
X41058526Y-28762579D01*
X41058526Y-28762579D02*
X40970859Y-28725367D01*
X42545097Y-28307231D02*
X42369762Y-28232806D01*
X42369762Y-28232806D02*
X42263489Y-28239427D01*
X42263489Y-28239427D02*
X42201049Y-28264654D01*
X42201049Y-28264654D02*
X42057563Y-28358942D01*
X42057563Y-28358942D02*
X41939305Y-28515670D01*
X41939305Y-28515670D02*
X41790455Y-28866339D01*
X41790455Y-28866339D02*
X41797076Y-28972612D01*
X41797076Y-28972612D02*
X41822303Y-29035052D01*
X41822303Y-29035052D02*
X41891364Y-29116098D01*
X41891364Y-29116098D02*
X42066698Y-29190523D01*
X42066698Y-29190523D02*
X42172972Y-29183902D01*
X42172972Y-29183902D02*
X42235411Y-29158675D01*
X42235411Y-29158675D02*
X42316458Y-29089614D01*
X42316458Y-29089614D02*
X42409489Y-28870446D01*
X42409489Y-28870446D02*
X42402868Y-28764173D01*
X42402868Y-28764173D02*
X42377640Y-28701733D01*
X42377640Y-28701733D02*
X42308579Y-28620687D01*
X42308579Y-28620687D02*
X42133245Y-28546262D01*
X42133245Y-28546262D02*
X42026972Y-28552883D01*
X42026972Y-28552883D02*
X41964532Y-28578110D01*
X41964532Y-28578110D02*
X41883486Y-28647171D01*
X36729116Y-32061790D02*
X37386619Y-32340884D01*
X37386619Y-32340884D02*
X37499514Y-32440536D01*
X37499514Y-32440536D02*
X37549969Y-32565416D01*
X37549969Y-32565416D02*
X37537983Y-32715523D01*
X37537983Y-32715523D02*
X37500771Y-32803190D01*
X36877966Y-31711122D02*
X37138453Y-31097452D01*
X37138453Y-31097452D02*
X37891502Y-31882685D01*
X25414819Y30190476D02*
X26129104Y30190476D01*
X26129104Y30190476D02*
X26271961Y30142857D01*
X26271961Y30142857D02*
X26367200Y30047619D01*
X26367200Y30047619D02*
X26414819Y29904762D01*
X26414819Y29904762D02*
X26414819Y29809524D01*
X26414819Y31190476D02*
X26414819Y30619048D01*
X26414819Y30904762D02*
X25414819Y30904762D01*
X25414819Y30904762D02*
X25557676Y30809524D01*
X25557676Y30809524D02*
X25652914Y30714286D01*
X25652914Y30714286D02*
X25700533Y30619048D01*
X26414819Y32142857D02*
X26414819Y31571429D01*
X26414819Y31857143D02*
X25414819Y31857143D01*
X25414819Y31857143D02*
X25557676Y31761905D01*
X25557676Y31761905D02*
X25652914Y31666667D01*
X25652914Y31666667D02*
X25700533Y31571429D01*
X3666666Y-64764819D02*
X3666666Y-65479104D01*
X3666666Y-65479104D02*
X3619047Y-65621961D01*
X3619047Y-65621961D02*
X3523809Y-65717200D01*
X3523809Y-65717200D02*
X3380952Y-65764819D01*
X3380952Y-65764819D02*
X3285714Y-65764819D01*
X4571428Y-65098152D02*
X4571428Y-65764819D01*
X4333333Y-64717200D02*
X4095238Y-65431485D01*
X4095238Y-65431485D02*
X4714285Y-65431485D01*
X-30908975Y-49058662D02*
X-31287489Y-49664410D01*
X-31287489Y-49664410D02*
X-31403575Y-49760326D01*
X-31403575Y-49760326D02*
X-31534810Y-49790624D01*
X-31534810Y-49790624D02*
X-31681194Y-49755304D01*
X-31681194Y-49755304D02*
X-31761961Y-49704836D01*
X-30590846Y-50436629D02*
X-31075445Y-50133818D01*
X-30833146Y-50285224D02*
X-30303227Y-49437176D01*
X-30303227Y-49437176D02*
X-30459696Y-49507857D01*
X-30459696Y-49507857D02*
X-30590931Y-49538155D01*
X-30590931Y-49538155D02*
X-30696932Y-49528070D01*
X-29788330Y-49871222D02*
X-29722712Y-49856073D01*
X-29722712Y-49856073D02*
X-29616711Y-49866158D01*
X-29616711Y-49866158D02*
X-29414795Y-49992329D01*
X-29414795Y-49992329D02*
X-29359263Y-50083181D01*
X-29359263Y-50083181D02*
X-29344114Y-50148798D01*
X-29344114Y-50148798D02*
X-29354199Y-50254799D01*
X-29354199Y-50254799D02*
X-29404668Y-50335566D01*
X-29404668Y-50335566D02*
X-29520754Y-50431481D01*
X-29520754Y-50431481D02*
X-30308164Y-50613269D01*
X-30308164Y-50613269D02*
X-29783182Y-50941314D01*
X-26209523Y51575180D02*
X-26209523Y50860895D01*
X-26209523Y50860895D02*
X-26257142Y50718038D01*
X-26257142Y50718038D02*
X-26352380Y50622800D01*
X-26352380Y50622800D02*
X-26495237Y50575180D01*
X-26495237Y50575180D02*
X-26590475Y50575180D01*
X-25209523Y50575180D02*
X-25780951Y50575180D01*
X-25495237Y50575180D02*
X-25495237Y51575180D01*
X-25495237Y51575180D02*
X-25590475Y51432323D01*
X-25590475Y51432323D02*
X-25685713Y51337085D01*
X-25685713Y51337085D02*
X-25780951Y51289466D01*
X-24876189Y51575180D02*
X-24257142Y51575180D01*
X-24257142Y51575180D02*
X-24590475Y51194228D01*
X-24590475Y51194228D02*
X-24447618Y51194228D01*
X-24447618Y51194228D02*
X-24352380Y51146609D01*
X-24352380Y51146609D02*
X-24304761Y51098990D01*
X-24304761Y51098990D02*
X-24257142Y51003752D01*
X-24257142Y51003752D02*
X-24257142Y50765657D01*
X-24257142Y50765657D02*
X-24304761Y50670419D01*
X-24304761Y50670419D02*
X-24352380Y50622800D01*
X-24352380Y50622800D02*
X-24447618Y50575180D01*
X-24447618Y50575180D02*
X-24733332Y50575180D01*
X-24733332Y50575180D02*
X-24828570Y50622800D01*
X-24828570Y50622800D02*
X-24876189Y50670419D01*
X-4333333Y-64764819D02*
X-4333333Y-65479104D01*
X-4333333Y-65479104D02*
X-4380952Y-65621961D01*
X-4380952Y-65621961D02*
X-4476190Y-65717200D01*
X-4476190Y-65717200D02*
X-4619047Y-65764819D01*
X-4619047Y-65764819D02*
X-4714285Y-65764819D01*
X-3952380Y-64764819D02*
X-3333333Y-64764819D01*
X-3333333Y-64764819D02*
X-3666666Y-65145771D01*
X-3666666Y-65145771D02*
X-3523809Y-65145771D01*
X-3523809Y-65145771D02*
X-3428571Y-65193390D01*
X-3428571Y-65193390D02*
X-3380952Y-65241009D01*
X-3380952Y-65241009D02*
X-3333333Y-65336247D01*
X-3333333Y-65336247D02*
X-3333333Y-65574342D01*
X-3333333Y-65574342D02*
X-3380952Y-65669580D01*
X-3380952Y-65669580D02*
X-3428571Y-65717200D01*
X-3428571Y-65717200D02*
X-3523809Y-65764819D01*
X-3523809Y-65764819D02*
X-3809523Y-65764819D01*
X-3809523Y-65764819D02*
X-3904761Y-65717200D01*
X-3904761Y-65717200D02*
X-3952380Y-65669580D01*
X-57033333Y33985180D02*
X-57033333Y33270895D01*
X-57033333Y33270895D02*
X-57080952Y33128038D01*
X-57080952Y33128038D02*
X-57176190Y33032800D01*
X-57176190Y33032800D02*
X-57319047Y32985180D01*
X-57319047Y32985180D02*
X-57414285Y32985180D01*
X-56033333Y32985180D02*
X-56604761Y32985180D01*
X-56319047Y32985180D02*
X-56319047Y33985180D01*
X-56319047Y33985180D02*
X-56414285Y33842323D01*
X-56414285Y33842323D02*
X-56509523Y33747085D01*
X-56509523Y33747085D02*
X-56604761Y33699466D01*
X-10935180Y-50269523D02*
X-10220895Y-50269523D01*
X-10220895Y-50269523D02*
X-10078038Y-50317142D01*
X-10078038Y-50317142D02*
X-9982800Y-50412380D01*
X-9982800Y-50412380D02*
X-9935180Y-50555237D01*
X-9935180Y-50555237D02*
X-9935180Y-50650475D01*
X-9935180Y-49269523D02*
X-9935180Y-49840951D01*
X-9935180Y-49555237D02*
X-10935180Y-49555237D01*
X-10935180Y-49555237D02*
X-10792323Y-49650475D01*
X-10792323Y-49650475D02*
X-10697085Y-49745713D01*
X-10697085Y-49745713D02*
X-10649466Y-49840951D01*
X-10935180Y-48650475D02*
X-10935180Y-48555237D01*
X-10935180Y-48555237D02*
X-10887561Y-48459999D01*
X-10887561Y-48459999D02*
X-10839942Y-48412380D01*
X-10839942Y-48412380D02*
X-10744704Y-48364761D01*
X-10744704Y-48364761D02*
X-10554228Y-48317142D01*
X-10554228Y-48317142D02*
X-10316133Y-48317142D01*
X-10316133Y-48317142D02*
X-10125657Y-48364761D01*
X-10125657Y-48364761D02*
X-10030419Y-48412380D01*
X-10030419Y-48412380D02*
X-9982800Y-48459999D01*
X-9982800Y-48459999D02*
X-9935180Y-48555237D01*
X-9935180Y-48555237D02*
X-9935180Y-48650475D01*
X-9935180Y-48650475D02*
X-9982800Y-48745713D01*
X-9982800Y-48745713D02*
X-10030419Y-48793332D01*
X-10030419Y-48793332D02*
X-10125657Y-48840951D01*
X-10125657Y-48840951D02*
X-10316133Y-48888570D01*
X-10316133Y-48888570D02*
X-10554228Y-48888570D01*
X-10554228Y-48888570D02*
X-10744704Y-48840951D01*
X-10744704Y-48840951D02*
X-10839942Y-48793332D01*
X-10839942Y-48793332D02*
X-10887561Y-48745713D01*
X-10887561Y-48745713D02*
X-10935180Y-48650475D01*
X-26078758Y-50128188D02*
X-26109098Y-49547716D01*
X-26563357Y-49825377D02*
X-26033437Y-48977329D01*
X-26033437Y-48977329D02*
X-25710372Y-49179203D01*
X-25710372Y-49179203D02*
X-25654839Y-49270055D01*
X-25654839Y-49270055D02*
X-25639690Y-49335672D01*
X-25639690Y-49335672D02*
X-25649776Y-49441673D01*
X-25649776Y-49441673D02*
X-25725478Y-49562823D01*
X-25725478Y-49562823D02*
X-25816330Y-49618355D01*
X-25816330Y-49618355D02*
X-25881948Y-49633504D01*
X-25881948Y-49633504D02*
X-25987948Y-49623419D01*
X-25987948Y-49623419D02*
X-26311014Y-49421545D01*
X-25276241Y-49562781D02*
X-25210624Y-49547632D01*
X-25210624Y-49547632D02*
X-25104623Y-49557717D01*
X-25104623Y-49557717D02*
X-24902707Y-49683888D01*
X-24902707Y-49683888D02*
X-24847174Y-49774740D01*
X-24847174Y-49774740D02*
X-24832025Y-49840357D01*
X-24832025Y-49840357D02*
X-24842111Y-49946358D01*
X-24842111Y-49946358D02*
X-24892579Y-50027125D01*
X-24892579Y-50027125D02*
X-25008665Y-50123040D01*
X-25008665Y-50123040D02*
X-25796075Y-50304828D01*
X-25796075Y-50304828D02*
X-25271093Y-50632873D01*
X-31633333Y33985180D02*
X-31633333Y33270895D01*
X-31633333Y33270895D02*
X-31680952Y33128038D01*
X-31680952Y33128038D02*
X-31776190Y33032800D01*
X-31776190Y33032800D02*
X-31919047Y32985180D01*
X-31919047Y32985180D02*
X-32014285Y32985180D01*
X-31204761Y33889942D02*
X-31157142Y33937561D01*
X-31157142Y33937561D02*
X-31061904Y33985180D01*
X-31061904Y33985180D02*
X-30823809Y33985180D01*
X-30823809Y33985180D02*
X-30728571Y33937561D01*
X-30728571Y33937561D02*
X-30680952Y33889942D01*
X-30680952Y33889942D02*
X-30633333Y33794704D01*
X-30633333Y33794704D02*
X-30633333Y33699466D01*
X-30633333Y33699466D02*
X-30680952Y33556609D01*
X-30680952Y33556609D02*
X-31252380Y32985180D01*
X-31252380Y32985180D02*
X-30633333Y32985180D01*
X-12205180Y62666666D02*
X-11490895Y62666666D01*
X-11490895Y62666666D02*
X-11348038Y62619047D01*
X-11348038Y62619047D02*
X-11252800Y62523809D01*
X-11252800Y62523809D02*
X-11205180Y62380952D01*
X-11205180Y62380952D02*
X-11205180Y62285714D01*
X-11776609Y63285714D02*
X-11824228Y63190476D01*
X-11824228Y63190476D02*
X-11871847Y63142857D01*
X-11871847Y63142857D02*
X-11967085Y63095238D01*
X-11967085Y63095238D02*
X-12014704Y63095238D01*
X-12014704Y63095238D02*
X-12109942Y63142857D01*
X-12109942Y63142857D02*
X-12157561Y63190476D01*
X-12157561Y63190476D02*
X-12205180Y63285714D01*
X-12205180Y63285714D02*
X-12205180Y63476190D01*
X-12205180Y63476190D02*
X-12157561Y63571428D01*
X-12157561Y63571428D02*
X-12109942Y63619047D01*
X-12109942Y63619047D02*
X-12014704Y63666666D01*
X-12014704Y63666666D02*
X-11967085Y63666666D01*
X-11967085Y63666666D02*
X-11871847Y63619047D01*
X-11871847Y63619047D02*
X-11824228Y63571428D01*
X-11824228Y63571428D02*
X-11776609Y63476190D01*
X-11776609Y63476190D02*
X-11776609Y63285714D01*
X-11776609Y63285714D02*
X-11728990Y63190476D01*
X-11728990Y63190476D02*
X-11681371Y63142857D01*
X-11681371Y63142857D02*
X-11586133Y63095238D01*
X-11586133Y63095238D02*
X-11395657Y63095238D01*
X-11395657Y63095238D02*
X-11300419Y63142857D01*
X-11300419Y63142857D02*
X-11252800Y63190476D01*
X-11252800Y63190476D02*
X-11205180Y63285714D01*
X-11205180Y63285714D02*
X-11205180Y63476190D01*
X-11205180Y63476190D02*
X-11252800Y63571428D01*
X-11252800Y63571428D02*
X-11300419Y63619047D01*
X-11300419Y63619047D02*
X-11395657Y63666666D01*
X-11395657Y63666666D02*
X-11586133Y63666666D01*
X-11586133Y63666666D02*
X-11681371Y63619047D01*
X-11681371Y63619047D02*
X-11728990Y63571428D01*
X-11728990Y63571428D02*
X-11776609Y63476190D01*
X-12205180Y-41063333D02*
X-11490895Y-41063333D01*
X-11490895Y-41063333D02*
X-11348038Y-41110952D01*
X-11348038Y-41110952D02*
X-11252800Y-41206190D01*
X-11252800Y-41206190D02*
X-11205180Y-41349047D01*
X-11205180Y-41349047D02*
X-11205180Y-41444285D01*
X-11205180Y-40539523D02*
X-11205180Y-40349047D01*
X-11205180Y-40349047D02*
X-11252800Y-40253809D01*
X-11252800Y-40253809D02*
X-11300419Y-40206190D01*
X-11300419Y-40206190D02*
X-11443276Y-40110952D01*
X-11443276Y-40110952D02*
X-11633752Y-40063333D01*
X-11633752Y-40063333D02*
X-12014704Y-40063333D01*
X-12014704Y-40063333D02*
X-12109942Y-40110952D01*
X-12109942Y-40110952D02*
X-12157561Y-40158571D01*
X-12157561Y-40158571D02*
X-12205180Y-40253809D01*
X-12205180Y-40253809D02*
X-12205180Y-40444285D01*
X-12205180Y-40444285D02*
X-12157561Y-40539523D01*
X-12157561Y-40539523D02*
X-12109942Y-40587142D01*
X-12109942Y-40587142D02*
X-12014704Y-40634761D01*
X-12014704Y-40634761D02*
X-11776609Y-40634761D01*
X-11776609Y-40634761D02*
X-11681371Y-40587142D01*
X-11681371Y-40587142D02*
X-11633752Y-40539523D01*
X-11633752Y-40539523D02*
X-11586133Y-40444285D01*
X-11586133Y-40444285D02*
X-11586133Y-40253809D01*
X-11586133Y-40253809D02*
X-11633752Y-40158571D01*
X-11633752Y-40158571D02*
X-11681371Y-40110952D01*
X-11681371Y-40110952D02*
X-11776609Y-40063333D01*
%TO.C,SW1*%
D10*
X50140000Y16110000D02*
X50140000Y13600000D01*
X50140000Y16110000D02*
X62360000Y16110000D01*
X50140000Y11300000D02*
X50140000Y8700000D01*
X50140000Y6400000D02*
X50140000Y3890000D01*
X62360000Y16110000D02*
X62360000Y13600000D01*
X62360000Y11300000D02*
X62360000Y8700000D01*
X62360000Y6400000D02*
X62360000Y3890000D01*
X62360000Y3890000D02*
X50140000Y3890000D01*
X59800000Y10000000D02*
G75*
G02*
X52700000Y10000000I-3550000J0D01*
G01*
X52700000Y10000000D02*
G75*
G02*
X59800000Y10000000I3550000J0D01*
G01*
%TO.C,R1*%
X-31262789Y-49468678D02*
X-30860377Y-49720133D01*
X-30709023Y-48582467D02*
X-30306611Y-48833922D01*
%TO.C,J5*%
X21050000Y52640000D02*
X22380000Y52640000D01*
X21050000Y51310000D02*
X21050000Y52640000D01*
X23650000Y52640000D02*
X38950000Y52640000D01*
X23650000Y49980000D02*
X23650000Y52640000D01*
X23650000Y49980000D02*
X38950000Y49980000D01*
X38950000Y49980000D02*
X38950000Y52640000D01*
%TO.C,J6*%
X41144456Y-26740599D02*
X41664129Y-25516328D01*
X42160357Y-24347286D02*
X50123457Y-5587398D01*
X42368728Y-27260271D02*
X41144456Y-26740599D01*
X44608900Y-25386631D02*
X42160357Y-24347286D01*
X44608900Y-25386631D02*
X52572000Y-6626742D01*
X52572000Y-6626742D02*
X50123457Y-5587398D01*
%TO.C,J7*%
X38686729Y-32530628D02*
X39206401Y-31306356D01*
X39206401Y-31306356D02*
X40430672Y-31826029D01*
X40560369Y-34770800D02*
X41599714Y-32322257D01*
X40560369Y-34770800D02*
X52306011Y-39756529D01*
X41599714Y-32322257D02*
X53345355Y-37307986D01*
X52306011Y-39756529D02*
X53345355Y-37307986D01*
%TO.C,J11*%
X27400000Y32330000D02*
X28730000Y32330000D01*
X27400000Y31000000D02*
X27400000Y32330000D01*
X30000000Y32330000D02*
X32600000Y32330000D01*
X30000000Y29670000D02*
X30000000Y32330000D01*
X30000000Y29670000D02*
X32600000Y29670000D01*
X32600000Y29670000D02*
X32600000Y32330000D01*
%TO.C,J4*%
X2670000Y-61270000D02*
X2670000Y-56130000D01*
X2670000Y-63870000D02*
X2670000Y-62540000D01*
X4000000Y-63870000D02*
X2670000Y-63870000D01*
X5330000Y-56130000D02*
X2670000Y-56130000D01*
X5330000Y-61270000D02*
X2670000Y-61270000D01*
X5330000Y-61270000D02*
X5330000Y-56130000D01*
%TO.C,J12*%
X-35715986Y-49598553D02*
X-36579754Y-50980872D01*
X-27913943Y-54473810D02*
X-28777712Y-55856129D01*
%TO.C,J13*%
X-26730000Y46990000D02*
X-26730000Y39310000D01*
X-26730000Y46990000D02*
X-24070000Y46990000D01*
X-26730000Y39310000D02*
X-24070000Y39310000D01*
X-25400000Y49590000D02*
X-24070000Y49590000D01*
X-24070000Y49590000D02*
X-24070000Y48260000D01*
X-24070000Y46990000D02*
X-24070000Y39310000D01*
%TO.C,J3*%
X-5330000Y-61270000D02*
X-5330000Y-56130000D01*
X-5330000Y-63870000D02*
X-5330000Y-62540000D01*
X-4000000Y-63870000D02*
X-5330000Y-63870000D01*
X-2670000Y-56130000D02*
X-5330000Y-56130000D01*
X-2670000Y-61270000D02*
X-5330000Y-61270000D01*
X-2670000Y-61270000D02*
X-2670000Y-56130000D01*
%TO.C,J1*%
X-58030000Y29400000D02*
X-58030000Y-24000000D01*
X-58030000Y29400000D02*
X-55370000Y29400000D01*
X-58030000Y-24000000D02*
X-55370000Y-24000000D01*
X-56700000Y32000000D02*
X-55370000Y32000000D01*
X-55370000Y32000000D02*
X-55370000Y30670000D01*
X-55370000Y29400000D02*
X-55370000Y-24000000D01*
%TO.C,J10*%
X-8950000Y-48130000D02*
X-7620000Y-48130000D01*
X-8950000Y-49460000D02*
X-8950000Y-48130000D01*
X-6350000Y-48130000D02*
X8950000Y-48130000D01*
X-6350000Y-50790000D02*
X-6350000Y-48130000D01*
X-6350000Y-50790000D02*
X8950000Y-50790000D01*
X8950000Y-50790000D02*
X8950000Y-48130000D01*
%TO.C,R2*%
X-26174489Y-52648178D02*
X-25772077Y-52899633D01*
X-25620723Y-51761967D02*
X-25218311Y-52013422D01*
%TO.C,J2*%
X-32630000Y29400000D02*
X-32630000Y-24000000D01*
X-32630000Y29400000D02*
X-29970000Y29400000D01*
X-32630000Y-24000000D02*
X-29970000Y-24000000D01*
X-31300000Y32000000D02*
X-29970000Y32000000D01*
X-29970000Y32000000D02*
X-29970000Y30670000D01*
X-29970000Y29400000D02*
X-29970000Y-24000000D01*
%TO.C,J8*%
X-10220000Y64330000D02*
X-8890000Y64330000D01*
X-10220000Y63000000D02*
X-10220000Y64330000D01*
X-7620000Y64330000D02*
X10220000Y64330000D01*
X-7620000Y61670000D02*
X-7620000Y64330000D01*
X-7620000Y61670000D02*
X10220000Y61670000D01*
X10220000Y61670000D02*
X10220000Y64330000D01*
%TO.C,J9*%
X-10220000Y-39400000D02*
X-8890000Y-39400000D01*
X-10220000Y-40730000D02*
X-10220000Y-39400000D01*
X-7620000Y-39400000D02*
X10220000Y-39400000D01*
X-7620000Y-42060000D02*
X-7620000Y-39400000D01*
X-7620000Y-42060000D02*
X10220000Y-42060000D01*
X10220000Y-42060000D02*
X10220000Y-39400000D01*
%TD*%
M02*
