M48
; DRILL file KiCad 10.0.1 date 2026-06-16T09:21:58
; FORMAT={-:-/ absolute / metric / decimal}
; #@! TF.CreationDate,2026-06-16T09:21:58+03:00
; #@! TF.GenerationSoftware,Kicad,Pcbnew,10.0.1
; #@! TF.FileFunction,Plated,1,2,PTH
FMAT,2
METRIC
; #@! TA.AperFunction,Plated,PTH,ViaDrill
T1C0.300
; #@! TA.AperFunction,Plated,PTH,ComponentDrill
T2C1.000
; #@! TA.AperFunction,Plated,PTH,ComponentDrill
T3C1.300
%
G90
G05
T1
X-61.595Y12.065
X-36.501Y-52.622
X-34.735Y-50.201
X-34.275Y-48.061
X-29.356Y-48.859
X-27.832Y-52.621
X-27.296Y-56.59
X-25.897Y-55.032
X-25.4Y56.515
X-24.997Y-51.659
X-22.291Y31.112
X-17.78Y-49.53
X-4.68Y-45.883
X-1.436Y-60.306
X9.031Y-42.834
X13.228Y-24.983
X22.066Y13.264
X22.341Y-39.974
X42.249Y-28.271
X42.38Y-19.345
X45.05Y-16.166
X45.72Y17.78
X48.26Y-24.13
X59.69Y-19.05
T2
X-56.7Y30.67
X-56.7Y28.13
X-56.7Y25.59
X-56.7Y23.05
X-56.7Y20.51
X-56.7Y17.97
X-56.7Y15.43
X-56.7Y12.89
X-56.7Y10.35
X-56.7Y7.81
X-56.7Y5.27
X-56.7Y2.73
X-56.7Y0.19
X-56.7Y-2.35
X-56.7Y-4.89
X-56.7Y-7.43
X-56.7Y-9.97
X-56.7Y-12.51
X-56.7Y-15.05
X-56.7Y-17.59
X-56.7Y-20.13
X-56.7Y-22.67
X-31.3Y30.67
X-31.3Y28.13
X-31.3Y25.59
X-31.3Y23.05
X-31.3Y20.51
X-31.3Y17.97
X-31.3Y15.43
X-31.3Y12.89
X-31.3Y10.35
X-31.3Y7.81
X-31.3Y5.27
X-31.3Y2.73
X-31.3Y0.19
X-31.3Y-2.35
X-31.3Y-4.89
X-31.3Y-7.43
X-31.3Y-9.97
X-31.3Y-12.51
X-31.3Y-15.05
X-31.3Y-17.59
X-31.3Y-20.13
X-31.3Y-22.67
X-25.4Y48.26
X-25.4Y45.72
X-25.4Y43.18
X-25.4Y40.64
X-8.89Y63.0
X-8.89Y-40.73
X-7.62Y-49.46
X-6.35Y63.0
X-6.35Y-40.73
X-5.08Y-49.46
X-4.0Y-57.46
X-4.0Y-60.0
X-4.0Y-62.54
X-3.81Y63.0
X-3.81Y-40.73
X-2.54Y-49.46
X-1.27Y63.0
X-1.27Y-40.73
X0.0Y-49.46
X1.27Y63.0
X1.27Y-40.73
X2.54Y-49.46
X3.81Y63.0
X3.81Y-40.73
X4.0Y-57.46
X4.0Y-60.0
X4.0Y-62.54
X5.08Y-49.46
X6.35Y63.0
X6.35Y-40.73
X7.62Y-49.46
X8.89Y63.0
X8.89Y-40.73
X22.38Y51.31
X24.92Y51.31
X27.46Y51.31
X28.73Y31.0
X30.0Y51.31
X31.27Y31.0
X32.54Y51.31
X35.08Y51.31
X37.62Y51.31
X39.911Y-33.05
X42.249Y-34.043
X42.888Y-26.036
X43.881Y-23.698
X44.587Y-35.035
X44.873Y-21.36
X45.866Y-19.022
X46.858Y-16.684
X46.925Y-36.028
X47.851Y-14.346
X48.843Y-12.008
X49.263Y-37.02
X49.836Y-9.669
X50.828Y-7.331
X51.601Y-38.013
T3
X50.0Y12.5
X50.0Y7.5
X62.5Y12.5
X62.5Y7.5
M30
